<svg width="24" height="24" viewBox="0 0 24 24" fill="none" xmlns="http://www.w3.org/2000/svg">
<path d="M8.37092 14.8776C8.40963 14.9164 8.45561 14.9472 8.50623 14.9682C8.55685 14.9892 8.61112 15 8.66592 15C8.72073 15 8.77499 14.9892 8.82562 14.9682C8.87624 14.9472 8.92222 14.9164 8.96092 14.8776L11.9993 11.8384L15.0376 14.8776C15.0763 14.9164 15.1223 14.9472 15.1729 14.9682C15.2235 14.9892 15.2778 15 15.3326 15C15.3874 15 15.4417 14.9892 15.4923 14.9682C15.5429 14.9472 15.5889 14.9164 15.6276 14.8776L16.8776 13.6276C16.9164 13.5889 16.9472 13.5429 16.9682 13.4923C16.9892 13.4417 17 13.3874 17 13.3326C17 13.2778 16.9892 13.2235 16.9682 13.1729C16.9472 13.1223 16.9164 13.0763 16.8776 13.0376L12.2943 8.45425C12.2556 8.41545 12.2096 8.38467 12.159 8.36366C12.1083 8.34265 12.0541 8.33184 11.9993 8.33184C11.9444 8.33184 11.8902 8.34265 11.8396 8.36366C11.7889 8.38467 11.743 8.41545 11.7043 8.45425L7.12092 13.0376C7.08212 13.0763 7.05133 13.1223 7.03033 13.1729C7.00932 13.2235 6.99851 13.2778 6.99851 13.3326C6.99851 13.3874 7.00932 13.4417 7.03033 13.4923C7.05133 13.5429 7.08212 13.5889 7.12092 13.6276L8.37092 14.8776Z" fill="white"/>
</svg>
