<svg width="125" height="26" viewBox="0 0 125 26" fill="none" xmlns="http://www.w3.org/2000/svg">
<path fill-rule="evenodd" clip-rule="evenodd" d="M4.85948 4.67156C4.48693 2.70097 6.00654 0.877441 8.00654 0.877441C9.77124 0.877441 11.2124 2.30881 11.2124 4.08332V8.0343C11.6536 8.00489 12.1046 7.98528 12.5556 7.98528C12.9967 7.98528 13.4281 8.00489 13.8497 8.0245V4.08332C13.8497 2.31862 15.281 0.877441 17.0556 0.877441C19.0556 0.877441 20.5752 2.70097 20.2026 4.67156L19.3301 9.30881C22.3007 10.6029 24.5556 12.8578 24.5556 15.6912V17.4069C24.5556 19.7402 23.0163 21.6912 20.8595 23.0049C18.683 24.3284 15.7516 25.1225 12.5556 25.1225C9.35948 25.1225 6.42811 24.3382 4.25164 23.0049C2.09477 21.6912 0.555557 19.7402 0.555557 17.4069V15.6912C0.555557 12.8676 2.78105 10.6225 5.73203 9.32842L4.85948 4.67156ZM18.2222 9.91666L19.232 4.48528C19.4967 3.12254 18.4477 1.85783 17.0556 1.85783C15.8301 1.85783 14.8301 2.84803 14.8301 4.08332V9.10293C14.5065 9.06372 14.183 9.0245 13.8497 9.00489C13.4281 8.97548 12.9967 8.95587 12.5556 8.95587C12.0948 8.95587 11.6536 8.97548 11.2124 9.00489C10.8791 9.0343 10.5556 9.06372 10.232 9.10293V4.08332C10.232 2.84803 9.23203 1.85783 8.00654 1.85783C6.61438 1.85783 5.56536 3.12254 5.82026 4.48528L6.83987 9.93626C3.6634 11.1127 1.53595 13.25 1.53595 15.6912V17.4069C1.53595 21.1225 6.46732 24.1421 12.5556 24.1421C18.6438 24.1421 23.5752 21.1225 23.5752 17.4069V15.6912C23.5752 13.2402 21.4281 11.0931 18.2222 9.91666Z" fill="white"/>
<path d="M23.5751 17.4068C23.5751 21.1225 18.6438 24.1421 12.5555 24.1421C6.4673 24.1421 1.53593 21.1323 1.53593 17.4068V15.6911H23.5751V17.4068Z" fill="#C4C4C4"/>
<path fill-rule="evenodd" clip-rule="evenodd" d="M5.82024 4.48527C5.56534 3.12252 6.61436 1.85782 8.00651 1.85782C9.232 1.85782 10.232 2.84801 10.232 4.08331V9.11272C10.9869 9.01468 11.7614 8.96566 12.5555 8.96566C13.3398 8.96566 14.0947 9.01468 14.83 9.11272V4.08331C14.83 2.85782 15.8202 1.85782 17.0555 1.85782C18.4477 1.85782 19.4967 3.12252 19.2418 4.48527L18.232 9.91664C21.4379 11.0931 23.5849 13.2402 23.5849 15.6911C23.5849 19.4068 18.6536 22.4264 12.5653 22.4264C6.4673 22.4264 1.53593 19.4166 1.53593 15.6911C1.53593 13.25 3.66338 11.1127 6.83985 9.93625L5.82024 4.48527Z" fill="white"/>
<path d="M9.49671 15.2009C9.49671 16.2107 8.94769 17.0343 8.27122 17.0343C7.59475 17.0343 7.04573 16.2107 7.04573 15.2009C7.04573 14.1911 7.59475 13.3676 8.27122 13.3676C8.94769 13.3676 9.49671 14.1911 9.49671 15.2009Z" fill="black"/>
<path d="M17.9477 15.2009C17.9477 16.2107 17.3987 17.0343 16.7223 17.0343C16.0458 17.0343 15.4968 16.2107 15.4968 15.2009C15.4968 14.1911 16.0458 13.3676 16.7223 13.3676C17.3987 13.3676 17.9477 14.1911 17.9477 15.2009Z" fill="black"/>
<path d="M33.4164 17.5V8.77273H36.6891C37.3595 8.77273 37.922 8.89773 38.3766 9.14773C38.834 9.39773 39.1791 9.74148 39.4121 10.179C39.6479 10.6136 39.7658 11.108 39.7658 11.6619C39.7658 12.2216 39.6479 12.7187 39.4121 13.1534C39.1763 13.5881 38.8283 13.9304 38.3681 14.1804C37.9078 14.4276 37.3411 14.5511 36.6678 14.5511H34.4987V13.2514H36.4547C36.8468 13.2514 37.1678 13.1832 37.4178 13.0469C37.6678 12.9105 37.8524 12.723 37.9718 12.4844C38.0939 12.2457 38.155 11.9716 38.155 11.6619C38.155 11.3523 38.0939 11.0795 37.9718 10.8438C37.8524 10.608 37.6664 10.4247 37.4135 10.294C37.1635 10.1605 36.8411 10.0938 36.4462 10.0938H34.9973V17.5H33.4164ZM41.2871 17.5H39.5996L42.672 8.77273H44.6237L47.7004 17.5H46.0129L43.682 10.5625H43.6138L41.2871 17.5ZM41.3425 14.0781H45.9448V15.348H41.3425V14.0781ZM56.0218 8.77273V17.5H54.6156L50.5034 11.5554H50.4309V17.5H48.8499V8.77273H50.2647L54.3727 14.7216H54.4494V8.77273H56.0218ZM65.2146 11.7173H63.6209C63.5754 11.456 63.4916 11.2244 63.3695 11.0227C63.2473 10.8182 63.0953 10.6449 62.9135 10.5028C62.7317 10.3608 62.5243 10.2543 62.2914 10.1832C62.0612 10.1094 61.8127 10.0724 61.5456 10.0724C61.0712 10.0724 60.6507 10.1918 60.2843 10.4304C59.9178 10.6662 59.6308 11.0128 59.4235 11.4702C59.2161 11.9247 59.1124 12.4801 59.1124 13.1364C59.1124 13.804 59.2161 14.3665 59.4235 14.8239C59.6337 15.2784 59.9206 15.6222 60.2843 15.8551C60.6507 16.0852 61.0698 16.2003 61.5414 16.2003C61.8027 16.2003 62.047 16.1662 62.2743 16.098C62.5044 16.027 62.7104 15.9233 62.8922 15.7869C63.0769 15.6506 63.2317 15.483 63.3567 15.2841C63.4845 15.0852 63.5726 14.858 63.6209 14.6023L65.2146 14.6108C65.155 15.0256 65.0257 15.4148 64.8269 15.7784C64.6308 16.142 64.3737 16.4631 64.0556 16.7415C63.7374 17.017 63.3652 17.233 62.9391 17.3892C62.5129 17.5426 62.0399 17.6193 61.52 17.6193C60.753 17.6193 60.0683 17.4418 59.4661 17.0866C58.8638 16.7315 58.3894 16.2188 58.0428 15.5483C57.6962 14.8778 57.5229 14.0739 57.5229 13.1364C57.5229 12.196 57.6976 11.392 58.047 10.7244C58.3965 10.054 58.8723 9.54119 59.4746 9.18608C60.0769 8.83097 60.7587 8.65341 61.52 8.65341C62.0058 8.65341 62.4575 8.72159 62.8752 8.85795C63.2928 8.99432 63.6649 9.1946 63.9916 9.45881C64.3183 9.72017 64.5868 10.0412 64.797 10.4219C65.0101 10.7997 65.1493 11.2315 65.2146 11.7173ZM67.6777 17.5H65.9902L69.0627 8.77273H71.0144L74.0911 17.5H72.4036L70.0726 10.5625H70.0044L67.6777 17.5ZM67.7331 14.0781H72.3354V15.348H67.7331V14.0781ZM75.2406 17.5V8.77273H76.8215V12.7827H76.9281L80.3329 8.77273H82.2633L78.8883 12.6889L82.2931 17.5H80.3926L77.7889 13.7585L76.8215 14.9006V17.5H75.2406ZM83.3617 17.5V8.77273H89.0378V10.098H84.9426V12.4673H88.7438V13.7926H84.9426V16.1747H89.0719V17.5H83.3617ZM95.3936 11.1719C95.3539 10.7997 95.1862 10.5099 94.8908 10.3026C94.5982 10.0952 94.2175 9.99148 93.7487 9.99148C93.4192 9.99148 93.1365 10.0412 92.9007 10.1406C92.6649 10.2401 92.4845 10.375 92.3595 10.5455C92.2345 10.7159 92.1706 10.9105 92.1678 11.1293C92.1678 11.3111 92.209 11.4687 92.2914 11.6023C92.3766 11.7358 92.4916 11.8494 92.6365 11.9432C92.7814 12.0341 92.9419 12.1108 93.1181 12.1733C93.2942 12.2358 93.4718 12.2884 93.6507 12.331L94.4689 12.5355C94.7985 12.6122 95.1152 12.7159 95.4192 12.8466C95.726 12.9773 96.0002 13.142 96.2416 13.3409C96.486 13.5398 96.6791 13.7798 96.8212 14.0611C96.9632 14.3423 97.0343 14.6719 97.0343 15.0497C97.0343 15.5611 96.9036 16.0114 96.6422 16.4006C96.3808 16.7869 96.003 17.0895 95.5087 17.3082C95.0172 17.5241 94.422 17.6321 93.7232 17.6321C93.0442 17.6321 92.4547 17.527 91.9547 17.3168C91.4575 17.1065 91.0683 16.7997 90.7871 16.3963C90.5087 15.9929 90.3581 15.5014 90.3354 14.9219H91.8908C91.9135 15.2259 92.0073 15.4787 92.172 15.6804C92.3368 15.8821 92.5513 16.0327 92.8155 16.1321C93.0825 16.2315 93.3808 16.2812 93.7104 16.2812C94.0541 16.2812 94.3553 16.2301 94.6138 16.1278C94.8752 16.0227 95.0797 15.8778 95.2274 15.6932C95.3752 15.5057 95.4504 15.2869 95.4533 15.0369C95.4504 14.8097 95.3837 14.6222 95.253 14.4744C95.1223 14.3239 94.9391 14.1989 94.7033 14.0994C94.4703 13.9972 94.1976 13.9062 93.8851 13.8267L92.8922 13.571C92.1735 13.3864 91.6053 13.1065 91.1877 12.7315C90.7729 12.3537 90.5655 11.8523 90.5655 11.2273C90.5655 10.7131 90.7047 10.2628 90.9831 9.87642C91.2644 9.49006 91.6465 9.19034 92.1294 8.97727C92.6124 8.76136 93.1593 8.65341 93.77 8.65341C94.3894 8.65341 94.932 8.76136 95.3979 8.97727C95.8666 9.19034 96.2345 9.48722 96.5016 9.8679C96.7686 10.2457 96.9064 10.6804 96.9149 11.1719H95.3936ZM100.28 17.5L97.8173 8.77273H99.5176L101.09 15.1861H101.171L102.85 8.77273H104.397L106.08 15.1903H106.157L107.729 8.77273H109.429L106.966 17.5H105.407L103.66 11.3764H103.591L101.84 17.5H100.28ZM110.826 17.5H109.139L112.211 8.77273H114.163L117.24 17.5H115.552L113.221 10.5625H113.153L110.826 17.5ZM110.882 14.0781H115.484V15.348H110.882V14.0781ZM118.389 17.5V8.77273H121.662C122.332 8.77273 122.895 8.89773 123.349 9.14773C123.807 9.39773 124.152 9.74148 124.385 10.179C124.621 10.6136 124.738 11.108 124.738 11.6619C124.738 12.2216 124.621 12.7187 124.385 13.1534C124.149 13.5881 123.801 13.9304 123.341 14.1804C122.88 14.4276 122.314 14.5511 121.64 14.5511H119.471V13.2514H121.427C121.819 13.2514 122.14 13.1832 122.39 13.0469C122.64 12.9105 122.825 12.723 122.944 12.4844C123.067 12.2457 123.128 11.9716 123.128 11.6619C123.128 11.3523 123.067 11.0795 122.944 10.8438C122.825 10.608 122.639 10.4247 122.386 10.294C122.136 10.1605 121.814 10.0938 121.419 10.0938H119.97V17.5H118.389Z" fill="white"/>
</svg>
