<svg width="20" height="20" viewBox="0 0 20 20" fill="none" xmlns="http://www.w3.org/2000/svg">
<g clip-path="url(#clip0_208_5347)">
<path d="M2.71419 6.52148H2.66296C2.00619 6.52148 1.4707 7.05868 1.4707 7.71374V12.9046C1.4707 13.5622 2.00619 14.0977 2.66296 14.0977H2.71506C3.37182 14.0977 3.90731 13.5605 3.90731 12.9046V7.7137C3.90644 7.05868 3.37012 6.52148 2.71419 6.52148Z" fill="white"/>
<path d="M4.47754 14.9082C4.47754 15.5111 4.97031 16.0022 5.57326 16.0022H6.74418V18.806C6.74418 19.4645 7.28137 20 7.93643 20H7.98766C8.6453 20 9.18162 19.4637 9.18162 18.806V16.0022H10.818V18.806C10.818 19.4645 11.3569 20 12.0119 20H12.0623C12.7199 20 13.2554 19.4637 13.2554 18.806V16.0022H14.4272C15.0293 16.0022 15.5221 15.5111 15.5221 14.9082V6.71191H4.47754V14.9082Z" fill="white"/>
<path d="M12.7513 1.74139L13.6813 0.305763C13.7411 0.215215 13.7146 0.0914091 13.6233 0.0324557C13.5328 -0.0273291 13.4089 -0.00254417 13.3499 0.090538L12.3858 1.57574C11.6624 1.27938 10.8545 1.11286 10.0012 1.11286C9.14719 1.11286 8.34097 1.27938 7.61591 1.57574L6.65341 0.090538C6.59449 -0.00254417 6.46978 -0.0273291 6.3784 0.0324557C6.28702 0.0913695 6.26053 0.215215 6.32032 0.305763L7.25122 1.74139C5.573 2.56385 4.44141 4.11394 4.44141 5.89204C4.44141 6.00136 4.44826 6.10897 4.45764 6.21571H15.5457C15.5551 6.10897 15.561 6.00136 15.561 5.89204C15.5611 4.11394 14.4286 2.56385 12.7513 1.74139ZM7.43057 4.31206C7.13592 4.31206 6.89678 4.07462 6.89678 3.77914C6.89678 3.48366 7.13592 3.24706 7.43057 3.24706C7.72692 3.24706 7.96436 3.48362 7.96436 3.77914C7.96436 4.07466 7.72522 4.31206 7.43057 4.31206ZM12.5711 4.31206C12.2764 4.31206 12.0373 4.07462 12.0373 3.77914C12.0373 3.48366 12.2764 3.24706 12.5711 3.24706C12.8666 3.24706 13.104 3.48362 13.104 3.77914C13.104 4.07462 12.8666 4.31206 12.5711 4.31206Z" fill="white"/>
<path d="M17.3372 6.52148H17.2877C16.6309 6.52148 16.0938 7.05868 16.0938 7.71374V12.9046C16.0938 13.5622 16.6318 14.0977 17.2877 14.0977H17.3381C17.9957 14.0977 18.5304 13.5605 18.5304 12.9046V7.7137C18.5304 7.05868 17.994 6.52148 17.3372 6.52148Z" fill="white"/>
</g>
<defs>
<clipPath id="clip0_208_5347">
<rect width="20" height="20" fill="white"/>
</clipPath>
</defs>
</svg>
