<svg width="346" height="178" viewBox="0 0 346 178" fill="none" xmlns="http://www.w3.org/2000/svg">
<g filter="url(#filter0_b_208_12444)">
<rect width="346" height="178" rx="8" fill="#2F3241" fill-opacity="0.5"/>
</g>
<path d="M264.289 150.976C263.265 149.973 262.465 148.699 261.889 147.152C261.323 145.605 261.041 143.936 261.041 142.144C261.041 140.309 261.339 138.597 261.937 137.008C262.545 135.408 263.409 134.091 264.529 133.056H266.049V133.2C264.854 134.32 263.953 135.669 263.345 137.248C262.747 138.816 262.449 140.448 262.449 142.144C262.449 143.797 262.731 145.376 263.297 146.88C263.873 148.384 264.71 149.701 265.809 150.832V150.976H264.289ZM278.124 148L273.532 142.912V148H272.076V136.848H273.532V142.016L278.14 136.848H279.98L274.924 142.432L280.028 148H278.124ZM281.11 142.416C281.11 141.328 281.355 140.352 281.846 139.488C282.337 138.613 283.003 137.931 283.846 137.44C284.699 136.949 285.643 136.704 286.678 136.704C287.894 136.704 288.955 136.997 289.862 137.584C290.769 138.171 291.43 139.003 291.846 140.08H290.102C289.793 139.408 289.345 138.891 288.758 138.528C288.182 138.165 287.489 137.984 286.678 137.984C285.899 137.984 285.201 138.165 284.582 138.528C283.963 138.891 283.478 139.408 283.126 140.08C282.774 140.741 282.598 141.52 282.598 142.416C282.598 143.301 282.774 144.08 283.126 144.752C283.478 145.413 283.963 145.925 284.582 146.288C285.201 146.651 285.899 146.832 286.678 146.832C287.489 146.832 288.182 146.656 288.758 146.304C289.345 145.941 289.793 145.424 290.102 144.752H291.846C291.43 145.819 290.769 146.645 289.862 147.232C288.955 147.808 287.894 148.096 286.678 148.096C285.643 148.096 284.699 147.856 283.846 147.376C283.003 146.885 282.337 146.208 281.846 145.344C281.355 144.48 281.11 143.504 281.11 142.416ZM300.605 145.52H295.741L294.845 148H293.309L297.341 136.912H299.021L303.037 148H301.501L300.605 145.52ZM300.189 144.336L298.173 138.704L296.157 144.336H300.189ZM306.251 146.816H310.155V148H304.795V136.848H306.251V146.816ZM315.502 150.976V150.832C316.601 149.701 317.433 148.384 317.998 146.88C318.574 145.376 318.862 143.797 318.862 142.144C318.862 140.448 318.558 138.816 317.95 137.248C317.353 135.669 316.457 134.32 315.262 133.2V133.056H316.782C317.902 134.091 318.761 135.408 319.358 137.008C319.966 138.597 320.27 140.309 320.27 142.144C320.27 143.936 319.982 145.605 319.406 147.152C318.841 148.699 318.046 149.973 317.022 150.976H315.502Z" fill="#5D6588"/>
<path d="M29.725 143.65C29.975 144.967 30.7417 145.625 32.025 145.625C32.9083 145.625 33.5333 145.233 33.9 144.45C34.2667 143.667 34.45 142.392 34.45 140.625C34.0833 141.142 33.5833 141.542 32.95 141.825C32.3167 142.108 31.6083 142.25 30.825 142.25C29.7583 142.25 28.8083 142.033 27.975 141.6C27.1417 141.15 26.4833 140.492 26 139.625C25.5333 138.742 25.3 137.675 25.3 136.425C25.3 135.192 25.55 134.117 26.05 133.2C26.5667 132.283 27.2917 131.575 28.225 131.075C29.175 130.575 30.2917 130.325 31.575 130.325C34.0417 130.325 35.7667 131.092 36.75 132.625C37.7333 134.158 38.225 136.417 38.225 139.4C38.225 141.567 38.025 143.358 37.625 144.775C37.2417 146.175 36.5833 147.242 35.65 147.975C34.7333 148.708 33.475 149.075 31.875 149.075C30.6083 149.075 29.525 148.825 28.625 148.325C27.7417 147.825 27.0583 147.167 26.575 146.35C26.1083 145.533 25.8417 144.633 25.775 143.65H29.725ZM31.8 138.875C32.5 138.875 33.0583 138.667 33.475 138.25C33.8917 137.817 34.1 137.233 34.1 136.5C34.1 135.7 33.8833 135.083 33.45 134.65C33.0167 134.217 32.4333 134 31.7 134C30.9667 134 30.3833 134.225 29.95 134.675C29.5333 135.108 29.325 135.708 29.325 136.475C29.325 137.192 29.5333 137.775 29.95 138.225C30.3833 138.658 31 138.875 31.8 138.875ZM45.5309 145.05L42.7559 152.225H40.0309L41.4809 145.05H45.5309ZM47.8336 135.9C47.9003 134.117 48.4836 132.742 49.5836 131.775C50.6836 130.808 52.1753 130.325 54.0586 130.325C55.3086 130.325 56.3753 130.542 57.2586 130.975C58.1586 131.408 58.8336 132 59.2836 132.75C59.7503 133.5 59.9836 134.342 59.9836 135.275C59.9836 136.375 59.7086 137.275 59.1586 137.975C58.6086 138.658 57.9669 139.125 57.2336 139.375V139.475C58.1836 139.792 58.9336 140.317 59.4836 141.05C60.0336 141.783 60.3086 142.725 60.3086 143.875C60.3086 144.908 60.0669 145.825 59.5836 146.625C59.1169 147.408 58.4253 148.025 57.5086 148.475C56.6086 148.925 55.5336 149.15 54.2836 149.15C52.2836 149.15 50.6836 148.658 49.4836 147.675C48.3003 146.692 47.6753 145.208 47.6086 143.225H51.7586C51.7753 143.958 51.9836 144.542 52.3836 144.975C52.7836 145.392 53.3669 145.6 54.1336 145.6C54.7836 145.6 55.2836 145.417 55.6336 145.05C56.0003 144.667 56.1836 144.167 56.1836 143.55C56.1836 142.75 55.9253 142.175 55.4086 141.825C54.9086 141.458 54.1003 141.275 52.9836 141.275H52.1836V137.8H52.9836C53.8336 137.8 54.5169 137.658 55.0336 137.375C55.5669 137.075 55.8336 136.55 55.8336 135.8C55.8336 135.2 55.6669 134.733 55.3336 134.4C55.0003 134.067 54.5419 133.9 53.9586 133.9C53.3253 133.9 52.8503 134.092 52.5336 134.475C52.2336 134.858 52.0586 135.333 52.0086 135.9H47.8336ZM62.9203 145.75V142.3L70.8203 131H75.5953V142.05H77.6453V145.75H75.5953V149H71.3203V145.75H62.9203ZM71.6203 135.7L67.4203 142.05H71.6203V135.7ZM92.5893 134.475H84.7893V137.925C85.1226 137.558 85.5893 137.258 86.1893 137.025C86.7893 136.792 87.4393 136.675 88.1393 136.675C89.3893 136.675 90.4226 136.958 91.2393 137.525C92.0726 138.092 92.6809 138.825 93.0643 139.725C93.4476 140.625 93.6393 141.6 93.6393 142.65C93.6393 144.6 93.0893 146.15 91.9893 147.3C90.8893 148.433 89.3393 149 87.3393 149C86.0059 149 84.8476 148.775 83.8643 148.325C82.8809 147.858 82.1226 147.217 81.5893 146.4C81.0559 145.583 80.7643 144.642 80.7143 143.575H84.8893C84.9893 144.092 85.2309 144.525 85.6143 144.875C85.9976 145.208 86.5226 145.375 87.1893 145.375C87.9726 145.375 88.5559 145.125 88.9393 144.625C89.3226 144.125 89.5143 143.458 89.5143 142.625C89.5143 141.808 89.3143 141.183 88.9143 140.75C88.5143 140.317 87.9309 140.1 87.1643 140.1C86.5976 140.1 86.1309 140.242 85.7643 140.525C85.3976 140.792 85.1559 141.15 85.0393 141.6H80.9143V130.725H92.5893V134.475ZM101.024 145.05L98.249 152.225H95.524L96.974 145.05H101.024ZM112.202 135.675C112.068 135.058 111.835 134.6 111.502 134.3C111.168 133.983 110.693 133.825 110.077 133.825C109.127 133.825 108.443 134.242 108.027 135.075C107.61 135.892 107.393 137.192 107.377 138.975C107.743 138.392 108.268 137.933 108.952 137.6C109.652 137.267 110.418 137.1 111.252 137.1C112.885 137.1 114.193 137.617 115.177 138.65C116.177 139.683 116.677 141.125 116.677 142.975C116.677 144.192 116.427 145.258 115.927 146.175C115.443 147.092 114.727 147.808 113.777 148.325C112.843 148.842 111.735 149.1 110.452 149.1C107.885 149.1 106.102 148.3 105.102 146.7C104.102 145.083 103.602 142.767 103.602 139.75C103.602 136.583 104.127 134.233 105.177 132.7C106.243 131.15 107.943 130.375 110.277 130.375C111.527 130.375 112.577 130.625 113.427 131.125C114.293 131.608 114.943 132.25 115.377 133.05C115.827 133.85 116.093 134.725 116.177 135.675H112.202ZM110.227 140.475C109.51 140.475 108.91 140.692 108.427 141.125C107.96 141.542 107.727 142.142 107.727 142.925C107.727 143.725 107.943 144.35 108.377 144.8C108.827 145.25 109.46 145.475 110.277 145.475C111.01 145.475 111.585 145.258 112.002 144.825C112.435 144.375 112.652 143.767 112.652 143C112.652 142.217 112.443 141.6 112.027 141.15C111.61 140.7 111.01 140.475 110.227 140.475ZM128.12 135.675C127.986 135.058 127.753 134.6 127.42 134.3C127.086 133.983 126.611 133.825 125.995 133.825C125.045 133.825 124.361 134.242 123.945 135.075C123.528 135.892 123.311 137.192 123.295 138.975C123.661 138.392 124.186 137.933 124.87 137.6C125.57 137.267 126.336 137.1 127.17 137.1C128.803 137.1 130.111 137.617 131.095 138.65C132.095 139.683 132.595 141.125 132.595 142.975C132.595 144.192 132.345 145.258 131.845 146.175C131.361 147.092 130.645 147.808 129.695 148.325C128.761 148.842 127.653 149.1 126.37 149.1C123.803 149.1 122.02 148.3 121.02 146.7C120.02 145.083 119.52 142.767 119.52 139.75C119.52 136.583 120.045 134.233 121.095 132.7C122.161 131.15 123.861 130.375 126.195 130.375C127.445 130.375 128.495 130.625 129.345 131.125C130.211 131.608 130.861 132.25 131.295 133.05C131.745 133.85 132.011 134.725 132.095 135.675H128.12ZM126.145 140.475C125.428 140.475 124.828 140.692 124.345 141.125C123.878 141.542 123.645 142.142 123.645 142.925C123.645 143.725 123.861 144.35 124.295 144.8C124.745 145.25 125.378 145.475 126.195 145.475C126.928 145.475 127.503 145.258 127.92 144.825C128.353 144.375 128.57 143.767 128.57 143C128.57 142.217 128.361 141.6 127.945 141.15C127.528 140.7 126.928 140.475 126.145 140.475ZM144.038 135.675C143.904 135.058 143.671 134.6 143.338 134.3C143.004 133.983 142.529 133.825 141.913 133.825C140.963 133.825 140.279 134.242 139.863 135.075C139.446 135.892 139.229 137.192 139.213 138.975C139.579 138.392 140.104 137.933 140.788 137.6C141.488 137.267 142.254 137.1 143.088 137.1C144.721 137.1 146.029 137.617 147.013 138.65C148.013 139.683 148.513 141.125 148.513 142.975C148.513 144.192 148.263 145.258 147.763 146.175C147.279 147.092 146.563 147.808 145.613 148.325C144.679 148.842 143.571 149.1 142.288 149.1C139.721 149.1 137.938 148.3 136.938 146.7C135.938 145.083 135.438 142.767 135.438 139.75C135.438 136.583 135.963 134.233 137.013 132.7C138.079 131.15 139.779 130.375 142.113 130.375C143.363 130.375 144.413 130.625 145.263 131.125C146.129 131.608 146.779 132.25 147.213 133.05C147.663 133.85 147.929 134.725 148.013 135.675H144.038ZM142.063 140.475C141.346 140.475 140.746 140.692 140.263 141.125C139.796 141.542 139.563 142.142 139.563 142.925C139.563 143.725 139.779 144.35 140.213 144.8C140.663 145.25 141.296 145.475 142.113 145.475C142.846 145.475 143.421 145.258 143.838 144.825C144.271 144.375 144.488 143.767 144.488 143C144.488 142.217 144.279 141.6 143.863 141.15C143.446 140.7 142.846 140.475 142.063 140.475ZM155.956 145.05L153.181 152.225H150.456L151.906 145.05H155.956ZM161.108 139.2C159.542 138.367 158.758 137.058 158.758 135.275C158.758 134.375 158.992 133.558 159.458 132.825C159.925 132.075 160.633 131.483 161.583 131.05C162.533 130.6 163.7 130.375 165.083 130.375C166.467 130.375 167.625 130.6 168.558 131.05C169.508 131.483 170.217 132.075 170.683 132.825C171.15 133.558 171.383 134.375 171.383 135.275C171.383 136.175 171.167 136.958 170.733 137.625C170.317 138.292 169.75 138.817 169.033 139.2C169.933 139.633 170.625 140.233 171.108 141C171.592 141.75 171.833 142.633 171.833 143.65C171.833 144.833 171.533 145.858 170.933 146.725C170.333 147.575 169.517 148.225 168.483 148.675C167.467 149.125 166.333 149.35 165.083 149.35C163.833 149.35 162.692 149.125 161.658 148.675C160.642 148.225 159.833 147.575 159.233 146.725C158.633 145.858 158.333 144.833 158.333 143.65C158.333 142.617 158.575 141.725 159.058 140.975C159.542 140.208 160.225 139.617 161.108 139.2ZM167.233 135.925C167.233 135.242 167.033 134.717 166.633 134.35C166.25 133.967 165.733 133.775 165.083 133.775C164.433 133.775 163.908 133.967 163.508 134.35C163.125 134.733 162.933 135.267 162.933 135.95C162.933 136.6 163.133 137.117 163.533 137.5C163.933 137.867 164.45 138.05 165.083 138.05C165.717 138.05 166.233 137.858 166.633 137.475C167.033 137.092 167.233 136.575 167.233 135.925ZM165.083 141.05C164.3 141.05 163.667 141.267 163.183 141.7C162.7 142.117 162.458 142.7 162.458 143.45C162.458 144.15 162.692 144.725 163.158 145.175C163.642 145.625 164.283 145.85 165.083 145.85C165.883 145.85 166.508 145.625 166.958 145.175C167.425 144.725 167.658 144.15 167.658 143.45C167.658 142.717 167.417 142.133 166.933 141.7C166.467 141.267 165.85 141.05 165.083 141.05ZM174.469 135.9C174.536 134.117 175.119 132.742 176.219 131.775C177.319 130.808 178.811 130.325 180.694 130.325C181.944 130.325 183.011 130.542 183.894 130.975C184.794 131.408 185.469 132 185.919 132.75C186.386 133.5 186.619 134.342 186.619 135.275C186.619 136.375 186.344 137.275 185.794 137.975C185.244 138.658 184.603 139.125 183.869 139.375V139.475C184.819 139.792 185.569 140.317 186.119 141.05C186.669 141.783 186.944 142.725 186.944 143.875C186.944 144.908 186.703 145.825 186.219 146.625C185.753 147.408 185.061 148.025 184.144 148.475C183.244 148.925 182.169 149.15 180.919 149.15C178.919 149.15 177.319 148.658 176.119 147.675C174.936 146.692 174.311 145.208 174.244 143.225H178.394C178.411 143.958 178.619 144.542 179.019 144.975C179.419 145.392 180.003 145.6 180.769 145.6C181.419 145.6 181.919 145.417 182.269 145.05C182.636 144.667 182.819 144.167 182.819 143.55C182.819 142.75 182.561 142.175 182.044 141.825C181.544 141.458 180.736 141.275 179.619 141.275H178.819V137.8H179.619C180.469 137.8 181.153 137.658 181.669 137.375C182.203 137.075 182.469 136.55 182.469 135.8C182.469 135.2 182.303 134.733 181.969 134.4C181.636 134.067 181.178 133.9 180.594 133.9C179.961 133.9 179.486 134.092 179.169 134.475C178.869 134.858 178.694 135.333 178.644 135.9H174.469ZM189.006 134.725V130.75H195.931V149H191.481V134.725H189.006ZM201.28 149.2C200.53 149.2 199.914 148.983 199.43 148.55C198.964 148.1 198.73 147.55 198.73 146.9C198.73 146.233 198.964 145.675 199.43 145.225C199.914 144.775 200.53 144.55 201.28 144.55C202.014 144.55 202.614 144.775 203.08 145.225C203.564 145.675 203.805 146.233 203.805 146.9C203.805 147.55 203.564 148.1 203.08 148.55C202.614 148.983 202.014 149.2 201.28 149.2ZM205.911 139.625C205.911 136.758 206.461 134.5 207.561 132.85C208.678 131.2 210.469 130.375 212.936 130.375C215.403 130.375 217.186 131.2 218.286 132.85C219.403 134.5 219.961 136.758 219.961 139.625C219.961 142.525 219.403 144.8 218.286 146.45C217.186 148.1 215.403 148.925 212.936 148.925C210.469 148.925 208.678 148.1 207.561 146.45C206.461 144.8 205.911 142.525 205.911 139.625ZM215.761 139.625C215.761 137.942 215.578 136.65 215.211 135.75C214.844 134.833 214.086 134.375 212.936 134.375C211.786 134.375 211.028 134.833 210.661 135.75C210.294 136.65 210.111 137.942 210.111 139.625C210.111 140.758 210.178 141.7 210.311 142.45C210.444 143.183 210.711 143.783 211.111 144.25C211.528 144.7 212.136 144.925 212.936 144.925C213.736 144.925 214.336 144.7 214.736 144.25C215.153 143.783 215.428 143.183 215.561 142.45C215.694 141.7 215.761 140.758 215.761 139.625ZM221.77 134.725V130.75H228.695V149H224.245V134.725H221.77Z" fill="white"/>
<path d="M259.508 46.3821C259.403 46.5771 259.203 46.6987 258.986 46.6987H255.598V53.3881C255.598 53.7259 255.33 54 255 54C254.67 54 254.402 53.7259 254.402 53.3881V46.6987H251.014C250.796 46.6987 250.596 46.5771 250.492 46.3821C250.386 46.1871 250.393 45.9489 250.508 45.7604L254.494 39.2856C254.604 39.1077 254.794 39 255 39C255.206 39 255.396 39.1077 255.506 39.2856L259.492 45.7604C259.552 45.8599 259.583 45.9733 259.583 46.0868C259.583 46.1879 259.558 46.2899 259.508 46.3821Z" fill="#11CABE"/>
<path d="M269.748 46.232C269.748 44.156 270.186 42.524 271.062 41.336C271.95 40.148 273.312 39.554 275.148 39.554C276.972 39.554 278.328 40.154 279.216 41.354C280.104 42.542 280.548 44.168 280.548 46.232C280.548 48.308 280.104 49.946 279.216 51.146C278.328 52.334 276.972 52.928 275.148 52.928C273.312 52.928 271.95 52.334 271.062 51.146C270.186 49.946 269.748 48.308 269.748 46.232ZM276.606 46.232C276.606 45.272 276.51 44.552 276.318 44.072C276.126 43.58 275.736 43.334 275.148 43.334C274.548 43.334 274.152 43.58 273.96 44.072C273.768 44.552 273.672 45.272 273.672 46.232C273.672 47.204 273.768 47.936 273.96 48.428C274.152 48.908 274.548 49.148 275.148 49.148C275.736 49.148 276.126 48.908 276.318 48.428C276.51 47.936 276.606 47.204 276.606 46.232ZM283.97 53.144C283.274 53.144 282.716 52.958 282.296 52.586C281.876 52.214 281.666 51.746 281.666 51.182C281.666 50.606 281.876 50.132 282.296 49.76C282.716 49.376 283.274 49.184 283.97 49.184C284.654 49.184 285.206 49.376 285.626 49.76C286.046 50.132 286.256 50.606 286.256 51.182C286.256 51.746 286.046 52.214 285.626 52.586C285.206 52.958 284.654 53.144 283.97 53.144ZM287.648 43.964C287.684 42.536 288.098 41.444 288.89 40.688C289.694 39.932 290.828 39.554 292.292 39.554C293.24 39.554 294.05 39.716 294.722 40.04C295.394 40.364 295.898 40.802 296.234 41.354C296.582 41.906 296.756 42.53 296.756 43.226C296.756 44.066 296.558 44.726 296.162 45.206C295.766 45.674 295.322 45.992 294.83 46.16V46.232C296.27 46.772 296.99 47.774 296.99 49.238C296.99 50.006 296.81 50.684 296.45 51.272C296.09 51.86 295.574 52.316 294.902 52.64C294.242 52.964 293.456 53.126 292.544 53.126C290.984 53.126 289.76 52.754 288.872 52.01C287.984 51.266 287.528 50.102 287.504 48.518H291.392C291.368 48.95 291.428 49.28 291.572 49.508C291.728 49.724 291.992 49.832 292.364 49.832C292.58 49.832 292.76 49.754 292.904 49.598C293.048 49.43 293.12 49.214 293.12 48.95C293.12 48.614 293.006 48.362 292.778 48.194C292.562 48.014 292.19 47.924 291.662 47.924H290.996V44.702H291.644C292.46 44.75 292.868 44.426 292.868 43.73C292.868 43.43 292.802 43.208 292.67 43.064C292.55 42.92 292.394 42.848 292.202 42.848C291.758 42.848 291.536 43.22 291.536 43.964H287.648ZM298.416 49.814C300.024 48.614 301.296 47.528 302.232 46.556C303.168 45.572 303.636 44.654 303.636 43.802C303.636 43.514 303.57 43.292 303.438 43.136C303.318 42.98 303.156 42.902 302.952 42.902C302.712 42.902 302.52 43.028 302.376 43.28C302.244 43.52 302.196 43.892 302.232 44.396H298.362C298.398 43.28 298.638 42.362 299.082 41.642C299.538 40.922 300.126 40.394 300.846 40.058C301.566 39.722 302.358 39.554 303.222 39.554C304.758 39.554 305.88 39.926 306.588 40.67C307.308 41.402 307.668 42.344 307.668 43.496C307.668 44.708 307.278 45.848 306.498 46.916C305.73 47.972 304.764 48.866 303.6 49.598H307.722V52.82H298.416V49.814ZM308.485 43.28C308.485 42.224 308.785 41.42 309.385 40.868C309.985 40.304 310.771 40.022 311.743 40.022C312.703 40.022 313.477 40.304 314.065 40.868C314.665 41.42 314.965 42.224 314.965 43.28C314.965 44.336 314.665 45.14 314.065 45.692C313.477 46.244 312.703 46.52 311.743 46.52C310.771 46.52 309.985 46.244 309.385 45.692C308.785 45.14 308.485 44.336 308.485 43.28ZM321.823 40.202L315.109 53H311.293L318.007 40.202H321.823ZM311.707 42.344C311.299 42.344 311.095 42.656 311.095 43.28C311.095 43.892 311.299 44.198 311.707 44.198C311.923 44.198 312.085 44.12 312.193 43.964C312.313 43.808 312.373 43.58 312.373 43.28C312.373 42.968 312.313 42.734 312.193 42.578C312.085 42.422 311.923 42.344 311.707 42.344ZM318.151 49.922C318.151 48.866 318.451 48.062 319.051 47.51C319.651 46.946 320.431 46.664 321.391 46.664C322.363 46.664 323.143 46.946 323.731 47.51C324.319 48.062 324.613 48.866 324.613 49.922C324.613 50.978 324.319 51.788 323.731 52.352C323.143 52.904 322.363 53.18 321.391 53.18C320.431 53.18 319.651 52.904 319.051 52.352C318.451 51.788 318.151 50.978 318.151 49.922ZM321.373 48.986C320.953 48.986 320.743 49.298 320.743 49.922C320.743 50.546 320.953 50.858 321.373 50.858C321.577 50.858 321.733 50.78 321.841 50.624C321.961 50.468 322.021 50.234 322.021 49.922C322.021 49.622 321.961 49.394 321.841 49.238C321.733 49.07 321.577 48.986 321.373 48.986Z" fill="#11CABE"/>
<circle cx="46" cy="46" r="22" fill="#7F6EE9"/>
<path d="M24.688 104.416C24.688 103.328 24.9333 102.352 25.424 101.488C25.9147 100.613 26.5813 99.9307 27.424 99.44C28.2773 98.9493 29.2213 98.704 30.256 98.704C31.472 98.704 32.5333 98.9973 33.44 99.584C34.3467 100.171 35.008 101.003 35.424 102.08H33.68C33.3707 101.408 32.9227 100.891 32.336 100.528C31.76 100.165 31.0667 99.984 30.256 99.984C29.4773 99.984 28.7787 100.165 28.16 100.528C27.5413 100.891 27.056 101.408 26.704 102.08C26.352 102.741 26.176 103.52 26.176 104.416C26.176 105.301 26.352 106.08 26.704 106.752C27.056 107.413 27.5413 107.925 28.16 108.288C28.7787 108.651 29.4773 108.832 30.256 108.832C31.0667 108.832 31.76 108.656 32.336 108.304C32.9227 107.941 33.3707 107.424 33.68 106.752H35.424C35.008 107.819 34.3467 108.645 33.44 109.232C32.5333 109.808 31.472 110.096 30.256 110.096C29.2213 110.096 28.2773 109.856 27.424 109.376C26.5813 108.885 25.9147 108.208 25.424 107.344C24.9333 106.48 24.688 105.504 24.688 104.416ZM44.1834 107.52H39.3194L38.4234 110H36.8874L40.9194 98.912H42.5994L46.6154 110H45.0794L44.1834 107.52ZM43.7674 106.336L41.7514 100.704L39.7354 106.336H43.7674ZM49.8286 108.816H53.7326V110H48.3726V98.848H49.8286V108.816ZM60.3349 110.112C59.3002 110.112 58.3562 109.872 57.5029 109.392C56.6495 108.901 55.9722 108.224 55.4709 107.36C54.9802 106.485 54.7349 105.504 54.7349 104.416C54.7349 103.328 54.9802 102.352 55.4709 101.488C55.9722 100.613 56.6495 99.936 57.5029 99.456C58.3562 98.9653 59.3002 98.72 60.3349 98.72C61.3802 98.72 62.3295 98.9653 63.1829 99.456C64.0362 99.936 64.7082 100.608 65.1989 101.472C65.6895 102.336 65.9349 103.317 65.9349 104.416C65.9349 105.515 65.6895 106.496 65.1989 107.36C64.7082 108.224 64.0362 108.901 63.1829 109.392C62.3295 109.872 61.3802 110.112 60.3349 110.112ZM60.3349 108.848C61.1135 108.848 61.8122 108.667 62.4309 108.304C63.0602 107.941 63.5509 107.424 63.9029 106.752C64.2655 106.08 64.4469 105.301 64.4469 104.416C64.4469 103.52 64.2655 102.741 63.9029 102.08C63.5509 101.408 63.0655 100.891 62.4469 100.528C61.8282 100.165 61.1242 99.984 60.3349 99.984C59.5455 99.984 58.8415 100.165 58.2229 100.528C57.6042 100.891 57.1135 101.408 56.7509 102.08C56.3989 102.741 56.2229 103.52 56.2229 104.416C56.2229 105.301 56.3989 106.08 56.7509 106.752C57.1135 107.424 57.6042 107.941 58.2229 108.304C58.8522 108.667 59.5562 108.848 60.3349 108.848ZM73.729 110L71.073 105.44H69.313V110H67.857V98.848H71.457C72.2997 98.848 73.009 98.992 73.585 99.28C74.1717 99.568 74.609 99.9573 74.897 100.448C75.185 100.939 75.329 101.499 75.329 102.128C75.329 102.896 75.105 103.573 74.657 104.16C74.2197 104.747 73.5583 105.136 72.673 105.328L75.473 110H73.729ZM69.313 104.272H71.457C72.2463 104.272 72.8383 104.08 73.233 103.696C73.6277 103.301 73.825 102.779 73.825 102.128C73.825 101.467 73.6277 100.955 73.233 100.592C72.849 100.229 72.257 100.048 71.457 100.048H69.313V104.272ZM79.0474 98.848V110H77.5914V98.848H79.0474ZM82.9849 100.032V103.76H87.0489V104.96H82.9849V108.8H87.5289V110H81.5289V98.832H87.5289V100.032H82.9849ZM93.268 110.112C92.532 110.112 91.8707 109.984 91.284 109.728C90.708 109.461 90.2547 109.099 89.924 108.64C89.5933 108.171 89.4227 107.632 89.412 107.024H90.964C91.0173 107.547 91.2307 107.989 91.604 108.352C91.988 108.704 92.5427 108.88 93.268 108.88C93.9613 108.88 94.5053 108.709 94.9 108.368C95.3053 108.016 95.508 107.568 95.508 107.024C95.508 106.597 95.3907 106.251 95.156 105.984C94.9213 105.717 94.628 105.515 94.276 105.376C93.924 105.237 93.4493 105.088 92.852 104.928C92.116 104.736 91.524 104.544 91.076 104.352C90.6387 104.16 90.26 103.861 89.94 103.456C89.6307 103.04 89.476 102.485 89.476 101.792C89.476 101.184 89.6307 100.645 89.94 100.176C90.2493 99.7067 90.6813 99.344 91.236 99.088C91.8013 98.832 92.4467 98.704 93.172 98.704C94.2173 98.704 95.0707 98.9653 95.732 99.488C96.404 100.011 96.7827 100.704 96.868 101.568H95.268C95.2147 101.141 94.9907 100.768 94.596 100.448C94.2013 100.117 93.6787 99.952 93.028 99.952C92.42 99.952 91.924 100.112 91.54 100.432C91.156 100.741 90.964 101.179 90.964 101.744C90.964 102.149 91.076 102.48 91.3 102.736C91.5347 102.992 91.8173 103.189 92.148 103.328C92.4893 103.456 92.964 103.605 93.572 103.776C94.308 103.979 94.9 104.181 95.348 104.384C95.796 104.576 96.18 104.88 96.5 105.296C96.82 105.701 96.98 106.256 96.98 106.96C96.98 107.504 96.836 108.016 96.548 108.496C96.26 108.976 95.8333 109.365 95.268 109.664C94.7027 109.963 94.036 110.112 93.268 110.112ZM108.972 104.256C109.378 104.32 109.746 104.485 110.076 104.752C110.418 105.019 110.684 105.349 110.876 105.744C111.079 106.139 111.18 106.56 111.18 107.008C111.18 107.573 111.036 108.085 110.748 108.544C110.46 108.992 110.039 109.349 109.484 109.616C108.94 109.872 108.295 110 107.548 110H103.388V98.848H107.388C108.146 98.848 108.791 98.976 109.324 99.232C109.858 99.4773 110.258 99.8133 110.524 100.24C110.791 100.667 110.924 101.147 110.924 101.68C110.924 102.341 110.743 102.891 110.38 103.328C110.028 103.755 109.559 104.064 108.972 104.256ZM104.844 103.664H107.292C107.975 103.664 108.503 103.504 108.876 103.184C109.25 102.864 109.436 102.421 109.436 101.856C109.436 101.291 109.25 100.848 108.876 100.528C108.503 100.208 107.964 100.048 107.26 100.048H104.844V103.664ZM107.42 108.8C108.146 108.8 108.711 108.629 109.116 108.288C109.522 107.947 109.724 107.472 109.724 106.864C109.724 106.245 109.511 105.76 109.084 105.408C108.658 105.045 108.087 104.864 107.372 104.864H104.844V108.8H107.42ZM114.625 98.848V105.904C114.625 106.896 114.865 107.632 115.345 108.112C115.835 108.592 116.513 108.832 117.377 108.832C118.23 108.832 118.897 108.592 119.377 108.112C119.867 107.632 120.113 106.896 120.113 105.904V98.848H121.569V105.888C121.569 106.816 121.382 107.6 121.009 108.24C120.635 108.869 120.129 109.339 119.489 109.648C118.859 109.957 118.15 110.112 117.361 110.112C116.571 110.112 115.857 109.957 115.217 109.648C114.587 109.339 114.086 108.869 113.713 108.24C113.35 107.6 113.169 106.816 113.169 105.888V98.848H114.625ZM129.87 110L127.214 105.44H125.454V110H123.998V98.848H127.598C128.44 98.848 129.15 98.992 129.726 99.28C130.312 99.568 130.75 99.9573 131.038 100.448C131.326 100.939 131.47 101.499 131.47 102.128C131.47 102.896 131.246 103.573 130.798 104.16C130.36 104.747 129.699 105.136 128.814 105.328L131.614 110H129.87ZM125.454 104.272H127.598C128.387 104.272 128.979 104.08 129.374 103.696C129.768 103.301 129.966 102.779 129.966 102.128C129.966 101.467 129.768 100.955 129.374 100.592C128.99 100.229 128.398 100.048 127.598 100.048H125.454V104.272ZM142.5 110H141.044L135.188 101.12V110H133.732V98.832H135.188L141.044 107.696V98.832H142.5V110ZM146.438 100.032V103.76H150.502V104.96H146.438V108.8H150.982V110H144.982V98.832H150.982V100.032H146.438ZM156.657 98.848C157.873 98.848 158.924 99.0773 159.809 99.536C160.705 99.984 161.388 100.629 161.857 101.472C162.337 102.315 162.577 103.307 162.577 104.448C162.577 105.589 162.337 106.581 161.857 107.424C161.388 108.256 160.705 108.896 159.809 109.344C158.924 109.781 157.873 110 156.657 110H153.185V98.848H156.657ZM156.657 108.8C158.097 108.8 159.196 108.421 159.953 107.664C160.71 106.896 161.089 105.824 161.089 104.448C161.089 103.061 160.705 101.979 159.937 101.2C159.18 100.421 158.086 100.032 156.657 100.032H154.641V108.8H156.657Z" fill="#A5ADCF"/>
<defs>
<filter id="filter0_b_208_12444" x="-4" y="-4" width="354" height="186" filterUnits="userSpaceOnUse" color-interpolation-filters="sRGB">
<feFlood flood-opacity="0" result="BackgroundImageFix"/>
<feGaussianBlur in="BackgroundImage" stdDeviation="2"/>
<feComposite in2="SourceAlpha" operator="in" result="effect1_backgroundBlur_208_12444"/>
<feBlend mode="normal" in="SourceGraphic" in2="effect1_backgroundBlur_208_12444" result="shape"/>
</filter>
</defs>
</svg>
