<svg width="28" height="28" viewBox="0 0 28 28" fill="none" xmlns="http://www.w3.org/2000/svg">
<g clip-path="url(#clip0_123_2153)">
<path d="M14 27.9995C21.732 27.9995 28 21.7315 28 13.9995C28 6.26753 21.732 -0.000488281 14 -0.000488281C6.26801 -0.000488281 0 6.26753 0 13.9995C0 21.7315 6.26801 27.9995 14 27.9995Z" fill="#007AB9"/>
<path d="M22.3646 15.1259V20.8978H19.0182V15.5128C19.0182 14.1606 18.535 13.2372 17.3234 13.2372C16.3988 13.2372 15.8495 13.8589 15.6069 14.4609C15.5188 14.676 15.4961 14.9747 15.4961 15.2764V20.8976H12.1494C12.1494 20.8976 12.1944 11.7771 12.1494 10.833H15.4963V12.2592C15.4896 12.2704 15.4801 12.2814 15.4741 12.2922H15.4963V12.2592C15.9411 11.5749 16.7342 10.5966 18.5123 10.5966C20.714 10.5966 22.3646 12.0351 22.3646 15.1259ZM8.64857 5.98145C7.50382 5.98145 6.75488 6.73288 6.75488 7.72015C6.75488 8.68646 7.48211 9.45961 8.60465 9.45961H8.62636C9.79357 9.45961 10.5193 8.68646 10.5193 7.72015C10.4971 6.73288 9.79356 5.98145 8.64857 5.98145ZM6.95378 20.8978H10.2992V10.833H6.95378V20.8978Z" fill="#F1F2F2"/>
</g>
<defs>
<clipPath id="clip0_123_2153">
<rect width="28" height="28" fill="white"/>
</clipPath>
</defs>
</svg>
