<svg width="20" height="20" viewBox="0 0 20 20" fill="none" xmlns="http://www.w3.org/2000/svg">
<g clip-path="url(#clip0_208_5358)">
<path d="M13.7493 0C12.6831 0.0737496 11.4368 0.756246 10.7106 1.64499C10.0481 2.45124 9.5031 3.64873 9.7156 4.81247C10.8806 4.84872 12.0843 4.14998 12.7818 3.24623C13.4343 2.40499 13.9281 1.21499 13.7493 0Z" fill="white"/>
<path d="M17.9624 6.70996C16.9387 5.42621 15.5 4.68121 14.1412 4.68121C12.3475 4.68121 11.5887 5.53996 10.3425 5.53996C9.05749 5.53996 8.08125 4.68371 6.53001 4.68371C5.00627 4.68371 3.38378 5.61496 2.35503 7.20745C0.908792 9.44994 1.15629 13.6662 3.50003 17.2574C4.33877 18.5424 5.45877 19.9874 6.92376 19.9999C8.2275 20.0124 8.595 19.1637 10.3612 19.1549C12.1275 19.1449 12.4625 20.0112 13.7637 19.9974C15.23 19.9862 16.4112 18.3849 17.2499 17.0999C17.8512 16.1787 18.0749 15.7149 18.5412 14.6749C15.15 13.3837 14.6062 8.5612 17.9624 6.70996Z" fill="white"/>
</g>
<defs>
<clipPath id="clip0_208_5358">
<rect width="20" height="20" fill="white"/>
</clipPath>
</defs>
</svg>
