<svg width="120" height="32" viewBox="0 0 120 32" fill="none" xmlns="http://www.w3.org/2000/svg">
<g clip-path="url(#clip0_4334_78808)">
<path d="M80.3834 7.38296L79.7531 10.4438C79.5438 11.3251 79.695 12.2529 80.1735 13.0236C80.652 13.7942 81.4188 14.3447 82.3055 14.5542C82.7515 14.6329 83.2087 14.6234 83.651 14.5263C84.0933 14.4292 84.5119 14.2464 84.883 13.9883C85.2541 13.7302 85.5703 13.4019 85.8135 13.0222C86.0567 12.6426 86.2222 12.219 86.3004 11.7757L86.9308 8.71049C87.14 7.82972 86.9887 6.90244 86.5101 6.13248C86.0315 5.36252 85.2647 4.81291 84.3784 4.60444C83.9324 4.52516 83.475 4.53421 83.0325 4.63108C82.5899 4.72794 82.1711 4.91071 81.7998 5.16889C81.4286 5.42707 81.1124 5.75558 80.8693 6.13554C80.6263 6.5155 80.4611 6.93942 80.3834 7.38296Z" fill="url(#paint0_linear_4334_78808)"/>
<path d="M26.6691 0.0132751H33.3274L30.9837 11.3214C30.9837 11.3214 30.6774 14.0603 28.2271 14.519C25.7769 14.9776 24.8536 13.4516 24.8536 13.4516C24.8536 13.4516 24.0324 12.4593 24.7027 9.94982L26.6691 0.0132751Z" fill="url(#paint1_linear_4334_78808)"/>
<path d="M39.1155 0.0132648L36.8561 11.0656C36.6135 12.2875 36.1776 13.4635 35.5645 14.5498C34.958 15.6858 34.0705 16.6496 32.9855 17.3504C30.3799 18.872 29.3057 19.1542 29.3057 19.1542H40.6469C40.6469 19.1542 42.1783 12.6269 42.7909 8.51644L48.8899 19.1498H54.1011L57.9585 0.0088501H52.4454L50.297 10.6643L44.1714 0.0088501L39.1155 0.0132648Z" fill="url(#paint2_linear_4334_78808)"/>
<path d="M67.7766 19.1013L73.01 19.1498C73.0722 18.8235 73.1521 18.4706 73.2586 17.9326C73.3385 17.5489 73.4362 17.0505 73.4628 16.9314C73.7735 15.3966 73.9999 14.3425 74.4527 12.08L75.3404 7.6961C75.6016 6.3716 76.1008 5.1047 76.8141 3.95612C77.3685 3.07111 78.0471 2.26916 78.8294 1.57452C79.5092 0.960157 80.2692 0.439483 81.0888 0.0264893H71.2922L69.1438 10.7216L63.3333 0.057365L61.6377 8.52525" fill="url(#paint3_linear_4334_78808)"/>
<path d="M120 0.0132671H114.78L110.581 10.6687L109.445 -0.0176086H104.118L97.1046 10.629L98.8801 -0.0176086H93.6511C93.4825 0.864464 93.407 1.21289 93.2073 2.1523C93.1274 2.56246 93.0741 2.81825 93.0563 2.89763C92.6124 4.97932 92.5237 5.54386 92.1686 7.19334L91.4805 10.5893C91.3345 11.4894 91.1087 12.3749 90.8059 13.2355C90.5399 13.9526 90.196 14.6388 89.7805 15.2819C89.2087 16.1983 88.494 17.0185 87.6631 17.712C87.0051 18.2736 86.2806 18.7534 85.5059 19.141H89.8204H93.3093H98.5206L104.828 8.52967C105.441 12.6401 106.781 19.1454 106.781 19.1454H111.988L120 0.0132671Z" fill="url(#paint4_linear_4334_78808)"/>
<path d="M84.254 19.141H84.0498C84.1177 19.1469 84.1861 19.1469 84.254 19.141Z" fill="url(#paint5_linear_4334_78808)"/>
<path d="M19.2292 8.12392L20.9293 0.0132751H3.85302L-0.00878906 19.1631H5.65962L6.73383 13.8309H9.64572L11.3281 19.1631H17.7644L15.0079 13.0723C16.0565 12.64 16.9864 11.9656 17.7205 11.1051C18.4546 10.2446 18.9718 9.22261 19.2292 8.12392ZM11.3547 9.58375H7.35971L8.46054 4.26486H14.5906C14.5906 4.26486 14.4175 9.58375 11.3547 9.58375Z" fill="url(#paint6_linear_4334_78808)"/>
<path d="M9.6543 13.8309L11.3366 19.1631H17.773L15.0164 13.0723C16.0634 12.6389 16.9915 11.964 17.724 11.1035C18.4565 10.243 18.9724 9.2217 19.2289 8.12392L20.929 0.0132751" fill="url(#paint7_linear_4334_78808)"/>
<path d="M20.9026 0.0132751H3.85302L-0.00878906 19.1322L10.427 9.58375H7.35527L8.45611 4.26486H14.5862" fill="url(#paint8_linear_4334_78808)"/>
<path d="M3.85302 0.0132751L-0.00878906 19.1322L10.427 9.58375H7.35527L8.45611 4.26486" fill="url(#paint9_linear_4334_78808)"/>
<path d="M31.9112 6.8758L33.3317 0.0132751H26.6689L31.9112 6.8758Z" fill="url(#paint10_linear_4334_78808)"/>
<path d="M31.7116 7.84604L25.0133 8.41498L24.7115 9.94979C24.0412 12.4593 24.8624 13.4516 24.8624 13.4516C24.8624 13.4516 25.7812 14.9732 28.2359 14.5189C30.6906 14.0647 30.9925 11.3214 30.9925 11.3214L31.7116 7.84604Z" fill="url(#paint11_linear_4334_78808)"/>
<path d="M41.4504 15.5642L36.8561 11.0656C36.6135 12.2875 36.1776 13.4635 35.5645 14.5498C34.958 15.6858 34.0705 16.6496 32.9855 17.3504C30.3799 18.872 29.3057 19.1542 29.3057 19.1542H40.6469C40.6469 19.1542 41.0065 17.6194 41.4504 15.5642Z" fill="url(#paint12_linear_4334_78808)"/>
<path d="M46.2836 3.69152L44.1707 0.0132751H39.1104L36.8555 11.0656L46.2836 3.69152Z" fill="url(#paint13_linear_4334_78808)"/>
<path d="M50.2971 10.6731L46.2844 3.6915L41.9609 7.07425L48.89 19.1498H54.1012L55.7658 10.8936L50.2971 10.6731Z" fill="url(#paint14_linear_4334_78808)"/>
<path d="M55.0997 14.197L57.9583 0.0132751H52.4453L50.2969 10.6731L54.101 19.1587L55.0997 14.197Z" fill="url(#paint15_linear_4334_78808)"/>
<path d="M63.3333 3.05176e-05L61.6377 8.52526L67.7766 19.1498H73.01L69.1438 10.6555L63.3333 3.05176e-05Z" fill="url(#paint16_linear_4334_78808)"/>
<path d="M75.3633 7.68729L69.1533 10.6731L73.0107 19.1498L75.3633 7.68729Z" fill="url(#paint17_linear_4334_78808)"/>
<path d="M114.78 0.0132671L110.581 10.6687L109.445 -0.0176086H104.118L104.851 8.52526C105.463 12.6357 106.804 19.141 106.804 19.141H112.01L120 3.65712e-05L114.78 0.0132671Z" fill="url(#paint18_linear_4334_78808)"/>
<path d="M109.445 -0.0176086H104.118L97.1046 10.629L98.8801 -0.0176086H93.6511C93.4825 0.864464 93.407 1.21289 93.2073 2.1523C93.1274 2.56246 93.0741 2.81825 93.0563 2.89763C92.6124 4.97932 92.5237 5.54386 92.1686 7.19334L91.4805 10.5893C91.3345 11.4894 91.1087 12.3749 90.8059 13.2355C90.5399 13.9526 90.196 14.6388 89.7805 15.2819C89.2087 16.1983 88.494 17.0185 87.6631 17.712C87.0051 18.2736 86.2806 18.7534 85.5059 19.141H89.8204H93.3093H98.5206L104.828 8.52967L109.445 -0.0176086Z" fill="url(#paint19_linear_4334_78808)"/>
<path d="M98.889 -0.0176086H93.6511C93.4825 0.864464 93.407 1.21289 93.2073 2.1523C93.1274 2.56246 93.0741 2.81825 93.0563 2.89763C92.6124 4.97932 92.5237 5.54386 92.1686 7.19334L91.4805 10.5893C91.3345 11.4894 91.1087 12.3749 90.8059 13.2355C90.5399 13.9526 90.196 14.6388 89.7805 15.2819C89.2087 16.1983 88.494 17.0185 87.6631 17.712C87.0051 18.2736 86.2806 18.7534 85.5059 19.141H89.8204H93.3005H98.5117L97.0735 10.6334L98.889 -0.0176086Z" fill="url(#paint20_linear_4334_78808)"/>
<path d="M114.78 0.0088501L110.576 10.6643L106.825 19.1542H109.489V19.1498H112.032L120 0.0088501H114.78Z" fill="url(#paint21_linear_4334_78808)"/>
<path d="M110.576 10.6643L106.825 19.1542H109.489V19.1498H112.032L117.798 5.29688L110.576 10.6643Z" fill="url(#paint22_linear_4334_78808)"/>
<path d="M91.9017 8.8031L91.5333 10.6114C91.3872 11.5114 91.1614 12.3969 90.8586 13.2576C90.5926 13.9747 90.2488 14.6609 89.8332 15.304C89.2614 16.2203 88.5467 17.0406 87.7159 17.7341C87.0578 18.2956 86.3334 18.7755 85.5586 19.163H89.8731H93.3532H98.5644L91.9061 8.80752L91.9017 8.8031Z" fill="url(#paint23_linear_4334_78808)"/>
<path d="M98.8888 -0.0176086H93.651C93.4823 0.864464 93.4068 1.21289 93.2071 2.1523C93.1272 2.56246 93.0739 2.81825 93.0561 2.89763C92.6123 4.97932 92.5235 5.54386 92.1684 7.19334L91.4804 10.5893C91.3343 11.4894 91.1085 12.3749 90.8057 13.2355L98.8888 -0.0176086Z" fill="url(#paint24_linear_4334_78808)"/>
<path d="M86.9132 8.71049C87.1224 7.82972 86.9711 6.90244 86.4925 6.13248C86.0139 5.36252 85.2472 4.81291 84.3608 4.60444C83.9148 4.52516 83.4574 4.53421 83.0149 4.63108C82.5724 4.72794 82.1535 4.9107 81.7822 5.16889C81.411 5.42707 81.0948 5.75558 80.8517 6.13554C80.6087 6.51549 80.4436 6.93942 80.3659 7.38296L79.7356 10.4438C79.6449 10.8794 79.6359 11.3279 79.7089 11.7669L86.9132 8.71049Z" fill="url(#paint25_linear_4334_78808)"/>
<path d="M82.1678 4.94406C81.7118 5.19867 81.3169 5.54861 81.0103 5.9697C80.7038 6.3908 80.4929 6.873 80.3922 7.38299L79.7619 10.4702C79.5539 11.3509 79.7057 12.2776 80.1841 13.0473C80.6625 13.8169 81.4286 14.3668 82.3143 14.5763C82.5946 14.6323 82.8811 14.6516 83.1665 14.6336L82.1678 4.94406Z" fill="url(#paint26_linear_4334_78808)"/>
<path d="M14.8525 26.7709H15.8246L17.4004 29.2099L18.9807 26.7709H19.9661V31.9266H19.0517V28.2307L17.4138 30.6609H17.3827L15.7625 28.244V31.9266H14.8747L14.8525 26.7709Z" fill="#777E90"/>
<path d="M24.7688 29.2804C24.7687 28.9288 24.8392 28.5807 24.9761 28.2564C25.113 27.9322 25.3135 27.6383 25.566 27.3919C25.8186 27.1455 26.118 26.9516 26.4467 26.8215C26.7755 26.6914 27.1271 26.6278 27.4809 26.6342C27.835 26.6247 28.1873 26.6863 28.5167 26.8155C28.8462 26.9446 29.1459 27.1386 29.398 27.3858C29.6501 27.6329 29.8493 27.9282 29.9836 28.2538C30.118 28.5793 30.1847 28.9286 30.1798 29.2804C30.1798 29.632 30.1094 29.9801 29.9725 30.3044C29.8356 30.6287 29.635 30.9226 29.3825 31.1689C29.13 31.4153 28.8306 31.6092 28.5018 31.7393C28.173 31.8694 27.8215 31.9331 27.4676 31.9266C27.1136 31.9362 26.7613 31.8745 26.4318 31.7454C26.1024 31.6162 25.8026 31.4222 25.5506 31.1751C25.2985 30.9279 25.0993 30.6327 24.9649 30.3071C24.8306 29.9815 24.7639 29.6323 24.7688 29.2804ZM29.2077 29.2804C29.2481 29.0284 29.2331 28.7707 29.1636 28.525C29.0941 28.2794 28.9718 28.0516 28.8051 27.8574C28.6384 27.6633 28.4314 27.5074 28.1981 27.4005C27.9649 27.2936 27.7111 27.2382 27.4543 27.2382C27.1975 27.2382 26.9437 27.2936 26.7105 27.4005C26.4773 27.5074 26.2702 27.6633 26.1035 27.8574C25.9368 28.0516 25.8145 28.2794 25.745 28.525C25.6755 28.7707 25.6605 29.0284 25.701 29.2804C25.692 29.5176 25.7313 29.7541 25.8165 29.9759C25.9017 30.1976 26.0311 30.4 26.1969 30.5708C26.3626 30.7417 26.5614 30.8776 26.7813 30.9704C27.0012 31.0632 27.2376 31.1109 27.4765 31.1107C27.7142 31.1111 27.9495 31.0632 28.168 30.9702C28.3865 30.8771 28.5837 30.7408 28.7473 30.5695C28.911 30.3982 29.0378 30.1955 29.12 29.9739C29.2022 29.7522 29.2381 29.5163 29.2254 29.2804H29.2077Z" fill="#777E90"/>
<path d="M34.2324 26.7356H35.24L36.8025 30.705L38.3606 26.7356H39.346L37.1887 31.9266H36.3897L34.2324 26.7356Z" fill="#777E90"/>
<path d="M43.9355 26.7709H47.784V27.5824H44.85V28.9055H47.4511V29.7126H44.85V31.0975H47.8195V31.909H43.9355V26.7709Z" fill="#777E90"/>
<path d="M61.4428 31.2298C61.0228 31.6496 60.4537 31.8887 59.8581 31.8958C58.8993 31.8958 58.1758 31.318 58.1758 30.4315C58.1824 30.1076 58.292 29.794 58.4889 29.5357C58.6859 29.2775 58.9601 29.0878 59.2722 28.9938C59.0016 28.7015 58.8443 28.3232 58.8283 27.9265C58.8365 27.7438 58.8819 27.5647 58.9618 27.4C59.0416 27.2352 59.1542 27.0883 59.2927 26.9679C59.4312 26.8476 59.5929 26.7563 59.7679 26.6997C59.9429 26.6432 60.1276 26.6224 60.3109 26.6386C60.484 26.6254 60.658 26.6474 60.8222 26.7034C60.9864 26.7594 61.1374 26.8482 61.2658 26.9642C61.3943 27.0803 61.4975 27.2212 61.5691 27.3783C61.6408 27.5354 61.6793 27.7055 61.6825 27.878C61.6825 28.5527 61.2386 28.9541 60.5461 29.2011L61.4339 30.0831C61.6494 29.7678 61.8394 29.436 62.0021 29.0908L62.6901 29.448C62.4881 29.857 62.2535 30.2493 61.9887 30.6212L62.7966 31.4415L62.1352 31.9267L61.4428 31.2298ZM60.9234 30.705L59.7738 29.5318C59.5856 29.5867 59.419 29.6979 59.2967 29.8502C59.1744 30.0025 59.1023 30.1886 59.0902 30.383C59.0933 30.4898 59.1185 30.5947 59.1643 30.6913C59.2101 30.7879 59.2754 30.8741 59.3562 30.9445C59.437 31.0148 59.5316 31.0679 59.634 31.1003C59.7364 31.1327 59.8444 31.1438 59.9513 31.1328C60.3195 31.1234 60.669 30.9696 60.9234 30.705ZM60.8968 27.9132C60.9 27.8358 60.8869 27.7585 60.8582 27.6863C60.8296 27.6142 60.7861 27.5488 60.7305 27.4944C60.6748 27.44 60.6084 27.3977 60.5354 27.3703C60.4623 27.343 60.3844 27.3311 60.3064 27.3355C60.224 27.3309 60.1416 27.3438 60.0645 27.3733C59.9875 27.4029 59.9178 27.4483 59.8598 27.5067C59.8019 27.5652 59.7571 27.6351 59.7285 27.7121C59.6998 27.789 59.6881 27.8711 59.6939 27.9529C59.7037 28.0997 59.7434 28.243 59.8106 28.3741C59.8777 28.5053 59.9709 28.6216 60.0845 28.7159C60.6171 28.5131 60.8968 28.2837 60.8968 27.9132Z" fill="#777E90"/>
<path d="M73.334 26.7709H77.178V27.5824H74.244V28.9055H76.8451V29.7126H74.244V31.0975H77.2269V31.909H73.3429L73.334 26.7709Z" fill="#777E90"/>
<path d="M83.8414 26.7356H84.6892L86.993 31.9266H86.0298L85.5015 30.6829H83.0513L82.5186 31.9266H81.582L83.8414 26.7356ZM85.1464 29.8802L84.2587 27.8162L83.3709 29.8802H85.1464Z" fill="#777E90"/>
<path d="M91.5645 26.7709H93.8771C94.4245 26.7419 94.9615 26.9271 95.373 27.2869C95.6631 27.5844 95.8227 27.9841 95.8169 28.3983C95.8286 28.7618 95.7108 29.1178 95.4843 29.4034C95.2577 29.689 94.9369 29.886 94.5785 29.9596L95.9811 31.909H94.8936L93.6196 30.114H92.4789V31.909H91.5645V26.7709ZM93.8105 29.3289C94.463 29.3289 94.8803 28.9981 94.8803 28.4468C94.8803 27.8867 94.4852 27.5912 93.8017 27.5912H92.47V29.3245L93.8105 29.3289Z" fill="#777E90"/>
<path d="M100.629 26.7709H101.477L104.255 30.3345V26.7709H105.143V31.9266H104.38L101.517 28.2616V31.9266H100.629V26.7709Z" fill="#777E90"/>
</g>
<defs>
<linearGradient id="paint0_linear_4334_78808" x1="83.4286" y1="6.162" x2="82.4826" y2="11.9069" gradientUnits="userSpaceOnUse">
<stop offset="0.196341" stop-color="white"/>
<stop offset="0.850001" stop-color="#A6C4FF"/>
</linearGradient>
<linearGradient id="paint1_linear_4334_78808" x1="28.9881" y1="2.35089" x2="27.3575" y2="10.5903" gradientUnits="userSpaceOnUse">
<stop offset="0.196341" stop-color="white"/>
<stop offset="0.850001" stop-color="#A6C4FF"/>
</linearGradient>
<linearGradient id="paint2_linear_4334_78808" x1="43.9696" y1="3.07598" x2="43.0706" y2="14.2378" gradientUnits="userSpaceOnUse">
<stop offset="0.196341" stop-color="white"/>
<stop offset="0.850001" stop-color="#A6C4FF"/>
</linearGradient>
<linearGradient id="paint3_linear_4334_78808" x1="71.5924" y1="3.09009" x2="70.2809" y2="14.156" gradientUnits="userSpaceOnUse">
<stop offset="0.196341" stop-color="white"/>
<stop offset="0.850001" stop-color="#A6C4FF"/>
</linearGradient>
<linearGradient id="paint4_linear_4334_78808" x1="103.159" y1="3.05235" x2="102.41" y2="14.2467" gradientUnits="userSpaceOnUse">
<stop offset="0.196341" stop-color="white"/>
<stop offset="0.850001" stop-color="#A6C4FF"/>
</linearGradient>
<linearGradient id="paint5_linear_4334_78808" x1="84.1543" y1="19.1417" x2="84.1543" y2="19.1443" gradientUnits="userSpaceOnUse">
<stop offset="0.196341" stop-color="white"/>
<stop offset="0.850001" stop-color="#A6C4FF"/>
</linearGradient>
<linearGradient id="paint6_linear_4334_78808" x1="10.7069" y1="3.08111" x2="9.48291" y2="14.183" gradientUnits="userSpaceOnUse">
<stop offset="0.196341" stop-color="white"/>
<stop offset="0.850001" stop-color="#A6C4FF"/>
</linearGradient>
<linearGradient id="paint7_linear_4334_78808" x1="15.4245" y1="3.08111" x2="13.2163" y2="13.8658" gradientUnits="userSpaceOnUse">
<stop offset="0.196341" stop-color="white"/>
<stop offset="0.850001" stop-color="#A6C4FF"/>
</linearGradient>
<linearGradient id="paint8_linear_4334_78808" x1="10.6933" y1="3.07616" x2="9.47165" y2="14.1602" gradientUnits="userSpaceOnUse">
<stop offset="0.196341" stop-color="white"/>
<stop offset="0.850001" stop-color="#A6C4FF"/>
</linearGradient>
<linearGradient id="paint9_linear_4334_78808" x1="5.33203" y1="3.07616" x2="2.96959" y2="13.7731" gradientUnits="userSpaceOnUse">
<stop offset="0.196341" stop-color="white"/>
<stop offset="0.850001" stop-color="#A6C4FF"/>
</linearGradient>
<linearGradient id="paint10_linear_4334_78808" x1="30.0788" y1="1.11267" x2="29.5864" y2="5.07836" gradientUnits="userSpaceOnUse">
<stop offset="0.196341" stop-color="white"/>
<stop offset="0.850001" stop-color="#A6C4FF"/>
</linearGradient>
<linearGradient id="paint11_linear_4334_78808" x1="28.1655" y1="8.92861" x2="27.7263" y2="12.8446" gradientUnits="userSpaceOnUse">
<stop offset="0.196341" stop-color="white"/>
<stop offset="0.850001" stop-color="#A6C4FF"/>
</linearGradient>
<linearGradient id="paint12_linear_4334_78808" x1="35.5211" y1="12.3615" x2="35.1425" y2="17.0773" gradientUnits="userSpaceOnUse">
<stop offset="0.196341" stop-color="white"/>
<stop offset="0.850001" stop-color="#A6C4FF"/>
</linearGradient>
<linearGradient id="paint13_linear_4334_78808" x1="41.6806" y1="1.78389" x2="40.7821" y2="8.14228" gradientUnits="userSpaceOnUse">
<stop offset="0.196341" stop-color="white"/>
<stop offset="0.850001" stop-color="#A6C4FF"/>
</linearGradient>
<linearGradient id="paint14_linear_4334_78808" x1="49.026" y1="6.16795" x2="47.8235" y2="15.0764" gradientUnits="userSpaceOnUse">
<stop offset="0.196341" stop-color="white"/>
<stop offset="0.850001" stop-color="#A6C4FF"/>
</linearGradient>
<linearGradient id="paint15_linear_4334_78808" x1="54.2179" y1="3.0804" x2="51.1152" y2="13.38" gradientUnits="userSpaceOnUse">
<stop offset="0.196341" stop-color="white"/>
<stop offset="0.850001" stop-color="#A6C4FF"/>
</linearGradient>
<linearGradient id="paint16_linear_4334_78808" x1="67.4578" y1="3.06787" x2="65.2671" y2="13.86" gradientUnits="userSpaceOnUse">
<stop offset="0.196341" stop-color="white"/>
<stop offset="0.850001" stop-color="#A6C4FF"/>
</linearGradient>
<linearGradient id="paint17_linear_4334_78808" x1="72.3315" y1="9.52361" x2="70.9054" y2="15.9324" gradientUnits="userSpaceOnUse">
<stop offset="0.196341" stop-color="white"/>
<stop offset="0.850001" stop-color="#A6C4FF"/>
</linearGradient>
<linearGradient id="paint18_linear_4334_78808" x1="112.246" y1="3.05164" x2="110.645" y2="14.0608" gradientUnits="userSpaceOnUse">
<stop offset="0.196341" stop-color="white"/>
<stop offset="0.850001" stop-color="#A6C4FF"/>
</linearGradient>
<linearGradient id="paint19_linear_4334_78808" x1="97.7572" y1="3.05164" x2="96.6827" y2="14.19" gradientUnits="userSpaceOnUse">
<stop offset="0.196341" stop-color="white"/>
<stop offset="0.850001" stop-color="#A6C4FF"/>
</linearGradient>
<linearGradient id="paint20_linear_4334_78808" x1="92.3551" y1="3.05164" x2="90.4712" y2="13.9685" gradientUnits="userSpaceOnUse">
<stop offset="0.196341" stop-color="white"/>
<stop offset="0.850001" stop-color="#A6C4FF"/>
</linearGradient>
<linearGradient id="paint21_linear_4334_78808" x1="113.568" y1="3.07598" x2="111.658" y2="13.9757" gradientUnits="userSpaceOnUse">
<stop offset="0.196341" stop-color="white"/>
<stop offset="0.850001" stop-color="#A6C4FF"/>
</linearGradient>
<linearGradient id="paint22_linear_4334_78808" x1="112.441" y1="7.51685" x2="111.231" y2="15.464" gradientUnits="userSpaceOnUse">
<stop offset="0.196341" stop-color="white"/>
<stop offset="0.850001" stop-color="#A6C4FF"/>
</linearGradient>
<linearGradient id="paint23_linear_4334_78808" x1="92.2147" y1="10.4628" x2="91.6363" y2="16.4863" gradientUnits="userSpaceOnUse">
<stop offset="0.196341" stop-color="white"/>
<stop offset="0.850001" stop-color="#A6C4FF"/>
</linearGradient>
<linearGradient id="paint24_linear_4334_78808" x1="94.9425" y1="2.10557" x2="93.4632" y2="9.58994" gradientUnits="userSpaceOnUse">
<stop offset="0.196341" stop-color="white"/>
<stop offset="0.850001" stop-color="#A6C4FF"/>
</linearGradient>
<linearGradient id="paint25_linear_4334_78808" x1="83.4191" y1="5.70702" x2="82.9246" y2="9.8826" gradientUnits="userSpaceOnUse">
<stop offset="0.196341" stop-color="white"/>
<stop offset="0.850001" stop-color="#A6C4FF"/>
</linearGradient>
<linearGradient id="paint26_linear_4334_78808" x1="81.4599" y1="6.49739" x2="79.7488" y2="11.6148" gradientUnits="userSpaceOnUse">
<stop offset="0.196341" stop-color="white"/>
<stop offset="0.850001" stop-color="#A6C4FF"/>
</linearGradient>
<clipPath id="clip0_4334_78808">
<rect width="120" height="31.9266" fill="white"/>
</clipPath>
</defs>
</svg>
