<svg width="176" height="47" viewBox="0 0 176 47" fill="none" xmlns="http://www.w3.org/2000/svg">
<g clip-path="url(#clip0_605_22969)">
<path d="M117.895 10.8686L116.971 15.3745C116.664 16.6719 116.886 18.0378 117.587 19.1723C118.289 20.3068 119.414 21.1172 120.714 21.4256V21.4256C121.368 21.5414 122.039 21.5275 122.688 21.3845C123.336 21.2415 123.95 20.9724 124.495 20.5925C125.039 20.2125 125.503 19.7292 125.859 19.1703C126.216 18.6114 126.459 17.9878 126.574 17.3353L127.498 12.8229C127.805 11.5263 127.583 10.1612 126.881 9.02775C126.179 7.89427 125.055 7.08517 123.755 6.77828C123.1 6.66157 122.43 6.67489 121.781 6.81749C121.132 6.96009 120.517 7.22914 119.973 7.60922C119.428 7.98929 118.964 8.4729 118.608 9.03225C118.251 9.59159 118.009 10.2157 117.895 10.8686V10.8686Z" fill="url(#paint0_linear_605_22969)"/>
<path d="M39.114 0.0194702H48.8794L45.442 16.6665C45.442 16.6665 44.9928 20.6984 41.3991 21.3737C37.8054 22.0489 36.4512 19.8024 36.4512 19.8024C36.4512 19.8024 35.2468 18.3416 36.2299 14.6473L39.114 0.0194702Z" fill="url(#paint1_linear_605_22969)"/>
<path d="M57.369 0.0194689L54.0552 16.2899C53.6993 18.0887 53.0599 19.8199 52.1607 21.4191C51.2713 23.0914 49.9696 24.5102 48.3782 25.5419C44.5566 27.7819 42.9811 28.1974 42.9811 28.1974H59.615C59.615 28.1974 61.8611 18.5883 62.7595 12.5372L71.7047 28.1909H79.3478L85.0053 0.01297H76.9194L73.7685 15.6991L64.7842 0.01297L57.369 0.0194689Z" fill="url(#paint2_linear_605_22969)"/>
<path d="M99.4061 28.1195L107.082 28.1909C107.173 27.7105 107.29 27.191 107.446 26.3989C107.563 25.8341 107.707 25.1004 107.746 24.9251C108.202 22.6657 108.534 21.1139 109.198 17.7832L110.5 11.3296C110.883 9.37974 111.615 7.5147 112.661 5.82386C113.474 4.52101 114.469 3.34044 115.617 2.31783C116.614 1.41342 117.728 0.646919 118.931 0.0389404H104.562L101.411 15.7835L92.8892 0.0843935L90.4023 12.5502" fill="url(#paint3_linear_605_22969)"/>
<path d="M176 0.0194826H168.344L162.185 15.7056L160.518 -0.0259705H152.706L142.42 15.6472L145.024 -0.0259705H137.355C137.107 1.27255 136.997 1.78548 136.704 3.1684C136.586 3.77221 136.508 4.14877 136.482 4.26563C135.831 7.33015 135.701 8.16121 135.18 10.5894L134.171 15.5887C133.957 16.9138 133.626 18.2174 133.182 19.4843C132.791 20.54 132.287 21.5501 131.678 22.4969C130.839 23.8459 129.791 25.0534 128.572 26.0743C127.607 26.901 126.545 27.6074 125.408 28.1779H131.736H136.853H144.496L153.748 12.5567C154.646 18.6078 156.612 28.1844 156.612 28.1844H164.249L176 0.0194826Z" fill="url(#paint4_linear_605_22969)"/>
<path d="M123.572 28.1779H123.273C123.373 28.1866 123.473 28.1866 123.572 28.1779V28.1779Z" fill="url(#paint5_linear_605_22969)"/>
<path d="M28.2027 11.9594L30.6961 0.0194702H5.65093L-0.0130615 28.2104H8.30061L9.87612 20.3608H14.1469L16.6143 28.2104H26.0543L22.0113 19.2441C23.5494 18.6076 24.9132 17.6148 25.9899 16.348C27.0666 15.0812 27.8251 13.5768 28.2027 11.9594V11.9594ZM16.6534 14.1084H10.7941L12.4086 6.27834H21.3994C21.3994 6.27834 21.1455 14.1084 16.6534 14.1084V14.1084Z" fill="url(#paint6_linear_605_22969)"/>
<path d="M14.1599 20.3608L16.6273 28.2104H26.0673L22.0244 19.2441C23.56 18.6059 24.9212 17.6124 25.9955 16.3457C27.0699 15.079 27.8264 13.5754 28.2027 11.9594L30.6961 0.0194702" fill="url(#paint7_linear_605_22969)"/>
<path d="M30.657 0.0194702H5.65093L-0.0130615 28.1649L15.2927 14.1084H10.7876L12.4021 6.27834H21.3929" fill="url(#paint8_linear_605_22969)"/>
<path d="M5.65093 0.0194702L-0.0130615 28.1649L15.2927 14.1084H10.7876L12.4021 6.27834" fill="url(#paint9_linear_605_22969)"/>
<path d="M46.8027 10.122L48.886 0.0194702H39.114L46.8027 10.122Z" fill="url(#paint10_linear_605_22969)"/>
<path d="M46.5097 11.5503L36.6856 12.3879L36.2429 14.6473C35.2598 18.3416 36.4642 19.8024 36.4642 19.8024C36.4642 19.8024 37.8119 22.0424 41.4121 21.3737C45.0123 20.7049 45.455 16.6665 45.455 16.6665L46.5097 11.5503V11.5503Z" fill="url(#paint11_linear_605_22969)"/>
<path d="M60.7934 22.9124L54.0552 16.2899C53.6993 18.0887 53.0599 19.8199 52.1607 21.4191C51.2713 23.0914 49.9695 24.5102 48.3782 25.5419C44.5566 27.7819 42.9811 28.1974 42.9811 28.1974H59.615C59.615 28.1974 60.1423 25.938 60.7934 22.9124V22.9124Z" fill="url(#paint12_linear_605_22969)"/>
<path d="M67.8831 5.43431L64.7842 0.0194702H57.3624L54.0552 16.2899L67.8831 5.43431Z" fill="url(#paint13_linear_605_22969)"/>
<path d="M73.7684 15.7121L67.8831 5.4343L61.542 10.4141L71.7046 28.1909H79.3477L81.7891 16.0367L73.7684 15.7121Z" fill="url(#paint14_linear_605_22969)"/>
<path d="M80.8126 20.8997L85.0052 0.0194702H76.9194L73.7684 15.7121L79.3477 28.2039L80.8126 20.8997Z" fill="url(#paint15_linear_605_22969)"/>
<path d="M92.8892 0L90.4023 12.5502L99.4061 28.1909H107.082L101.411 15.6861L92.8892 0Z" fill="url(#paint16_linear_605_22969)"/>
<path d="M110.532 11.3166L101.424 15.7121L107.082 28.1909L110.532 11.3166Z" fill="url(#paint17_linear_605_22969)"/>
<path d="M168.344 0.0194826L162.185 15.7056L160.518 -0.0259705H152.706L153.78 12.5502C154.679 18.6013 156.645 28.1779 156.645 28.1779H164.281L176 5.5312e-06L168.344 0.0194826Z" fill="url(#paint18_linear_605_22969)"/>
<path d="M160.518 -0.0259705H152.706L142.42 15.6472L145.024 -0.0259705H137.355C137.107 1.27255 136.997 1.78548 136.704 3.1684C136.586 3.77222 136.508 4.14877 136.482 4.26564C135.831 7.33015 135.701 8.16122 135.18 10.5895L134.171 15.5888C133.957 16.9138 133.626 18.2174 133.182 19.4843C132.791 20.54 132.287 21.5501 131.678 22.4969C130.839 23.8459 129.791 25.0534 128.572 26.0743C127.607 26.901 126.545 27.6074 125.408 28.1779H131.736H136.853H144.496L153.748 12.5567L160.518 -0.0259705Z" fill="url(#paint19_linear_605_22969)"/>
<path d="M145.037 -0.0259705H137.355C137.107 1.27255 136.997 1.78548 136.704 3.1684C136.586 3.77222 136.508 4.14877 136.482 4.26564C135.831 7.33015 135.701 8.16122 135.18 10.5895L134.171 15.5888C133.957 16.9138 133.626 18.2174 133.182 19.4843C132.791 20.54 132.287 21.5501 131.678 22.4969C130.839 23.8459 129.791 25.0534 128.572 26.0743C127.607 26.901 126.545 27.6074 125.408 28.1779H131.736H136.84H144.483L142.374 15.6537L145.037 -0.0259705Z" fill="url(#paint20_linear_605_22969)"/>
<path d="M168.344 0.01297L162.179 15.6991L156.677 28.1974H160.584V28.1909H164.314L176 0.01297H168.344Z" fill="url(#paint21_linear_605_22969)"/>
<path d="M162.179 15.6991L156.677 28.1974H160.584V28.1909H164.314L172.771 7.79761L162.179 15.6991Z" fill="url(#paint22_linear_605_22969)"/>
<path d="M134.79 12.9593L134.249 15.6212C134.035 16.9463 133.704 18.2498 133.26 19.5168C132.87 20.5725 132.365 21.5826 131.756 22.5294C130.917 23.8783 129.869 25.0859 128.65 26.1068C127.685 26.9334 126.623 27.6398 125.486 28.2104H131.814H136.919H144.562L134.796 12.9658L134.79 12.9593Z" fill="url(#paint23_linear_605_22969)"/>
<path d="M145.037 -0.0259705H137.355C137.107 1.27255 136.997 1.78548 136.704 3.1684C136.586 3.77222 136.508 4.14877 136.482 4.26564C135.831 7.33015 135.701 8.16121 135.18 10.5895L134.171 15.5887C133.957 16.9138 133.626 18.2174 133.182 19.4843L145.037 -0.0259705Z" fill="url(#paint24_linear_605_22969)"/>
<path d="M127.472 12.8229C127.779 11.5263 127.557 10.1612 126.855 9.02775C126.153 7.89427 125.029 7.08517 123.729 6.77828C123.074 6.66157 122.404 6.67489 121.755 6.81749C121.106 6.96009 120.491 7.22914 119.947 7.60922C119.402 7.98929 118.938 8.4729 118.582 9.03225C118.225 9.59159 117.983 10.2157 117.869 10.8686L116.945 15.3745C116.812 16.0158 116.799 16.6761 116.906 17.3223L127.472 12.8229Z" fill="url(#paint25_linear_605_22969)"/>
<path d="M120.513 7.27823C119.844 7.65305 119.265 8.1682 118.815 8.78811C118.365 9.40801 118.056 10.1179 117.908 10.8686L116.984 15.4135C116.679 16.7099 116.901 18.0742 117.603 19.2072C118.305 20.3402 119.428 21.1497 120.727 21.4581C121.139 21.5406 121.559 21.5689 121.977 21.5425L120.513 7.27823Z" fill="url(#paint26_linear_605_22969)"/>
<path d="M21.7836 39.4101H23.2093L25.5205 43.0006L27.8382 39.4101H29.2835V47H27.9423V41.5592L25.54 45.1366H25.4944L23.1182 41.5787V47H21.8161L21.7836 39.4101Z" fill="#777E90"/>
<path d="M36.3276 43.1044C36.3275 42.5868 36.4309 42.0743 36.6316 41.597C36.8324 41.1196 37.1265 40.687 37.4969 40.3243C37.8672 39.9616 38.3063 39.6761 38.7885 39.4846C39.2708 39.2931 39.7864 39.1994 40.3054 39.2088C40.8246 39.1948 41.3414 39.2856 41.8245 39.4757C42.3077 39.6658 42.7474 39.9514 43.1171 40.3152C43.4868 40.6791 43.7789 41.1137 43.976 41.593C44.173 42.0723 44.2709 42.5864 44.2637 43.1044C44.2638 43.622 44.1604 44.1345 43.9596 44.6118C43.7589 45.0892 43.4647 45.5219 43.0944 45.8846C42.724 46.2473 42.2849 46.5327 41.8027 46.7242C41.3205 46.9157 40.8048 47.0095 40.2858 47C39.7666 47.014 39.2499 46.9233 38.7667 46.7331C38.2835 46.543 37.8439 46.2574 37.4742 45.8936C37.1044 45.5297 36.8123 45.0951 36.6152 44.6158C36.4182 44.1365 36.3204 43.6224 36.3276 43.1044ZM42.8379 43.1044C42.8973 42.7334 42.8752 42.354 42.7733 41.9924C42.6714 41.6307 42.492 41.2954 42.2475 41.0096C42.0031 40.7238 41.6993 40.4943 41.3573 40.3369C41.0152 40.1795 40.643 40.098 40.2663 40.098C39.8896 40.098 39.5174 40.1795 39.1754 40.3369C38.8333 40.4943 38.5296 40.7238 38.2851 41.0096C38.0406 41.2954 37.8612 41.6307 37.7593 41.9924C37.6574 42.354 37.6354 42.7334 37.6948 43.1044C37.6816 43.4536 37.7393 43.8018 37.8642 44.1282C37.9892 44.4546 38.1789 44.7525 38.4221 45.0041C38.6652 45.2556 38.9568 45.4557 39.2792 45.5923C39.6017 45.7288 39.9485 45.7991 40.2989 45.7989C40.6475 45.7993 40.9927 45.729 41.3131 45.592C41.6336 45.455 41.9227 45.2542 42.1627 45.0021C42.4028 44.7499 42.5888 44.4515 42.7094 44.1253C42.8299 43.799 42.8825 43.4516 42.8639 43.1044H42.8379Z" fill="#777E90"/>
<path d="M50.2076 39.3582H51.6854L53.977 45.2015L56.2622 39.3582H57.7075L54.5434 47H53.3716L50.2076 39.3582Z" fill="#777E90"/>
<path d="M64.4391 39.4101H70.0836V40.6048H65.7803V42.5526H69.5953V43.7407H65.7803V45.7794H70.1357V46.974H64.4391V39.4101Z" fill="#777E90"/>
<path d="M90.1159 45.9742C89.4999 46.5921 88.6653 46.9442 87.7917 46.9546C86.3854 46.9546 85.3243 46.104 85.3243 44.799C85.334 44.3221 85.4947 43.8605 85.7836 43.4803C86.0724 43.1001 86.4746 42.8208 86.9323 42.6825C86.5355 42.2522 86.3048 41.6953 86.2813 41.1112C86.2934 40.8423 86.36 40.5787 86.4771 40.3361C86.5941 40.0936 86.7592 39.8773 86.9624 39.7001C87.1656 39.523 87.4027 39.3887 87.6594 39.3053C87.916 39.222 88.1869 39.1914 88.4557 39.2154C88.7096 39.1959 88.9648 39.2283 89.2057 39.3107C89.4465 39.3932 89.668 39.5238 89.8564 39.6947C90.0447 39.8655 90.1961 40.073 90.3012 40.3043C90.4063 40.5356 90.4628 40.7859 90.4674 41.0398C90.4674 42.0332 89.8164 42.624 88.8008 42.9876L90.1028 44.2861C90.4189 43.8219 90.6976 43.3334 90.9362 42.8253L91.9453 43.3512C91.649 43.9532 91.305 44.5307 90.9166 45.0782L92.1015 46.2859L91.1315 47L90.1159 45.9742ZM89.3542 45.2016L87.668 43.4745C87.392 43.5554 87.1477 43.719 86.9684 43.9432C86.789 44.1674 86.6832 44.4413 86.6654 44.7276C86.6699 44.8847 86.7069 45.0392 86.7741 45.1814C86.8412 45.3236 86.937 45.4505 87.0556 45.5541C87.1741 45.6577 87.3128 45.7358 87.463 45.7835C87.6132 45.8312 87.7716 45.8475 87.9284 45.8314C88.4684 45.8176 88.981 45.5911 89.3542 45.2016ZM89.3151 41.0918C89.3198 40.9777 89.3005 40.8639 89.2585 40.7577C89.2165 40.6515 89.1527 40.5553 89.0711 40.4752C88.9896 40.395 88.8921 40.3328 88.785 40.2926C88.6779 40.2523 88.5635 40.2348 88.4492 40.2412C88.3284 40.2345 88.2074 40.2535 88.0945 40.297C87.9815 40.3404 87.8792 40.4074 87.7942 40.4933C87.7092 40.5793 87.6435 40.6824 87.6015 40.7956C87.5596 40.9089 87.5423 41.0297 87.5508 41.1502C87.5653 41.3663 87.6235 41.5772 87.722 41.7703C87.8204 41.9633 87.9571 42.1345 88.1237 42.2734C88.9049 41.9748 89.3151 41.6371 89.3151 41.0918Z" fill="#777E90"/>
<path d="M107.557 39.4101H113.195V40.6048H108.892V42.5526H112.707V43.7407H108.892V45.7794H113.267V46.974H107.57L107.557 39.4101Z" fill="#777E90"/>
<path d="M122.967 39.3582H124.21L127.589 47H126.177L125.402 45.1691H121.808L121.027 47H119.653L122.967 39.3582ZM124.881 43.9874L123.579 40.9489L122.277 43.9874H124.881Z" fill="#777E90"/>
<path d="M134.295 39.4101H137.687C138.49 39.3674 139.277 39.6401 139.881 40.1698C140.306 40.6078 140.54 41.1961 140.532 41.8059C140.549 42.341 140.376 42.865 140.044 43.2855C139.712 43.706 139.241 43.9959 138.715 44.1043L140.773 46.974H139.178L137.309 44.3315H135.636V46.974H134.295V39.4101ZM137.589 43.1758C138.546 43.1758 139.158 42.6889 139.158 41.8773C139.158 41.0528 138.579 40.6177 137.576 40.6177H135.623V43.1694L137.589 43.1758Z" fill="#777E90"/>
<path d="M147.589 39.4101H148.832L152.908 44.6562V39.4101H154.21V47H153.09L148.891 41.6046V47H147.589V39.4101Z" fill="#777E90"/>
</g>
<defs>
<linearGradient id="paint0_linear_605_22969" x1="122.362" y1="9.0712" x2="120.964" y2="17.5267" gradientUnits="userSpaceOnUse">
<stop offset="0.196341" stop-color="white"/>
<stop offset="0.850001" stop-color="#A6C4FF"/>
</linearGradient>
<linearGradient id="paint1_linear_605_22969" x1="42.5152" y1="3.46073" x2="40.1064" y2="15.5869" gradientUnits="userSpaceOnUse">
<stop offset="0.196341" stop-color="white"/>
<stop offset="0.850001" stop-color="#A6C4FF"/>
</linearGradient>
<linearGradient id="paint2_linear_605_22969" x1="64.4883" y1="4.52817" x2="63.1599" y2="20.959" gradientUnits="userSpaceOnUse">
<stop offset="0.196341" stop-color="white"/>
<stop offset="0.850001" stop-color="#A6C4FF"/>
</linearGradient>
<linearGradient id="paint3_linear_605_22969" x1="105.002" y1="4.54894" x2="103.065" y2="20.8376" gradientUnits="userSpaceOnUse">
<stop offset="0.196341" stop-color="white"/>
<stop offset="0.850001" stop-color="#A6C4FF"/>
</linearGradient>
<linearGradient id="paint4_linear_605_22969" x1="151.3" y1="4.49339" x2="150.192" y2="20.9724" gradientUnits="userSpaceOnUse">
<stop offset="0.196341" stop-color="white"/>
<stop offset="0.850001" stop-color="#A6C4FF"/>
</linearGradient>
<linearGradient id="paint5_linear_605_22969" x1="123.426" y1="28.179" x2="123.426" y2="28.1828" gradientUnits="userSpaceOnUse">
<stop offset="0.196341" stop-color="white"/>
<stop offset="0.850001" stop-color="#A6C4FF"/>
</linearGradient>
<linearGradient id="paint6_linear_605_22969" x1="15.7033" y1="4.53571" x2="13.8949" y2="20.8776" gradientUnits="userSpaceOnUse">
<stop offset="0.196341" stop-color="white"/>
<stop offset="0.850001" stop-color="#A6C4FF"/>
</linearGradient>
<linearGradient id="paint7_linear_605_22969" x1="22.6228" y1="4.53571" x2="19.361" y2="20.4074" gradientUnits="userSpaceOnUse">
<stop offset="0.196341" stop-color="white"/>
<stop offset="0.850001" stop-color="#A6C4FF"/>
</linearGradient>
<linearGradient id="paint8_linear_605_22969" x1="15.6833" y1="4.52843" x2="13.8784" y2="20.8441" gradientUnits="userSpaceOnUse">
<stop offset="0.196341" stop-color="white"/>
<stop offset="0.850001" stop-color="#A6C4FF"/>
</linearGradient>
<linearGradient id="paint9_linear_605_22969" x1="7.82013" y1="4.52843" x2="4.33059" y2="20.2702" gradientUnits="userSpaceOnUse">
<stop offset="0.196341" stop-color="white"/>
<stop offset="0.850001" stop-color="#A6C4FF"/>
</linearGradient>
<linearGradient id="paint10_linear_605_22969" x1="44.1151" y1="1.63791" x2="43.3876" y2="7.47526" gradientUnits="userSpaceOnUse">
<stop offset="0.196341" stop-color="white"/>
<stop offset="0.850001" stop-color="#A6C4FF"/>
</linearGradient>
<linearGradient id="paint11_linear_605_22969" x1="41.3087" y1="13.144" x2="40.6598" y2="18.9083" gradientUnits="userSpaceOnUse">
<stop offset="0.196341" stop-color="white"/>
<stop offset="0.850001" stop-color="#A6C4FF"/>
</linearGradient>
<linearGradient id="paint12_linear_605_22969" x1="52.0971" y1="18.1975" x2="51.5377" y2="25.1396" gradientUnits="userSpaceOnUse">
<stop offset="0.196341" stop-color="white"/>
<stop offset="0.850001" stop-color="#A6C4FF"/>
</linearGradient>
<linearGradient id="paint13_linear_605_22969" x1="61.132" y1="2.62603" x2="59.8045" y2="11.985" gradientUnits="userSpaceOnUse">
<stop offset="0.196341" stop-color="white"/>
<stop offset="0.850001" stop-color="#A6C4FF"/>
</linearGradient>
<linearGradient id="paint14_linear_605_22969" x1="71.9041" y1="9.07995" x2="70.1275" y2="22.1925" gradientUnits="userSpaceOnUse">
<stop offset="0.196341" stop-color="white"/>
<stop offset="0.850001" stop-color="#A6C4FF"/>
</linearGradient>
<linearGradient id="paint15_linear_605_22969" x1="79.5192" y1="4.53467" x2="74.9375" y2="19.6876" gradientUnits="userSpaceOnUse">
<stop offset="0.196341" stop-color="white"/>
<stop offset="0.850001" stop-color="#A6C4FF"/>
</linearGradient>
<linearGradient id="paint16_linear_605_22969" x1="98.9385" y1="4.51624" x2="95.7025" y2="20.3989" gradientUnits="userSpaceOnUse">
<stop offset="0.196341" stop-color="white"/>
<stop offset="0.850001" stop-color="#A6C4FF"/>
</linearGradient>
<linearGradient id="paint17_linear_605_22969" x1="106.086" y1="14.0199" x2="103.979" y2="23.4511" gradientUnits="userSpaceOnUse">
<stop offset="0.196341" stop-color="white"/>
<stop offset="0.850001" stop-color="#A6C4FF"/>
</linearGradient>
<linearGradient id="paint18_linear_605_22969" x1="164.627" y1="4.49235" x2="162.262" y2="20.6968" gradientUnits="userSpaceOnUse">
<stop offset="0.196341" stop-color="white"/>
<stop offset="0.850001" stop-color="#A6C4FF"/>
</linearGradient>
<linearGradient id="paint19_linear_605_22969" x1="143.377" y1="4.49235" x2="141.789" y2="20.8883" gradientUnits="userSpaceOnUse">
<stop offset="0.196341" stop-color="white"/>
<stop offset="0.850001" stop-color="#A6C4FF"/>
</linearGradient>
<linearGradient id="paint20_linear_605_22969" x1="135.454" y1="4.49235" x2="132.671" y2="20.5599" gradientUnits="userSpaceOnUse">
<stop offset="0.196341" stop-color="white"/>
<stop offset="0.850001" stop-color="#A6C4FF"/>
</linearGradient>
<linearGradient id="paint21_linear_605_22969" x1="166.566" y1="4.52817" x2="163.746" y2="20.5704" gradientUnits="userSpaceOnUse">
<stop offset="0.196341" stop-color="white"/>
<stop offset="0.850001" stop-color="#A6C4FF"/>
</linearGradient>
<linearGradient id="paint22_linear_605_22969" x1="164.914" y1="11.0657" x2="163.126" y2="22.7629" gradientUnits="userSpaceOnUse">
<stop offset="0.196341" stop-color="white"/>
<stop offset="0.850001" stop-color="#A6C4FF"/>
</linearGradient>
<linearGradient id="paint23_linear_605_22969" x1="135.249" y1="15.4025" x2="134.394" y2="24.2693" gradientUnits="userSpaceOnUse">
<stop offset="0.196341" stop-color="white"/>
<stop offset="0.850001" stop-color="#A6C4FF"/>
</linearGradient>
<linearGradient id="paint24_linear_605_22969" x1="139.249" y1="3.09962" x2="137.064" y2="14.1145" gradientUnits="userSpaceOnUse">
<stop offset="0.196341" stop-color="white"/>
<stop offset="0.850001" stop-color="#A6C4FF"/>
</linearGradient>
<linearGradient id="paint25_linear_605_22969" x1="122.347" y1="8.40141" x2="121.617" y2="14.5478" gradientUnits="userSpaceOnUse">
<stop offset="0.196341" stop-color="white"/>
<stop offset="0.850001" stop-color="#A6C4FF"/>
</linearGradient>
<linearGradient id="paint26_linear_605_22969" x1="119.474" y1="9.56493" x2="116.948" y2="17.0927" gradientUnits="userSpaceOnUse">
<stop offset="0.196341" stop-color="white"/>
<stop offset="0.850001" stop-color="#A6C4FF"/>
</linearGradient>
<clipPath id="clip0_605_22969">
<rect width="176" height="47" fill="white"/>
</clipPath>
</defs>
</svg>
