<svg width="120" height="120" viewBox="0 0 120 120" fill="none" xmlns="http://www.w3.org/2000/svg">
<g clip-path="url(#clip0_246_5126)">
<path fill-rule="evenodd" clip-rule="evenodd" d="M25.36 13.68C32.93 8.01 41.94 4.15 51.73 2.75V4.77C42.48 6.14 33.97 9.78 26.79 15.11L25.36 13.68ZM13.68 25.36C8.01 32.93 4.15 41.94 2.75 51.74H4.77C6.14 42.49 9.78 33.98 15.11 26.79L13.68 25.36ZM93.21 104.89C86.02 110.22 77.51 113.86 68.26 115.23V117.25C78.06 115.85 87.07 111.99 94.64 106.32L93.21 104.89ZM106.32 94.64C111.99 87.07 115.85 78.06 117.25 68.27H115.23C113.86 77.52 110.22 86.03 104.89 93.22L106.32 94.64ZM2.75 68.26C4.15 78.06 8.01 87.06 13.68 94.64L15.11 93.21C9.79 86.02 6.14 77.51 4.77 68.26H2.75ZM51.74 117.25C41.94 115.85 32.94 111.99 25.37 106.32L26.8 104.89C33.99 110.21 42.5 113.85 51.74 115.23V117.25ZM115.23 51.74C113.86 42.49 110.22 33.98 104.89 26.79L106.32 25.36C111.99 32.93 115.85 41.94 117.25 51.74H115.23ZM68.26 2.75C78.06 4.15 87.07 8.01 94.64 13.68L93.21 15.11C86.02 9.78 77.51 6.14 68.26 4.77V2.75Z" fill="url(#paint0_linear_246_5126)"/>
<path d="M99.0198 7.53H113.07M89.7598 2.75H117.25H89.7598Z" stroke="white"/>
<path d="M60.0001 107.67C86.3275 107.67 107.67 86.3275 107.67 60.0001C107.67 33.6727 86.3275 12.3301 60.0001 12.3301C33.6727 12.3301 12.3301 33.6727 12.3301 60.0001C12.3301 86.3275 33.6727 107.67 60.0001 107.67Z" stroke="white"/>
<path opacity="0.3" d="M49.2404 19.8601H70.7504L89.3803 30.6201L100.14 49.2501V70.7601L89.3803 89.3801L70.7504 100.13H49.2404L30.6104 89.3801L19.8604 70.7601V49.2501L30.6204 30.6201L49.2404 19.8601Z" stroke="white"/>
<path d="M51.0104 26.4399H68.9904L84.5704 35.4299L93.5604 51.0099V68.9899L84.5704 84.5699L68.9904 93.5599H51.0104L35.4304 84.5699L26.4404 68.9899V51.0099L35.4304 35.4299L51.0104 26.4399Z" stroke="white"/>
<path opacity="0.1" d="M60.0004 70.3099C65.6945 70.3099 70.3104 65.694 70.3104 59.9999C70.3104 54.3059 65.6945 49.6899 60.0004 49.6899C54.3064 49.6899 49.6904 54.3059 49.6904 59.9999C49.6904 65.694 54.3064 70.3099 60.0004 70.3099Z" fill="white"/>
<path d="M35.3798 53.22L13.7998 47.15M52.9298 35.47L46.7198 13.78L52.9298 35.47ZM66.7598 35.47L72.6898 13.78L66.7598 35.47ZM77.9298 42.01L93.5998 26.1L77.9298 42.01ZM84.3898 53.41L106.22 47.5L84.3898 53.41ZM84.8698 66.34L106.29 71.67L84.8698 66.34ZM78.1598 77.79L94.1298 93.31L78.1598 77.79ZM66.5398 84.69L72.2798 106.24L66.5398 84.69ZM53.3798 84.69C51.5598 91.43 49.7598 98.09 47.6098 106.04L53.3798 84.69ZM41.7798 77.97L25.7898 93.54L41.7798 77.97ZM35.2898 66.12L13.7998 71.44L35.2898 66.12Z" stroke="white"/>
<path d="M23.18 20.38C23.18 21.93 21.92 23.19 20.37 23.19C18.82 23.19 17.56 21.93 17.56 20.38C17.56 18.83 18.82 17.57 20.37 17.57C21.93 17.57 23.18 18.83 23.18 20.38ZM102.43 99.62C102.43 101.17 101.17 102.43 99.63 102.43C98.08 102.43 96.82 101.17 96.82 99.62C96.82 98.07 98.08 96.81 99.63 96.81C101.17 96.82 102.43 98.07 102.43 99.62ZM20.38 96.82C21.93 96.82 23.19 98.08 23.19 99.63C23.19 101.18 21.93 102.44 20.38 102.44C18.83 102.44 17.57 101.18 17.57 99.63C17.57 98.07 18.83 96.82 20.38 96.82ZM99.62 17.57C101.17 17.57 102.43 18.83 102.43 20.38C102.43 21.93 101.17 23.19 99.62 23.19C98.07 23.19 96.81 21.93 96.81 20.38C96.82 18.83 98.07 17.57 99.62 17.57ZM62.8 3.31C62.8 4.86 61.54 6.12 60 6.12C58.45 6.12 57.19 4.86 57.19 3.31C57.19 1.76 58.45 0.5 60 0.5C61.55 0.5 62.8 1.76 62.8 3.31ZM62.8 116.7C62.8 118.25 61.54 119.51 60 119.51C58.45 119.51 57.19 118.25 57.19 116.7C57.19 115.15 58.45 113.89 60 113.89C61.55 113.89 62.8 115.15 62.8 116.7ZM116.69 62.81C115.14 62.81 113.88 61.55 113.88 60C113.88 58.45 115.14 57.19 116.69 57.19C118.24 57.19 119.5 58.45 119.5 60C119.5 61.55 118.24 62.81 116.69 62.81ZM3.31 62.8C1.76 62.8 0.5 61.55 0.5 60C0.5 58.45 1.76 57.19 3.31 57.19C4.86 57.19 6.12 58.45 6.12 60C6.11 61.55 4.85 62.8 3.31 62.8Z" stroke="white"/>
<path d="M53.3798 35.3101H66.6098L78.0698 41.9301L84.6898 53.3901V66.6201L78.0698 78.0801L66.6098 84.7001H53.3798L41.9198 78.0801L35.2998 66.6201V53.3801L41.9198 41.9201L53.3798 35.3101Z" stroke="url(#paint1_linear_246_5126)"/>
<path d="M60.0004 63.0999C61.7125 63.0999 63.1004 61.712 63.1004 59.9999C63.1004 58.2878 61.7125 56.8999 60.0004 56.8999C58.2883 56.8999 56.9004 58.2878 56.9004 59.9999C56.9004 61.712 58.2883 63.0999 60.0004 63.0999Z" fill="white"/>
<path d="M61.7104 59.39L24.4404 24.22L59.6004 61.49L61.7104 59.39Z" fill="white"/>
<path d="M9.75 8.58008L13.25 14.6501H6.25L9.75 8.58008Z" fill="url(#paint2_linear_246_5126)"/>
<path d="M106.29 112.21L102.79 106.14H109.79L106.29 112.21Z" fill="url(#paint3_linear_246_5126)"/>
</g>
<defs>
<linearGradient id="paint0_linear_246_5126" x1="61.3489" y1="21.0931" x2="53.3656" y2="87.3178" gradientUnits="userSpaceOnUse">
<stop offset="0.196341" stop-color="white"/>
<stop offset="0.850001" stop-color="#A6C4FF"/>
</linearGradient>
<linearGradient id="paint1_linear_246_5126" x1="60.5766" y1="43.2224" x2="57.133" y2="71.7887" gradientUnits="userSpaceOnUse">
<stop offset="0.196341" stop-color="white"/>
<stop offset="0.850001" stop-color="#A6C4FF"/>
</linearGradient>
<linearGradient id="paint2_linear_246_5126" x1="9.83246" y1="9.5525" x2="9.46417" y2="13.0758" gradientUnits="userSpaceOnUse">
<stop offset="0.196341" stop-color="white"/>
<stop offset="0.850001" stop-color="#A6C4FF"/>
</linearGradient>
<linearGradient id="paint3_linear_246_5126" x1="106.373" y1="107.112" x2="106.004" y2="110.636" gradientUnits="userSpaceOnUse">
<stop offset="0.196341" stop-color="white"/>
<stop offset="0.850001" stop-color="#A6C4FF"/>
</linearGradient>
<clipPath id="clip0_246_5126">
<rect width="120" height="120" fill="white"/>
</clipPath>
</defs>
</svg>
