<svg width="120" height="120" viewBox="0 0 120 120" fill="none" xmlns="http://www.w3.org/2000/svg">
<g clip-path="url(#clip0_246_5077)">
<path opacity="0.5" fill-rule="evenodd" clip-rule="evenodd" d="M59.8204 60.1702C46.9956 60.1702 34.2279 62.995 24.5301 68.5961C14.8293 74.1987 10.2021 81.4038 10.2021 88.3962C10.2021 95.3986 14.8292 102.594 24.5301 108.196C34.2279 113.797 46.9956 116.622 59.8204 116.622C72.6452 116.622 85.4128 113.797 95.1107 108.196L95.1112 108.196C104.821 102.604 109.439 95.399 109.439 88.3962C109.439 81.4038 104.811 74.1987 95.1107 68.5961C85.4128 62.995 72.6452 60.1702 59.8204 60.1702ZM24.0299 67.7301C33.9157 62.0206 46.8667 59.1702 59.8204 59.1702C72.7741 59.1702 85.725 62.0206 95.6108 67.7301C105.494 73.438 110.439 80.9207 110.439 88.3962C110.439 95.8813 105.504 103.364 95.6108 109.062C85.725 114.772 72.7741 117.622 59.8204 117.622C46.8667 117.622 33.9157 114.772 24.0299 109.062C14.1471 103.355 9.20215 95.8818 9.20215 88.3962C9.20215 80.9207 14.147 73.438 24.0299 67.7301Z" fill="white"/>
<path opacity="0.2" fill-rule="evenodd" clip-rule="evenodd" d="M59.8199 68.1836C50.5423 68.1836 41.3315 70.2291 34.3412 74.2616C27.3482 78.3056 24.0801 83.4523 24.0801 88.3963C24.0801 93.3407 27.3487 98.4974 34.3412 102.531C41.3315 106.564 50.5423 108.609 59.8199 108.609C69.0975 108.609 78.3082 106.564 85.2986 102.531C92.2911 98.4974 95.5597 93.3407 95.5597 88.3963C95.5597 83.4519 92.2911 78.2953 85.2986 74.2616C78.3083 70.2291 69.0875 68.1836 59.8199 68.1836ZM33.8415 73.3954C41.0193 69.2547 50.413 67.1836 59.8199 67.1836C69.2167 67.1836 78.6204 69.2547 85.7983 73.3954C92.974 77.5348 96.5597 82.9694 96.5597 88.3963C96.5597 93.8233 92.974 99.2578 85.7983 103.397C78.6204 107.538 69.2267 109.609 59.8199 109.609C50.413 109.609 41.0193 107.538 33.8415 103.397C26.6657 99.2578 23.0801 93.8233 23.0801 88.3963C23.0801 82.9691 26.6661 77.5448 33.841 73.3956L33.8415 73.3954Z" fill="white"/>
<path opacity="0.2" fill-rule="evenodd" clip-rule="evenodd" d="M59.8199 79.574C55.5973 79.574 51.423 80.5007 48.2903 82.3143L48.2897 82.3147C45.1442 84.1301 43.8037 86.3691 43.8037 88.3962C43.8037 90.4322 45.1529 92.6616 48.29 94.4779C51.4237 96.2822 55.5986 97.2184 59.8199 97.2184C64.0426 97.2184 68.2169 96.2917 71.3496 94.4781L71.3512 94.4772C74.4953 92.6722 75.8362 90.4336 75.8362 88.3962C75.8362 86.3603 74.487 84.1309 71.3502 82.3147C68.2164 80.5102 64.0414 79.574 59.8199 79.574ZM47.7895 81.4488C51.1114 79.5256 55.4699 78.574 59.8199 78.574C64.1711 78.574 68.5288 79.5361 71.8496 81.4483L71.8507 81.4489C75.168 83.3695 76.8362 85.8761 76.8362 88.3962C76.8362 90.9149 75.1798 93.4321 71.8499 95.344C68.528 97.2669 64.1698 98.2184 59.8199 98.2184C55.4688 98.2184 51.1111 97.2564 47.7903 95.3441L47.7892 95.3435C44.4719 93.4229 42.8037 90.9163 42.8037 88.3962C42.8037 85.8871 44.4606 83.3702 47.7895 81.4488Z" fill="white"/>
<path fill-rule="evenodd" clip-rule="evenodd" d="M59.7104 15.9485L101.087 39.8936L100.586 40.7591L59.7103 17.1038L18.825 40.7591L18.3242 39.8935L59.7104 15.9485Z" fill="white"/>
<path fill-rule="evenodd" clip-rule="evenodd" d="M101.476 39.1604V88.1353L59.8204 112.19L59.3203 111.324L100.476 87.558V40.8926L59.8204 64.3696L59.3203 63.5036L101.476 39.1604Z" fill="white"/>
<path d="M100.986 7.70337L59.5703 31.6134V111.747L100.976 87.8366V7.70337H100.986Z" fill="url(#paint0_linear_246_5077)"/>
<path opacity="0.5" d="M18.165 7.70337L59.5805 31.6134V111.747L18.165 87.8466V7.70337Z" fill="url(#paint1_linear_246_5077)"/>
<path fill-rule="evenodd" clip-rule="evenodd" d="M59.2002 111.757V63.9365H60.2002V111.757H59.2002Z" fill="white"/>
<path fill-rule="evenodd" clip-rule="evenodd" d="M17.9141 39.1606L60.0795 63.5037L59.5796 64.3697L18.9141 40.8927V87.5581L60.0795 111.324L59.5796 112.19L17.9141 88.1355V39.1606Z" fill="white"/>
<path d="M23.9601 9.85161C24.5119 9.85161 24.9593 9.40426 24.9593 8.85244C24.9593 8.30061 24.5119 7.85327 23.9601 7.85327C23.4083 7.85327 22.9609 8.30061 22.9609 8.85244C22.9609 9.40426 23.4083 9.85161 23.9601 9.85161Z" fill="url(#paint2_linear_246_5077)"/>
<path d="M69.6818 49.4187C70.2336 49.4187 70.681 48.9714 70.681 48.4196C70.681 47.8678 70.2336 47.4204 69.6818 47.4204C69.13 47.4204 68.6826 47.8678 68.6826 48.4196C68.6826 48.9714 69.13 49.4187 69.6818 49.4187Z" fill="url(#paint3_linear_246_5077)"/>
<path d="M35.8097 59.1805C36.3615 59.1805 36.8089 58.7331 36.8089 58.1813C36.8089 57.6295 36.3615 57.1821 35.8097 57.1821C35.2579 57.1821 34.8105 57.6295 34.8105 58.1813C34.8105 58.7331 35.2579 59.1805 35.8097 59.1805Z" fill="url(#paint4_linear_246_5077)"/>
<path d="M35.8104 18.2347C36.1635 18.2347 36.4498 17.9484 36.4498 17.5953C36.4498 17.2421 36.1635 16.9558 35.8104 16.9558C35.4572 16.9558 35.1709 17.2421 35.1709 17.5953C35.1709 17.9484 35.4572 18.2347 35.8104 18.2347Z" fill="white"/>
<path d="M106.011 38.8376C107.098 38.8376 107.98 37.9563 107.98 36.8692C107.98 35.7821 107.098 34.9009 106.011 34.9009C104.924 34.9009 104.043 35.7821 104.043 36.8692C104.043 37.9563 104.924 38.8376 106.011 38.8376Z" fill="url(#paint5_linear_246_5077)"/>
<path d="M66.644 93.8116C67.56 93.8116 68.3026 93.069 68.3026 92.153C68.3026 91.237 67.56 90.4944 66.644 90.4944C65.7279 90.4944 64.9854 91.237 64.9854 92.153C64.9854 93.069 65.7279 93.8116 66.644 93.8116Z" fill="white"/>
<path d="M93.5614 66.6844C94.1077 66.6844 94.5506 66.2415 94.5506 65.6952C94.5506 65.1489 94.1077 64.7061 93.5614 64.7061C93.0151 64.7061 92.5723 65.1489 92.5723 65.6952C92.5723 66.2415 93.0151 66.6844 93.5614 66.6844Z" fill="white"/>
<path d="M11.3604 68.2429C12.5523 68.2429 13.5186 67.2767 13.5186 66.0847C13.5186 64.8928 12.5523 63.9265 11.3604 63.9265C10.1684 63.9265 9.20215 64.8928 9.20215 66.0847C9.20215 67.2767 10.1684 68.2429 11.3604 68.2429Z" fill="white"/>
<path d="M50.4874 39.637C50.824 39.637 51.0969 39.3641 51.0969 39.0275C51.0969 38.6908 50.824 38.418 50.4874 38.418C50.1508 38.418 49.8779 38.6908 49.8779 39.0275C49.8779 39.3641 50.1508 39.637 50.4874 39.637Z" fill="white"/>
<path d="M101.985 113.735C102.532 113.735 102.974 113.292 102.974 112.746C102.974 112.2 102.532 111.757 101.985 111.757C101.439 111.757 100.996 112.2 100.996 112.746C100.996 113.292 101.439 113.735 101.985 113.735Z" fill="white"/>
<path fill-rule="evenodd" clip-rule="evenodd" d="M68.1337 -0.00439453L110.435 25.1112L100.629 40.6432L99.7833 40.1093L109.041 25.4464L68.5117 1.38304L60.048 16.7671L59.1719 16.2851L68.1337 -0.00439453Z" fill="white"/>
<path fill-rule="evenodd" clip-rule="evenodd" d="M9.88078 48.4215L19.0159 40.7492L18.3728 39.9834L8.16406 48.5575L29.6077 61.4278L50.8037 74.1433L60.0523 64.4313L59.3281 63.7417L50.6316 72.874L30.1224 60.5704L9.88078 48.4215Z" fill="white"/>
<path fill-rule="evenodd" clip-rule="evenodd" d="M48.2312 3.52075L60.246 16.4354L59.5138 17.1165L48.0482 4.7922L7.54996 28.8273L19.297 39.9026L18.611 40.6302L5.89844 28.6446L48.2312 3.52075Z" fill="white"/>
<path fill-rule="evenodd" clip-rule="evenodd" d="M100.235 39.8857L117.634 44.8814L75.025 70.1694L59.9395 65.0496L60.2608 64.1027L74.9105 69.0745L115.132 45.2035L99.9588 40.8469L100.235 39.8857Z" fill="white"/>
<path opacity="0.8" d="M71.68 12.8692L70.9307 25.7584L82.4411 21.9416L81.7816 9.51196L71.68 12.8692Z" fill="url(#paint6_linear_246_5077)"/>
<path opacity="0.8" d="M66.9541 35.78L75.2772 34.2313L86.3479 30.5544L80.8725 29.835L66.9541 35.78Z" fill="url(#paint7_linear_246_5077)"/>
<path d="M70.9308 25.7585L66.9541 35.7801L85.039 29.7851L82.4412 21.9417L70.9308 25.7585Z" fill="url(#paint8_linear_246_5077)"/>
<path d="M75.2773 34.2314L84.4597 37.7884L94.5613 34.4412L85.9784 30.6843L75.2773 34.2314Z" fill="url(#paint9_linear_246_5077)"/>
<path d="M94.5513 34.4412L85.369 30.8842L77.0459 32.4329L81.0226 22.4112L81.772 9.52197L86.9776 23.1007L94.5513 34.4412Z" fill="url(#paint10_linear_246_5077)"/>
<path opacity="0.8" d="M62.9369 41.6751L57.4614 24.8391L44.6621 35.4603L51.6962 50.9973L62.9369 41.6751Z" fill="url(#paint11_linear_246_5077)"/>
<path opacity="0.8" d="M57.5414 10.0715L47.6896 16.1964L35.3799 26.4079L42.7238 24.5994L57.5414 10.0715Z" fill="url(#paint12_linear_246_5077)"/>
<path d="M57.4618 24.8392L57.5417 10.0615L37.4385 26.7476L44.6625 35.4604L57.4618 24.8392Z" fill="url(#paint13_linear_246_5077)"/>
<path d="M47.6901 16.1963L34.2013 16.2363L22.9707 25.5485L35.81 26.0581L47.6901 16.1963Z" fill="url(#paint14_linear_246_5077)"/>
<path d="M22.9609 25.5487L36.4497 25.5087L46.3015 19.3838L46.2216 34.1615L51.697 50.9974L38.2882 36.2497L22.9609 25.5487Z" fill="url(#paint15_linear_246_5077)"/>
</g>
<defs>
<linearGradient id="paint0_linear_246_5077" x1="80.7659" y1="24.3713" x2="63.8305" y2="80.2938" gradientUnits="userSpaceOnUse">
<stop offset="0.196341" stop-color="white"/>
<stop offset="0.850001" stop-color="#A6C4FF"/>
</linearGradient>
<linearGradient id="paint1_linear_246_5077" x1="39.3607" y1="24.3713" x2="22.4252" y2="80.2938" gradientUnits="userSpaceOnUse">
<stop offset="0.196341" stop-color="white"/>
<stop offset="0.850001" stop-color="#A6C4FF"/>
</linearGradient>
<linearGradient id="paint2_linear_246_5077" x1="23.9836" y1="8.17341" x2="23.8443" y2="9.32921" gradientUnits="userSpaceOnUse">
<stop offset="0.196341" stop-color="white"/>
<stop offset="0.850001" stop-color="#A6C4FF"/>
</linearGradient>
<linearGradient id="paint3_linear_246_5077" x1="69.7053" y1="47.7405" x2="69.566" y2="48.8963" gradientUnits="userSpaceOnUse">
<stop offset="0.196341" stop-color="white"/>
<stop offset="0.850001" stop-color="#A6C4FF"/>
</linearGradient>
<linearGradient id="paint4_linear_246_5077" x1="35.8333" y1="57.5023" x2="35.6939" y2="58.6581" gradientUnits="userSpaceOnUse">
<stop offset="0.196341" stop-color="white"/>
<stop offset="0.850001" stop-color="#A6C4FF"/>
</linearGradient>
<linearGradient id="paint5_linear_246_5077" x1="106.058" y1="35.5315" x2="105.783" y2="37.8085" gradientUnits="userSpaceOnUse">
<stop offset="0.196341" stop-color="white"/>
<stop offset="0.850001" stop-color="#A6C4FF"/>
</linearGradient>
<linearGradient id="paint6_linear_246_5077" x1="76.8215" y1="12.1147" x2="75.245" y2="21.3796" gradientUnits="userSpaceOnUse">
<stop offset="0.196341" stop-color="white"/>
<stop offset="0.850001" stop-color="#A6C4FF"/>
</linearGradient>
<linearGradient id="paint7_linear_246_5077" x1="76.8795" y1="30.7874" x2="76.7508" y2="34.2711" gradientUnits="userSpaceOnUse">
<stop offset="0.196341" stop-color="white"/>
<stop offset="0.850001" stop-color="#A6C4FF"/>
</linearGradient>
<linearGradient id="paint8_linear_246_5077" x1="76.2096" y1="24.1586" x2="75.4669" y2="32.2103" gradientUnits="userSpaceOnUse">
<stop offset="0.196341" stop-color="white"/>
<stop offset="0.850001" stop-color="#A6C4FF"/>
</linearGradient>
<linearGradient id="paint9_linear_246_5077" x1="85.1465" y1="31.8224" x2="84.9617" y2="35.9828" gradientUnits="userSpaceOnUse">
<stop offset="0.196341" stop-color="white"/>
<stop offset="0.850001" stop-color="#A6C4FF"/>
</linearGradient>
<linearGradient id="paint10_linear_246_5077" x1="86.0048" y1="13.5141" x2="83.5674" y2="27.7181" gradientUnits="userSpaceOnUse">
<stop offset="0.196341" stop-color="white"/>
<stop offset="0.850001" stop-color="#A6C4FF"/>
</linearGradient>
<linearGradient id="paint11_linear_246_5077" x1="54.0148" y1="29.0297" x2="51.4428" y2="43.9352" gradientUnits="userSpaceOnUse">
<stop offset="0.196341" stop-color="white"/>
<stop offset="0.850001" stop-color="#A6C4FF"/>
</linearGradient>
<linearGradient id="paint12_linear_246_5077" x1="46.7217" y1="12.6887" x2="45.8766" y2="22.1995" gradientUnits="userSpaceOnUse">
<stop offset="0.196341" stop-color="white"/>
<stop offset="0.850001" stop-color="#A6C4FF"/>
</linearGradient>
<linearGradient id="paint13_linear_246_5077" x1="47.7269" y1="14.1305" x2="45.5085" y2="28.6963" gradientUnits="userSpaceOnUse">
<stop offset="0.196341" stop-color="white"/>
<stop offset="0.850001" stop-color="#A6C4FF"/>
</linearGradient>
<linearGradient id="paint14_linear_246_5077" x1="35.6216" y1="17.7762" x2="35.344" y2="23.5496" gradientUnits="userSpaceOnUse">
<stop offset="0.196341" stop-color="white"/>
<stop offset="0.850001" stop-color="#A6C4FF"/>
</linearGradient>
<linearGradient id="paint15_linear_246_5077" x1="37.6675" y1="24.4484" x2="35.2499" y2="42.6782" gradientUnits="userSpaceOnUse">
<stop offset="0.196341" stop-color="white"/>
<stop offset="0.850001" stop-color="#A6C4FF"/>
</linearGradient>
<clipPath id="clip0_246_5077">
<rect width="119.9" height="120" fill="white"/>
</clipPath>
</defs>
</svg>
