<svg width="161" height="129" viewBox="0 0 161 129" fill="none" xmlns="http://www.w3.org/2000/svg">
<path d="M27.4118 128.766L26.1289 128.086C26.6767 127.046 31.517 115.244 36.6416 102.748C41.7592 90.2659 47.5564 76.1265 51.2594 67.3613L52.5978 67.923C48.8948 76.6813 43.1045 90.8206 37.9869 103.296C32.4046 116.915 27.9943 127.663 27.4118 128.766Z" fill="url(#paint0_linear_749_29646)"/>
<path d="M54.3657 127.448L52.958 127.109C55.3157 117.366 57.2504 107.144 59.1297 97.2626C60.9951 87.4157 62.9298 77.2428 65.2806 67.4722L66.6883 67.812C64.3444 77.541 62.4166 87.7 60.5582 97.5262C58.672 107.436 56.7304 117.671 54.3657 127.448Z" fill="url(#paint1_linear_749_29646)"/>
<path d="M81.1329 127.393L79.6836 127.379C79.8986 107.29 79.8986 87.7556 79.6836 67.6525L81.1329 67.6387C81.3479 87.7486 81.3479 107.297 81.1329 127.393Z" fill="url(#paint2_linear_749_29646)"/>
<path d="M106.16 127.483C104.024 118.177 102.214 108.566 100.467 99.2739C98.5461 89.0802 96.5628 78.5398 94.1357 68.3045L95.5504 67.9717C97.9913 78.2416 99.9746 88.8028 101.902 99.0104C103.65 108.289 105.453 117.879 107.582 127.164L106.16 127.483Z" fill="url(#paint3_linear_749_29646)"/>
<path d="M132.566 127.608C128.974 118.711 125.195 109.766 121.54 101.105C116.971 90.2798 112.241 79.0876 107.838 67.9092L109.19 67.3752C113.587 78.5328 118.309 89.7181 122.879 100.536C126.533 109.197 130.313 118.149 133.918 127.06L132.566 127.608Z" fill="url(#paint4_linear_749_29646)"/>
<path d="M112.262 66.9175H47.7441V68.3668H112.262V66.9175Z" fill="url(#paint5_linear_749_29646)"/>
<path d="M160.013 126.436H0V127.885H160.013V126.436Z" fill="url(#paint6_linear_749_29646)"/>
<path d="M149.528 111.922H10.4854V113.371H149.528V111.922Z" fill="url(#paint7_linear_749_29646)"/>
<path d="M143.072 98.8577H16.9336V100.307H143.072V98.8577Z" fill="url(#paint8_linear_749_29646)"/>
<path d="M137.108 88.6917H22.9043V90.141H137.108V88.6917Z" fill="url(#paint9_linear_749_29646)"/>
<path d="M132.587 81.4382H27.4189V82.8875H132.587V81.4382Z" fill="url(#paint10_linear_749_29646)"/>
<path d="M127.913 76.5979H32.0996V78.0472H127.913V76.5979Z" fill="url(#paint11_linear_749_29646)"/>
<path d="M123.558 72.7285H36.4541V74.1778H123.558V72.7285Z" fill="url(#paint12_linear_749_29646)"/>
<path d="M118.073 69.823H41.9395V71.2723H118.073V69.823Z" fill="url(#paint13_linear_749_29646)"/>
<path d="M80.204 32.1343C68.1727 32.1343 58.4229 41.8841 58.4229 53.9154C58.4229 54.0056 58.4298 54.0957 58.4298 54.1928C66.6679 54.3176 72.1947 54.5049 72.1947 54.7615C72.1947 55.025 66.6887 55.2053 58.4714 55.3301C58.5407 56.3841 58.6794 57.4243 58.8944 58.4298C70.4195 58.4229 79.2887 58.4367 80.6756 58.4367C82.0209 58.4367 90.4462 58.4229 101.507 58.4298C101.819 56.9736 101.985 55.4618 101.985 53.9085C101.985 41.8911 92.2353 32.1343 80.204 32.1343Z" fill="url(#paint14_linear_749_29646)"/>
<path d="M80.6753 60.1357C79.3092 60.1357 70.6411 60.1496 59.3379 60.1427C59.5667 60.9124 59.8372 61.6613 60.1423 62.3894C69.06 62.3894 75.5507 62.3964 76.7157 62.3964C78.1719 62.3964 87.8871 62.3825 100.258 62.3964C100.57 61.6613 100.834 60.9124 101.07 60.1427C90.231 60.1496 82.0067 60.1357 80.6753 60.1357Z" fill="url(#paint15_linear_749_29646)"/>
<path d="M76.7161 64.0952C75.5857 64.0952 69.4487 64.1022 60.9609 64.1022C61.5781 65.2671 62.2993 66.3697 63.1106 67.403C74.3167 67.3752 86.1677 67.3752 97.2976 67.4099C98.1089 66.3767 98.8301 65.2741 99.4542 64.1022C87.4645 64.116 78.1376 64.0952 76.7161 64.0952Z" fill="url(#paint16_linear_749_29646)"/>
<g opacity="0.5">
<path opacity="0.5" d="M80.0027 28.9861C66.0852 28.9861 54.7959 40.2685 54.7959 54.1929C54.7959 54.2969 54.8028 54.4079 54.8028 54.5119C64.3377 54.6575 70.7313 54.8725 70.7313 55.1706C70.7313 55.4758 64.3585 55.6838 54.8514 55.8294C54.9346 57.0499 55.0941 58.2496 55.3437 59.4215C68.6787 59.4076 78.9417 59.4284 80.5436 59.4284C82.1038 59.4284 91.8537 59.4145 104.648 59.4215C105.008 57.7364 105.196 55.9889 105.196 54.1929C105.209 40.2685 93.9271 28.9861 80.0027 28.9861Z" fill="url(#paint17_linear_749_29646)"/>
<path opacity="0.5" d="M80.5501 61.3909C78.969 61.3909 68.9418 61.4047 55.8564 61.3978C56.12 62.2854 56.432 63.1592 56.7857 64.0052C67.1042 64.0052 74.6142 64.0121 75.9664 64.0121C77.6515 64.0121 88.8923 63.9913 103.212 64.0121C103.573 63.1661 103.878 62.2924 104.148 61.4047C91.6036 61.4047 82.0896 61.3909 80.5501 61.3909Z" fill="url(#paint18_linear_749_29646)"/>
<path opacity="0.5" d="M75.9672 65.9746C74.6565 65.9746 67.5626 65.9815 57.7295 65.9815C58.4437 67.3268 59.2759 68.6097 60.219 69.8024C73.1864 69.7678 86.9028 69.7678 99.7801 69.8094C100.723 68.6166 101.555 67.3338 102.277 65.9815C88.4076 65.9954 77.6176 65.9746 75.9672 65.9746Z" fill="url(#paint19_linear_749_29646)"/>
</g>
<path d="M51.3215 17.3223H47.9375V20.7063H51.3215V17.3223Z" fill="white"/>
<path d="M135.825 49.9211H133.287V52.4592H135.825V49.9211Z" fill="white"/>
<path d="M107.096 31.8359H104.558V34.374H107.096V31.8359Z" fill="white"/>
<path d="M43.5551 40.6982H41.8076V42.4457H43.5551V40.6982Z" fill="white"/>
<path d="M75.8207 0.866699H74.0732V2.61419H75.8207V0.866699Z" fill="white"/>
<path d="M66.8129 16.5386H65.0654V18.2861H66.8129V16.5386Z" fill="white"/>
<path d="M92.9428 18.9587H91.1953V20.7062H92.9428V18.9587Z" fill="white"/>
<path d="M129.723 26.7046H127.976V28.4521H129.723V26.7046Z" fill="white"/>
<path d="M111.514 27.176H108.13V30.56H111.514V27.176Z" fill="#F6F6F6"/>
<path d="M26.164 59.782H23.626V62.32H26.164V59.782Z" fill="#F6F6F6"/>
<path d="M54.8935 41.6968H52.3555V44.2348H54.8935V41.6968Z" fill="#F6F6F6"/>
<path d="M63.1874 10.6443H60.6494V13.1823H63.1874V10.6443Z" fill="#F6F6F6"/>
<path d="M117.651 50.5591H115.903V52.3066H117.651V50.5591Z" fill="#F6F6F6"/>
<path d="M85.3842 10.7275H83.6367V12.475H85.3842V10.7275Z" fill="#F6F6F6"/>
<path d="M94.392 26.3994H92.6445V28.1469H94.392V26.3994Z" fill="#F6F6F6"/>
<path d="M68.2563 28.8196H66.5088V30.5671H68.2563V28.8196Z" fill="#F6F6F6"/>
<path d="M31.4828 36.5583H29.7354V38.3058H31.4828V36.5583Z" fill="#F6F6F6"/>
<defs>
<linearGradient id="paint0_linear_749_29646" x1="39.6752" y1="77.1985" x2="30.3296" y2="110.616" gradientUnits="userSpaceOnUse">
<stop offset="0.196341" stop-color="white"/>
<stop offset="0.850001" stop-color="#A6C4FF"/>
</linearGradient>
<linearGradient id="paint1_linear_749_29646" x1="59.9849" y1="77.0805" x2="45.476" y2="104.634" gradientUnits="userSpaceOnUse">
<stop offset="0.196341" stop-color="white"/>
<stop offset="0.850001" stop-color="#A6C4FF"/>
</linearGradient>
<linearGradient id="paint2_linear_749_29646" x1="80.5078" y1="77.2114" x2="73.0416" y2="78.8807" gradientUnits="userSpaceOnUse">
<stop offset="0.196341" stop-color="white"/>
<stop offset="0.850001" stop-color="#A6C4FF"/>
</linearGradient>
<linearGradient id="paint3_linear_749_29646" x1="101.017" y1="77.5056" x2="86.514" y2="104.688" gradientUnits="userSpaceOnUse">
<stop offset="0.196341" stop-color="white"/>
<stop offset="0.850001" stop-color="#A6C4FF"/>
</linearGradient>
<linearGradient id="paint4_linear_749_29646" x1="121.185" y1="77.0247" x2="112.053" y2="109.826" gradientUnits="userSpaceOnUse">
<stop offset="0.196341" stop-color="white"/>
<stop offset="0.850001" stop-color="#A6C4FF"/>
</linearGradient>
<linearGradient id="paint5_linear_749_29646" x1="80.7633" y1="67.1497" x2="80.761" y2="68.0001" gradientUnits="userSpaceOnUse">
<stop offset="0.196341" stop-color="white"/>
<stop offset="0.850001" stop-color="#A6C4FF"/>
</linearGradient>
<linearGradient id="paint6_linear_749_29646" x1="81.8915" y1="126.668" x2="81.8905" y2="127.519" gradientUnits="userSpaceOnUse">
<stop offset="0.196341" stop-color="white"/>
<stop offset="0.850001" stop-color="#A6C4FF"/>
</linearGradient>
<linearGradient id="paint7_linear_749_29646" x1="81.6449" y1="112.154" x2="81.6438" y2="113.005" gradientUnits="userSpaceOnUse">
<stop offset="0.196341" stop-color="white"/>
<stop offset="0.850001" stop-color="#A6C4FF"/>
</linearGradient>
<linearGradient id="paint8_linear_749_29646" x1="81.4886" y1="99.0898" x2="81.4874" y2="99.9403" gradientUnits="userSpaceOnUse">
<stop offset="0.196341" stop-color="white"/>
<stop offset="0.850001" stop-color="#A6C4FF"/>
</linearGradient>
<linearGradient id="paint9_linear_749_29646" x1="81.3516" y1="88.9238" x2="81.3503" y2="89.7743" gradientUnits="userSpaceOnUse">
<stop offset="0.196341" stop-color="white"/>
<stop offset="0.850001" stop-color="#A6C4FF"/>
</linearGradient>
<linearGradient id="paint10_linear_749_29646" x1="81.242" y1="81.6704" x2="81.2406" y2="82.5208" gradientUnits="userSpaceOnUse">
<stop offset="0.196341" stop-color="white"/>
<stop offset="0.850001" stop-color="#A6C4FF"/>
</linearGradient>
<linearGradient id="paint11_linear_749_29646" x1="81.1351" y1="76.8301" x2="81.1336" y2="77.6805" gradientUnits="userSpaceOnUse">
<stop offset="0.196341" stop-color="white"/>
<stop offset="0.850001" stop-color="#A6C4FF"/>
</linearGradient>
<linearGradient id="paint12_linear_749_29646" x1="81.0322" y1="72.9607" x2="81.0305" y2="73.8111" gradientUnits="userSpaceOnUse">
<stop offset="0.196341" stop-color="white"/>
<stop offset="0.850001" stop-color="#A6C4FF"/>
</linearGradient>
<linearGradient id="paint13_linear_749_29646" x1="80.9031" y1="70.0552" x2="80.9012" y2="70.9056" gradientUnits="userSpaceOnUse">
<stop offset="0.196341" stop-color="white"/>
<stop offset="0.850001" stop-color="#A6C4FF"/>
</linearGradient>
<linearGradient id="paint14_linear_749_29646" x1="80.7172" y1="36.348" x2="79.5998" y2="51.7006" gradientUnits="userSpaceOnUse">
<stop offset="0.196341" stop-color="white"/>
<stop offset="0.850001" stop-color="#A6C4FF"/>
</linearGradient>
<linearGradient id="paint15_linear_749_29646" x1="80.6953" y1="60.4979" x2="80.6867" y2="61.8244" gradientUnits="userSpaceOnUse">
<stop offset="0.196341" stop-color="white"/>
<stop offset="0.850001" stop-color="#A6C4FF"/>
</linearGradient>
<linearGradient id="paint16_linear_749_29646" x1="80.661" y1="64.6262" x2="80.6408" y2="66.571" gradientUnits="userSpaceOnUse">
<stop offset="0.196341" stop-color="white"/>
<stop offset="0.850001" stop-color="#A6C4FF"/>
</linearGradient>
<linearGradient id="paint17_linear_749_29646" x1="80.5895" y1="33.863" x2="79.2957" y2="51.6319" gradientUnits="userSpaceOnUse">
<stop offset="0.196341" stop-color="white"/>
<stop offset="0.850001" stop-color="#A6C4FF"/>
</linearGradient>
<linearGradient id="paint18_linear_749_29646" x1="80.5712" y1="61.8108" x2="80.5611" y2="63.3488" gradientUnits="userSpaceOnUse">
<stop offset="0.196341" stop-color="white"/>
<stop offset="0.850001" stop-color="#A6C4FF"/>
</linearGradient>
<linearGradient id="paint19_linear_749_29646" x1="80.5278" y1="66.5889" x2="80.5045" y2="68.8389" gradientUnits="userSpaceOnUse">
<stop offset="0.196341" stop-color="white"/>
<stop offset="0.850001" stop-color="#A6C4FF"/>
</linearGradient>
</defs>
</svg>
