<svg width="312" height="50" viewBox="0 0 312 50" fill="none" xmlns="http://www.w3.org/2000/svg">
<path d="M208.788 19.2918L207.151 27.2707C206.608 29.5681 207 31.9868 208.243 33.9957C209.486 36.0047 211.477 37.4397 213.78 37.9858C214.938 38.1909 216.126 38.1661 217.274 37.913C218.423 37.6598 219.51 37.1833 220.474 36.5105C221.438 35.8377 222.259 34.9819 222.891 33.9922C223.523 33.0025 223.952 31.8983 224.155 30.7427L225.792 22.7524C226.336 20.4564 225.943 18.0392 224.7 16.0321C223.457 14.025 221.466 12.5922 219.164 12.0488C218.005 11.8421 216.817 11.8657 215.668 12.1182C214.519 12.3707 213.431 12.8472 212.467 13.5202C211.503 14.1932 210.682 15.0496 210.05 16.04C209.419 17.0305 208.99 18.1356 208.788 19.2918Z" fill="url(#paint0_linear_615_16095)"/>
<path d="M69.2848 0.0805054H86.5772L80.4903 29.5585C80.4903 29.5585 79.6948 36.6981 73.3312 37.8938C66.9676 39.0895 64.5698 35.1115 64.5698 35.1115C64.5698 35.1115 62.4371 32.5247 64.1778 25.983L69.2848 0.0805054Z" fill="url(#paint1_linear_615_16095)"/>
<path d="M101.61 0.0804779L95.7422 28.8917C95.1121 32.0769 93.9798 35.1425 92.3875 37.9743C90.8126 40.9354 88.5075 43.4478 85.6896 45.2748C78.9225 49.2412 76.1327 49.977 76.1327 49.977H105.587C105.587 49.977 109.565 32.9616 111.156 22.2465L126.995 49.9655H140.53L150.548 0.0689697H136.229L130.65 27.8455L114.741 0.0689697L101.61 0.0804779Z" fill="url(#paint2_linear_615_16095)"/>
<path d="M176.048 49.8389L189.64 49.9654C189.801 49.1147 190.009 48.1949 190.285 46.7923C190.493 45.792 190.747 44.4929 190.816 44.1825C191.623 40.1815 192.211 37.4338 193.387 31.5359L195.692 20.108C196.37 16.6552 197.667 13.3527 199.52 10.3586C200.959 8.05156 202.722 5.96104 204.753 4.15026C206.519 2.54875 208.493 1.19146 210.621 0.114868H185.178L179.599 27.9948L164.508 0.195355L160.104 22.2694" fill="url(#paint3_linear_615_16095)"/>
<path d="M311.678 0.0804867H298.121L287.215 27.857L284.264 0H270.43L252.215 27.7535L256.827 0H243.246C242.808 2.29938 242.612 3.20765 242.093 5.65649C241.886 6.7257 241.748 7.39249 241.701 7.59943C240.549 13.026 240.318 14.4976 239.396 18.7974L237.609 27.65C237.23 29.9964 236.643 32.3047 235.857 34.5482C235.166 36.4175 234.273 38.2063 233.194 39.8827C231.709 42.2714 229.852 44.4097 227.695 46.2175C225.986 47.6813 224.104 48.9322 222.092 49.9425H233.297H242.359H255.893L272.274 22.281C273.865 32.9961 277.347 49.954 277.347 49.954H290.87L311.678 0.0804867Z" fill="url(#paint4_linear_615_16095)"/>
<path d="M218.841 49.9426H218.311C218.487 49.958 218.665 49.958 218.841 49.9426Z" fill="url(#paint5_linear_615_16095)"/>
<path d="M49.9635 21.2233L54.3788 0.0805054H10.0296L0 50H14.7216L17.5114 36.1003H25.074L29.4432 50H46.1592L39.0001 34.1228C41.7236 32.9957 44.1386 31.2378 46.0452 28.9946C47.9517 26.7513 49.2949 24.0873 49.9635 21.2233ZM29.5124 25.0288H19.1369L21.9959 11.1635H37.9165C37.9165 11.1635 37.4669 25.0288 29.5124 25.0288Z" fill="url(#paint6_linear_615_16095)"/>
<path d="M25.097 36.1003L29.4663 50H46.1822L39.0232 34.1228C41.7424 32.9928 44.1528 31.2335 46.0551 28.9905C47.9575 26.7474 49.2972 24.085 49.9635 21.2233L54.3788 0.0805054" fill="url(#paint7_linear_615_16095)"/>
<path d="M54.3096 0.0805054H10.0296L0 49.9195L27.1029 25.0288H19.1254L21.9844 11.1635H37.9049" fill="url(#paint8_linear_615_16095)"/>
<path d="M10.0296 0.0805054L0 49.9195L27.1029 25.0288H19.1254L21.9844 11.1635" fill="url(#paint9_linear_615_16095)"/>
<path d="M82.8998 17.9697L86.5888 0.0805054H69.2849L82.8998 17.9697Z" fill="url(#paint10_linear_615_16095)"/>
<path d="M82.381 20.4989L64.9848 21.982L64.2009 25.9829C62.4601 32.5247 64.5929 35.1114 64.5929 35.1114C64.5929 35.1114 66.9792 39.0779 73.3543 37.8937C79.7295 36.7096 80.5134 29.5585 80.5134 29.5585L82.381 20.4989Z" fill="url(#paint11_linear_615_16095)"/>
<path d="M107.674 40.6185L95.7422 28.8917C95.1121 32.0769 93.9798 35.1425 92.3875 37.9742C90.8126 40.9354 88.5075 43.4478 85.6896 45.2747C78.9225 49.2412 76.1327 49.9769 76.1327 49.9769H105.587C105.587 49.9769 106.521 45.9761 107.674 40.6185Z" fill="url(#paint12_linear_615_16095)"/>
<path d="M120.228 9.66892L114.741 0.0805054H101.599L95.7422 28.8917L120.228 9.66892Z" fill="url(#paint13_linear_615_16095)"/>
<path d="M130.65 27.8685L120.228 9.66888L109 18.487L126.995 49.9655H140.53L144.853 28.4433L130.65 27.8685Z" fill="url(#paint14_linear_615_16095)"/>
<path d="M143.123 37.0545L150.548 0.0805054H136.229L130.65 27.8685L140.529 49.9885L143.123 37.0545Z" fill="url(#paint15_linear_615_16095)"/>
<path d="M164.508 0.0459595L160.104 22.2695L176.048 49.9655H189.64L179.599 27.8225L164.508 0.0459595Z" fill="url(#paint16_linear_615_16095)"/>
<path d="M195.75 20.0851L179.622 27.8685L189.64 49.9655L195.75 20.0851Z" fill="url(#paint17_linear_615_16095)"/>
<path d="M298.121 0.0804867L287.215 27.857L284.264 0H270.43L272.332 22.2695C273.923 32.9846 277.404 49.9425 277.404 49.9425H290.927L311.678 0.0459974L298.121 0.0804867Z" fill="url(#paint18_linear_615_16095)"/>
<path d="M284.264 0H270.43L252.215 27.7535L256.827 0H243.246C242.808 2.29938 242.612 3.20765 242.093 5.65649C241.886 6.7257 241.748 7.39249 241.701 7.59943C240.549 13.026 240.318 14.4976 239.396 18.7974L237.609 27.65C237.23 29.9964 236.643 32.3047 235.857 34.5482C235.166 36.4175 234.273 38.2063 233.194 39.8827C231.709 42.2715 229.852 44.4097 227.695 46.2175C225.986 47.6813 224.104 48.9322 222.092 49.9425H233.297H242.359H255.893L272.274 22.281L284.264 0Z" fill="url(#paint19_linear_615_16095)"/>
<path d="M256.85 0H243.246C242.808 2.29938 242.612 3.20765 242.093 5.65649C241.886 6.7257 241.748 7.39249 241.701 7.59943C240.549 13.026 240.318 14.4976 239.396 18.7974L237.609 27.65C237.23 29.9964 236.643 32.3047 235.857 34.5482C235.166 36.4175 234.273 38.2063 233.194 39.8827C231.709 42.2715 229.852 44.4097 227.695 46.2175C225.986 47.6813 224.104 48.9322 222.092 49.9425H233.297H242.336H255.87L252.135 27.765L256.85 0Z" fill="url(#paint20_linear_615_16095)"/>
<path d="M298.121 0.0689697L287.204 27.8455L277.462 49.977H284.379V49.9655H290.985L311.678 0.0689697H298.121Z" fill="url(#paint21_linear_615_16095)"/>
<path d="M287.204 27.8455L277.462 49.977H284.379V49.9655H290.985L305.96 13.8538L287.204 27.8455Z" fill="url(#paint22_linear_615_16095)"/>
<path d="M238.704 22.9938L237.747 27.7076C237.368 30.0539 236.782 32.3622 235.995 34.6057C235.304 36.475 234.411 38.2638 233.332 39.9403C231.847 42.329 229.991 44.4672 227.833 46.2751C226.124 47.7388 224.242 48.9897 222.23 50H233.436H242.474H256.008L238.716 23.0053L238.704 22.9938Z" fill="url(#paint23_linear_615_16095)"/>
<path d="M256.85 0H243.246C242.808 2.29938 242.612 3.20765 242.093 5.65649C241.886 6.7257 241.748 7.39249 241.701 7.59943C240.549 13.026 240.318 14.4976 239.396 18.7974L237.609 27.65C237.23 29.9964 236.643 32.3047 235.857 34.5482L256.85 0Z" fill="url(#paint24_linear_615_16095)"/>
<path d="M225.746 22.7524C226.29 20.4564 225.897 18.0392 224.654 16.0321C223.411 14.025 221.419 12.5922 219.118 12.0488C217.959 11.8421 216.771 11.8657 215.622 12.1182C214.473 12.3707 213.385 12.8472 212.421 13.5202C211.457 14.1932 210.635 15.0496 210.004 16.04C209.373 17.0305 208.944 18.1356 208.742 19.2918L207.105 27.2707C206.87 28.4064 206.846 29.5755 207.036 30.7197L225.746 22.7524Z" fill="url(#paint25_linear_615_16095)"/>
<path d="M213.423 12.934C212.238 13.5977 211.213 14.51 210.417 15.6077C209.62 16.7054 209.073 17.9624 208.811 19.2918L207.174 27.3396C206.634 29.6354 207.028 32.0511 208.271 34.0575C209.513 36.0638 211.503 37.4971 213.803 38.0433C214.531 38.1894 215.275 38.2395 216.017 38.1927L213.423 12.934Z" fill="url(#paint26_linear_615_16095)"/>
<defs>
<linearGradient id="paint0_linear_615_16095" x1="216.697" y1="16.109" x2="214.222" y2="31.0818" gradientUnits="userSpaceOnUse">
<stop offset="0.196341" stop-color="white"/>
<stop offset="0.850001" stop-color="#A6C4FF"/>
</linearGradient>
<linearGradient id="paint1_linear_615_16095" x1="75.3076" y1="6.17418" x2="71.0422" y2="27.6467" gradientUnits="userSpaceOnUse">
<stop offset="0.196341" stop-color="white"/>
<stop offset="0.850001" stop-color="#A6C4FF"/>
</linearGradient>
<linearGradient id="paint2_linear_615_16095" x1="114.217" y1="8.06433" x2="111.864" y2="37.1595" gradientUnits="userSpaceOnUse">
<stop offset="0.196341" stop-color="white"/>
<stop offset="0.850001" stop-color="#A6C4FF"/>
</linearGradient>
<linearGradient id="paint3_linear_615_16095" x1="185.958" y1="8.10103" x2="182.527" y2="36.9445" gradientUnits="userSpaceOnUse">
<stop offset="0.196341" stop-color="white"/>
<stop offset="0.850001" stop-color="#A6C4FF"/>
</linearGradient>
<linearGradient id="paint4_linear_615_16095" x1="267.94" y1="8.00274" x2="265.979" y2="37.1832" gradientUnits="userSpaceOnUse">
<stop offset="0.196341" stop-color="white"/>
<stop offset="0.850001" stop-color="#A6C4FF"/>
</linearGradient>
<linearGradient id="paint5_linear_615_16095" x1="218.582" y1="49.9444" x2="218.582" y2="49.9512" gradientUnits="userSpaceOnUse">
<stop offset="0.196341" stop-color="white"/>
<stop offset="0.850001" stop-color="#A6C4FF"/>
</linearGradient>
<linearGradient id="paint6_linear_615_16095" x1="27.83" y1="8.07771" x2="24.6277" y2="37.0154" gradientUnits="userSpaceOnUse">
<stop offset="0.196341" stop-color="white"/>
<stop offset="0.850001" stop-color="#A6C4FF"/>
</linearGradient>
<linearGradient id="paint7_linear_615_16095" x1="40.0829" y1="8.07771" x2="34.307" y2="36.1828" gradientUnits="userSpaceOnUse">
<stop offset="0.196341" stop-color="white"/>
<stop offset="0.850001" stop-color="#A6C4FF"/>
</linearGradient>
<linearGradient id="paint8_linear_615_16095" x1="27.7946" y1="8.06482" x2="24.5985" y2="36.9561" gradientUnits="userSpaceOnUse">
<stop offset="0.196341" stop-color="white"/>
<stop offset="0.850001" stop-color="#A6C4FF"/>
</linearGradient>
<linearGradient id="paint9_linear_615_16095" x1="13.8708" y1="8.06482" x2="7.6916" y2="35.9399" gradientUnits="userSpaceOnUse">
<stop offset="0.196341" stop-color="white"/>
<stop offset="0.850001" stop-color="#A6C4FF"/>
</linearGradient>
<linearGradient id="paint10_linear_615_16095" x1="78.1407" y1="2.94639" x2="76.8525" y2="13.283" gradientUnits="userSpaceOnUse">
<stop offset="0.196341" stop-color="white"/>
<stop offset="0.850001" stop-color="#A6C4FF"/>
</linearGradient>
<linearGradient id="paint11_linear_615_16095" x1="73.1713" y1="23.321" x2="72.0223" y2="33.5282" gradientUnits="userSpaceOnUse">
<stop offset="0.196341" stop-color="white"/>
<stop offset="0.850001" stop-color="#A6C4FF"/>
</linearGradient>
<linearGradient id="paint12_linear_615_16095" x1="92.2749" y1="32.2696" x2="91.2843" y2="44.5623" gradientUnits="userSpaceOnUse">
<stop offset="0.196341" stop-color="white"/>
<stop offset="0.850001" stop-color="#A6C4FF"/>
</linearGradient>
<linearGradient id="paint13_linear_615_16095" x1="108.274" y1="4.69612" x2="105.923" y2="21.2687" gradientUnits="userSpaceOnUse">
<stop offset="0.196341" stop-color="white"/>
<stop offset="0.850001" stop-color="#A6C4FF"/>
</linearGradient>
<linearGradient id="paint14_linear_615_16095" x1="127.349" y1="16.1245" x2="124.203" y2="39.3437" gradientUnits="userSpaceOnUse">
<stop offset="0.196341" stop-color="white"/>
<stop offset="0.850001" stop-color="#A6C4FF"/>
</linearGradient>
<linearGradient id="paint15_linear_615_16095" x1="140.833" y1="8.07587" x2="132.72" y2="34.9081" gradientUnits="userSpaceOnUse">
<stop offset="0.196341" stop-color="white"/>
<stop offset="0.850001" stop-color="#A6C4FF"/>
</linearGradient>
<linearGradient id="paint16_linear_615_16095" x1="175.22" y1="8.04317" x2="169.49" y2="36.1677" gradientUnits="userSpaceOnUse">
<stop offset="0.196341" stop-color="white"/>
<stop offset="0.850001" stop-color="#A6C4FF"/>
</linearGradient>
<linearGradient id="paint17_linear_615_16095" x1="187.876" y1="24.872" x2="184.146" y2="41.5724" gradientUnits="userSpaceOnUse">
<stop offset="0.196341" stop-color="white"/>
<stop offset="0.850001" stop-color="#A6C4FF"/>
</linearGradient>
<linearGradient id="paint18_linear_615_16095" x1="291.54" y1="8.00089" x2="287.352" y2="36.6952" gradientUnits="userSpaceOnUse">
<stop offset="0.196341" stop-color="white"/>
<stop offset="0.850001" stop-color="#A6C4FF"/>
</linearGradient>
<linearGradient id="paint19_linear_615_16095" x1="253.91" y1="8.00089" x2="251.099" y2="37.0342" gradientUnits="userSpaceOnUse">
<stop offset="0.196341" stop-color="white"/>
<stop offset="0.850001" stop-color="#A6C4FF"/>
</linearGradient>
<linearGradient id="paint20_linear_615_16095" x1="239.88" y1="8.00089" x2="234.952" y2="36.4528" gradientUnits="userSpaceOnUse">
<stop offset="0.196341" stop-color="white"/>
<stop offset="0.850001" stop-color="#A6C4FF"/>
</linearGradient>
<linearGradient id="paint21_linear_615_16095" x1="294.973" y1="8.06434" x2="289.978" y2="36.4714" gradientUnits="userSpaceOnUse">
<stop offset="0.196341" stop-color="white"/>
<stop offset="0.850001" stop-color="#A6C4FF"/>
</linearGradient>
<linearGradient id="paint22_linear_615_16095" x1="292.047" y1="19.6408" x2="288.882" y2="40.3538" gradientUnits="userSpaceOnUse">
<stop offset="0.196341" stop-color="white"/>
<stop offset="0.850001" stop-color="#A6C4FF"/>
</linearGradient>
<linearGradient id="paint23_linear_615_16095" x1="239.517" y1="27.3203" x2="238.004" y2="43.0213" gradientUnits="userSpaceOnUse">
<stop offset="0.196341" stop-color="white"/>
<stop offset="0.850001" stop-color="#A6C4FF"/>
</linearGradient>
<linearGradient id="paint24_linear_615_16095" x1="246.6" y1="5.53469" x2="242.731" y2="25.0394" gradientUnits="userSpaceOnUse">
<stop offset="0.196341" stop-color="white"/>
<stop offset="0.850001" stop-color="#A6C4FF"/>
</linearGradient>
<linearGradient id="paint25_linear_615_16095" x1="216.672" y1="14.923" x2="215.378" y2="25.8067" gradientUnits="userSpaceOnUse">
<stop offset="0.196341" stop-color="white"/>
<stop offset="0.850001" stop-color="#A6C4FF"/>
</linearGradient>
<linearGradient id="paint26_linear_615_16095" x1="211.584" y1="16.9832" x2="207.11" y2="30.3131" gradientUnits="userSpaceOnUse">
<stop offset="0.196341" stop-color="white"/>
<stop offset="0.850001" stop-color="#A6C4FF"/>
</linearGradient>
</defs>
</svg>
