<svg width="325" height="87" viewBox="0 0 325 87" fill="none" xmlns="http://www.w3.org/2000/svg">
<g clip-path="url(#clip0_1141_33568)">
<path d="M217.701 20.1262L216.017 28.4654C214.974 33.6774 218.021 38.6488 222.913 39.6912C227.804 40.6534 232.615 37.2857 233.657 32.1539L235.341 23.8147C236.384 18.6027 233.337 13.6313 228.445 12.5889C223.554 11.5465 218.743 14.9143 217.701 20.1262Z" fill="#EE4593"/>
<path d="M72.246 0H90.2874L83.9529 30.7908C83.9529 30.7908 83.151 38.2479 76.4957 39.5309C69.8404 40.8138 67.3547 36.6442 67.3547 36.6442C67.3547 36.6442 65.1096 33.918 66.9538 27.1023L72.246 0Z" fill="#44C1D9"/>
<path d="M105.924 2.93279e-05L99.8298 30.1493C99.1883 33.4369 97.9856 36.7245 96.3017 39.6111C94.698 42.4175 92.3727 45.4646 89.3257 47.2286C82.2694 51.3982 79.3828 52.1198 79.3828 52.1198H110.093C110.093 52.1198 114.263 34.3189 115.867 23.0931L132.385 52.0397H146.497L156.921 -0.160339H142.007L136.234 28.8664L119.635 2.93279e-05H105.924Z" fill="#4250A2"/>
<path d="M183.542 52.0396L197.734 52.2C197.895 51.318 198.135 50.3558 198.376 48.9125C198.616 47.8701 198.857 46.5871 198.937 46.1862C199.739 42.0166 200.38 39.13 201.583 32.9558L204.069 21.0083C204.79 17.4 206.234 13.7115 208.078 10.8249C209.441 8.57974 211.125 6.49495 213.53 4.32997C216.738 1.44333 219.624 0.0802002 219.624 0.0802002H207.998H193.083L187.31 29.2673L171.514 0.160385L166.943 23.2535" fill="#259FB0"/>
<path d="M324.987 0H310.874L299.488 29.0267L296.361 0H282.008L263.004 29.0267L267.815 0H253.703C253.222 2.40553 253.061 3.36774 252.5 5.93364C252.26 7.05622 252.099 7.77788 252.099 7.93825C250.977 13.6313 250.656 15.0747 249.774 19.6452L247.93 28.8664C247.368 31.4323 246.967 33.7576 246.085 36.0829C245.364 37.847 244.562 39.8516 243.279 41.6959C241.515 44.3419 240.072 46.2664 237.586 48.271C234.539 50.7567 233.096 51.4783 231.732 52.2L243.439 52.1198H252.901H267.014L284.013 23.2535C285.696 34.4793 289.305 52.2 289.305 52.2H296.521H303.417L324.987 0Z" fill="#010101"/>
<path d="M52.0396 22.1309L56.6903 0H10.424L0 52.2H15.3152L18.282 37.6866H26.1401L30.7106 52.2H48.1106L40.6535 35.6018C40.6535 35.6018 49.5539 32.5548 52.0396 22.1309ZM30.7106 26.1401H19.9659L22.9327 11.6267H39.5309C39.5309 11.6267 39.0498 26.1401 30.7106 26.1401Z" fill="#F37A8E"/>
<path d="M26.1396 37.6866L30.7102 52.2H48.1102L40.653 35.6018C40.653 35.6018 49.5535 32.4747 52.0392 22.1309L56.6899 0" fill="#44C1D9"/>
<path d="M56.6101 0H10.424L0 52.1198L28.3051 26.1401H19.9659L22.9327 11.6267H39.5309" fill="#318CCC"/>
<path d="M10.424 0L0 52.1198L28.3051 26.1401H19.9659L22.9327 11.6267" fill="#4250A2"/>
<path d="M86.4387 18.7631L90.2876 0H72.2461L86.4387 18.7631Z" fill="#EE4593"/>
<path d="M85.8773 21.4092L67.7556 22.9327L66.9538 27.1023C65.1096 33.918 67.3547 36.6443 67.3547 36.6443C67.3547 36.6443 69.8404 40.8138 76.4957 39.5309C83.151 38.2479 83.9529 30.7908 83.9529 30.7908L85.8773 21.4092Z" fill="#259FB0"/>
<path d="M112.258 42.4175L99.8298 30.1493C99.1883 33.4368 97.9856 36.7244 96.3017 39.611C94.698 42.4175 92.3727 45.4645 89.3257 47.2286C82.2694 51.3981 79.3828 52.1198 79.3828 52.1198H110.093C110.093 52.2 111.056 48.0304 112.258 42.4175Z" fill="#44C1D9"/>
<path d="M125.328 10.023L119.635 0H105.923L99.8291 30.1493L125.328 10.023Z" fill="#F6A6B7"/>
<path d="M136.233 29.1069L125.328 10.0231L113.621 19.2443L132.384 52.2H146.497L150.987 29.6682L136.233 29.1069Z" fill="#F37A8E"/>
<path d="M149.223 38.729L156.921 0H142.007L136.233 29.1069L146.497 52.2L149.223 38.729Z" fill="#318CCC"/>
<path d="M171.514 0L166.943 23.2535L183.541 52.2H197.734L187.23 29.0267L171.514 0Z" fill="#44C1D9"/>
<path d="M204.069 20.9281L187.23 29.1069L197.735 52.2L204.069 20.9281Z" fill="#4250A2"/>
<path d="M310.794 0L299.408 29.0267L296.361 0H282.008L284.012 23.2535C285.696 34.4793 289.305 52.2 289.305 52.2H296.521H303.417L324.987 0H310.794Z" fill="#4250A2"/>
<path d="M296.361 0H282.008L263.004 29.0267L267.815 0H253.703C253.222 2.40553 253.062 3.36774 252.5 5.93364C252.26 7.05622 252.099 7.77788 252.099 7.93825C250.977 13.6313 250.656 15.0747 249.774 19.6452L247.93 28.8664C247.368 31.4323 246.968 33.7576 246.086 36.0829C245.364 37.847 244.562 39.8516 243.279 41.6959C241.515 44.3419 240.072 46.2664 237.506 48.271C234.459 50.7567 233.015 51.4783 231.652 52.2L243.359 52.1198H252.821H266.933L284.013 23.2535L296.361 0Z" fill="#F37A8E"/>
<path d="M267.815 0H253.703C253.222 2.40553 253.062 3.36774 252.5 5.93364C252.26 7.05622 252.099 7.77788 252.099 7.93825C250.977 13.6313 250.656 15.0747 249.774 19.6452L247.93 28.8664C247.368 31.4323 246.968 33.7576 246.086 36.0829C245.364 37.847 244.562 39.8516 243.279 41.6959C241.515 44.3419 240.072 46.2664 237.506 48.271C234.459 50.7567 233.015 51.4783 231.652 52.2L243.359 52.1198H252.821H266.933L263.004 29.0267L267.815 0Z" fill="#F6A6B7"/>
<path d="M310.794 0L299.488 29.0267L289.305 52.2H296.521H303.417L324.987 0H310.794Z" fill="#318CCC"/>
<path d="M299.488 29.0267L289.305 52.2H296.521H303.417L318.973 14.4332L299.488 29.0267Z" fill="#259FB0"/>
<path d="M248.892 23.9751L247.93 28.8663C247.368 31.4322 246.968 33.7576 246.086 36.0829C245.364 37.847 244.562 39.8516 243.279 41.6958C241.515 44.3419 240.072 46.2663 237.506 48.2709C234.459 50.7567 233.015 51.4783 231.652 52.2L243.359 52.1198H252.821H266.933L248.892 23.9751Z" fill="#318CCC"/>
<path d="M267.816 0H253.703C253.222 2.40553 253.062 3.36774 252.501 5.93364C252.26 7.05622 252.1 7.77788 252.1 7.93825C250.977 13.6313 250.656 15.0747 249.774 19.6452L247.93 28.8664C247.369 31.4323 246.968 33.7576 246.086 36.0829L267.816 0Z" fill="#44C1D9"/>
<path d="M235.341 23.7345C236.383 18.5226 233.336 13.5511 228.445 12.5087C223.553 11.5465 218.742 14.9143 217.7 20.0461L216.016 28.3852C215.776 29.6682 215.776 30.871 215.936 32.0737L235.341 23.7345Z" fill="#F37A8E"/>
<path d="M222.512 13.4709C220.106 14.7539 218.262 17.1594 217.701 20.1262L216.017 28.4654C214.974 33.6774 218.021 38.6488 222.913 39.6912C223.714 39.8516 224.436 39.9318 225.238 39.8516L222.512 13.4709Z" fill="#318CCC"/>
<path d="M40.2529 72.9678H42.8188L47.1488 79.6231L51.3986 72.9678H54.0446V87H51.5589V76.977L47.1488 83.5521H47.0686L42.6585 76.977V87H40.2529V72.9678Z" fill="white"/>
<path d="M67.0342 79.7834C67.0342 75.8544 70.0812 72.4866 74.4111 72.4866C78.7411 72.4866 81.7079 75.7742 81.7079 79.7032C81.7079 83.6323 78.6609 86.9198 74.331 86.9198C70.0812 87 67.0342 83.7926 67.0342 79.7834ZM79.142 79.7834C79.142 77.0571 77.2176 74.7318 74.4111 74.7318C71.6047 74.7318 69.6803 76.977 69.6803 79.7032C69.6803 82.4295 71.6047 84.6747 74.4111 84.6747C77.2176 84.7548 79.142 82.5097 79.142 79.7834Z" fill="white"/>
<path d="M92.6934 72.8876H95.4196L99.6694 83.6323L103.919 72.8876H106.565L100.712 87H98.5468L92.6934 72.8876Z" fill="white"/>
<path d="M118.993 72.9678H129.417V75.2129H121.479V78.8212H128.535V81.0664H121.479V84.8351H129.497V87H118.993V72.9678Z" fill="white"/>
<path d="M166.383 85.1557C165.18 86.2783 163.817 87 162.053 87C159.487 87 157.482 85.3963 157.482 82.9908C157.482 81.1465 158.525 79.8636 160.449 79.0617C159.647 78.0193 159.327 77.1373 159.327 76.1751C159.327 74.3308 160.85 72.647 163.336 72.647C165.581 72.647 167.024 74.1705 167.024 76.0147V76.0949C167.024 77.9391 165.822 79.0617 163.977 79.7032L166.383 82.1087C166.944 81.3069 167.425 80.4249 167.906 79.3825L169.751 80.3447C169.189 81.4673 168.548 82.5898 167.826 83.552L169.991 85.7972L168.147 87.0802L166.383 85.1557ZM165.02 83.7124L161.893 80.505C160.61 81.0663 160.048 81.9484 160.048 82.8304C160.048 84.0332 161.011 84.835 162.374 84.835C163.336 84.9152 164.218 84.4341 165.02 83.7124ZM164.94 76.0949C164.94 75.1327 164.298 74.4912 163.336 74.4912C162.293 74.4912 161.652 75.2129 161.652 76.1751C161.652 76.8967 161.893 77.3779 162.694 78.2599C164.138 77.6986 164.94 77.0571 164.94 76.0949Z" fill="white"/>
<path d="M198.616 72.9678H209.04V75.2129H201.022V78.8212H208.078V81.0664H201.022V84.8351H209.12V87H198.616V72.9678Z" fill="white"/>
<path d="M227.083 72.8876H229.408L235.582 87H232.936L231.493 83.6323H224.837L223.394 87H220.828L227.083 72.8876ZM230.611 81.4673L228.205 75.8544L225.8 81.4673H230.611Z" fill="white"/>
<path d="M247.93 72.9678H254.184C255.948 72.9678 257.311 73.5291 258.274 74.4111C258.995 75.2129 259.476 76.2553 259.476 77.4581V77.5383C259.476 79.8636 258.113 81.3069 256.109 81.7881L259.877 87.0802H256.991L253.543 82.189H250.415V87.0802H247.93V72.9678ZM254.024 79.9438C255.788 79.9438 256.91 79.0618 256.91 77.6185C256.91 76.095 255.868 75.2931 254.024 75.2931H250.415V80.024H254.024V79.9438Z" fill="white"/>
<path d="M272.547 72.9678H274.792L282.329 82.6701V72.9678H284.735V87H282.65L274.952 77.0572V87H272.547V72.9678Z" fill="white"/>
</g>
<defs>
<clipPath id="clip0_1141_33568">
<rect width="324.987" height="87" fill="white"/>
</clipPath>
</defs>
</svg>
