<?xml version="1.0" encoding="utf-8"?>
<!-- Generator: Adobe Illustrator 24.0.1, SVG Export Plug-In . SVG Version: 6.00 Build 0)  -->
<svg version="1.1" id="Layer_1" xmlns="http://www.w3.org/2000/svg" xmlns:xlink="http://www.w3.org/1999/xlink" x="0px" y="0px"
	 viewBox="0 0 91 91" style="enable-background:new 0 0 91 91;" xml:space="preserve">
<style type="text/css">
	.st0{fill:#2F3241;fill-opacity:0.5;}
	.st1{fill:#BD47FB;}
</style>
<g>
	<circle class="st0" cx="45.5" cy="45.5" r="45.5"/>
</g>
<g>
	<path class="st1" d="M54.1,39.9c0.7,0,1.4-0.2,1.9-0.6c0.6-0.4,1-0.9,1.3-1.6c0.3-0.6,0.3-1.3,0.2-2c-0.1-0.7-0.5-1.3-1-1.8
		c-0.5-0.5-1.1-0.8-1.8-1c-0.7-0.1-1.4-0.1-2,0.2c-0.6,0.3-1.2,0.7-1.6,1.3c-0.4,0.6-0.6,1.3-0.6,1.9c0,0.9,0.4,1.8,1,2.5
		C52.3,39.5,53.2,39.9,54.1,39.9z M29.1,48c0.3,0.1,0.7,0.3,1,0.4c1.1,0.6,2.3,1,3.6,1c1.3,0,2.5-0.3,3.6-1c0.7-0.4,1.5-0.6,2.2-0.6
		c0.8,0,1.6,0.2,2.2,0.6l0.4,0.2c1.1,0.5,2.2,0.8,3.4,0.7c1.2,0,2.3-0.4,3.4-1c0.7-0.4,1.5-0.6,2.2-0.6c0.8,0,1.6,0.2,2.2,0.6
		c1.1,0.6,2.4,1,3.6,1c1.2,0,2.4-0.4,3.5-1c0.3-0.2,0.7-0.3,1-0.4c0.3,0,0.5-0.1,0.7-0.2c0.2-0.1,0.4-0.3,0.6-0.5
		c0.1-0.2,0.3-0.5,0.3-0.7c0-0.3,0-0.5,0-0.8c-0.1-0.3-0.2-0.5-0.4-0.7c-0.2-0.2-0.4-0.4-0.6-0.5c-0.2-0.1-0.5-0.2-0.8-0.1
		c-0.3,0-0.5,0.1-0.7,0.2c-0.6,0.2-1.2,0.4-1.8,0.8c-0.6,0.3-1.2,0.5-1.8,0.5s-1.3-0.2-1.8-0.5c-1.2-0.7-2.6-1-4-1
		c-1.4,0-2.8,0.4-4,1c-0.2,0.1-0.3,0.2-0.5,0.2l2.7-2.7c0.1-0.1,0.1-0.2,0.2-0.3c0.1-0.1,0.1-0.2,0.2-0.3c0-0.1,0-0.2,0-0.3
		c0-0.1,0-0.2,0-0.3c0-0.1,0-0.2,0-0.3c0-0.1,0-0.2,0-0.3c-0.1-0.1-0.1-0.2-0.2-0.3c0-0.1-0.1-0.2-0.2-0.3l-5.4-5.8
		c-0.1-0.2-0.3-0.3-0.5-0.4c-0.1,0-0.2,0-0.4,0c-0.1,0-0.2,0-0.3,0c-0.2-0.1-0.5-0.1-0.7-0.1L36,36.4c-0.4,0.2-0.8,0.5-1,0.9
		c-0.2,0.4-0.2,0.9-0.1,1.3c0.2,0.4,0.5,0.8,0.9,1c0.4,0.2,0.9,0.2,1.3,0.1l5.1-1.9l3.5,3.7l-3.3,3.3c-1.1-0.4-2.3-0.6-3.5-0.5
		c-1.2,0.1-2.4,0.4-3.4,1c-0.6,0.3-1.2,0.5-1.8,0.5c-0.6,0-1.3-0.2-1.8-0.5c-0.6-0.3-1.1-0.6-1.8-0.8c-0.2-0.1-0.5-0.1-0.7-0.1
		c-0.2,0-0.5,0.1-0.7,0.2c-0.2,0.1-0.4,0.3-0.6,0.4c-0.2,0.2-0.3,0.4-0.3,0.6c-0.1,0.2-0.1,0.5-0.1,0.7c0,0.2,0.1,0.5,0.2,0.7
		c0.1,0.2,0.3,0.4,0.5,0.5C28.8,47.8,29,47.9,29.1,48L29.1,48z M60.6,53.4c-0.6,0.2-1.2,0.4-1.8,0.8c-0.6,0.3-1.2,0.5-1.8,0.5
		s-1.3-0.2-1.8-0.5c-1.2-0.7-2.6-1-4-1c-1.4,0-2.8,0.4-4,1c-0.6,0.3-1.2,0.5-1.9,0.5s-1.3-0.2-1.9-0.5c-1.2-0.7-2.6-1-4-1
		s-2.8,0.4-4,1c-0.6,0.3-1.2,0.5-1.8,0.5c-0.6,0-1.3-0.2-1.8-0.5c-0.6-0.3-1.1-0.6-1.8-0.8c-0.2-0.1-0.5-0.1-0.7-0.1
		c-0.2,0-0.5,0.1-0.7,0.2c-0.2,0.1-0.4,0.3-0.6,0.4c-0.2,0.2-0.3,0.4-0.3,0.6c-0.1,0.2-0.1,0.5-0.1,0.7c0,0.2,0.1,0.5,0.2,0.7
		c0.1,0.2,0.3,0.4,0.5,0.5c0.2,0.1,0.4,0.2,0.6,0.3c0.3,0.1,0.7,0.3,1,0.4c1.1,0.6,2.3,1,3.6,1c1.3,0,2.5-0.3,3.6-1
		c0.7-0.4,1.5-0.6,2.2-0.6c0.8,0,1.6,0.2,2.2,0.6c1.1,0.6,2.3,1,3.6,1c1.3,0,2.5-0.3,3.6-1c0.7-0.4,1.5-0.6,2.2-0.6
		c0.8,0,1.6,0.2,2.2,0.6c1.1,0.6,2.4,1,3.6,1c1.2,0,2.4-0.4,3.5-1c0.3-0.2,0.7-0.3,1-0.4c0.2-0.1,0.4-0.2,0.6-0.3
		c0.2-0.1,0.3-0.3,0.4-0.5c0.1-0.2,0.2-0.4,0.2-0.7c0-0.2,0-0.5-0.1-0.7c-0.1-0.2-0.2-0.4-0.3-0.6c-0.1-0.2-0.3-0.3-0.5-0.4
		c-0.2-0.1-0.4-0.2-0.7-0.2C61.1,53.3,60.9,53.3,60.6,53.4L60.6,53.4z"/>
</g>
</svg>
