<svg width="28" height="28" viewBox="0 0 28 28" fill="none" xmlns="http://www.w3.org/2000/svg">
<path d="M0.494562 13.5L6.94632 15.908L9.44355 23.9391C9.60333 24.4534 10.2323 24.6436 10.6498 24.3022L14.2461 21.3705C14.6231 21.0633 15.16 21.048 15.554 21.334L22.0405 26.0433C22.4871 26.3679 23.1198 26.1232 23.2318 25.5835L27.9835 2.72703C28.1057 2.13754 27.5265 1.64576 26.9652 1.86286L0.487002 12.0773C-0.166424 12.3293 -0.160731 13.2545 0.494562 13.5ZM9.04109 14.6262L21.6502 6.8602C21.8768 6.72104 22.11 7.02746 21.9154 7.20796L11.5092 16.881C11.1434 17.2215 10.9075 17.6772 10.8407 18.1717L10.4862 20.7987C10.4392 21.1494 9.94652 21.1843 9.84973 20.8448L8.48641 16.0545C8.33027 15.5081 8.55781 14.9245 9.04109 14.6262Z" fill="#A4A5AD"/>
</svg>
