<svg width="28" height="28" viewBox="0 0 28 28" fill="none" xmlns="http://www.w3.org/2000/svg">
<path d="M25.1725 7.05639C24.3325 7.42039 23.4645 7.67239 22.5405 7.78439C23.4925 7.22439 24.2205 6.32839 24.5565 5.23639C23.6605 5.76839 22.6805 6.13239 21.6445 6.35639C20.8045 5.46039 19.6005 4.90039 18.2845 4.90039C15.7365 4.90039 13.6925 6.97239 13.6925 9.49239C13.6925 9.85639 13.7205 10.1924 13.8045 10.5284C9.99647 10.3604 6.63646 8.51239 4.36846 5.74039C2.74446 8.65239 4.56446 11.0604 5.76846 11.8724C5.04046 11.8724 4.31246 11.6484 3.69646 11.3124C3.69646 13.5804 5.29246 15.4564 7.36446 15.8764C6.91646 16.0164 5.90846 16.1004 5.29246 15.9604C5.88046 17.7804 7.58846 19.1244 9.57647 19.1524C8.00846 20.3844 5.71246 21.3644 2.77246 21.0564C4.81646 22.3724 7.22446 23.1284 9.82846 23.1284C18.2845 23.1284 22.8765 16.1284 22.8765 10.0804C22.8765 9.88439 22.8765 9.68839 22.8485 9.49239C23.8005 8.79239 24.5845 7.98039 25.1725 7.05639Z" fill="#A4A5AD"/>
</svg>
