<svg width="28" height="28" viewBox="0 0 28 28" fill="none" xmlns="http://www.w3.org/2000/svg">
<g clip-path="url(#clip0_608_19105)">
<path d="M27.6097 7.32822C27.4627 6.10218 26.3073 4.92651 25.0984 4.769C17.7265 3.85304 10.2721 3.85304 2.90265 4.769C1.69273 4.92617 0.537299 6.10218 0.390323 7.32822C-0.130108 11.8216 -0.130108 16.1785 0.390323 20.6709C0.537299 21.8969 1.69273 23.0737 2.90265 23.2301C10.2721 24.146 17.7268 24.146 25.0984 23.2301C26.3073 23.0739 27.4627 21.8969 27.6097 20.6709C28.1302 16.1789 28.1302 11.8216 27.6097 7.32822ZM11.6665 18.6671V9.33345L18.6666 14.0004L11.6665 18.6671Z" fill="#A4A5AD"/>
</g>
<defs>
<clipPath id="clip0_608_19105">
<rect width="28" height="28" fill="white"/>
</clipPath>
</defs>
</svg>
