<svg width="346" height="178" viewBox="0 0 346 178" fill="none" xmlns="http://www.w3.org/2000/svg">
<g filter="url(#filter0_b_208_12466)">
<rect width="346" height="178" rx="8" fill="#2F3241" fill-opacity="0.5"/>
</g>
<path d="M24.675 134.725V130.75H31.6V149H27.15V134.725H24.675ZM34.3744 145.575C34.9411 145.125 35.1994 144.917 35.1494 144.95C36.7827 143.6 38.0661 142.492 38.9994 141.625C39.9494 140.758 40.7494 139.85 41.3994 138.9C42.0494 137.95 42.3744 137.025 42.3744 136.125C42.3744 135.442 42.2161 134.908 41.8994 134.525C41.5827 134.142 41.1077 133.95 40.4744 133.95C39.8411 133.95 39.3411 134.192 38.9744 134.675C38.6244 135.142 38.4494 135.808 38.4494 136.675H34.3244C34.3577 135.258 34.6577 134.075 35.2244 133.125C35.8077 132.175 36.5661 131.475 37.4994 131.025C38.4494 130.575 39.4994 130.35 40.6494 130.35C42.6327 130.35 44.1244 130.858 45.1244 131.875C46.1411 132.892 46.6494 134.217 46.6494 135.85C46.6494 137.633 46.0411 139.292 44.8244 140.825C43.6077 142.342 42.0577 143.825 40.1744 145.275H46.9244V148.75H34.3744V145.575ZM51.8066 139.2C50.24 138.367 49.4566 137.058 49.4566 135.275C49.4566 134.375 49.69 133.558 50.1566 132.825C50.6233 132.075 51.3316 131.483 52.2816 131.05C53.2316 130.6 54.3983 130.375 55.7816 130.375C57.165 130.375 58.3233 130.6 59.2566 131.05C60.2066 131.483 60.915 132.075 61.3816 132.825C61.8483 133.558 62.0816 134.375 62.0816 135.275C62.0816 136.175 61.865 136.958 61.4316 137.625C61.015 138.292 60.4483 138.817 59.7316 139.2C60.6316 139.633 61.3233 140.233 61.8066 141C62.29 141.75 62.5316 142.633 62.5316 143.65C62.5316 144.833 62.2316 145.858 61.6316 146.725C61.0316 147.575 60.215 148.225 59.1816 148.675C58.165 149.125 57.0316 149.35 55.7816 149.35C54.5316 149.35 53.39 149.125 52.3566 148.675C51.34 148.225 50.5316 147.575 49.9316 146.725C49.3316 145.858 49.0316 144.833 49.0316 143.65C49.0316 142.617 49.2733 141.725 49.7566 140.975C50.24 140.208 50.9233 139.617 51.8066 139.2ZM57.9316 135.925C57.9316 135.242 57.7316 134.717 57.3316 134.35C56.9483 133.967 56.4316 133.775 55.7816 133.775C55.1316 133.775 54.6066 133.967 54.2066 134.35C53.8233 134.733 53.6316 135.267 53.6316 135.95C53.6316 136.6 53.8316 137.117 54.2316 137.5C54.6316 137.867 55.1483 138.05 55.7816 138.05C56.415 138.05 56.9316 137.858 57.3316 137.475C57.7316 137.092 57.9316 136.575 57.9316 135.925ZM55.7816 141.05C54.9983 141.05 54.365 141.267 53.8816 141.7C53.3983 142.117 53.1566 142.7 53.1566 143.45C53.1566 144.15 53.39 144.725 53.8566 145.175C54.34 145.625 54.9816 145.85 55.7816 145.85C56.5816 145.85 57.2066 145.625 57.6566 145.175C58.1233 144.725 58.3566 144.15 58.3566 143.45C58.3566 142.717 58.115 142.133 57.6316 141.7C57.165 141.267 56.5483 141.05 55.7816 141.05ZM70.0426 145.05L67.2676 152.225H64.5426L65.9926 145.05H70.0426ZM72.0453 145.575C72.612 145.125 72.8703 144.917 72.8203 144.95C74.4536 143.6 75.737 142.492 76.6703 141.625C77.6203 140.758 78.4203 139.85 79.0703 138.9C79.7203 137.95 80.0453 137.025 80.0453 136.125C80.0453 135.442 79.887 134.908 79.5703 134.525C79.2536 134.142 78.7786 133.95 78.1453 133.95C77.512 133.95 77.012 134.192 76.6453 134.675C76.2953 135.142 76.1203 135.808 76.1203 136.675H71.9953C72.0286 135.258 72.3286 134.075 72.8953 133.125C73.4786 132.175 74.237 131.475 75.1703 131.025C76.1203 130.575 77.1703 130.35 78.3203 130.35C80.3036 130.35 81.7953 130.858 82.7953 131.875C83.812 132.892 84.3203 134.217 84.3203 135.85C84.3203 137.633 83.712 139.292 82.4953 140.825C81.2786 142.342 79.7286 143.825 77.8453 145.275H84.5953V148.75H72.0453V145.575ZM86.0275 134.725V130.75H92.9525V149H88.5025V134.725H86.0275ZM96.027 135.9C96.0936 134.117 96.677 132.742 97.777 131.775C98.877 130.808 100.369 130.325 102.252 130.325C103.502 130.325 104.569 130.542 105.452 130.975C106.352 131.408 107.027 132 107.477 132.75C107.944 133.5 108.177 134.342 108.177 135.275C108.177 136.375 107.902 137.275 107.352 137.975C106.802 138.658 106.16 139.125 105.427 139.375V139.475C106.377 139.792 107.127 140.317 107.677 141.05C108.227 141.783 108.502 142.725 108.502 143.875C108.502 144.908 108.26 145.825 107.777 146.625C107.31 147.408 106.619 148.025 105.702 148.475C104.802 148.925 103.727 149.15 102.477 149.15C100.477 149.15 98.877 148.658 97.677 147.675C96.4936 146.692 95.8686 145.208 95.802 143.225H99.952C99.9686 143.958 100.177 144.542 100.577 144.975C100.977 145.392 101.56 145.6 102.327 145.6C102.977 145.6 103.477 145.417 103.827 145.05C104.194 144.667 104.377 144.167 104.377 143.55C104.377 142.75 104.119 142.175 103.602 141.825C103.102 141.458 102.294 141.275 101.177 141.275H100.377V137.8H101.177C102.027 137.8 102.71 137.658 103.227 137.375C103.76 137.075 104.027 136.55 104.027 135.8C104.027 135.2 103.86 134.733 103.527 134.4C103.194 134.067 102.735 133.9 102.152 133.9C101.519 133.9 101.044 134.092 100.727 134.475C100.427 134.858 100.252 135.333 100.202 135.9H96.027Z" fill="white"/>
<path d="M253.992 46.3821C254.097 46.5771 254.297 46.6987 254.515 46.6987H257.903V53.3881C257.903 53.7259 258.17 54 258.5 54C258.83 54 259.098 53.7259 259.098 53.3881V46.6987H262.486C262.704 46.6987 262.904 46.5771 263.009 46.3821C263.115 46.1871 263.108 45.9489 262.992 45.7604L259.006 39.2856C258.896 39.1077 258.706 39 258.5 39C258.295 39 258.104 39.1077 257.994 39.2856L254.009 45.7604C253.948 45.8599 253.917 45.9733 253.917 46.0868C253.917 46.1879 253.942 46.2899 253.992 46.3821" fill="#11CABE"/>
<path d="M273.789 49.814C275.397 48.614 276.669 47.528 277.605 46.556C278.541 45.572 279.009 44.654 279.009 43.802C279.009 43.514 278.943 43.292 278.811 43.136C278.691 42.98 278.529 42.902 278.325 42.902C278.085 42.902 277.893 43.028 277.749 43.28C277.617 43.52 277.569 43.892 277.605 44.396H273.735C273.771 43.28 274.011 42.362 274.455 41.642C274.911 40.922 275.499 40.394 276.219 40.058C276.939 39.722 277.731 39.554 278.595 39.554C280.131 39.554 281.253 39.926 281.961 40.67C282.681 41.402 283.041 42.344 283.041 43.496C283.041 44.708 282.651 45.848 281.871 46.916C281.103 47.972 280.137 48.866 278.973 49.598H283.095V52.82H273.789V49.814ZM286.36 53.144C285.664 53.144 285.106 52.958 284.686 52.586C284.266 52.214 284.056 51.746 284.056 51.182C284.056 50.606 284.266 50.132 284.686 49.76C285.106 49.376 285.664 49.184 286.36 49.184C287.044 49.184 287.596 49.376 288.016 49.76C288.436 50.132 288.646 50.606 288.646 51.182C288.646 51.746 288.436 52.214 288.016 52.586C287.596 52.958 287.044 53.144 286.36 53.144ZM289.409 43.586V39.842H295.511V53H291.317V43.586H289.409ZM296.598 43.586V39.842H302.7V53H298.506V43.586H296.598ZM303.985 43.28C303.985 42.224 304.285 41.42 304.885 40.868C305.485 40.304 306.271 40.022 307.243 40.022C308.203 40.022 308.977 40.304 309.565 40.868C310.165 41.42 310.465 42.224 310.465 43.28C310.465 44.336 310.165 45.14 309.565 45.692C308.977 46.244 308.203 46.52 307.243 46.52C306.271 46.52 305.485 46.244 304.885 45.692C304.285 45.14 303.985 44.336 303.985 43.28ZM317.323 40.202L310.609 53H306.793L313.507 40.202H317.323ZM307.207 42.344C306.799 42.344 306.595 42.656 306.595 43.28C306.595 43.892 306.799 44.198 307.207 44.198C307.423 44.198 307.585 44.12 307.693 43.964C307.813 43.808 307.873 43.58 307.873 43.28C307.873 42.968 307.813 42.734 307.693 42.578C307.585 42.422 307.423 42.344 307.207 42.344ZM313.651 49.922C313.651 48.866 313.951 48.062 314.551 47.51C315.151 46.946 315.931 46.664 316.891 46.664C317.863 46.664 318.643 46.946 319.231 47.51C319.819 48.062 320.113 48.866 320.113 49.922C320.113 50.978 319.819 51.788 319.231 52.352C318.643 52.904 317.863 53.18 316.891 53.18C315.931 53.18 315.151 52.904 314.551 52.352C313.951 51.788 313.651 50.978 313.651 49.922ZM316.873 48.986C316.453 48.986 316.243 49.298 316.243 49.922C316.243 50.546 316.453 50.858 316.873 50.858C317.077 50.858 317.233 50.78 317.341 50.624C317.461 50.468 317.521 50.234 317.521 49.922C317.521 49.622 317.461 49.394 317.341 49.238C317.233 49.07 317.077 48.986 316.873 48.986Z" fill="#11CABE"/>
<g clip-path="url(#clip0_208_12466)">
<ellipse cx="46" cy="46.0001" rx="22" ry="22.0001" fill="#F3BA2F"/>
</g>
<path d="M32.096 98.848V100.032H29.056V110H27.6V100.032H24.544V98.848H32.096ZM47.9043 98.848L44.6723 110H43.0403L40.4483 101.024L37.7603 110L36.1443 110.016L33.0243 98.848H34.5763L37.0083 108.304L39.6963 98.848H41.3283L43.8883 108.272L46.3363 98.848H47.9043ZM50.9536 98.848V110H49.4976V98.848H50.9536ZM60.2991 98.848V100.032H57.2591V110H55.8031V100.032H52.7471V98.848H60.2991ZM68.9554 98.848V100.032H65.9154V110H64.4594V100.032H61.4034V98.848H68.9554ZM72.2036 100.032V103.76H76.2676V104.96H72.2036V108.8H76.7476V110H70.7476V98.832H76.7476V100.032H72.2036ZM84.8228 110L82.1668 105.44H80.4068V110H78.9508V98.848H82.5508C83.3934 98.848 84.1028 98.992 84.6788 99.28C85.2654 99.568 85.7028 99.9573 85.9908 100.448C86.2788 100.939 86.4228 101.499 86.4228 102.128C86.4228 102.896 86.1988 103.573 85.7508 104.16C85.3134 104.747 84.6521 105.136 83.7668 105.328L86.5668 110H84.8228ZM80.4068 104.272H82.5508C83.3401 104.272 83.9321 104.08 84.3268 103.696C84.7214 103.301 84.9188 102.779 84.9188 102.128C84.9188 101.467 84.7214 100.955 84.3268 100.592C83.9428 100.229 83.3508 100.048 82.5508 100.048H80.4068V104.272ZM99.2548 98.848V100.032H94.4068V103.792H98.3428V104.976H94.4068V110H92.9508V98.848H99.2548ZM106.069 110.112C105.035 110.112 104.091 109.872 103.237 109.392C102.384 108.901 101.707 108.224 101.205 107.36C100.715 106.485 100.469 105.504 100.469 104.416C100.469 103.328 100.715 102.352 101.205 101.488C101.707 100.613 102.384 99.936 103.237 99.456C104.091 98.9653 105.035 98.72 106.069 98.72C107.115 98.72 108.064 98.9653 108.917 99.456C109.771 99.936 110.443 100.608 110.933 101.472C111.424 102.336 111.669 103.317 111.669 104.416C111.669 105.515 111.424 106.496 110.933 107.36C110.443 108.224 109.771 108.901 108.917 109.392C108.064 109.872 107.115 110.112 106.069 110.112ZM106.069 108.848C106.848 108.848 107.547 108.667 108.165 108.304C108.795 107.941 109.285 107.424 109.637 106.752C110 106.08 110.181 105.301 110.181 104.416C110.181 103.52 110 102.741 109.637 102.08C109.285 101.408 108.8 100.891 108.181 100.528C107.563 100.165 106.859 99.984 106.069 99.984C105.28 99.984 104.576 100.165 103.957 100.528C103.339 100.891 102.848 101.408 102.485 102.08C102.133 102.741 101.957 103.52 101.957 104.416C101.957 105.301 102.133 106.08 102.485 106.752C102.848 107.424 103.339 107.941 103.957 108.304C104.587 108.667 105.291 108.848 106.069 108.848ZM115.047 108.816H118.951V110H113.591V98.848H115.047V108.816ZM121.954 108.816H125.858V110H120.498V98.848H121.954V108.816ZM132.46 110.112C131.425 110.112 130.481 109.872 129.628 109.392C128.775 108.901 128.097 108.224 127.596 107.36C127.105 106.485 126.86 105.504 126.86 104.416C126.86 103.328 127.105 102.352 127.596 101.488C128.097 100.613 128.775 99.936 129.628 99.456C130.481 98.9653 131.425 98.72 132.46 98.72C133.505 98.72 134.455 98.9653 135.308 99.456C136.161 99.936 136.833 100.608 137.324 101.472C137.815 102.336 138.06 103.317 138.06 104.416C138.06 105.515 137.815 106.496 137.324 107.36C136.833 108.224 136.161 108.901 135.308 109.392C134.455 109.872 133.505 110.112 132.46 110.112ZM132.46 108.848C133.239 108.848 133.937 108.667 134.556 108.304C135.185 107.941 135.676 107.424 136.028 106.752C136.391 106.08 136.572 105.301 136.572 104.416C136.572 103.52 136.391 102.741 136.028 102.08C135.676 101.408 135.191 100.891 134.572 100.528C133.953 100.165 133.249 99.984 132.46 99.984C131.671 99.984 130.967 100.165 130.348 100.528C129.729 100.891 129.239 101.408 128.876 102.08C128.524 102.741 128.348 103.52 128.348 104.416C128.348 105.301 128.524 106.08 128.876 106.752C129.239 107.424 129.729 107.941 130.348 108.304C130.977 108.667 131.681 108.848 132.46 108.848ZM153.998 98.848L150.766 110H149.134L146.542 101.024L143.854 110L142.238 110.016L139.118 98.848H140.67L143.102 108.304L145.79 98.848H147.422L149.982 108.272L152.43 98.848H153.998ZM157.047 100.032V103.76H161.111V104.96H157.047V108.8H161.591V110H155.591V98.832H161.591V100.032H157.047ZM169.667 110L167.011 105.44H165.251V110H163.795V98.848H167.395C168.237 98.848 168.947 98.992 169.523 99.28C170.109 99.568 170.547 99.9573 170.835 100.448C171.123 100.939 171.267 101.499 171.267 102.128C171.267 102.896 171.043 103.573 170.595 104.16C170.157 104.747 169.496 105.136 168.611 105.328L171.411 110H169.667ZM165.251 104.272H167.395C168.184 104.272 168.776 104.08 169.171 103.696C169.565 103.301 169.763 102.779 169.763 102.128C169.763 101.467 169.565 100.955 169.171 100.592C168.787 100.229 168.195 100.048 167.395 100.048H165.251V104.272ZM177.065 110.112C176.329 110.112 175.668 109.984 175.081 109.728C174.505 109.461 174.052 109.099 173.721 108.64C173.39 108.171 173.22 107.632 173.209 107.024H174.761C174.814 107.547 175.028 107.989 175.401 108.352C175.785 108.704 176.34 108.88 177.065 108.88C177.758 108.88 178.302 108.709 178.697 108.368C179.102 108.016 179.305 107.568 179.305 107.024C179.305 106.597 179.188 106.251 178.953 105.984C178.718 105.717 178.425 105.515 178.073 105.376C177.721 105.237 177.246 105.088 176.649 104.928C175.913 104.736 175.321 104.544 174.873 104.352C174.436 104.16 174.057 103.861 173.737 103.456C173.428 103.04 173.273 102.485 173.273 101.792C173.273 101.184 173.428 100.645 173.737 100.176C174.046 99.7067 174.478 99.344 175.033 99.088C175.598 98.832 176.244 98.704 176.969 98.704C178.014 98.704 178.868 98.9653 179.529 99.488C180.201 100.011 180.58 100.704 180.665 101.568H179.065C179.012 101.141 178.788 100.768 178.393 100.448C177.998 100.117 177.476 99.952 176.825 99.952C176.217 99.952 175.721 100.112 175.337 100.432C174.953 100.741 174.761 101.179 174.761 101.744C174.761 102.149 174.873 102.48 175.097 102.736C175.332 102.992 175.614 103.189 175.945 103.328C176.286 103.456 176.761 103.605 177.369 103.776C178.105 103.979 178.697 104.181 179.145 104.384C179.593 104.576 179.977 104.88 180.297 105.296C180.617 105.701 180.777 106.256 180.777 106.96C180.777 107.504 180.633 108.016 180.345 108.496C180.057 108.976 179.63 109.365 179.065 109.664C178.5 109.963 177.833 110.112 177.065 110.112Z" fill="#A5ADCF"/>
<defs>
<filter id="filter0_b_208_12466" x="-4" y="-4" width="354" height="186" filterUnits="userSpaceOnUse" color-interpolation-filters="sRGB">
<feFlood flood-opacity="0" result="BackgroundImageFix"/>
<feGaussianBlur in="BackgroundImage" stdDeviation="2"/>
<feComposite in2="SourceAlpha" operator="in" result="effect1_backgroundBlur_208_12466"/>
<feBlend mode="normal" in="SourceGraphic" in2="effect1_backgroundBlur_208_12466" result="shape"/>
</filter>
<clipPath id="clip0_208_12466">
<rect width="44" height="44" fill="white" transform="translate(24 24)"/>
</clipPath>
</defs>
</svg>
