<svg width="346" height="178" viewBox="0 0 346 178" fill="none" xmlns="http://www.w3.org/2000/svg">
<g filter="url(#filter0_b_208_12433)">
<rect width="346" height="178" rx="8" fill="#2F3241" fill-opacity="0.5"/>
</g>
<path d="M281.882 150.976C280.858 149.973 280.058 148.699 279.482 147.152C278.917 145.605 278.634 143.936 278.634 142.144C278.634 140.309 278.933 138.597 279.53 137.008C280.138 135.408 281.002 134.091 282.122 133.056H283.642V133.2C282.448 134.32 281.546 135.669 280.938 137.248C280.341 138.816 280.042 140.448 280.042 142.144C280.042 143.797 280.325 145.376 280.89 146.88C281.466 148.384 282.304 149.701 283.402 150.832V150.976H281.882ZM295.718 148L291.126 142.912V148H289.67V136.848H291.126V142.016L295.734 136.848H297.574L292.518 142.432L297.622 148H295.718ZM307.696 140.08C307.386 139.429 306.938 138.928 306.352 138.576C305.765 138.213 305.082 138.032 304.304 138.032C303.525 138.032 302.821 138.213 302.192 138.576C301.573 138.928 301.082 139.44 300.72 140.112C300.368 140.773 300.192 141.541 300.192 142.416C300.192 143.291 300.368 144.059 300.72 144.72C301.082 145.381 301.573 145.893 302.192 146.256C302.821 146.608 303.525 146.784 304.304 146.784C305.392 146.784 306.288 146.459 306.992 145.808C307.696 145.157 308.106 144.277 308.224 143.168H303.776V141.984H309.776V143.104C309.69 144.021 309.402 144.864 308.912 145.632C308.421 146.389 307.776 146.992 306.976 147.44C306.176 147.877 305.285 148.096 304.304 148.096C303.269 148.096 302.325 147.856 301.472 147.376C300.618 146.885 299.941 146.208 299.44 145.344C298.949 144.48 298.704 143.504 298.704 142.416C298.704 141.328 298.949 140.352 299.44 139.488C299.941 138.613 300.618 137.936 301.472 137.456C302.325 136.965 303.269 136.72 304.304 136.72C305.488 136.72 306.533 137.013 307.44 137.6C308.357 138.187 309.024 139.013 309.44 140.08H307.696ZM315.502 150.976V150.832C316.601 149.701 317.433 148.384 317.998 146.88C318.574 145.376 318.862 143.797 318.862 142.144C318.862 140.448 318.558 138.816 317.95 137.248C317.353 135.669 316.457 134.32 315.262 133.2V133.056H316.782C317.902 134.091 318.761 135.408 319.358 137.008C319.966 138.597 320.27 140.309 320.27 142.144C320.27 143.936 319.982 145.605 319.406 147.152C318.841 148.699 318.046 149.973 317.022 150.976H315.502Z" fill="#5D6588"/>
<path d="M25.225 145.75V142.3L33.125 131H37.9V142.05H39.95V145.75H37.9V149H33.625V145.75H25.225ZM33.925 135.7L29.725 142.05H33.925V135.7ZM47.0689 145.05L44.2939 152.225H41.5689L43.0189 145.05H47.0689ZM49.3717 135.9C49.4383 134.117 50.0217 132.742 51.1217 131.775C52.2217 130.808 53.7133 130.325 55.5967 130.325C56.8467 130.325 57.9133 130.542 58.7967 130.975C59.6967 131.408 60.3717 132 60.8217 132.75C61.2883 133.5 61.5217 134.342 61.5217 135.275C61.5217 136.375 61.2467 137.275 60.6967 137.975C60.1467 138.658 59.505 139.125 58.7717 139.375V139.475C59.7217 139.792 60.4717 140.317 61.0217 141.05C61.5717 141.783 61.8467 142.725 61.8467 143.875C61.8467 144.908 61.605 145.825 61.1217 146.625C60.655 147.408 59.9633 148.025 59.0467 148.475C58.1467 148.925 57.0717 149.15 55.8217 149.15C53.8217 149.15 52.2217 148.658 51.0217 147.675C49.8383 146.692 49.2133 145.208 49.1467 143.225H53.2967C53.3133 143.958 53.5217 144.542 53.9217 144.975C54.3217 145.392 54.905 145.6 55.6717 145.6C56.3217 145.6 56.8217 145.417 57.1717 145.05C57.5383 144.667 57.7217 144.167 57.7217 143.55C57.7217 142.75 57.4633 142.175 56.9467 141.825C56.4467 141.458 55.6383 141.275 54.5217 141.275H53.7217V137.8H54.5217C55.3717 137.8 56.055 137.658 56.5717 137.375C57.105 137.075 57.3717 136.55 57.3717 135.8C57.3717 135.2 57.205 134.733 56.8717 134.4C56.5383 134.067 56.08 133.9 55.4967 133.9C54.8633 133.9 54.3883 134.092 54.0717 134.475C53.7717 134.858 53.5967 135.333 53.5467 135.9H49.3717ZM64.4584 145.75V142.3L72.3584 131H77.1334V142.05H79.1834V145.75H77.1334V149H72.8584V145.75H64.4584ZM73.1584 135.7L68.9584 142.05H73.1584V135.7ZM94.1273 134.475H86.3273V137.925C86.6607 137.558 87.1273 137.258 87.7273 137.025C88.3273 136.792 88.9773 136.675 89.6773 136.675C90.9273 136.675 91.9607 136.958 92.7773 137.525C93.6107 138.092 94.219 138.825 94.6023 139.725C94.9857 140.625 95.1773 141.6 95.1773 142.65C95.1773 144.6 94.6273 146.15 93.5273 147.3C92.4273 148.433 90.8773 149 88.8773 149C87.544 149 86.3857 148.775 85.4023 148.325C84.419 147.858 83.6607 147.217 83.1273 146.4C82.594 145.583 82.3023 144.642 82.2523 143.575H86.4273C86.5273 144.092 86.769 144.525 87.1523 144.875C87.5357 145.208 88.0607 145.375 88.7273 145.375C89.5107 145.375 90.094 145.125 90.4773 144.625C90.8607 144.125 91.0523 143.458 91.0523 142.625C91.0523 141.808 90.8523 141.183 90.4523 140.75C90.0523 140.317 89.469 140.1 88.7023 140.1C88.1357 140.1 87.669 140.242 87.3023 140.525C86.9357 140.792 86.694 141.15 86.5773 141.6H82.4523V130.725H94.1273V134.475ZM102.562 145.05L99.7871 152.225H97.0621L98.5121 145.05H102.562ZM113.74 135.675C113.607 135.058 113.373 134.6 113.04 134.3C112.707 133.983 112.232 133.825 111.615 133.825C110.665 133.825 109.982 134.242 109.565 135.075C109.148 135.892 108.932 137.192 108.915 138.975C109.282 138.392 109.807 137.933 110.49 137.6C111.19 137.267 111.957 137.1 112.79 137.1C114.423 137.1 115.732 137.617 116.715 138.65C117.715 139.683 118.215 141.125 118.215 142.975C118.215 144.192 117.965 145.258 117.465 146.175C116.982 147.092 116.265 147.808 115.315 148.325C114.382 148.842 113.273 149.1 111.99 149.1C109.423 149.1 107.64 148.3 106.64 146.7C105.64 145.083 105.14 142.767 105.14 139.75C105.14 136.583 105.665 134.233 106.715 132.7C107.782 131.15 109.482 130.375 111.815 130.375C113.065 130.375 114.115 130.625 114.965 131.125C115.832 131.608 116.482 132.25 116.915 133.05C117.365 133.85 117.632 134.725 117.715 135.675H113.74ZM111.765 140.475C111.048 140.475 110.448 140.692 109.965 141.125C109.498 141.542 109.265 142.142 109.265 142.925C109.265 143.725 109.482 144.35 109.915 144.8C110.365 145.25 110.998 145.475 111.815 145.475C112.548 145.475 113.123 145.258 113.54 144.825C113.973 144.375 114.19 143.767 114.19 143C114.19 142.217 113.982 141.6 113.565 141.15C113.148 140.7 112.548 140.475 111.765 140.475ZM129.658 135.675C129.524 135.058 129.291 134.6 128.958 134.3C128.624 133.983 128.149 133.825 127.533 133.825C126.583 133.825 125.899 134.242 125.483 135.075C125.066 135.892 124.849 137.192 124.833 138.975C125.199 138.392 125.724 137.933 126.408 137.6C127.108 137.267 127.874 137.1 128.708 137.1C130.341 137.1 131.649 137.617 132.633 138.65C133.633 139.683 134.133 141.125 134.133 142.975C134.133 144.192 133.883 145.258 133.383 146.175C132.899 147.092 132.183 147.808 131.233 148.325C130.299 148.842 129.191 149.1 127.908 149.1C125.341 149.1 123.558 148.3 122.558 146.7C121.558 145.083 121.058 142.767 121.058 139.75C121.058 136.583 121.583 134.233 122.633 132.7C123.699 131.15 125.399 130.375 127.733 130.375C128.983 130.375 130.033 130.625 130.883 131.125C131.749 131.608 132.399 132.25 132.833 133.05C133.283 133.85 133.549 134.725 133.633 135.675H129.658ZM127.683 140.475C126.966 140.475 126.366 140.692 125.883 141.125C125.416 141.542 125.183 142.142 125.183 142.925C125.183 143.725 125.399 144.35 125.833 144.8C126.283 145.25 126.916 145.475 127.733 145.475C128.466 145.475 129.041 145.258 129.458 144.825C129.891 144.375 130.108 143.767 130.108 143C130.108 142.217 129.899 141.6 129.483 141.15C129.066 140.7 128.466 140.475 127.683 140.475ZM145.576 135.675C145.442 135.058 145.209 134.6 144.876 134.3C144.542 133.983 144.067 133.825 143.451 133.825C142.501 133.825 141.817 134.242 141.401 135.075C140.984 135.892 140.767 137.192 140.751 138.975C141.117 138.392 141.642 137.933 142.326 137.6C143.026 137.267 143.792 137.1 144.626 137.1C146.259 137.1 147.567 137.617 148.551 138.65C149.551 139.683 150.051 141.125 150.051 142.975C150.051 144.192 149.801 145.258 149.301 146.175C148.817 147.092 148.101 147.808 147.151 148.325C146.217 148.842 145.109 149.1 143.826 149.1C141.259 149.1 139.476 148.3 138.476 146.7C137.476 145.083 136.976 142.767 136.976 139.75C136.976 136.583 137.501 134.233 138.551 132.7C139.617 131.15 141.317 130.375 143.651 130.375C144.901 130.375 145.951 130.625 146.801 131.125C147.667 131.608 148.317 132.25 148.751 133.05C149.201 133.85 149.467 134.725 149.551 135.675H145.576ZM143.601 140.475C142.884 140.475 142.284 140.692 141.801 141.125C141.334 141.542 141.101 142.142 141.101 142.925C141.101 143.725 141.317 144.35 141.751 144.8C142.201 145.25 142.834 145.475 143.651 145.475C144.384 145.475 144.959 145.258 145.376 144.825C145.809 144.375 146.026 143.767 146.026 143C146.026 142.217 145.817 141.6 145.401 141.15C144.984 140.7 144.384 140.475 143.601 140.475ZM157.494 145.05L154.719 152.225H151.994L153.444 145.05H157.494ZM162.646 139.2C161.08 138.367 160.296 137.058 160.296 135.275C160.296 134.375 160.53 133.558 160.996 132.825C161.463 132.075 162.171 131.483 163.121 131.05C164.071 130.6 165.238 130.375 166.621 130.375C168.005 130.375 169.163 130.6 170.096 131.05C171.046 131.483 171.755 132.075 172.221 132.825C172.688 133.558 172.921 134.375 172.921 135.275C172.921 136.175 172.705 136.958 172.271 137.625C171.855 138.292 171.288 138.817 170.571 139.2C171.471 139.633 172.163 140.233 172.646 141C173.13 141.75 173.371 142.633 173.371 143.65C173.371 144.833 173.071 145.858 172.471 146.725C171.871 147.575 171.055 148.225 170.021 148.675C169.005 149.125 167.871 149.35 166.621 149.35C165.371 149.35 164.23 149.125 163.196 148.675C162.18 148.225 161.371 147.575 160.771 146.725C160.171 145.858 159.871 144.833 159.871 143.65C159.871 142.617 160.113 141.725 160.596 140.975C161.08 140.208 161.763 139.617 162.646 139.2ZM168.771 135.925C168.771 135.242 168.571 134.717 168.171 134.35C167.788 133.967 167.271 133.775 166.621 133.775C165.971 133.775 165.446 133.967 165.046 134.35C164.663 134.733 164.471 135.267 164.471 135.95C164.471 136.6 164.671 137.117 165.071 137.5C165.471 137.867 165.988 138.05 166.621 138.05C167.255 138.05 167.771 137.858 168.171 137.475C168.571 137.092 168.771 136.575 168.771 135.925ZM166.621 141.05C165.838 141.05 165.205 141.267 164.721 141.7C164.238 142.117 163.996 142.7 163.996 143.45C163.996 144.15 164.23 144.725 164.696 145.175C165.18 145.625 165.821 145.85 166.621 145.85C167.421 145.85 168.046 145.625 168.496 145.175C168.963 144.725 169.196 144.15 169.196 143.45C169.196 142.717 168.955 142.133 168.471 141.7C168.005 141.267 167.388 141.05 166.621 141.05ZM176.007 135.9C176.074 134.117 176.657 132.742 177.757 131.775C178.857 130.808 180.349 130.325 182.232 130.325C183.482 130.325 184.549 130.542 185.432 130.975C186.332 131.408 187.007 132 187.457 132.75C187.924 133.5 188.157 134.342 188.157 135.275C188.157 136.375 187.882 137.275 187.332 137.975C186.782 138.658 186.141 139.125 185.407 139.375V139.475C186.357 139.792 187.107 140.317 187.657 141.05C188.207 141.783 188.482 142.725 188.482 143.875C188.482 144.908 188.241 145.825 187.757 146.625C187.291 147.408 186.599 148.025 185.682 148.475C184.782 148.925 183.707 149.15 182.457 149.15C180.457 149.15 178.857 148.658 177.657 147.675C176.474 146.692 175.849 145.208 175.782 143.225H179.932C179.949 143.958 180.157 144.542 180.557 144.975C180.957 145.392 181.541 145.6 182.307 145.6C182.957 145.6 183.457 145.417 183.807 145.05C184.174 144.667 184.357 144.167 184.357 143.55C184.357 142.75 184.099 142.175 183.582 141.825C183.082 141.458 182.274 141.275 181.157 141.275H180.357V137.8H181.157C182.007 137.8 182.691 137.658 183.207 137.375C183.741 137.075 184.007 136.55 184.007 135.8C184.007 135.2 183.841 134.733 183.507 134.4C183.174 134.067 182.716 133.9 182.132 133.9C181.499 133.9 181.024 134.092 180.707 134.475C180.407 134.858 180.232 135.333 180.182 135.9H176.007ZM190.544 134.725V130.75H197.469V149H193.019V134.725H190.544ZM202.819 149.2C202.069 149.2 201.452 148.983 200.969 148.55C200.502 148.1 200.269 147.55 200.269 146.9C200.269 146.233 200.502 145.675 200.969 145.225C201.452 144.775 202.069 144.55 202.819 144.55C203.552 144.55 204.152 144.775 204.619 145.225C205.102 145.675 205.344 146.233 205.344 146.9C205.344 147.55 205.102 148.1 204.619 148.55C204.152 148.983 203.552 149.2 202.819 149.2ZM207.449 139.625C207.449 136.758 207.999 134.5 209.099 132.85C210.216 131.2 212.008 130.375 214.474 130.375C216.941 130.375 218.724 131.2 219.824 132.85C220.941 134.5 221.499 136.758 221.499 139.625C221.499 142.525 220.941 144.8 219.824 146.45C218.724 148.1 216.941 148.925 214.474 148.925C212.008 148.925 210.216 148.1 209.099 146.45C207.999 144.8 207.449 142.525 207.449 139.625ZM217.299 139.625C217.299 137.942 217.116 136.65 216.749 135.75C216.383 134.833 215.624 134.375 214.474 134.375C213.324 134.375 212.566 134.833 212.199 135.75C211.833 136.65 211.649 137.942 211.649 139.625C211.649 140.758 211.716 141.7 211.849 142.45C211.983 143.183 212.249 143.783 212.649 144.25C213.066 144.7 213.674 144.925 214.474 144.925C215.274 144.925 215.874 144.7 216.274 144.25C216.691 143.783 216.966 143.183 217.099 142.45C217.233 141.7 217.299 140.758 217.299 139.625ZM223.308 134.725V130.75H230.233V149H225.783V134.725H223.308Z" fill="white"/>
<path d="M253.992 46.3821C254.097 46.5771 254.297 46.6987 254.514 46.6987H257.902V53.3881C257.902 53.7259 258.17 54 258.5 54C258.83 54 259.098 53.7259 259.098 53.3881V46.6987H262.486C262.704 46.6987 262.904 46.5771 263.008 46.3821C263.114 46.1871 263.107 45.9489 262.992 45.7604L259.006 39.2856C258.896 39.1077 258.706 39 258.5 39C258.294 39 258.104 39.1077 257.994 39.2856L254.008 45.7604C253.948 45.8599 253.917 45.9733 253.917 46.0868C253.917 46.1879 253.942 46.2899 253.992 46.3821Z" fill="#11CABE"/>
<path d="M273.789 49.814C275.397 48.614 276.669 47.528 277.605 46.556C278.541 45.572 279.009 44.654 279.009 43.802C279.009 43.514 278.943 43.292 278.811 43.136C278.691 42.98 278.529 42.902 278.325 42.902C278.085 42.902 277.893 43.028 277.749 43.28C277.617 43.52 277.569 43.892 277.605 44.396H273.735C273.771 43.28 274.011 42.362 274.455 41.642C274.911 40.922 275.499 40.394 276.219 40.058C276.939 39.722 277.731 39.554 278.595 39.554C280.131 39.554 281.253 39.926 281.961 40.67C282.681 41.402 283.041 42.344 283.041 43.496C283.041 44.708 282.651 45.848 281.871 46.916C281.103 47.972 280.137 48.866 278.973 49.598H283.095V52.82H273.789V49.814ZM286.36 53.144C285.664 53.144 285.106 52.958 284.686 52.586C284.266 52.214 284.056 51.746 284.056 51.182C284.056 50.606 284.266 50.132 284.686 49.76C285.106 49.376 285.664 49.184 286.36 49.184C287.044 49.184 287.596 49.376 288.016 49.76C288.436 50.132 288.646 50.606 288.646 51.182C288.646 51.746 288.436 52.214 288.016 52.586C287.596 52.958 287.044 53.144 286.36 53.144ZM289.409 43.586V39.842H295.511V53H291.317V43.586H289.409ZM296.598 43.586V39.842H302.7V53H298.506V43.586H296.598ZM303.985 43.28C303.985 42.224 304.285 41.42 304.885 40.868C305.485 40.304 306.271 40.022 307.243 40.022C308.203 40.022 308.977 40.304 309.565 40.868C310.165 41.42 310.465 42.224 310.465 43.28C310.465 44.336 310.165 45.14 309.565 45.692C308.977 46.244 308.203 46.52 307.243 46.52C306.271 46.52 305.485 46.244 304.885 45.692C304.285 45.14 303.985 44.336 303.985 43.28ZM317.323 40.202L310.609 53H306.793L313.507 40.202H317.323ZM307.207 42.344C306.799 42.344 306.595 42.656 306.595 43.28C306.595 43.892 306.799 44.198 307.207 44.198C307.423 44.198 307.585 44.12 307.693 43.964C307.813 43.808 307.873 43.58 307.873 43.28C307.873 42.968 307.813 42.734 307.693 42.578C307.585 42.422 307.423 42.344 307.207 42.344ZM313.651 49.922C313.651 48.866 313.951 48.062 314.551 47.51C315.151 46.946 315.931 46.664 316.891 46.664C317.863 46.664 318.643 46.946 319.231 47.51C319.819 48.062 320.113 48.866 320.113 49.922C320.113 50.978 319.819 51.788 319.231 52.352C318.643 52.904 317.863 53.18 316.891 53.18C315.931 53.18 315.151 52.904 314.551 52.352C313.951 51.788 313.651 50.978 313.651 49.922ZM316.873 48.986C316.453 48.986 316.243 49.298 316.243 49.922C316.243 50.546 316.453 50.858 316.873 50.858C317.077 50.858 317.233 50.78 317.341 50.624C317.461 50.468 317.521 50.234 317.521 49.922C317.521 49.622 317.461 49.394 317.341 49.238C317.233 49.07 317.077 48.986 316.873 48.986Z" fill="#11CABE"/>
<g clip-path="url(#clip0_208_12433)">
<path d="M67.3421 51.3204C64.4027 63.1124 52.4555 70.2807 40.6803 67.3411C28.888 64.4017 21.7198 52.455 24.6594 40.68C27.5988 28.888 39.5286 21.7198 51.321 24.6594C63.0961 27.5816 70.2817 39.5283 67.3421 51.3204Z" fill="url(#paint0_linear_208_12433)"/>
</g>
<path d="M24.688 104.416C24.688 103.328 24.9333 102.352 25.424 101.488C25.9147 100.613 26.5813 99.9307 27.424 99.44C28.2773 98.9493 29.2213 98.704 30.256 98.704C31.472 98.704 32.5333 98.9973 33.44 99.584C34.3467 100.171 35.008 101.003 35.424 102.08H33.68C33.3707 101.408 32.9227 100.891 32.336 100.528C31.76 100.165 31.0667 99.984 30.256 99.984C29.4773 99.984 28.7787 100.165 28.16 100.528C27.5413 100.891 27.056 101.408 26.704 102.08C26.352 102.741 26.176 103.52 26.176 104.416C26.176 105.301 26.352 106.08 26.704 106.752C27.056 107.413 27.5413 107.925 28.16 108.288C28.7787 108.651 29.4773 108.832 30.256 108.832C31.0667 108.832 31.76 108.656 32.336 108.304C32.9227 107.941 33.3707 107.424 33.68 106.752H35.424C35.008 107.819 34.3467 108.645 33.44 109.232C32.5333 109.808 31.472 110.096 30.256 110.096C29.2213 110.096 28.2773 109.856 27.424 109.376C26.5813 108.885 25.9147 108.208 25.424 107.344C24.9333 106.48 24.688 105.504 24.688 104.416ZM44.1834 107.52H39.3194L38.4234 110H36.8874L40.9194 98.912H42.5994L46.6154 110H45.0794L44.1834 107.52ZM43.7674 106.336L41.7514 100.704L39.7354 106.336H43.7674ZM54.2446 110L51.5886 105.44H49.8286V110H48.3726V98.848H51.9726C52.8153 98.848 53.5246 98.992 54.1006 99.28C54.6873 99.568 55.1246 99.9573 55.4126 100.448C55.7006 100.939 55.8446 101.499 55.8446 102.128C55.8446 102.896 55.6206 103.573 55.1726 104.16C54.7353 104.747 54.074 105.136 53.1886 105.328L55.9886 110H54.2446ZM49.8286 104.272H51.9726C52.762 104.272 53.354 104.08 53.7486 103.696C54.1433 103.301 54.3406 102.779 54.3406 102.128C54.3406 101.467 54.1433 100.955 53.7486 100.592C53.3646 100.229 52.7726 100.048 51.9726 100.048H49.8286V104.272ZM63.691 104.256C64.0963 104.32 64.4643 104.485 64.795 104.752C65.1363 105.019 65.403 105.349 65.595 105.744C65.7977 106.139 65.899 106.56 65.899 107.008C65.899 107.573 65.755 108.085 65.467 108.544C65.179 108.992 64.7577 109.349 64.203 109.616C63.659 109.872 63.0137 110 62.267 110H58.107V98.848H62.107C62.8643 98.848 63.5097 98.976 64.043 99.232C64.5763 99.4773 64.9763 99.8133 65.243 100.24C65.5097 100.667 65.643 101.147 65.643 101.68C65.643 102.341 65.4617 102.891 65.099 103.328C64.747 103.755 64.2777 104.064 63.691 104.256ZM59.563 103.664H62.011C62.6937 103.664 63.2217 103.504 63.595 103.184C63.9683 102.864 64.155 102.421 64.155 101.856C64.155 101.291 63.9683 100.848 63.595 100.528C63.2217 100.208 62.683 100.048 61.979 100.048H59.563V103.664ZM62.139 108.8C62.8643 108.8 63.4297 108.629 63.835 108.288C64.2403 107.947 64.443 107.472 64.443 106.864C64.443 106.245 64.2297 105.76 63.803 105.408C63.3763 105.045 62.8057 104.864 62.091 104.864H59.563V108.8H62.139ZM72.9755 110.112C71.9408 110.112 70.9968 109.872 70.1435 109.392C69.2902 108.901 68.6128 108.224 68.1115 107.36C67.6208 106.485 67.3755 105.504 67.3755 104.416C67.3755 103.328 67.6208 102.352 68.1115 101.488C68.6128 100.613 69.2902 99.936 70.1435 99.456C70.9968 98.9653 71.9408 98.72 72.9755 98.72C74.0208 98.72 74.9702 98.9653 75.8235 99.456C76.6768 99.936 77.3488 100.608 77.8395 101.472C78.3302 102.336 78.5755 103.317 78.5755 104.416C78.5755 105.515 78.3302 106.496 77.8395 107.36C77.3488 108.224 76.6768 108.901 75.8235 109.392C74.9702 109.872 74.0208 110.112 72.9755 110.112ZM72.9755 108.848C73.7542 108.848 74.4528 108.667 75.0715 108.304C75.7008 107.941 76.1915 107.424 76.5435 106.752C76.9062 106.08 77.0875 105.301 77.0875 104.416C77.0875 103.52 76.9062 102.741 76.5435 102.08C76.1915 101.408 75.7062 100.891 75.0875 100.528C74.4688 100.165 73.7648 99.984 72.9755 99.984C72.1862 99.984 71.4822 100.165 70.8635 100.528C70.2448 100.891 69.7542 101.408 69.3915 102.08C69.0395 102.741 68.8635 103.52 68.8635 104.416C68.8635 105.301 69.0395 106.08 69.3915 106.752C69.7542 107.424 70.2448 107.941 70.8635 108.304C71.4928 108.667 72.1968 108.848 72.9755 108.848ZM89.2656 110H87.8096L81.9536 101.12V110H80.4976V98.832H81.9536L87.8096 107.696V98.832H89.2656V110ZM101.069 110.112C100.035 110.112 99.0906 109.872 98.2373 109.392C97.3839 108.901 96.7066 108.224 96.2053 107.36C95.7146 106.485 95.4693 105.504 95.4693 104.416C95.4693 103.328 95.7146 102.352 96.2053 101.488C96.7066 100.613 97.3839 99.936 98.2373 99.456C99.0906 98.9653 100.035 98.72 101.069 98.72C102.115 98.72 103.064 98.9653 103.917 99.456C104.771 99.936 105.443 100.608 105.933 101.472C106.424 102.336 106.669 103.317 106.669 104.416C106.669 105.515 106.424 106.496 105.933 107.36C105.443 108.224 104.771 108.901 103.917 109.392C103.064 109.872 102.115 110.112 101.069 110.112ZM101.069 108.848C101.848 108.848 102.547 108.667 103.165 108.304C103.795 107.941 104.285 107.424 104.637 106.752C105 106.08 105.181 105.301 105.181 104.416C105.181 103.52 105 102.741 104.637 102.08C104.285 101.408 103.8 100.891 103.181 100.528C102.563 100.165 101.859 99.984 101.069 99.984C100.28 99.984 99.5759 100.165 98.9573 100.528C98.3386 100.891 97.8479 101.408 97.4853 102.08C97.1333 102.741 96.9573 103.52 96.9573 104.416C96.9573 105.301 97.1333 106.08 97.4853 106.752C97.8479 107.424 98.3386 107.941 98.9573 108.304C99.5866 108.667 100.291 108.848 101.069 108.848ZM114.895 98.848V100.032H110.047V103.792H113.983V104.976H110.047V110H108.591V98.848H114.895ZM122.958 98.848V100.032H118.11V103.792H122.046V104.976H118.11V110H116.654V98.848H122.958ZM128.252 110.112C127.516 110.112 126.855 109.984 126.268 109.728C125.692 109.461 125.239 109.099 124.908 108.64C124.578 108.171 124.407 107.632 124.396 107.024H125.948C126.002 107.547 126.215 107.989 126.588 108.352C126.972 108.704 127.527 108.88 128.252 108.88C128.946 108.88 129.49 108.709 129.884 108.368C130.29 108.016 130.492 107.568 130.492 107.024C130.492 106.597 130.375 106.251 130.14 105.984C129.906 105.717 129.612 105.515 129.26 105.376C128.908 105.237 128.434 105.088 127.836 104.928C127.1 104.736 126.508 104.544 126.06 104.352C125.623 104.16 125.244 103.861 124.924 103.456C124.615 103.04 124.46 102.485 124.46 101.792C124.46 101.184 124.615 100.645 124.924 100.176C125.234 99.7067 125.666 99.344 126.22 99.088C126.786 98.832 127.431 98.704 128.156 98.704C129.202 98.704 130.055 98.9653 130.716 99.488C131.388 100.011 131.767 100.704 131.852 101.568H130.252C130.199 101.141 129.975 100.768 129.58 100.448C129.186 100.117 128.663 99.952 128.012 99.952C127.404 99.952 126.908 100.112 126.524 100.432C126.14 100.741 125.948 101.179 125.948 101.744C125.948 102.149 126.06 102.48 126.284 102.736C126.519 102.992 126.802 103.189 127.132 103.328C127.474 103.456 127.948 103.605 128.556 103.776C129.292 103.979 129.884 104.181 130.332 104.384C130.78 104.576 131.164 104.88 131.484 105.296C131.804 105.701 131.964 106.256 131.964 106.96C131.964 107.504 131.82 108.016 131.532 108.496C131.244 108.976 130.818 109.365 130.252 109.664C129.687 109.963 129.02 110.112 128.252 110.112ZM135.563 100.032V103.76H139.627V104.96H135.563V108.8H140.107V110H134.107V98.832H140.107V100.032H135.563ZM149.174 98.848V100.032H146.134V110H144.678V100.032H141.622V98.848H149.174Z" fill="#A5ADCF"/>
<defs>
<filter id="filter0_b_208_12433" x="-4" y="-4" width="354" height="186" filterUnits="userSpaceOnUse" color-interpolation-filters="sRGB">
<feFlood flood-opacity="0" result="BackgroundImageFix"/>
<feGaussianBlur in="BackgroundImage" stdDeviation="2"/>
<feComposite in2="SourceAlpha" operator="in" result="effect1_backgroundBlur_208_12433"/>
<feBlend mode="normal" in="SourceGraphic" in2="effect1_backgroundBlur_208_12433" result="shape"/>
</filter>
<linearGradient id="paint0_linear_208_12433" x1="45.9883" y1="23.9897" x2="45.9883" y2="67.9958" gradientUnits="userSpaceOnUse">
<stop stop-color="#F9AA4B"/>
<stop offset="1" stop-color="#F7931A"/>
</linearGradient>
<clipPath id="clip0_208_12433">
<rect width="44" height="44" fill="white" transform="translate(24 24)"/>
</clipPath>
</defs>
</svg>
