<svg width="346" height="178" viewBox="0 0 346 178" fill="none" xmlns="http://www.w3.org/2000/svg">
<g filter="url(#filter0_b_208_12422)">
<rect width="346" height="178" rx="8" fill="#2F3241" fill-opacity="0.5"/>
</g>
<path d="M298.664 150.976C297.64 149.973 296.84 148.699 296.264 147.152C295.698 145.605 295.416 143.936 295.416 142.144C295.416 140.309 295.714 138.597 296.312 137.008C296.92 135.408 297.784 134.091 298.904 133.056H300.424V133.2C299.229 134.32 298.328 135.669 297.72 137.248C297.122 138.816 296.824 140.448 296.824 142.144C296.824 143.797 297.106 145.376 297.672 146.88C298.248 148.384 299.085 149.701 300.184 150.832V150.976H298.664ZM313.497 136.928V148H312.041V139.744L308.361 148H307.337L303.641 139.728V148H302.185V136.928H303.753L307.849 146.08L311.945 136.928H313.497ZM315.502 150.976V150.832C316.601 149.701 317.433 148.384 317.998 146.88C318.574 145.376 318.862 143.797 318.862 142.144C318.862 140.448 318.558 138.816 317.95 137.248C317.353 135.669 316.457 134.32 315.262 133.2V133.056H316.782C317.902 134.091 318.761 135.408 319.358 137.008C319.966 138.597 320.27 140.309 320.27 142.144C320.27 143.936 319.982 145.605 319.406 147.152C318.841 148.699 318.046 149.973 317.022 150.976H315.502Z" fill="#5D6588"/>
<path d="M25.225 145.75V142.3L33.125 131H37.9V142.05H39.95V145.75H37.9V149H33.625V145.75H25.225ZM33.925 135.7L29.725 142.05H33.925V135.7ZM47.0689 145.05L44.2939 152.225H41.5689L43.0189 145.05H47.0689ZM49.3717 135.9C49.4383 134.117 50.0217 132.742 51.1217 131.775C52.2217 130.808 53.7133 130.325 55.5967 130.325C56.8467 130.325 57.9133 130.542 58.7967 130.975C59.6967 131.408 60.3717 132 60.8217 132.75C61.2883 133.5 61.5217 134.342 61.5217 135.275C61.5217 136.375 61.2467 137.275 60.6967 137.975C60.1467 138.658 59.505 139.125 58.7717 139.375V139.475C59.7217 139.792 60.4717 140.317 61.0217 141.05C61.5717 141.783 61.8467 142.725 61.8467 143.875C61.8467 144.908 61.605 145.825 61.1217 146.625C60.655 147.408 59.9633 148.025 59.0467 148.475C58.1467 148.925 57.0717 149.15 55.8217 149.15C53.8217 149.15 52.2217 148.658 51.0217 147.675C49.8383 146.692 49.2133 145.208 49.1467 143.225H53.2967C53.3133 143.958 53.5217 144.542 53.9217 144.975C54.3217 145.392 54.905 145.6 55.6717 145.6C56.3217 145.6 56.8217 145.417 57.1717 145.05C57.5383 144.667 57.7217 144.167 57.7217 143.55C57.7217 142.75 57.4633 142.175 56.9467 141.825C56.4467 141.458 55.6383 141.275 54.5217 141.275H53.7217V137.8H54.5217C55.3717 137.8 56.055 137.658 56.5717 137.375C57.105 137.075 57.3717 136.55 57.3717 135.8C57.3717 135.2 57.205 134.733 56.8717 134.4C56.5383 134.067 56.08 133.9 55.4967 133.9C54.8633 133.9 54.3883 134.092 54.0717 134.475C53.7717 134.858 53.5967 135.333 53.5467 135.9H49.3717ZM64.4584 145.75V142.3L72.3584 131H77.1334V142.05H79.1834V145.75H77.1334V149H72.8584V145.75H64.4584ZM73.1584 135.7L68.9584 142.05H73.1584V135.7ZM94.1273 134.475H86.3273V137.925C86.6607 137.558 87.1273 137.258 87.7273 137.025C88.3273 136.792 88.9773 136.675 89.6773 136.675C90.9273 136.675 91.9607 136.958 92.7773 137.525C93.6107 138.092 94.219 138.825 94.6023 139.725C94.9857 140.625 95.1773 141.6 95.1773 142.65C95.1773 144.6 94.6273 146.15 93.5273 147.3C92.4273 148.433 90.8773 149 88.8773 149C87.544 149 86.3857 148.775 85.4023 148.325C84.419 147.858 83.6607 147.217 83.1273 146.4C82.594 145.583 82.3023 144.642 82.2523 143.575H86.4273C86.5273 144.092 86.769 144.525 87.1523 144.875C87.5357 145.208 88.0607 145.375 88.7273 145.375C89.5107 145.375 90.094 145.125 90.4773 144.625C90.8607 144.125 91.0523 143.458 91.0523 142.625C91.0523 141.808 90.8523 141.183 90.4523 140.75C90.0523 140.317 89.469 140.1 88.7023 140.1C88.1357 140.1 87.669 140.242 87.3023 140.525C86.9357 140.792 86.694 141.15 86.5773 141.6H82.4523V130.725H94.1273V134.475ZM102.562 145.05L99.7871 152.225H97.0621L98.5121 145.05H102.562ZM113.74 135.675C113.607 135.058 113.373 134.6 113.04 134.3C112.707 133.983 112.232 133.825 111.615 133.825C110.665 133.825 109.982 134.242 109.565 135.075C109.148 135.892 108.932 137.192 108.915 138.975C109.282 138.392 109.807 137.933 110.49 137.6C111.19 137.267 111.957 137.1 112.79 137.1C114.423 137.1 115.732 137.617 116.715 138.65C117.715 139.683 118.215 141.125 118.215 142.975C118.215 144.192 117.965 145.258 117.465 146.175C116.982 147.092 116.265 147.808 115.315 148.325C114.382 148.842 113.273 149.1 111.99 149.1C109.423 149.1 107.64 148.3 106.64 146.7C105.64 145.083 105.14 142.767 105.14 139.75C105.14 136.583 105.665 134.233 106.715 132.7C107.782 131.15 109.482 130.375 111.815 130.375C113.065 130.375 114.115 130.625 114.965 131.125C115.832 131.608 116.482 132.25 116.915 133.05C117.365 133.85 117.632 134.725 117.715 135.675H113.74ZM111.765 140.475C111.048 140.475 110.448 140.692 109.965 141.125C109.498 141.542 109.265 142.142 109.265 142.925C109.265 143.725 109.482 144.35 109.915 144.8C110.365 145.25 110.998 145.475 111.815 145.475C112.548 145.475 113.123 145.258 113.54 144.825C113.973 144.375 114.19 143.767 114.19 143C114.19 142.217 113.982 141.6 113.565 141.15C113.148 140.7 112.548 140.475 111.765 140.475ZM129.658 135.675C129.524 135.058 129.291 134.6 128.958 134.3C128.624 133.983 128.149 133.825 127.533 133.825C126.583 133.825 125.899 134.242 125.483 135.075C125.066 135.892 124.849 137.192 124.833 138.975C125.199 138.392 125.724 137.933 126.408 137.6C127.108 137.267 127.874 137.1 128.708 137.1C130.341 137.1 131.649 137.617 132.633 138.65C133.633 139.683 134.133 141.125 134.133 142.975C134.133 144.192 133.883 145.258 133.383 146.175C132.899 147.092 132.183 147.808 131.233 148.325C130.299 148.842 129.191 149.1 127.908 149.1C125.341 149.1 123.558 148.3 122.558 146.7C121.558 145.083 121.058 142.767 121.058 139.75C121.058 136.583 121.583 134.233 122.633 132.7C123.699 131.15 125.399 130.375 127.733 130.375C128.983 130.375 130.033 130.625 130.883 131.125C131.749 131.608 132.399 132.25 132.833 133.05C133.283 133.85 133.549 134.725 133.633 135.675H129.658ZM127.683 140.475C126.966 140.475 126.366 140.692 125.883 141.125C125.416 141.542 125.183 142.142 125.183 142.925C125.183 143.725 125.399 144.35 125.833 144.8C126.283 145.25 126.916 145.475 127.733 145.475C128.466 145.475 129.041 145.258 129.458 144.825C129.891 144.375 130.108 143.767 130.108 143C130.108 142.217 129.899 141.6 129.483 141.15C129.066 140.7 128.466 140.475 127.683 140.475ZM145.576 135.675C145.442 135.058 145.209 134.6 144.876 134.3C144.542 133.983 144.067 133.825 143.451 133.825C142.501 133.825 141.817 134.242 141.401 135.075C140.984 135.892 140.767 137.192 140.751 138.975C141.117 138.392 141.642 137.933 142.326 137.6C143.026 137.267 143.792 137.1 144.626 137.1C146.259 137.1 147.567 137.617 148.551 138.65C149.551 139.683 150.051 141.125 150.051 142.975C150.051 144.192 149.801 145.258 149.301 146.175C148.817 147.092 148.101 147.808 147.151 148.325C146.217 148.842 145.109 149.1 143.826 149.1C141.259 149.1 139.476 148.3 138.476 146.7C137.476 145.083 136.976 142.767 136.976 139.75C136.976 136.583 137.501 134.233 138.551 132.7C139.617 131.15 141.317 130.375 143.651 130.375C144.901 130.375 145.951 130.625 146.801 131.125C147.667 131.608 148.317 132.25 148.751 133.05C149.201 133.85 149.467 134.725 149.551 135.675H145.576ZM143.601 140.475C142.884 140.475 142.284 140.692 141.801 141.125C141.334 141.542 141.101 142.142 141.101 142.925C141.101 143.725 141.317 144.35 141.751 144.8C142.201 145.25 142.834 145.475 143.651 145.475C144.384 145.475 144.959 145.258 145.376 144.825C145.809 144.375 146.026 143.767 146.026 143C146.026 142.217 145.817 141.6 145.401 141.15C144.984 140.7 144.384 140.475 143.601 140.475ZM157.494 145.05L154.719 152.225H151.994L153.444 145.05H157.494ZM162.646 139.2C161.08 138.367 160.296 137.058 160.296 135.275C160.296 134.375 160.53 133.558 160.996 132.825C161.463 132.075 162.171 131.483 163.121 131.05C164.071 130.6 165.238 130.375 166.621 130.375C168.005 130.375 169.163 130.6 170.096 131.05C171.046 131.483 171.755 132.075 172.221 132.825C172.688 133.558 172.921 134.375 172.921 135.275C172.921 136.175 172.705 136.958 172.271 137.625C171.855 138.292 171.288 138.817 170.571 139.2C171.471 139.633 172.163 140.233 172.646 141C173.13 141.75 173.371 142.633 173.371 143.65C173.371 144.833 173.071 145.858 172.471 146.725C171.871 147.575 171.055 148.225 170.021 148.675C169.005 149.125 167.871 149.35 166.621 149.35C165.371 149.35 164.23 149.125 163.196 148.675C162.18 148.225 161.371 147.575 160.771 146.725C160.171 145.858 159.871 144.833 159.871 143.65C159.871 142.617 160.113 141.725 160.596 140.975C161.08 140.208 161.763 139.617 162.646 139.2ZM168.771 135.925C168.771 135.242 168.571 134.717 168.171 134.35C167.788 133.967 167.271 133.775 166.621 133.775C165.971 133.775 165.446 133.967 165.046 134.35C164.663 134.733 164.471 135.267 164.471 135.95C164.471 136.6 164.671 137.117 165.071 137.5C165.471 137.867 165.988 138.05 166.621 138.05C167.255 138.05 167.771 137.858 168.171 137.475C168.571 137.092 168.771 136.575 168.771 135.925ZM166.621 141.05C165.838 141.05 165.205 141.267 164.721 141.7C164.238 142.117 163.996 142.7 163.996 143.45C163.996 144.15 164.23 144.725 164.696 145.175C165.18 145.625 165.821 145.85 166.621 145.85C167.421 145.85 168.046 145.625 168.496 145.175C168.963 144.725 169.196 144.15 169.196 143.45C169.196 142.717 168.955 142.133 168.471 141.7C168.005 141.267 167.388 141.05 166.621 141.05ZM176.007 135.9C176.074 134.117 176.657 132.742 177.757 131.775C178.857 130.808 180.349 130.325 182.232 130.325C183.482 130.325 184.549 130.542 185.432 130.975C186.332 131.408 187.007 132 187.457 132.75C187.924 133.5 188.157 134.342 188.157 135.275C188.157 136.375 187.882 137.275 187.332 137.975C186.782 138.658 186.141 139.125 185.407 139.375V139.475C186.357 139.792 187.107 140.317 187.657 141.05C188.207 141.783 188.482 142.725 188.482 143.875C188.482 144.908 188.241 145.825 187.757 146.625C187.291 147.408 186.599 148.025 185.682 148.475C184.782 148.925 183.707 149.15 182.457 149.15C180.457 149.15 178.857 148.658 177.657 147.675C176.474 146.692 175.849 145.208 175.782 143.225H179.932C179.949 143.958 180.157 144.542 180.557 144.975C180.957 145.392 181.541 145.6 182.307 145.6C182.957 145.6 183.457 145.417 183.807 145.05C184.174 144.667 184.357 144.167 184.357 143.55C184.357 142.75 184.099 142.175 183.582 141.825C183.082 141.458 182.274 141.275 181.157 141.275H180.357V137.8H181.157C182.007 137.8 182.691 137.658 183.207 137.375C183.741 137.075 184.007 136.55 184.007 135.8C184.007 135.2 183.841 134.733 183.507 134.4C183.174 134.067 182.716 133.9 182.132 133.9C181.499 133.9 181.024 134.092 180.707 134.475C180.407 134.858 180.232 135.333 180.182 135.9H176.007ZM190.544 134.725V130.75H197.469V149H193.019V134.725H190.544ZM202.819 149.2C202.069 149.2 201.452 148.983 200.969 148.55C200.502 148.1 200.269 147.55 200.269 146.9C200.269 146.233 200.502 145.675 200.969 145.225C201.452 144.775 202.069 144.55 202.819 144.55C203.552 144.55 204.152 144.775 204.619 145.225C205.102 145.675 205.344 146.233 205.344 146.9C205.344 147.55 205.102 148.1 204.619 148.55C204.152 148.983 203.552 149.2 202.819 149.2ZM207.449 139.625C207.449 136.758 207.999 134.5 209.099 132.85C210.216 131.2 212.008 130.375 214.474 130.375C216.941 130.375 218.724 131.2 219.824 132.85C220.941 134.5 221.499 136.758 221.499 139.625C221.499 142.525 220.941 144.8 219.824 146.45C218.724 148.1 216.941 148.925 214.474 148.925C212.008 148.925 210.216 148.1 209.099 146.45C207.999 144.8 207.449 142.525 207.449 139.625ZM217.299 139.625C217.299 137.942 217.116 136.65 216.749 135.75C216.383 134.833 215.624 134.375 214.474 134.375C213.324 134.375 212.566 134.833 212.199 135.75C211.833 136.65 211.649 137.942 211.649 139.625C211.649 140.758 211.716 141.7 211.849 142.45C211.983 143.183 212.249 143.783 212.649 144.25C213.066 144.7 213.674 144.925 214.474 144.925C215.274 144.925 215.874 144.7 216.274 144.25C216.691 143.783 216.966 143.183 217.099 142.45C217.233 141.7 217.299 140.758 217.299 139.625ZM223.308 134.725V130.75H230.233V149H225.783V134.725H223.308Z" fill="white"/>
<path d="M259.008 46.3821C258.903 46.5771 258.703 46.6987 258.486 46.6987H255.098V53.3881C255.098 53.7259 254.83 54 254.5 54C254.17 54 253.902 53.7259 253.902 53.3881V46.6987H250.514C250.296 46.6987 250.096 46.5771 249.992 46.3821C249.886 46.1871 249.893 45.9489 250.008 45.7604L253.994 39.2856C254.104 39.1077 254.294 39 254.5 39C254.706 39 254.896 39.1077 255.006 39.2856L258.992 45.7604C259.052 45.8599 259.083 45.9733 259.083 46.0868C259.083 46.1879 259.058 46.2899 259.008 46.3821" fill="#11CABE"/>
<path d="M269.916 46.232C269.916 44.156 270.354 42.524 271.23 41.336C272.118 40.148 273.48 39.554 275.316 39.554C277.14 39.554 278.496 40.154 279.384 41.354C280.272 42.542 280.716 44.168 280.716 46.232C280.716 48.308 280.272 49.946 279.384 51.146C278.496 52.334 277.14 52.928 275.316 52.928C273.48 52.928 272.118 52.334 271.23 51.146C270.354 49.946 269.916 48.308 269.916 46.232ZM276.774 46.232C276.774 45.272 276.678 44.552 276.486 44.072C276.294 43.58 275.904 43.334 275.316 43.334C274.716 43.334 274.32 43.58 274.128 44.072C273.936 44.552 273.84 45.272 273.84 46.232C273.84 47.204 273.936 47.936 274.128 48.428C274.32 48.908 274.716 49.148 275.316 49.148C275.904 49.148 276.294 48.908 276.486 48.428C276.678 47.936 276.774 47.204 276.774 46.232ZM284.138 53.144C283.442 53.144 282.884 52.958 282.464 52.586C282.044 52.214 281.834 51.746 281.834 51.182C281.834 50.606 282.044 50.132 282.464 49.76C282.884 49.376 283.442 49.184 284.138 49.184C284.822 49.184 285.374 49.376 285.794 49.76C286.214 50.132 286.424 50.606 286.424 51.182C286.424 51.746 286.214 52.214 285.794 52.586C285.374 52.958 284.822 53.144 284.138 53.144ZM293.576 43.838C293.504 43.478 293.396 43.214 293.252 43.046C293.12 42.878 292.91 42.794 292.622 42.794C292.166 42.794 291.86 43.028 291.704 43.496C291.56 43.952 291.488 44.666 291.488 45.638C291.704 45.302 292.016 45.038 292.424 44.846C292.832 44.654 293.294 44.558 293.81 44.558C294.962 44.558 295.88 44.912 296.564 45.62C297.26 46.328 297.608 47.354 297.608 48.698C297.608 49.598 297.416 50.384 297.032 51.056C296.66 51.716 296.126 52.226 295.43 52.586C294.734 52.946 293.912 53.126 292.964 53.126C291.08 53.126 289.772 52.55 289.04 51.398C288.308 50.234 287.942 48.608 287.942 46.52C287.942 44.888 288.11 43.568 288.446 42.56C288.782 41.552 289.31 40.808 290.03 40.328C290.762 39.848 291.71 39.608 292.874 39.608C294.302 39.608 295.376 40.016 296.096 40.832C296.828 41.648 297.23 42.65 297.302 43.838H293.576ZM292.82 47.618C292.496 47.618 292.238 47.708 292.046 47.888C291.854 48.068 291.758 48.32 291.758 48.644C291.758 49.004 291.848 49.274 292.028 49.454C292.22 49.622 292.484 49.706 292.82 49.706C293.156 49.706 293.414 49.622 293.594 49.454C293.786 49.274 293.882 49.004 293.882 48.644C293.882 48.32 293.786 48.068 293.594 47.888C293.402 47.708 293.144 47.618 292.82 47.618ZM307.432 42.776L303.328 53H299.224L303.364 43.262H298.72V39.842H307.432V42.776ZM307.985 43.28C307.985 42.224 308.285 41.42 308.885 40.868C309.485 40.304 310.271 40.022 311.243 40.022C312.203 40.022 312.977 40.304 313.565 40.868C314.165 41.42 314.465 42.224 314.465 43.28C314.465 44.336 314.165 45.14 313.565 45.692C312.977 46.244 312.203 46.52 311.243 46.52C310.271 46.52 309.485 46.244 308.885 45.692C308.285 45.14 307.985 44.336 307.985 43.28ZM321.323 40.202L314.609 53H310.793L317.507 40.202H321.323ZM311.207 42.344C310.799 42.344 310.595 42.656 310.595 43.28C310.595 43.892 310.799 44.198 311.207 44.198C311.423 44.198 311.585 44.12 311.693 43.964C311.813 43.808 311.873 43.58 311.873 43.28C311.873 42.968 311.813 42.734 311.693 42.578C311.585 42.422 311.423 42.344 311.207 42.344ZM317.651 49.922C317.651 48.866 317.951 48.062 318.551 47.51C319.151 46.946 319.931 46.664 320.891 46.664C321.863 46.664 322.643 46.946 323.231 47.51C323.819 48.062 324.113 48.866 324.113 49.922C324.113 50.978 323.819 51.788 323.231 52.352C322.643 52.904 321.863 53.18 320.891 53.18C319.931 53.18 319.151 52.904 318.551 52.352C317.951 51.788 317.651 50.978 317.651 49.922ZM320.873 48.986C320.453 48.986 320.243 49.298 320.243 49.922C320.243 50.546 320.453 50.858 320.873 50.858C321.077 50.858 321.233 50.78 321.341 50.624C321.461 50.468 321.521 50.234 321.521 49.922C321.521 49.622 321.461 49.394 321.341 49.238C321.233 49.07 321.077 48.986 320.873 48.986Z" fill="#11CABE"/>
<g clip-path="url(#clip0_208_12422)">
<path d="M67.3421 51.3204C64.4027 63.1124 52.4555 70.2807 40.6803 67.3411C28.888 64.4017 21.7198 52.455 24.6594 40.68C27.5988 28.888 39.5286 21.7198 51.321 24.6594C63.0961 27.5816 70.2817 39.5283 67.3421 51.3204Z" fill="url(#paint0_linear_208_12422)"/>
</g>
<path d="M28.704 98.848C29.92 98.848 30.9707 99.0773 31.856 99.536C32.752 99.984 33.4347 100.629 33.904 101.472C34.384 102.315 34.624 103.307 34.624 104.448C34.624 105.589 34.384 106.581 33.904 107.424C33.4347 108.256 32.752 108.896 31.856 109.344C30.9707 109.781 29.92 110 28.704 110H25.232V98.848H28.704ZM28.704 108.8C30.144 108.8 31.2427 108.421 32 107.664C32.7573 106.896 33.136 105.824 33.136 104.448C33.136 103.061 32.752 101.979 31.984 101.2C31.2267 100.421 30.1333 100.032 28.704 100.032H26.688V108.8H28.704ZM38.0005 98.848V110H36.5445V98.848H38.0005ZM44.018 110.112C43.282 110.112 42.6207 109.984 42.034 109.728C41.458 109.461 41.0047 109.099 40.674 108.64C40.3433 108.171 40.1727 107.632 40.162 107.024H41.714C41.7673 107.547 41.9807 107.989 42.354 108.352C42.738 108.704 43.2927 108.88 44.018 108.88C44.7113 108.88 45.2553 108.709 45.65 108.368C46.0553 108.016 46.258 107.568 46.258 107.024C46.258 106.597 46.1407 106.251 45.906 105.984C45.6713 105.717 45.378 105.515 45.026 105.376C44.674 105.237 44.1993 105.088 43.602 104.928C42.866 104.736 42.274 104.544 41.826 104.352C41.3887 104.16 41.01 103.861 40.69 103.456C40.3807 103.04 40.226 102.485 40.226 101.792C40.226 101.184 40.3807 100.645 40.69 100.176C40.9993 99.7067 41.4313 99.344 41.986 99.088C42.5513 98.832 43.1967 98.704 43.922 98.704C44.9673 98.704 45.8207 98.9653 46.482 99.488C47.154 100.011 47.5327 100.704 47.618 101.568H46.018C45.9647 101.141 45.7407 100.768 45.346 100.448C44.9513 100.117 44.4287 99.952 43.778 99.952C43.17 99.952 42.674 100.112 42.29 100.432C41.906 100.741 41.714 101.179 41.714 101.744C41.714 102.149 41.826 102.48 42.05 102.736C42.2847 102.992 42.5673 103.189 42.898 103.328C43.2393 103.456 43.714 103.605 44.322 103.776C45.058 103.979 45.65 104.181 46.098 104.384C46.546 104.576 46.93 104.88 47.25 105.296C47.57 105.701 47.73 106.256 47.73 106.96C47.73 107.504 47.586 108.016 47.298 108.496C47.01 108.976 46.5833 109.365 46.018 109.664C45.4527 109.963 44.786 110.112 44.018 110.112ZM56.7366 98.848V100.032H53.6966V110H52.2406V100.032H49.1846V98.848H56.7366ZM65.1209 107.52H60.2569L59.3609 110H57.8249L61.8569 98.912H63.5369L67.5529 110H66.0169L65.1209 107.52ZM64.7049 106.336L62.6889 100.704L60.6729 106.336H64.7049ZM78.0781 110H76.6221L70.7661 101.12V110H69.3101V98.832H70.7661L76.6221 107.696V98.832H78.0781V110ZM80.0161 104.416C80.0161 103.328 80.2615 102.352 80.7521 101.488C81.2428 100.613 81.9095 99.9307 82.7521 99.44C83.6055 98.9493 84.5495 98.704 85.5841 98.704C86.8001 98.704 87.8615 98.9973 88.7681 99.584C89.6748 100.171 90.3361 101.003 90.7521 102.08H89.0081C88.6988 101.408 88.2508 100.891 87.6641 100.528C87.0881 100.165 86.3948 99.984 85.5841 99.984C84.8055 99.984 84.1068 100.165 83.4881 100.528C82.8695 100.891 82.3841 101.408 82.0321 102.08C81.6801 102.741 81.5041 103.52 81.5041 104.416C81.5041 105.301 81.6801 106.08 82.0321 106.752C82.3841 107.413 82.8695 107.925 83.4881 108.288C84.1068 108.651 84.8055 108.832 85.5841 108.832C86.3948 108.832 87.0881 108.656 87.6641 108.304C88.2508 107.941 88.6988 107.424 89.0081 106.752H90.7521C90.3361 107.819 89.6748 108.645 88.7681 109.232C87.8615 109.808 86.8001 110.096 85.5841 110.096C84.5495 110.096 83.6055 109.856 82.7521 109.376C81.9095 108.885 81.2428 108.208 80.7521 107.344C80.2615 106.48 80.0161 105.504 80.0161 104.416ZM94.3755 100.032V103.76H98.4395V104.96H94.3755V108.8H98.9195V110H92.9195V98.832H98.9195V100.032H94.3755ZM111.26 110L108.604 105.44H106.844V110H105.388V98.848H108.988C109.831 98.848 110.54 98.992 111.116 99.28C111.703 99.568 112.14 99.9573 112.428 100.448C112.716 100.939 112.86 101.499 112.86 102.128C112.86 102.896 112.636 103.573 112.188 104.16C111.751 104.747 111.09 105.136 110.204 105.328L113.004 110H111.26ZM106.844 104.272H108.988C109.778 104.272 110.37 104.08 110.764 103.696C111.159 103.301 111.356 102.779 111.356 102.128C111.356 101.467 111.159 100.955 110.764 100.592C110.38 100.229 109.788 100.048 108.988 100.048H106.844V104.272ZM116.547 98.848V105.904C116.547 106.896 116.787 107.632 117.267 108.112C117.757 108.592 118.435 108.832 119.299 108.832C120.152 108.832 120.819 108.592 121.299 108.112C121.789 107.632 122.035 106.896 122.035 105.904V98.848H123.491V105.888C123.491 106.816 123.304 107.6 122.931 108.24C122.557 108.869 122.051 109.339 121.411 109.648C120.781 109.957 120.072 110.112 119.283 110.112C118.493 110.112 117.779 109.957 117.139 109.648C116.509 109.339 116.008 108.869 115.635 108.24C115.272 107.6 115.091 106.816 115.091 105.888V98.848H116.547ZM134.688 110H133.232L127.376 101.12V110H125.92V98.832H127.376L133.232 107.696V98.832H134.688V110Z" fill="#A5ADCF"/>
<defs>
<filter id="filter0_b_208_12422" x="-4" y="-4" width="354" height="186" filterUnits="userSpaceOnUse" color-interpolation-filters="sRGB">
<feFlood flood-opacity="0" result="BackgroundImageFix"/>
<feGaussianBlur in="BackgroundImage" stdDeviation="2"/>
<feComposite in2="SourceAlpha" operator="in" result="effect1_backgroundBlur_208_12422"/>
<feBlend mode="normal" in="SourceGraphic" in2="effect1_backgroundBlur_208_12422" result="shape"/>
</filter>
<linearGradient id="paint0_linear_208_12422" x1="45.9883" y1="23.9897" x2="45.9883" y2="67.9958" gradientUnits="userSpaceOnUse">
<stop stop-color="#F9AA4B"/>
<stop offset="1" stop-color="#F7931A"/>
</linearGradient>
<clipPath id="clip0_208_12422">
<rect width="44" height="44" fill="white" transform="translate(24 24)"/>
</clipPath>
</defs>
</svg>
