<svg width="346" height="178" viewBox="0 0 346 178" fill="none" xmlns="http://www.w3.org/2000/svg">
<g filter="url(#filter0_b_208_12455)">
<rect width="346" height="178" rx="8" fill="#2F3241" fill-opacity="0.5"/>
</g>
<path d="M24.675 134.725V130.75H31.6V149H27.15V134.725H24.675ZM34.3744 145.575C34.9411 145.125 35.1994 144.917 35.1494 144.95C36.7827 143.6 38.0661 142.492 38.9994 141.625C39.9494 140.758 40.7494 139.85 41.3994 138.9C42.0494 137.95 42.3744 137.025 42.3744 136.125C42.3744 135.442 42.2161 134.908 41.8994 134.525C41.5827 134.142 41.1077 133.95 40.4744 133.95C39.8411 133.95 39.3411 134.192 38.9744 134.675C38.6244 135.142 38.4494 135.808 38.4494 136.675H34.3244C34.3577 135.258 34.6577 134.075 35.2244 133.125C35.8077 132.175 36.5661 131.475 37.4994 131.025C38.4494 130.575 39.4994 130.35 40.6494 130.35C42.6327 130.35 44.1244 130.858 45.1244 131.875C46.1411 132.892 46.6494 134.217 46.6494 135.85C46.6494 137.633 46.0411 139.292 44.8244 140.825C43.6077 142.342 42.0577 143.825 40.1744 145.275H46.9244V148.75H34.3744V145.575ZM51.8066 139.2C50.24 138.367 49.4566 137.058 49.4566 135.275C49.4566 134.375 49.69 133.558 50.1566 132.825C50.6233 132.075 51.3316 131.483 52.2816 131.05C53.2316 130.6 54.3983 130.375 55.7816 130.375C57.165 130.375 58.3233 130.6 59.2566 131.05C60.2066 131.483 60.915 132.075 61.3816 132.825C61.8483 133.558 62.0816 134.375 62.0816 135.275C62.0816 136.175 61.865 136.958 61.4316 137.625C61.015 138.292 60.4483 138.817 59.7316 139.2C60.6316 139.633 61.3233 140.233 61.8066 141C62.29 141.75 62.5316 142.633 62.5316 143.65C62.5316 144.833 62.2316 145.858 61.6316 146.725C61.0316 147.575 60.215 148.225 59.1816 148.675C58.165 149.125 57.0316 149.35 55.7816 149.35C54.5316 149.35 53.39 149.125 52.3566 148.675C51.34 148.225 50.5316 147.575 49.9316 146.725C49.3316 145.858 49.0316 144.833 49.0316 143.65C49.0316 142.617 49.2733 141.725 49.7566 140.975C50.24 140.208 50.9233 139.617 51.8066 139.2ZM57.9316 135.925C57.9316 135.242 57.7316 134.717 57.3316 134.35C56.9483 133.967 56.4316 133.775 55.7816 133.775C55.1316 133.775 54.6066 133.967 54.2066 134.35C53.8233 134.733 53.6316 135.267 53.6316 135.95C53.6316 136.6 53.8316 137.117 54.2316 137.5C54.6316 137.867 55.1483 138.05 55.7816 138.05C56.415 138.05 56.9316 137.858 57.3316 137.475C57.7316 137.092 57.9316 136.575 57.9316 135.925ZM55.7816 141.05C54.9983 141.05 54.365 141.267 53.8816 141.7C53.3983 142.117 53.1566 142.7 53.1566 143.45C53.1566 144.15 53.39 144.725 53.8566 145.175C54.34 145.625 54.9816 145.85 55.7816 145.85C56.5816 145.85 57.2066 145.625 57.6566 145.175C58.1233 144.725 58.3566 144.15 58.3566 143.45C58.3566 142.717 58.115 142.133 57.6316 141.7C57.165 141.267 56.5483 141.05 55.7816 141.05ZM70.0426 145.05L67.2676 152.225H64.5426L65.9926 145.05H70.0426ZM72.0453 145.575C72.612 145.125 72.8703 144.917 72.8203 144.95C74.4536 143.6 75.737 142.492 76.6703 141.625C77.6203 140.758 78.4203 139.85 79.0703 138.9C79.7203 137.95 80.0453 137.025 80.0453 136.125C80.0453 135.442 79.887 134.908 79.5703 134.525C79.2536 134.142 78.7786 133.95 78.1453 133.95C77.512 133.95 77.012 134.192 76.6453 134.675C76.2953 135.142 76.1203 135.808 76.1203 136.675H71.9953C72.0286 135.258 72.3286 134.075 72.8953 133.125C73.4786 132.175 74.237 131.475 75.1703 131.025C76.1203 130.575 77.1703 130.35 78.3203 130.35C80.3036 130.35 81.7953 130.858 82.7953 131.875C83.812 132.892 84.3203 134.217 84.3203 135.85C84.3203 137.633 83.712 139.292 82.4953 140.825C81.2786 142.342 79.7286 143.825 77.8453 145.275H84.5953V148.75H72.0453V145.575ZM86.0275 134.725V130.75H92.9525V149H88.5025V134.725H86.0275ZM96.027 135.9C96.0936 134.117 96.677 132.742 97.777 131.775C98.877 130.808 100.369 130.325 102.252 130.325C103.502 130.325 104.569 130.542 105.452 130.975C106.352 131.408 107.027 132 107.477 132.75C107.944 133.5 108.177 134.342 108.177 135.275C108.177 136.375 107.902 137.275 107.352 137.975C106.802 138.658 106.16 139.125 105.427 139.375V139.475C106.377 139.792 107.127 140.317 107.677 141.05C108.227 141.783 108.502 142.725 108.502 143.875C108.502 144.908 108.26 145.825 107.777 146.625C107.31 147.408 106.619 148.025 105.702 148.475C104.802 148.925 103.727 149.15 102.477 149.15C100.477 149.15 98.877 148.658 97.677 147.675C96.4936 146.692 95.8686 145.208 95.802 143.225H99.952C99.9686 143.958 100.177 144.542 100.577 144.975C100.977 145.392 101.56 145.6 102.327 145.6C102.977 145.6 103.477 145.417 103.827 145.05C104.194 144.667 104.377 144.167 104.377 143.55C104.377 142.75 104.119 142.175 103.602 141.825C103.102 141.458 102.294 141.275 101.177 141.275H100.377V137.8H101.177C102.027 137.8 102.71 137.658 103.227 137.375C103.76 137.075 104.027 136.55 104.027 135.8C104.027 135.2 103.86 134.733 103.527 134.4C103.194 134.067 102.735 133.9 102.152 133.9C101.519 133.9 101.044 134.092 100.727 134.475C100.427 134.858 100.252 135.333 100.202 135.9H96.027Z" fill="white"/>
<path d="M250.492 46.3821C250.597 46.5771 250.797 46.6987 251.014 46.6987H254.402V53.3881C254.402 53.7259 254.67 54 255 54C255.33 54 255.598 53.7259 255.598 53.3881V46.6987H258.986C259.204 46.6987 259.404 46.5771 259.508 46.3821C259.614 46.1871 259.607 45.9489 259.492 45.7604L255.506 39.2856C255.396 39.1077 255.206 39 255 39C254.794 39 254.604 39.1077 254.494 39.2856L250.508 45.7604C250.448 45.8599 250.417 45.9733 250.417 46.0868C250.417 46.1879 250.442 46.2899 250.492 46.3821Z" fill="#11CABE"/>
<path d="M269.602 43.586V39.842H275.704V53H271.51V43.586H269.602ZM279.491 53.144C278.795 53.144 278.237 52.958 277.817 52.586C277.397 52.214 277.187 51.746 277.187 51.182C277.187 50.606 277.397 50.132 277.817 49.76C278.237 49.376 278.795 49.184 279.491 49.184C280.175 49.184 280.727 49.376 281.147 49.76C281.567 50.132 281.777 50.606 281.777 51.182C281.777 51.746 281.567 52.214 281.147 52.586C280.727 52.958 280.175 53.144 279.491 53.144ZM283.169 43.964C283.205 42.536 283.619 41.444 284.411 40.688C285.215 39.932 286.349 39.554 287.813 39.554C288.761 39.554 289.571 39.716 290.243 40.04C290.915 40.364 291.419 40.802 291.755 41.354C292.103 41.906 292.277 42.53 292.277 43.226C292.277 44.066 292.079 44.726 291.683 45.206C291.287 45.674 290.843 45.992 290.351 46.16V46.232C291.791 46.772 292.511 47.774 292.511 49.238C292.511 50.006 292.331 50.684 291.971 51.272C291.611 51.86 291.095 52.316 290.423 52.64C289.763 52.964 288.977 53.126 288.065 53.126C286.505 53.126 285.281 52.754 284.393 52.01C283.505 51.266 283.049 50.102 283.025 48.518H286.913C286.889 48.95 286.949 49.28 287.093 49.508C287.249 49.724 287.513 49.832 287.885 49.832C288.101 49.832 288.281 49.754 288.425 49.598C288.569 49.43 288.641 49.214 288.641 48.95C288.641 48.614 288.527 48.362 288.299 48.194C288.083 48.014 287.711 47.924 287.183 47.924H286.517V44.702H287.165C287.981 44.75 288.389 44.426 288.389 43.73C288.389 43.43 288.323 43.208 288.191 43.064C288.071 42.92 287.915 42.848 287.723 42.848C287.279 42.848 287.057 43.22 287.057 43.964H283.169ZM294.37 51.02V47.69L299.734 40.04H304.036V47.564H305.332V51.02H304.036V53H300.004V51.02H294.37ZM300.328 44.594L298.384 47.564H300.328V44.594ZM306.485 43.28C306.485 42.224 306.785 41.42 307.385 40.868C307.985 40.304 308.771 40.022 309.743 40.022C310.703 40.022 311.477 40.304 312.065 40.868C312.665 41.42 312.965 42.224 312.965 43.28C312.965 44.336 312.665 45.14 312.065 45.692C311.477 46.244 310.703 46.52 309.743 46.52C308.771 46.52 307.985 46.244 307.385 45.692C306.785 45.14 306.485 44.336 306.485 43.28ZM319.823 40.202L313.109 53H309.293L316.007 40.202H319.823ZM309.707 42.344C309.299 42.344 309.095 42.656 309.095 43.28C309.095 43.892 309.299 44.198 309.707 44.198C309.923 44.198 310.085 44.12 310.193 43.964C310.313 43.808 310.373 43.58 310.373 43.28C310.373 42.968 310.313 42.734 310.193 42.578C310.085 42.422 309.923 42.344 309.707 42.344ZM316.151 49.922C316.151 48.866 316.451 48.062 317.051 47.51C317.651 46.946 318.431 46.664 319.391 46.664C320.363 46.664 321.143 46.946 321.731 47.51C322.319 48.062 322.613 48.866 322.613 49.922C322.613 50.978 322.319 51.788 321.731 52.352C321.143 52.904 320.363 53.18 319.391 53.18C318.431 53.18 317.651 52.904 317.051 52.352C316.451 51.788 316.151 50.978 316.151 49.922ZM319.373 48.986C318.953 48.986 318.743 49.298 318.743 49.922C318.743 50.546 318.953 50.858 319.373 50.858C319.577 50.858 319.733 50.78 319.841 50.624C319.961 50.468 320.021 50.234 320.021 49.922C320.021 49.622 319.961 49.394 319.841 49.238C319.733 49.07 319.577 48.986 319.373 48.986Z" fill="#11CABE"/>
<path d="M67.9606 45.9924C67.9606 58.0825 58.1602 67.8829 46.07 67.8829C33.9803 67.8829 24.1795 58.0825 24.1795 45.9924C24.1795 33.9024 33.9803 24.1018 46.07 24.1018C58.1602 24.1018 67.9606 33.9024 67.9606 45.9924Z" fill="#1BA27A"/>
<path d="M32.096 98.848V100.032H29.056V110H27.6V100.032H24.544V98.848H32.096ZM35.3443 100.032V103.76H39.4083V104.96H35.3443V108.8H39.8883V110H33.8883V98.832H39.8883V100.032H35.3443ZM43.5474 108.816H47.4514V110H42.0914V98.848H43.5474V108.816ZM50.4536 100.032V103.76H54.5176V104.96H50.4536V108.8H54.9976V110H48.9976V98.832H54.9976V100.032H50.4536ZM65.6488 102.08C65.3394 101.429 64.8914 100.928 64.3048 100.576C63.7181 100.213 63.0354 100.032 62.2568 100.032C61.4781 100.032 60.7741 100.213 60.1448 100.576C59.5261 100.928 59.0354 101.44 58.6728 102.112C58.3208 102.773 58.1448 103.541 58.1448 104.416C58.1448 105.291 58.3208 106.059 58.6728 106.72C59.0354 107.381 59.5261 107.893 60.1448 108.256C60.7741 108.608 61.4781 108.784 62.2568 108.784C63.3448 108.784 64.2408 108.459 64.9448 107.808C65.6488 107.157 66.0594 106.277 66.1768 105.168H61.7288V103.984H67.7288V105.104C67.6434 106.021 67.3554 106.864 66.8648 107.632C66.3741 108.389 65.7288 108.992 64.9288 109.44C64.1288 109.877 63.2381 110.096 62.2568 110.096C61.2221 110.096 60.2781 109.856 59.4248 109.376C58.5714 108.885 57.8941 108.208 57.3928 107.344C56.9021 106.48 56.6568 105.504 56.6568 104.416C56.6568 103.328 56.9021 102.352 57.3928 101.488C57.8941 100.613 58.5714 99.936 59.4248 99.456C60.2781 98.9653 61.2221 98.72 62.2568 98.72C63.4408 98.72 64.4861 99.0133 65.3928 99.6C66.3101 100.187 66.9768 101.013 67.3928 102.08H65.6488ZM75.5259 110L72.8699 105.44H71.1099V110H69.6539V98.848H73.2539C74.0965 98.848 74.8059 98.992 75.3819 99.28C75.9685 99.568 76.4059 99.9573 76.6939 100.448C76.9819 100.939 77.1259 101.499 77.1259 102.128C77.1259 102.896 76.9019 103.573 76.4539 104.16C76.0165 104.747 75.3552 105.136 74.4699 105.328L77.2699 110H75.5259ZM71.1099 104.272H73.2539C74.0432 104.272 74.6352 104.08 75.0299 103.696C75.4245 103.301 75.6219 102.779 75.6219 102.128C75.6219 101.467 75.4245 100.955 75.0299 100.592C74.6459 100.229 74.0539 100.048 73.2539 100.048H71.1099V104.272ZM85.9803 107.52H81.1163L80.2203 110H78.6842L82.7163 98.912H84.3963L88.4123 110H86.8763L85.9803 107.52ZM85.5643 106.336L83.5483 100.704L81.5323 106.336H85.5643ZM101.482 98.928V110H100.026V101.744L96.3455 110H95.3215L91.6255 101.728V110H90.1695V98.928H91.7375L95.8335 108.08L99.9295 98.928H101.482ZM119.528 98.928V110H118.072V101.744L114.392 110H113.368L109.672 101.728V110H108.216V98.928H109.784L113.88 108.08L117.976 98.928H119.528ZM123.454 100.032V103.76H127.518V104.96H123.454V108.8H127.998V110H121.998V98.832H127.998V100.032H123.454ZM141.513 98.928V110H140.057V101.744L136.377 110H135.353L131.657 101.728V110H130.201V98.928H131.769L135.865 108.08L139.961 98.928H141.513ZM149.566 104.256C149.971 104.32 150.339 104.485 150.67 104.752C151.011 105.019 151.278 105.349 151.47 105.744C151.673 106.139 151.774 106.56 151.774 107.008C151.774 107.573 151.63 108.085 151.342 108.544C151.054 108.992 150.633 109.349 150.078 109.616C149.534 109.872 148.889 110 148.142 110H143.982V98.848H147.982C148.739 98.848 149.385 98.976 149.918 99.232C150.451 99.4773 150.851 99.8133 151.118 100.24C151.385 100.667 151.518 101.147 151.518 101.68C151.518 102.341 151.337 102.891 150.974 103.328C150.622 103.755 150.153 104.064 149.566 104.256ZM145.438 103.664H147.886C148.569 103.664 149.097 103.504 149.47 103.184C149.843 102.864 150.03 102.421 150.03 101.856C150.03 101.291 149.843 100.848 149.47 100.528C149.097 100.208 148.558 100.048 147.854 100.048H145.438V103.664ZM148.014 108.8C148.739 108.8 149.305 108.629 149.71 108.288C150.115 107.947 150.318 107.472 150.318 106.864C150.318 106.245 150.105 105.76 149.678 105.408C149.251 105.045 148.681 104.864 147.966 104.864H145.438V108.8H148.014ZM155.251 100.032V103.76H159.315V104.96H155.251V108.8H159.795V110H153.795V98.832H159.795V100.032H155.251ZM167.87 110L165.214 105.44H163.454V110H161.998V98.848H165.598C166.44 98.848 167.15 98.992 167.726 99.28C168.312 99.568 168.75 99.9573 169.038 100.448C169.326 100.939 169.47 101.499 169.47 102.128C169.47 102.896 169.246 103.573 168.798 104.16C168.36 104.747 167.699 105.136 166.814 105.328L169.614 110H167.87ZM163.454 104.272H165.598C166.387 104.272 166.979 104.08 167.374 103.696C167.768 103.301 167.966 102.779 167.966 102.128C167.966 101.467 167.768 100.955 167.374 100.592C166.99 100.229 166.398 100.048 165.598 100.048H163.454V104.272ZM175.268 110.112C174.532 110.112 173.871 109.984 173.284 109.728C172.708 109.461 172.255 109.099 171.924 108.64C171.593 108.171 171.423 107.632 171.412 107.024H172.964C173.017 107.547 173.231 107.989 173.604 108.352C173.988 108.704 174.543 108.88 175.268 108.88C175.961 108.88 176.505 108.709 176.9 108.368C177.305 108.016 177.508 107.568 177.508 107.024C177.508 106.597 177.391 106.251 177.156 105.984C176.921 105.717 176.628 105.515 176.276 105.376C175.924 105.237 175.449 105.088 174.852 104.928C174.116 104.736 173.524 104.544 173.076 104.352C172.639 104.16 172.26 103.861 171.94 103.456C171.631 103.04 171.476 102.485 171.476 101.792C171.476 101.184 171.631 100.645 171.94 100.176C172.249 99.7067 172.681 99.344 173.236 99.088C173.801 98.832 174.447 98.704 175.172 98.704C176.217 98.704 177.071 98.9653 177.732 99.488C178.404 100.011 178.783 100.704 178.868 101.568H177.268C177.215 101.141 176.991 100.768 176.596 100.448C176.201 100.117 175.679 99.952 175.028 99.952C174.42 99.952 173.924 100.112 173.54 100.432C173.156 100.741 172.964 101.179 172.964 101.744C172.964 102.149 173.076 102.48 173.3 102.736C173.535 102.992 173.817 103.189 174.148 103.328C174.489 103.456 174.964 103.605 175.572 103.776C176.308 103.979 176.9 104.181 177.348 104.384C177.796 104.576 178.18 104.88 178.5 105.296C178.82 105.701 178.98 106.256 178.98 106.96C178.98 107.504 178.836 108.016 178.548 108.496C178.26 108.976 177.833 109.365 177.268 109.664C176.703 109.963 176.036 110.112 175.268 110.112Z" fill="#A5ADCF"/>
<defs>
<filter id="filter0_b_208_12455" x="-4" y="-4" width="354" height="186" filterUnits="userSpaceOnUse" color-interpolation-filters="sRGB">
<feFlood flood-opacity="0" result="BackgroundImageFix"/>
<feGaussianBlur in="BackgroundImage" stdDeviation="2"/>
<feComposite in2="SourceAlpha" operator="in" result="effect1_backgroundBlur_208_12455"/>
<feBlend mode="normal" in="SourceGraphic" in2="effect1_backgroundBlur_208_12455" result="shape"/>
</filter>
</defs>
</svg>
