<svg width="145" height="18" viewBox="0 0 145 18" fill="none" xmlns="http://www.w3.org/2000/svg">
<g clip-path="url(#clip0_207_6602)">
<path d="M133.944 5L132.944 5L132.944 13C132.944 13.55 133.394 14 133.944 14L141.944 14L141.944 13L133.944 13L133.944 5ZM142.944 3L135.944 3C135.394 3 134.944 3.45 134.944 4L134.944 11C134.944 11.55 135.394 12 135.944 12L142.944 12C143.494 12 143.944 11.55 143.944 11L143.944 4C143.944 3.45 143.494 3 142.944 3ZM142.944 11L135.944 11L135.944 4L142.944 4L142.944 11Z" fill="white"/>
</g>
<path d="M8.4791 7.71733H6.88535C6.83989 7.45597 6.75609 7.22443 6.63393 7.02273C6.51177 6.81818 6.35978 6.64489 6.17796 6.50284C5.99614 6.3608 5.78876 6.25426 5.5558 6.18324C5.32569 6.10938 5.07711 6.07244 4.81006 6.07244C4.33563 6.07244 3.91518 6.19176 3.5487 6.4304C3.18222 6.66619 2.89529 7.01278 2.68791 7.47017C2.48052 7.92472 2.37683 8.48011 2.37683 9.13636C2.37683 9.80398 2.48052 10.3665 2.68791 10.8239C2.89813 11.2784 3.18506 11.6222 3.5487 11.8551C3.91518 12.0852 4.33421 12.2003 4.8058 12.2003C5.06717 12.2003 5.31148 12.1662 5.53876 12.098C5.76887 12.027 5.97484 11.9233 6.15666 11.7869C6.34131 11.6506 6.49614 11.483 6.62114 11.2841C6.74898 11.0852 6.83705 10.858 6.88535 10.6023L8.4791 10.6108C8.41944 11.0256 8.29018 11.4148 8.09131 11.7784C7.89529 12.142 7.63819 12.4631 7.32001 12.7415C7.00183 13.017 6.62967 13.233 6.20353 13.3892C5.77739 13.5426 5.30438 13.6193 4.7845 13.6193C4.01745 13.6193 3.33279 13.4418 2.73052 13.0866C2.12825 12.7315 1.65381 12.2188 1.30722 11.5483C0.960632 10.8778 0.787337 10.0739 0.787337 9.13636C0.787337 8.19602 0.962053 7.39205 1.31148 6.72443C1.66092 6.05398 2.13677 5.54119 2.73904 5.18608C3.34131 4.83097 4.02313 4.65341 4.7845 4.65341C5.27029 4.65341 5.722 4.72159 6.13961 4.85795C6.55722 4.99432 6.92938 5.1946 7.25609 5.45881C7.58279 5.72017 7.85126 6.04119 8.06149 6.42188C8.27455 6.79972 8.41376 7.23153 8.4791 7.71733ZM17.7252 9.13636C17.7252 10.0767 17.5491 10.8821 17.1968 11.5526C16.8474 12.2202 16.3701 12.7315 15.765 13.0866C15.1627 13.4418 14.4795 13.6193 13.7152 13.6193C12.951 13.6193 12.2664 13.4418 11.6613 13.0866C11.059 12.7287 10.5817 12.2159 10.2295 11.5483C9.88002 10.8778 9.70531 10.0739 9.70531 9.13636C9.70531 8.19602 9.88002 7.39205 10.2295 6.72443C10.5817 6.05398 11.059 5.54119 11.6613 5.18608C12.2664 4.83097 12.951 4.65341 13.7152 4.65341C14.4795 4.65341 15.1627 4.83097 15.765 5.18608C16.3701 5.54119 16.8474 6.05398 17.1968 6.72443C17.5491 7.39205 17.7252 8.19602 17.7252 9.13636ZM16.1357 9.13636C16.1357 8.47443 16.032 7.91619 15.8246 7.46165C15.6201 7.00426 15.336 6.65909 14.9724 6.42614C14.6087 6.19034 14.1897 6.07244 13.7152 6.07244C13.2408 6.07244 12.8218 6.19034 12.4581 6.42614C12.0945 6.65909 11.809 7.00426 11.6016 7.46165C11.3971 7.91619 11.2948 8.47443 11.2948 9.13636C11.2948 9.7983 11.3971 10.358 11.6016 10.8153C11.809 11.2699 12.0945 11.6151 12.4581 11.8509C12.8218 12.0838 13.2408 12.2003 13.7152 12.2003C14.1897 12.2003 14.6087 12.0838 14.9724 11.8509C15.336 11.6151 15.6201 11.2699 15.8246 10.8153C16.032 10.358 16.1357 9.7983 16.1357 9.13636ZM26.3917 4.77273V13.5H24.9855L20.8733 7.5554H20.8008V13.5H19.2199V4.77273H20.6346L24.7426 10.7216H24.8193V4.77273H26.3917ZM27.7309 6.09801V4.77273H34.6939V6.09801H31.9965V13.5H30.4283V6.09801H27.7309ZM36.0363 13.5V4.77273H39.309C39.9795 4.77273 40.542 4.8892 40.9965 5.12216C41.4539 5.35511 41.7991 5.68182 42.032 6.10227C42.2678 6.51989 42.3857 7.0071 42.3857 7.56392C42.3857 8.12358 42.2664 8.60937 42.0277 9.02131C41.792 9.4304 41.4439 9.74716 40.9837 9.97159C40.5235 10.1932 39.9581 10.304 39.2877 10.304H36.9567V8.99148H39.0746C39.4667 8.99148 39.7877 8.9375 40.0377 8.82955C40.2877 8.71875 40.4724 8.55824 40.5917 8.34801C40.7138 8.13494 40.7749 7.87358 40.7749 7.56392C40.7749 7.25426 40.7138 6.99006 40.5917 6.77131C40.4695 6.54972 40.2834 6.3821 40.0334 6.26847C39.7834 6.15199 39.461 6.09375 39.0661 6.09375H37.6172V13.5H36.0363ZM40.5448 9.54545L42.7053 13.5H40.9411L38.8189 9.54545H40.5448ZM44.9617 13.5H43.2742L46.3466 4.77273H48.2983L51.3751 13.5H49.6876L47.3566 6.5625H47.2884L44.9617 13.5ZM45.0171 10.0781H49.6194V11.348H45.0171V10.0781ZM59.5846 7.71733H57.9908C57.9454 7.45597 57.8616 7.22443 57.7394 7.02273C57.6172 6.81818 57.4652 6.64489 57.2834 6.50284C57.1016 6.3608 56.8942 6.25426 56.6613 6.18324C56.4312 6.10938 56.1826 6.07244 55.9155 6.07244C55.4411 6.07244 55.0206 6.19176 54.6542 6.4304C54.2877 6.66619 54.0008 7.01278 53.7934 7.47017C53.586 7.92472 53.4823 8.48011 53.4823 9.13636C53.4823 9.80398 53.586 10.3665 53.7934 10.8239C54.0036 11.2784 54.2905 11.6222 54.6542 11.8551C55.0206 12.0852 55.4397 12.2003 55.9113 12.2003C56.1726 12.2003 56.417 12.1662 56.6442 12.098C56.8743 12.027 57.0803 11.9233 57.2621 11.7869C57.4468 11.6506 57.6016 11.483 57.7266 11.2841C57.8545 11.0852 57.9425 10.858 57.9908 10.6023L59.5846 10.6108C59.5249 11.0256 59.3956 11.4148 59.1968 11.7784C59.0008 12.142 58.7437 12.4631 58.4255 12.7415C58.1073 13.017 57.7351 13.233 57.309 13.3892C56.8829 13.5426 56.4099 13.6193 55.89 13.6193C55.1229 13.6193 54.4383 13.4418 53.836 13.0866C53.2337 12.7315 52.7593 12.2188 52.4127 11.5483C52.0661 10.8778 51.8928 10.0739 51.8928 9.13636C51.8928 8.19602 52.0675 7.39205 52.417 6.72443C52.7664 6.05398 53.2422 5.54119 53.8445 5.18608C54.4468 4.83097 55.1286 4.65341 55.89 4.65341C56.3758 4.65341 56.8275 4.72159 57.2451 4.85795C57.6627 4.99432 58.0349 5.1946 58.3616 5.45881C58.6883 5.72017 58.9567 6.04119 59.167 6.42188C59.38 6.79972 59.5192 7.23153 59.5846 7.71733ZM60.6488 6.09801V4.77273H67.6119V6.09801H64.9145V13.5H63.3463V6.09801H60.6488ZM73.0515 13.5H71.364L74.4365 4.77273H76.3882L79.4649 13.5H77.7774L75.4464 6.5625H75.3782L73.0515 13.5ZM73.1069 10.0781H77.7092V11.348H73.1069V10.0781ZM83.5718 13.5H80.6144V4.77273H83.6314C84.4979 4.77273 85.2422 4.94744 85.8644 5.29688C86.4894 5.64347 86.9695 6.14205 87.3047 6.79261C87.64 7.44318 87.8076 8.22159 87.8076 9.12784C87.8076 10.0369 87.6385 10.8182 87.3005 11.4716C86.9652 12.125 86.4809 12.6264 85.8474 12.9759C85.2167 13.3253 84.4581 13.5 83.5718 13.5ZM82.1954 12.1321H83.4951C84.103 12.1321 84.6101 12.0213 85.0164 11.7997C85.4226 11.5753 85.728 11.2415 85.9326 10.7983C86.1371 10.3523 86.2394 9.79545 86.2394 9.12784C86.2394 8.46023 86.1371 7.90625 85.9326 7.46591C85.728 7.02273 85.4255 6.69176 85.0249 6.47301C84.6272 6.25142 84.1329 6.14062 83.542 6.14062H82.1954V12.1321ZM92.2671 13.5H89.3097V4.77273H92.3268C93.1932 4.77273 93.9376 4.94744 94.5597 5.29688C95.1847 5.64347 95.6648 6.14205 96.0001 6.79261C96.3353 7.44318 96.5029 8.22159 96.5029 9.12784C96.5029 10.0369 96.3339 10.8182 95.9958 11.4716C95.6606 12.125 95.1762 12.6264 94.5427 12.9759C93.912 13.3253 93.1535 13.5 92.2671 13.5ZM90.8907 12.1321H92.1904C92.7983 12.1321 93.3054 12.0213 93.7117 11.7997C94.1179 11.5753 94.4233 11.2415 94.6279 10.7983C94.8324 10.3523 94.9347 9.79545 94.9347 9.12784C94.9347 8.46023 94.8324 7.90625 94.6279 7.46591C94.4233 7.02273 94.1208 6.69176 93.7202 6.47301C93.3225 6.25142 92.8282 6.14062 92.2373 6.14062H90.8907V12.1321ZM98.005 13.5V4.77273H101.278C101.948 4.77273 102.511 4.8892 102.965 5.12216C103.423 5.35511 103.768 5.68182 104.001 6.10227C104.237 6.51989 104.354 7.0071 104.354 7.56392C104.354 8.12358 104.235 8.60937 103.996 9.02131C103.761 9.4304 103.413 9.74716 102.952 9.97159C102.492 10.1932 101.927 10.304 101.256 10.304H98.9255V8.99148H101.043C101.435 8.99148 101.756 8.9375 102.006 8.82955C102.256 8.71875 102.441 8.55824 102.56 8.34801C102.683 8.13494 102.744 7.87358 102.744 7.56392C102.744 7.25426 102.683 6.99006 102.56 6.77131C102.438 6.54972 102.252 6.3821 102.002 6.26847C101.752 6.15199 101.43 6.09375 101.035 6.09375H99.586V13.5H98.005ZM102.514 9.54545L104.674 13.5H102.91L100.788 9.54545H102.514ZM105.81 13.5V4.77273H111.486V6.09801H107.391V8.46733H111.192V9.79261H107.391V12.1747H111.52V13.5H105.81ZM117.842 7.17188C117.802 6.79972 117.634 6.50994 117.339 6.30256C117.046 6.09517 116.666 5.99148 116.197 5.99148C115.867 5.99148 115.585 6.04119 115.349 6.14062C115.113 6.24006 114.933 6.375 114.808 6.54545C114.683 6.71591 114.619 6.91051 114.616 7.12926C114.616 7.31108 114.657 7.46875 114.739 7.60227C114.825 7.7358 114.94 7.84943 115.085 7.94318C115.229 8.03409 115.39 8.1108 115.566 8.1733C115.742 8.2358 115.92 8.28835 116.099 8.33097L116.917 8.53551C117.246 8.61222 117.563 8.71591 117.867 8.84659C118.174 8.97727 118.448 9.14205 118.69 9.34091C118.934 9.53977 119.127 9.77983 119.269 10.0611C119.411 10.3423 119.482 10.6719 119.482 11.0497C119.482 11.5611 119.352 12.0114 119.09 12.4006C118.829 12.7869 118.451 13.0895 117.957 13.3082C117.465 13.5241 116.87 13.6321 116.171 13.6321C115.492 13.6321 114.903 13.527 114.403 13.3168C113.906 13.1065 113.516 12.7997 113.235 12.3963C112.957 11.9929 112.806 11.5014 112.783 10.9219H114.339C114.362 11.2259 114.455 11.4787 114.62 11.6804C114.785 11.8821 114.999 12.0327 115.264 12.1321C115.531 12.2315 115.829 12.2812 116.158 12.2812C116.502 12.2812 116.803 12.2301 117.062 12.1278C117.323 12.0227 117.528 11.8778 117.675 11.6932C117.823 11.5057 117.898 11.2869 117.901 11.0369C117.898 10.8097 117.832 10.6222 117.701 10.4744C117.57 10.3239 117.387 10.1989 117.151 10.0994C116.918 9.99716 116.646 9.90625 116.333 9.8267L115.34 9.57102C114.621 9.38636 114.053 9.10653 113.636 8.73153C113.221 8.35369 113.014 7.85227 113.014 7.22727C113.014 6.71307 113.153 6.26278 113.431 5.87642C113.712 5.49006 114.095 5.19034 114.577 4.97727C115.06 4.76136 115.607 4.65341 116.218 4.65341C116.837 4.65341 117.38 4.76136 117.846 4.97727C118.315 5.19034 118.683 5.48722 118.95 5.8679C119.217 6.24574 119.354 6.6804 119.363 7.17188H117.842ZM125.635 7.17188C125.595 6.79972 125.427 6.50994 125.132 6.30256C124.839 6.09517 124.459 5.99148 123.99 5.99148C123.66 5.99148 123.378 6.04119 123.142 6.14062C122.906 6.24006 122.726 6.375 122.601 6.54545C122.476 6.71591 122.412 6.91051 122.409 7.12926C122.409 7.31108 122.45 7.46875 122.532 7.60227C122.618 7.7358 122.733 7.84943 122.878 7.94318C123.022 8.03409 123.183 8.1108 123.359 8.1733C123.535 8.2358 123.713 8.28835 123.892 8.33097L124.71 8.53551C125.039 8.61222 125.356 8.71591 125.66 8.84659C125.967 8.97727 126.241 9.14205 126.483 9.34091C126.727 9.53977 126.92 9.77983 127.062 10.0611C127.204 10.3423 127.275 10.6719 127.275 11.0497C127.275 11.5611 127.145 12.0114 126.883 12.4006C126.622 12.7869 126.244 13.0895 125.75 13.3082C125.258 13.5241 124.663 13.6321 123.964 13.6321C123.285 13.6321 122.696 13.527 122.196 13.3168C121.699 13.1065 121.309 12.7997 121.028 12.3963C120.75 11.9929 120.599 11.5014 120.576 10.9219H122.132C122.155 11.2259 122.248 11.4787 122.413 11.6804C122.578 11.8821 122.792 12.0327 123.057 12.1321C123.324 12.2315 123.622 12.2812 123.951 12.2812C124.295 12.2812 124.596 12.2301 124.855 12.1278C125.116 12.0227 125.321 11.8778 125.468 11.6932C125.616 11.5057 125.691 11.2869 125.694 11.0369C125.691 10.8097 125.625 10.6222 125.494 10.4744C125.363 10.3239 125.18 10.1989 124.944 10.0994C124.711 9.99716 124.439 9.90625 124.126 9.8267L123.133 9.57102C122.414 9.38636 121.846 9.10653 121.429 8.73153C121.014 8.35369 120.807 7.85227 120.807 7.22727C120.807 6.71307 120.946 6.26278 121.224 5.87642C121.505 5.49006 121.887 5.19034 122.37 4.97727C122.853 4.76136 123.4 4.65341 124.011 4.65341C124.63 4.65341 125.173 4.76136 125.639 4.97727C126.108 5.19034 126.476 5.48722 126.743 5.8679C127.01 6.24574 127.147 6.6804 127.156 7.17188H125.635Z" fill="#FEFEFE"/>
<defs>
<clipPath id="clip0_207_6602">
<rect width="12" height="12" fill="white" transform="translate(132.444 2.5)"/>
</clipPath>
</defs>
</svg>
