<?xml version="1.0" encoding="utf-8"?>
<!-- Generator: Adobe Illustrator 24.0.1, SVG Export Plug-In . SVG Version: 6.00 Build 0)  -->
<svg version="1.1" id="Layer_1" xmlns="http://www.w3.org/2000/svg" xmlns:xlink="http://www.w3.org/1999/xlink" x="0px" y="0px"
	 viewBox="0 0 91 91" style="enable-background:new 0 0 91 91;" xml:space="preserve">
<style type="text/css">
	.st0{fill:#2F3241;fill-opacity:0.5;}
	.st1{clip-path:url(#SVGID_2_);}
	.st2{fill:#11CABE;}
</style>
<g>
	<circle class="st0" cx="45.5" cy="45.5" r="45.5"/>
</g>
<g>
	<defs>
		<rect id="SVGID_1_" x="24" y="18" width="43" height="43"/>
	</defs>
	<clipPath id="SVGID_2_">
		<use xlink:href="#SVGID_1_"  style="overflow:visible;"/>
	</clipPath>
	<g class="st1">
		<path class="st2" d="M56.3,29.1c-0.1,0-0.2,0-0.3,0.1c-0.3,0.1-0.6,0.3-0.8,0.5c-1.2,1.7-4.6,1.5-4.6,1.5c-0.2,0-0.4,0-0.6,0.1
			c-0.2,0.1-0.3,0.2-0.5,0.3c-0.1,0.1-0.2,0.3-0.3,0.5c-0.1,0.2-0.1,0.4,0,0.6c0,0,0.4,1.9,1.2,4.8H40.4l-0.5-1.1
			c1.6-0.4,2.2-0.6,2.2-1.2c0-0.6-0.7-0.6-1.5-0.6h-5.5c-0.8,0-1,0.3-1,1.2c0,3,1.4,2,3.5,1.2l0.7,1.7L32,51.4
			c-0.1,0.2-0.1,0.4-0.1,0.6c0,0.2,0.1,0.4,0.2,0.6c0.1,0.2,0.3,0.3,0.5,0.4s0.4,0.1,0.6,0.1h11c0.2,0.1,0.4,0.2,0.6,0.2
			c0.2,0,0.4,0,0.6-0.1c0.2-0.1,0.3-0.2,0.5-0.4c0.1-0.2,0.2-0.4,0.2-0.6l6.3-9.2c1.2,3.1,2.7,6.5,4.6,9.5c0.1,0.2,0.2,0.3,0.3,0.4
			c0.1,0.1,0.3,0.2,0.5,0.2c0.2,0,0.3,0.1,0.5,0c0.2,0,0.3-0.1,0.5-0.2c0.1-0.1,0.3-0.2,0.4-0.4c0.1-0.1,0.2-0.3,0.2-0.5
			c0-0.2,0-0.3,0-0.5c0-0.2-0.1-0.3-0.2-0.5c-2.6-3.9-4.2-8.4-5.3-11.9l-0.4-1c-0.5-1.6-0.9-3.1-1.2-4.7c1.5,0,3.7-0.3,5.2-2.5
			c0.1-0.2,0.2-0.4,0.3-0.7c0-0.2,0-0.5-0.1-0.7s-0.3-0.4-0.5-0.5C56.7,29.2,56.5,29.1,56.3,29.1L56.3,29.1z M41.3,39.9h9.9
			c0,0,0,0,0,0.1l0,0.2L45,49.3L41.3,39.9L41.3,39.9z M39.4,41.8l3.5,8.9h-7.8L39.4,41.8L39.4,41.8z M33.1,43.1
			c-1.2,0-2.3,0.2-3.4,0.7c-1.1,0.4-2,1.1-2.9,1.9c-0.8,0.8-1.5,1.8-1.9,2.9c-0.4,1.1-0.7,2.2-0.7,3.4c0,1.2,0.2,2.3,0.7,3.4
			c0.4,1.1,1.1,2,1.9,2.9c0.8,0.8,1.8,1.5,2.9,1.9c1.1,0.4,2.2,0.7,3.4,0.7c3.9,0,7.1-2.5,8.3-6h-3.2c-1,1.8-2.9,3.1-5.1,3.1
			c-1.6,0-3.1-0.6-4.2-1.7c-1.1-1.1-1.7-2.6-1.7-4.2c0-3.1,2.5-5.7,5.6-5.8l1.3-2.8C33.8,43.2,33.5,43.1,33.1,43.1L33.1,43.1z
			 M57.9,43.1c-0.4,0-0.8,0-1.2,0.1c0.4,0.9,0.8,1.9,1.2,2.8c1.6,0,3.1,0.6,4.2,1.7c1.1,1.1,1.7,2.6,1.7,4.2c0,1.6-0.6,3.1-1.7,4.2
			s-2.6,1.7-4.2,1.7c-1.6,0-3.1-0.6-4.2-1.7C52.6,55,52,53.5,52,51.9c0-1.2,0.3-2.2,0.9-3.2c-0.5-1-0.9-2-1.3-3
			c-1.6,1.6-2.5,3.8-2.5,6.2c0,1.2,0.2,2.3,0.7,3.4c0.4,1.1,1.1,2,1.9,2.9c0.8,0.8,1.8,1.5,2.9,1.9c1.1,0.4,2.2,0.7,3.4,0.7
			c1.2,0,2.3-0.2,3.4-0.7c1.1-0.4,2-1.1,2.9-1.9c0.8-0.8,1.5-1.8,1.9-2.9c0.4-1.1,0.7-2.2,0.7-3.4c0-1.2-0.2-2.3-0.7-3.4
			c-0.4-1.1-1.1-2-1.9-2.9c-0.8-0.8-1.8-1.5-2.9-1.9C60.2,43.3,59.1,43.1,57.9,43.1L57.9,43.1z M39.2,45.6l-1.4,2.8
			c0.1,0.2,0.2,0.4,0.4,0.6h3.2C40.9,47.8,40.2,46.6,39.2,45.6L39.2,45.6z M1515.8,2447.5v3.3h43v-3.3H1515.8z M1522.4,2455.8v3.3
			h29.8v-3.3H1522.4z M1515.8,2464v3.3h43v-3.3H1515.8z M1522.4,2472.3v3.3h29.8v-3.3H1522.4z M1515.8,2480.6v3.3h43v-3.3H1515.8z"
			/>
	</g>
</g>
</svg>
