<svg width="895" height="99" viewBox="0 0 895 99" fill="none" xmlns="http://www.w3.org/2000/svg">
<g filter="url(#filter0_di_741_29644)">
<path d="M72.1641 20.616H82.0841L83.7161 14.6H70.6601L65.0281 18.792L60.1641 37H77.7001L79.3001 31.016H69.3801L72.1641 20.616ZM92.6654 37L95.0014 28.232H91.7694L89.4334 37H81.8174L84.1534 28.232H82.2014L83.7374 22.568H85.6894L87.8334 14.6H95.4494L93.3054 22.568H96.5374L98.6814 14.536H106.265L100.249 37H92.6654ZM113.924 28.424H119.236L116.932 37H120.068L125.668 32.808L130.564 14.6H114.532L108.804 19.048L104.004 37H111.62L113.924 28.424ZM116.004 20.648H121.316L120.772 22.632H115.46L116.004 20.648ZM149.804 14.6L156.748 18.664L147.276 25.608L151.82 37H144.236L140.268 26.632L137.484 37H129.868L135.18 17.16L133.516 14.6H149.804ZM144.428 20.616H141.868L141.356 22.504L144.428 20.616ZM154.782 37H162.398L164.158 30.408H170.43L168.67 37H176.318L180.062 22.984L171.678 13.864L158.526 22.984L154.782 37ZM166.526 24.584L169.342 22.568L171.07 24.584H166.526ZM189.293 30.984H199.213L197.613 37H184.557L181.197 32.808L186.093 14.6H203.629L201.997 20.584H192.077L189.293 30.984ZM205.021 37H212.637L217.021 20.616H223.357L224.989 14.6H207.325L205.693 20.616H209.405L205.021 37ZM231.945 30.984H241.865L240.265 37H227.209L223.849 32.808L228.745 14.6H246.281L244.649 20.648H234.729L234.185 22.632H244.105L242.569 28.424H232.649L231.945 30.984ZM264.998 14.6L271.942 18.664L262.47 25.608L267.014 37H259.43L255.462 26.632L252.678 37H245.062L250.374 17.16L248.71 14.6H264.998ZM259.622 20.616H257.062L256.55 22.504L259.622 20.616ZM281.583 37H289.199L290.959 30.408H297.231L295.471 37H303.119L306.863 22.984L298.479 13.864L285.327 22.984L281.583 37ZM293.327 24.584L296.143 22.568L297.871 24.584H293.327ZM318.179 23.56L314.563 37H306.947L312.259 17.16L310.595 14.6H319.939L326.307 21.8L328.259 14.6H335.907L329.891 37H322.243L324.099 30.056L318.179 23.56ZM338.858 14.6H357.29L360.618 18.792L356.938 32.552L351.242 37H335.21L340.522 17.128L338.858 14.6ZM352.522 20.616H347.21L344.458 30.952H349.77L352.522 20.616ZM372.675 30.984L371.075 37H388.739L390.339 30.984H384.003L386.787 20.616H393.123L394.755 14.6H377.091L375.459 20.616H379.171L376.387 30.984H372.675ZM396.207 37H403.823L408.207 20.616H414.543L416.175 14.6H398.511L396.879 20.616H400.591L396.207 37ZM423.131 30.984H433.051L431.451 37H418.395L415.035 32.808L419.931 14.6H437.467L435.835 20.648H425.915L425.371 22.632H435.291L433.755 28.424H423.835L423.131 30.984ZM457.836 45.032L451.916 38.632L456.044 23.24L450.092 27.56L446.444 23.24L442.764 37H435.148L441.164 14.6H448.588L452.46 18.632L459.212 14.472L464.972 18.312L457.836 45.032ZM488.132 23.56L484.516 37H476.9L482.212 17.16L480.548 14.6H489.892L496.26 21.8L498.212 14.6H505.86L499.844 37H492.196L494.052 30.056L488.132 23.56ZM505.068 38.632L510.988 45.032L515.468 28.232H525.196L526.732 22.568H517.004L517.516 20.616H527.276L528.908 14.6H511.532L509.388 22.568H507.436L505.9 28.232H507.852L505.068 38.632ZM540.561 37H532.977L537.361 20.616H530.993L532.625 14.6H550.289L548.657 20.616H544.945L540.561 37ZM560.483 30.696H549.475L547.779 37H564.515L569.955 30.632L562.435 20.648H572.675L574.307 14.6H557.539L552.387 19.88L560.483 30.696ZM616.194 8.2L606.882 14.6L603.17 28.36L599.554 24.04L593.57 28.36L597.282 14.6H589.666L583.65 37H591.074L597.122 32.968L601.634 37.128L609.474 33.288L616.194 8.2ZM624.995 37L627.331 28.232H624.099L621.763 37H614.147L616.483 28.232H614.531L616.067 22.568H618.019L620.163 14.6H627.779L625.635 22.568H628.867L631.011 14.536H638.595L632.579 37H624.995ZM651.566 14.568L645.55 37H637.934L643.246 17.128L641.582 14.568H651.566ZM658.501 30.984H668.421L666.821 37H653.765L650.405 32.808L655.301 14.6H672.837L671.205 20.584H661.285L658.501 30.984ZM681.787 37L684.123 28.232H680.891L678.555 37H670.939L673.275 28.232H671.323L672.859 22.568H674.811L676.955 14.6H684.571L682.427 22.568H685.659L687.803 14.536H695.387L689.371 37H681.787ZM713.949 30.984H723.869L722.269 37H709.213L705.853 32.808L710.749 14.6H728.285L726.653 20.584H716.733L713.949 30.984ZM725.965 37H733.581L735.341 30.408H741.613L739.853 37H747.501L751.245 22.984L742.861 13.864L729.709 22.984L725.965 37ZM737.709 24.584L740.525 22.568L742.253 24.584H737.709ZM762.561 23.56L758.945 37H751.329L756.641 17.16L754.977 14.6H764.321L770.689 21.8L772.641 14.6H780.289L774.273 37H766.625L768.481 30.056L762.561 23.56ZM811.648 37H791.2L796.512 17.16L794.848 14.6H809.632L816.576 18.664L810.016 23.368H815.296L811.648 37ZM805.664 30.984L806.176 29.096H800.928L800.416 30.984H805.664ZM803.2 20.616L802.688 22.504L805.92 20.616H803.2ZM824.611 30.984H834.531L832.931 37H819.875L816.515 32.808L821.411 14.6H838.947L837.315 20.648H827.395L826.851 22.632H836.771L835.235 28.424H825.315L824.611 30.984ZM257.964 78.632L260.748 68.232H258.796L260.332 62.568H262.284L264.428 54.6H282.316L278.636 68.232H268.364L263.884 85.032L257.964 78.632ZM273.068 60.616H270.412L269.9 62.568H272.556L273.068 60.616ZM295.237 54.6L290.821 70.984H298.373L296.773 77H286.085L282.725 72.808L286.917 57.16L285.253 54.6H295.237ZM300.487 77H308.103L309.863 70.408H316.135L314.375 77H322.023L325.767 62.984L317.383 53.864L304.231 62.984L300.487 77ZM312.231 64.584L315.047 62.568L316.775 64.584H312.231ZM341.622 77L337.046 80.456L334.998 88.072L348.822 78.632L355.286 54.6H347.67L346.038 60.616L336.534 65.448L339.446 54.6H331.798L326.87 72.904H334.518L343.99 68.104L341.622 77ZM362.199 70.984H372.119L370.519 77H357.463L354.103 72.808L358.999 54.6H376.535L374.903 60.648H364.983L364.439 62.632H374.359L372.823 68.424H362.903L362.199 70.984ZM379.464 54.6H397.896L401.224 58.792L397.544 72.552L391.848 77H375.816L381.128 57.128L379.464 54.6ZM393.128 60.616H387.816L385.064 70.952H390.376L393.128 60.616ZM426.913 54.568L420.897 77H413.281L418.593 57.128L416.929 54.568H426.913ZM437.464 63.56L433.848 77H426.232L431.544 57.16L429.88 54.6H439.224L445.592 61.8L447.544 54.6H455.192L449.176 77H441.528L443.384 70.056L437.464 63.56ZM468.215 77H475.831L480.215 60.616H486.551L488.183 54.6H470.519L468.887 60.616H472.599L468.215 77ZM496.817 77L499.153 68.232H495.921L493.585 77H485.969L488.305 68.232H486.353L487.889 62.568H489.841L491.985 54.6H499.601L497.457 62.568H500.689L502.833 54.536H510.417L504.401 77H496.817ZM517.372 70.984H527.292L525.692 77H512.636L509.276 72.808L514.172 54.6H531.708L530.076 60.648H520.156L519.612 62.632H529.532L527.996 68.424H518.076L517.372 70.984ZM550.276 70.952H555.556L557.348 64.232H560.484L563.844 68.424L561.54 77H545.508L542.18 72.552L547.012 54.568H564.548L562.916 60.616H553.028L550.276 70.952ZM565.26 77H572.876L574.636 70.408H580.908L579.148 77H586.796L590.54 62.984L582.156 53.864L569.004 62.984L565.26 77ZM577.004 64.584L579.82 62.568L581.548 64.584H577.004ZM613.243 85.032L607.323 78.632L611.451 63.24L605.499 67.56L601.851 63.24L598.171 77H590.555L596.571 54.6H603.995L607.867 58.632L614.619 54.472L620.379 58.312L613.243 85.032ZM628.316 70.984H638.236L636.636 77H623.58L620.22 72.808L625.116 54.6H642.652L641.02 60.648H631.1L630.556 62.632H640.476L638.94 68.424H629.02L628.316 70.984Z" fill="url(#paint0_linear_741_29644)"/>
<path d="M72.1641 20.616V19.616H71.3966L71.1981 20.3574L72.1641 20.616ZM82.0841 20.616V21.616H82.849L83.0492 20.8778L82.0841 20.616ZM83.7161 14.6L84.6812 14.8618L85.0235 13.6H83.7161V14.6ZM70.6601 14.6V13.6H70.3288L70.063 13.7978L70.6601 14.6ZM65.0281 18.792L64.431 17.9898L64.1518 18.1976L64.062 18.5339L65.0281 18.792ZM60.1641 37L59.198 36.7419L58.8619 38H60.1641V37ZM77.7001 37V38H78.4679L78.6662 37.2583L77.7001 37ZM79.3001 31.016L80.2662 31.2743L80.6026 30.016H79.3001V31.016ZM69.3801 31.016L68.4141 30.7574L68.0772 32.016H69.3801V31.016ZM72.1641 21.616H82.0841V19.616H72.1641V21.616ZM83.0492 20.8778L84.6812 14.8618L82.751 14.3382L81.119 20.3542L83.0492 20.8778ZM83.7161 13.6H70.6601V15.6H83.7161V13.6ZM70.063 13.7978L64.431 17.9898L65.6252 19.5942L71.2572 15.4022L70.063 13.7978ZM64.062 18.5339L59.198 36.7419L61.1302 37.2581L65.9942 19.0501L64.062 18.5339ZM60.1641 38H77.7001V36H60.1641V38ZM78.6662 37.2583L80.2662 31.2743L78.3341 30.7577L76.7341 36.7417L78.6662 37.2583ZM79.3001 30.016H69.3801V32.016H79.3001V30.016ZM70.3461 31.2746L73.1301 20.8746L71.1981 20.3574L68.4141 30.7574L70.3461 31.2746ZM92.6654 37L91.6991 36.7426L91.3641 38H92.6654V37ZM95.0014 28.232L95.9677 28.4894L96.3027 27.232H95.0014V28.232ZM91.7694 28.232V27.232H91.0009L90.8031 27.9746L91.7694 28.232ZM89.4334 37V38H90.2018L90.3997 37.2574L89.4334 37ZM81.8174 37L80.8511 36.7426L80.5161 38H81.8174V37ZM84.1534 28.232L85.1197 28.4894L85.4547 27.232H84.1534V28.232ZM82.2014 28.232L81.2362 27.9703L80.8941 29.232H82.2014V28.232ZM83.7374 22.568V21.568H82.9724L82.7722 22.3063L83.7374 22.568ZM85.6894 22.568V23.568H86.4559L86.655 22.8278L85.6894 22.568ZM87.8334 14.6V13.6H87.0669L86.8677 14.3402L87.8334 14.6ZM95.4494 14.6L96.415 14.8598L96.754 13.6H95.4494V14.6ZM93.3054 22.568L92.3397 22.3082L92.0007 23.568H93.3054V22.568ZM96.5374 22.568V23.568H97.3055L97.5035 22.8259L96.5374 22.568ZM98.6814 14.536V13.536H97.9133L97.7152 14.2781L98.6814 14.536ZM106.265 14.536L107.231 14.7947L107.568 13.536H106.265V14.536ZM100.249 37V38H101.017L101.215 37.2587L100.249 37ZM93.6317 37.2574L95.9677 28.4894L94.0351 27.9746L91.6991 36.7426L93.6317 37.2574ZM95.0014 27.232H91.7694V29.232H95.0014V27.232ZM90.8031 27.9746L88.4671 36.7426L90.3997 37.2574L92.7357 28.4894L90.8031 27.9746ZM89.4334 36H81.8174V38H89.4334V36ZM82.7837 37.2574L85.1197 28.4894L83.1871 27.9746L80.8511 36.7426L82.7837 37.2574ZM84.1534 27.232H82.2014V29.232H84.1534V27.232ZM83.1665 28.4937L84.7025 22.8297L82.7722 22.3063L81.2362 27.9703L83.1665 28.4937ZM83.7374 23.568H85.6894V21.568H83.7374V23.568ZM86.655 22.8278L88.799 14.8598L86.8677 14.3402L84.7237 22.3082L86.655 22.8278ZM87.8334 15.6H95.4494V13.6H87.8334V15.6ZM94.4837 14.3402L92.3397 22.3082L94.271 22.8278L96.415 14.8598L94.4837 14.3402ZM93.3054 23.568H96.5374V21.568H93.3054V23.568ZM97.5035 22.8259L99.6475 14.7939L97.7152 14.2781L95.5712 22.3101L97.5035 22.8259ZM98.6814 15.536H106.265V13.536H98.6814V15.536ZM105.299 14.2773L99.2834 36.7413L101.215 37.2587L107.231 14.7947L105.299 14.2773ZM100.249 36H92.6654V38H100.249V36ZM113.924 28.424V27.424H113.157L112.958 28.1645L113.924 28.424ZM119.236 28.424L120.202 28.6835L120.54 27.424H119.236V28.424ZM116.932 37L115.966 36.7405L115.628 38H116.932V37ZM120.068 37V38H120.401L120.667 37.8005L120.068 37ZM125.668 32.808L126.267 33.6085L126.544 33.4014L126.634 33.0677L125.668 32.808ZM130.564 14.6L131.53 14.8597L131.869 13.6H130.564V14.6ZM114.532 14.6V13.6H114.189L113.919 13.8102L114.532 14.6ZM108.804 19.048L108.191 18.2582L107.925 18.4646L107.838 18.7897L108.804 19.048ZM104.004 37L103.038 36.7417L102.702 38H104.004V37ZM111.62 37V38H112.387L112.586 37.2595L111.62 37ZM116.004 20.648V19.648H115.241L115.04 20.3836L116.004 20.648ZM121.316 20.648L122.281 20.9124L122.627 19.648H121.316V20.648ZM120.772 22.632V23.632H121.535L121.737 22.8964L120.772 22.632ZM115.46 22.632L114.496 22.3676L114.149 23.632H115.46V22.632ZM113.924 29.424H119.236V27.424H113.924V29.424ZM118.27 28.1645L115.966 36.7405L117.898 37.2595L120.202 28.6835L118.27 28.1645ZM116.932 38H120.068V36H116.932V38ZM120.667 37.8005L126.267 33.6085L125.069 32.0075L119.469 36.1995L120.667 37.8005ZM126.634 33.0677L131.53 14.8597L129.598 14.3403L124.702 32.5483L126.634 33.0677ZM130.564 13.6H114.532V15.6H130.564V13.6ZM113.919 13.8102L108.191 18.2582L109.417 19.8378L115.145 15.3898L113.919 13.8102ZM107.838 18.7897L103.038 36.7417L104.97 37.2583L109.77 19.3063L107.838 18.7897ZM104.004 38H111.62V36H104.004V38ZM112.586 37.2595L114.89 28.6835L112.958 28.1645L110.654 36.7405L112.586 37.2595ZM116.004 21.648H121.316V19.648H116.004V21.648ZM120.352 20.3836L119.808 22.3676L121.737 22.8964L122.281 20.9124L120.352 20.3836ZM120.772 21.632H115.46V23.632H120.772V21.632ZM116.425 22.8964L116.969 20.9124L115.04 20.3836L114.496 22.3676L116.425 22.8964ZM149.804 14.6L150.309 13.7369L150.075 13.6H149.804V14.6ZM156.748 18.664L157.339 19.4705L158.567 18.5701L157.253 17.8009L156.748 18.664ZM147.276 25.608L146.685 24.8015L146.06 25.2593L146.347 25.9785L147.276 25.608ZM151.82 37V38H153.295L152.749 36.6295L151.82 37ZM144.236 37L143.302 37.3574L143.548 38H144.236V37ZM140.268 26.632L141.202 26.2746L140.101 23.3979L139.302 26.3727L140.268 26.632ZM137.484 37V38H138.251L138.45 37.2593L137.484 37ZM129.868 37L128.902 36.7414L128.565 38H129.868V37ZM135.18 17.16L136.146 17.4186L136.261 16.9884L136.018 16.615L135.18 17.16ZM133.516 14.6V13.6H131.673L132.677 15.145L133.516 14.6ZM144.428 20.616L144.951 21.468L147.965 19.616H144.428V20.616ZM141.868 20.616V19.616H141.103L140.903 20.3543L141.868 20.616ZM141.356 22.504L140.391 22.2423L139.731 24.6766L141.879 23.356L141.356 22.504ZM149.299 15.4631L156.243 19.5271L157.253 17.8009L150.309 13.7369L149.299 15.4631ZM156.157 17.8575L146.685 24.8015L147.867 26.4145L157.339 19.4705L156.157 17.8575ZM146.347 25.9785L150.891 37.3705L152.749 36.6295L148.205 25.2375L146.347 25.9785ZM151.82 36H144.236V38H151.82V36ZM145.17 36.6426L141.202 26.2746L139.334 26.9894L143.302 37.3574L145.17 36.6426ZM139.302 26.3727L136.518 36.7407L138.45 37.2593L141.234 26.8913L139.302 26.3727ZM137.484 36H129.868V38H137.484V36ZM130.834 37.2586L136.146 17.4186L134.214 16.9014L128.902 36.7414L130.834 37.2586ZM136.018 16.615L134.354 14.055L132.677 15.145L134.341 17.705L136.018 16.615ZM133.516 15.6H149.804V13.6H133.516V15.6ZM144.428 19.616H141.868V21.616H144.428V19.616ZM140.903 20.3543L140.391 22.2423L142.321 22.7657L142.833 20.8777L140.903 20.3543ZM141.879 23.356L144.951 21.468L143.904 19.764L140.832 21.652L141.879 23.356ZM154.782 37L153.815 36.7419L153.479 38H154.782V37ZM162.398 37V38H163.166L163.364 37.258L162.398 37ZM164.158 30.408V29.408H163.39L163.191 30.15L164.158 30.408ZM170.43 30.408L171.396 30.666L171.732 29.408H170.43V30.408ZM168.67 37L167.703 36.742L167.368 38H168.67V37ZM176.318 37V38H177.086L177.284 37.2581L176.318 37ZM180.062 22.984L181.028 23.2421L181.169 22.7115L180.798 22.3072L180.062 22.984ZM171.678 13.864L172.414 13.1872L171.824 12.5456L171.108 13.0422L171.678 13.864ZM158.526 22.984L157.956 22.1622L157.654 22.3714L157.559 22.7259L158.526 22.984ZM166.526 24.584L165.944 23.7709L163.411 25.584H166.526V24.584ZM169.342 22.568L170.101 21.9172L169.505 21.2215L168.76 21.7549L169.342 22.568ZM171.07 24.584V25.584H173.244L171.829 23.9332L171.07 24.584ZM154.782 38H162.398V36H154.782V38ZM163.364 37.258L165.124 30.666L163.191 30.15L161.431 36.742L163.364 37.258ZM164.158 31.408H170.43V29.408H164.158V31.408ZM169.463 30.15L167.703 36.742L169.636 37.258L171.396 30.666L169.463 30.15ZM168.67 38H176.318V36H168.67V38ZM177.284 37.2581L181.028 23.2421L179.095 22.7259L175.351 36.7419L177.284 37.2581ZM180.798 22.3072L172.414 13.1872L170.941 14.5408L179.325 23.6608L180.798 22.3072ZM171.108 13.0422L157.956 22.1622L159.095 23.8058L172.247 14.6858L171.108 13.0422ZM157.559 22.7259L153.815 36.7419L155.748 37.2581L159.492 23.2421L157.559 22.7259ZM167.108 25.3971L169.924 23.3811L168.76 21.7549L165.944 23.7709L167.108 25.3971ZM168.582 23.2188L170.31 25.2348L171.829 23.9332L170.101 21.9172L168.582 23.2188ZM171.07 23.584H166.526V25.584H171.07V23.584ZM189.293 30.984L188.327 30.7254L187.99 31.984H189.293V30.984ZM199.213 30.984L200.179 31.241L200.513 29.984H199.213V30.984ZM197.613 37V38H198.381L198.579 37.257L197.613 37ZM184.557 37L183.776 37.6254L184.077 38H184.557V37ZM181.197 32.808L180.231 32.5483L180.099 33.0379L180.416 33.4334L181.197 32.808ZM186.093 14.6V13.6H185.326L185.127 14.3403L186.093 14.6ZM203.629 14.6L204.593 14.8631L204.938 13.6H203.629V14.6ZM201.997 20.584V21.584H202.76L202.961 20.8471L201.997 20.584ZM192.077 20.584V19.584H191.309L191.111 20.3254L192.077 20.584ZM189.293 31.984H199.213V29.984H189.293V31.984ZM198.246 30.727L196.646 36.743L198.579 37.257L200.179 31.241L198.246 30.727ZM197.613 36H184.557V38H197.613V36ZM185.337 36.3746L181.977 32.1826L180.416 33.4334L183.776 37.6254L185.337 36.3746ZM182.162 33.0677L187.058 14.8597L185.127 14.3403L180.231 32.5483L182.162 33.0677ZM186.093 15.6H203.629V13.6H186.093V15.6ZM202.664 14.3369L201.032 20.3209L202.961 20.8471L204.593 14.8631L202.664 14.3369ZM201.997 19.584H192.077V21.584H201.997V19.584ZM191.111 20.3254L188.327 30.7254L190.259 31.2426L193.043 20.8426L191.111 20.3254ZM205.021 37L204.055 36.7415L203.718 38H205.021V37ZM212.637 37V38H213.405L213.603 37.2585L212.637 37ZM217.021 20.616V19.616H216.254L216.055 20.3575L217.021 20.616ZM223.357 20.616V21.616H224.122L224.322 20.8778L223.357 20.616ZM224.989 14.6L225.954 14.8618L226.297 13.6H224.989V14.6ZM207.325 14.6V13.6H206.56L206.36 14.3382L207.325 14.6ZM205.693 20.616L204.728 20.3542L204.386 21.616H205.693V20.616ZM209.405 20.616L210.371 20.8745L210.708 19.616H209.405V20.616ZM205.021 38H212.637V36H205.021V38ZM213.603 37.2585L217.987 20.8745L216.055 20.3575L211.671 36.7415L213.603 37.2585ZM217.021 21.616H223.357V19.616H217.021V21.616ZM224.322 20.8778L225.954 14.8618L224.024 14.3382L222.392 20.3542L224.322 20.8778ZM224.989 13.6H207.325V15.6H224.989V13.6ZM206.36 14.3382L204.728 20.3542L206.658 20.8778L208.29 14.8618L206.36 14.3382ZM205.693 21.616H209.405V19.616H205.693V21.616ZM208.439 20.3575L204.055 36.7415L205.987 37.2585L210.371 20.8745L208.439 20.3575ZM231.945 30.984L230.981 30.7188L230.633 31.984H231.945V30.984ZM241.865 30.984L242.832 31.241L243.166 29.984H241.865V30.984ZM240.265 37V38H241.034L241.232 37.257L240.265 37ZM227.209 37L226.429 37.6254L226.729 38H227.209V37ZM223.849 32.808L222.883 32.5483L222.752 33.0379L223.069 33.4334L223.849 32.808ZM228.745 14.6V13.6H227.979L227.779 14.3403L228.745 14.6ZM246.281 14.6L247.247 14.8605L247.587 13.6H246.281V14.6ZM244.649 20.648V21.648H245.415L245.615 20.9085L244.649 20.648ZM234.729 20.648V19.648H233.966L233.765 20.3836L234.729 20.648ZM234.185 22.632L233.221 22.3676L232.874 23.632H234.185V22.632ZM244.105 22.632L245.072 22.8883L245.405 21.632H244.105V22.632ZM242.569 28.424V29.424H243.339L243.536 28.6803L242.569 28.424ZM232.649 28.424V27.424H231.887L231.685 28.1588L232.649 28.424ZM231.945 31.984H241.865V29.984H231.945V31.984ZM240.899 30.727L239.299 36.743L241.232 37.257L242.832 31.241L240.899 30.727ZM240.265 36H227.209V38H240.265V36ZM227.989 36.3746L224.629 32.1826L223.069 33.4334L226.429 37.6254L227.989 36.3746ZM224.815 33.0677L229.711 14.8597L227.779 14.3403L222.883 32.5483L224.815 33.0677ZM228.745 15.6H246.281V13.6H228.745V15.6ZM245.316 14.3395L243.684 20.3875L245.615 20.9085L247.247 14.8605L245.316 14.3395ZM244.649 19.648H234.729V21.648H244.649V19.648ZM233.765 20.3836L233.221 22.3676L235.15 22.8964L235.694 20.9124L233.765 20.3836ZM234.185 23.632H244.105V21.632H234.185V23.632ZM243.139 22.3757L241.603 28.1677L243.536 28.6803L245.072 22.8883L243.139 22.3757ZM242.569 27.424H232.649V29.424H242.569V27.424ZM231.685 28.1588L230.981 30.7188L232.909 31.2492L233.613 28.6892L231.685 28.1588ZM264.998 14.6L265.503 13.7369L265.269 13.6H264.998V14.6ZM271.942 18.664L272.533 19.4705L273.761 18.5701L272.447 17.8009L271.942 18.664ZM262.47 25.608L261.878 24.8015L261.254 25.2593L261.541 25.9785L262.47 25.608ZM267.014 37V38H268.489L267.942 36.6295L267.014 37ZM259.43 37L258.496 37.3574L258.742 38H259.43V37ZM255.462 26.632L256.396 26.2746L255.295 23.3979L254.496 26.3727L255.462 26.632ZM252.678 37V38H253.445L253.643 37.2593L252.678 37ZM245.062 37L244.096 36.7414L243.759 38H245.062V37ZM250.374 17.16L251.34 17.4186L251.455 16.9884L251.212 16.615L250.374 17.16ZM248.71 14.6V13.6H246.867L247.871 15.145L248.71 14.6ZM259.622 20.616L260.145 21.468L263.159 19.616H259.622V20.616ZM257.062 20.616V19.616H256.297L256.096 20.3543L257.062 20.616ZM256.55 22.504L255.584 22.2423L254.924 24.6766L257.073 23.356L256.55 22.504ZM264.493 15.4631L271.437 19.5271L272.447 17.8009L265.503 13.7369L264.493 15.4631ZM271.35 17.8575L261.878 24.8015L263.061 26.4145L272.533 19.4705L271.35 17.8575ZM261.541 25.9785L266.085 37.3705L267.942 36.6295L263.398 25.2375L261.541 25.9785ZM267.014 36H259.43V38H267.014V36ZM260.364 36.6426L256.396 26.2746L254.528 26.9894L258.496 37.3574L260.364 36.6426ZM254.496 26.3727L251.712 36.7407L253.643 37.2593L256.427 26.8913L254.496 26.3727ZM252.678 36H245.062V38H252.678V36ZM246.028 37.2586L251.34 17.4186L249.408 16.9014L244.096 36.7414L246.028 37.2586ZM251.212 16.615L249.548 14.055L247.871 15.145L249.535 17.705L251.212 16.615ZM248.71 15.6H264.998V13.6H248.71V15.6ZM259.622 19.616H257.062V21.616H259.622V19.616ZM256.096 20.3543L255.584 22.2423L257.515 22.7657L258.027 20.8777L256.096 20.3543ZM257.073 23.356L260.145 21.468L259.098 19.764L256.026 21.652L257.073 23.356ZM281.583 37L280.617 36.7419L280.281 38H281.583V37ZM289.199 37V38H289.967L290.165 37.258L289.199 37ZM290.959 30.408V29.408H290.191L289.993 30.15L290.959 30.408ZM297.231 30.408L298.197 30.666L298.533 29.408H297.231V30.408ZM295.471 37L294.505 36.742L294.169 38H295.471V37ZM303.119 37V38H303.887L304.085 37.2581L303.119 37ZM306.863 22.984L307.829 23.2421L307.971 22.7115L307.599 22.3072L306.863 22.984ZM298.479 13.864L299.215 13.1872L298.625 12.5456L297.909 13.0422L298.479 13.864ZM285.327 22.984L284.757 22.1622L284.455 22.3714L284.361 22.7259L285.327 22.984ZM293.327 24.584L292.745 23.7709L290.212 25.584H293.327V24.584ZM296.143 22.568L296.902 21.9172L296.306 21.2215L295.561 21.7549L296.143 22.568ZM297.871 24.584V25.584H300.045L298.63 23.9332L297.871 24.584ZM281.583 38H289.199V36H281.583V38ZM290.165 37.258L291.925 30.666L289.993 30.15L288.233 36.742L290.165 37.258ZM290.959 31.408H297.231V29.408H290.959V31.408ZM296.265 30.15L294.505 36.742L296.437 37.258L298.197 30.666L296.265 30.15ZM295.471 38H303.119V36H295.471V38ZM304.085 37.2581L307.829 23.2421L305.897 22.7259L302.153 36.7419L304.085 37.2581ZM307.599 22.3072L299.215 13.1872L297.743 14.5408L306.127 23.6608L307.599 22.3072ZM297.909 13.0422L284.757 22.1622L285.897 23.8058L299.049 14.6858L297.909 13.0422ZM284.361 22.7259L280.617 36.7419L282.549 37.2581L286.293 23.2421L284.361 22.7259ZM293.909 25.3971L296.725 23.3811L295.561 21.7549L292.745 23.7709L293.909 25.3971ZM295.384 23.2188L297.112 25.2348L298.63 23.9332L296.902 21.9172L295.384 23.2188ZM297.871 23.584H293.327V25.584H297.871V23.584ZM318.179 23.56L318.918 22.8864L317.687 21.5365L317.213 23.3002L318.179 23.56ZM314.563 37V38H315.329L315.528 37.2598L314.563 37ZM306.947 37L305.981 36.7414L305.644 38H306.947V37ZM312.259 17.16L313.225 17.4186L313.34 16.9884L313.097 16.615L312.259 17.16ZM310.595 14.6V13.6H308.752L309.756 15.145L310.595 14.6ZM319.939 14.6L320.688 13.9375L320.389 13.6H319.939V14.6ZM326.307 21.8L325.558 22.4625L326.786 23.8519L327.272 22.0617L326.307 21.8ZM328.259 14.6V13.6H327.494L327.293 14.3383L328.259 14.6ZM335.907 14.6L336.872 14.8594L337.211 13.6H335.907V14.6ZM329.891 37V38H330.657L330.856 37.2594L329.891 37ZM322.243 37L321.277 36.7418L320.94 38H322.243V37ZM324.099 30.056L325.065 30.3142L325.206 29.7863L324.838 29.3824L324.099 30.056ZM317.213 23.3002L313.597 36.7402L315.528 37.2598L319.144 23.8198L317.213 23.3002ZM314.563 36H306.947V38H314.563V36ZM307.913 37.2586L313.225 17.4186L311.293 16.9014L305.981 36.7414L307.913 37.2586ZM313.097 16.615L311.433 14.055L309.756 15.145L311.42 17.705L313.097 16.615ZM310.595 15.6H319.939V13.6H310.595V15.6ZM319.19 15.2625L325.558 22.4625L327.056 21.1375L320.688 13.9375L319.19 15.2625ZM327.272 22.0617L329.224 14.8617L327.293 14.3383L325.341 21.5383L327.272 22.0617ZM328.259 15.6H335.907V13.6H328.259V15.6ZM334.941 14.3406L328.925 36.7406L330.856 37.2594L336.872 14.8594L334.941 14.3406ZM329.891 36H322.243V38H329.891V36ZM323.209 37.2582L325.065 30.3142L323.133 29.7978L321.277 36.7418L323.209 37.2582ZM324.838 29.3824L318.918 22.8864L317.44 24.2336L323.36 30.7296L324.838 29.3824ZM338.858 14.6V13.6H337.003L338.023 15.1498L338.858 14.6ZM357.29 14.6L358.074 13.9782L357.773 13.6H357.29V14.6ZM360.618 18.792L361.584 19.0504L361.714 18.5643L361.402 18.1702L360.618 18.792ZM356.938 32.552L357.554 33.3402L357.818 33.134L357.904 32.8104L356.938 32.552ZM351.242 37V38H351.587L351.858 37.7882L351.242 37ZM335.21 37L334.244 36.7418L333.908 38H335.21V37ZM340.522 17.128L341.488 17.3862L341.604 16.9529L341.358 16.5782L340.522 17.128ZM352.522 20.616L353.489 20.8733L353.823 19.616H352.522V20.616ZM347.21 20.616V19.616H346.442L346.244 20.3587L347.21 20.616ZM344.458 30.952L343.492 30.6947L343.157 31.952H344.458V30.952ZM349.77 30.952V31.952H350.539L350.737 31.2093L349.77 30.952ZM338.858 15.6H357.29V13.6H338.858V15.6ZM356.507 15.2218L359.835 19.4138L361.402 18.1702L358.074 13.9782L356.507 15.2218ZM359.652 18.5336L355.972 32.2936L357.904 32.8104L361.584 19.0504L359.652 18.5336ZM356.323 31.7638L350.627 36.2118L351.858 37.7882L357.554 33.3402L356.323 31.7638ZM351.242 36H335.21V38H351.242V36ZM336.176 37.2582L341.488 17.3862L339.556 16.8698L334.244 36.7418L336.176 37.2582ZM341.358 16.5782L339.694 14.0502L338.023 15.1498L339.687 17.6778L341.358 16.5782ZM352.522 19.616H347.21V21.616H352.522V19.616ZM346.244 20.3587L343.492 30.6947L345.425 31.2093L348.177 20.8733L346.244 20.3587ZM344.458 31.952H349.77V29.952H344.458V31.952ZM350.737 31.2093L353.489 20.8733L351.556 20.3587L348.804 30.6947L350.737 31.2093ZM372.675 30.984V29.984H371.907L371.709 30.727L372.675 30.984ZM371.075 37L370.109 36.743L369.775 38H371.075V37ZM388.739 37V38H389.508L389.706 37.257L388.739 37ZM390.339 30.984L391.306 31.241L391.64 29.984H390.339V30.984ZM384.003 30.984L383.038 30.7247L382.699 31.984H384.003V30.984ZM386.787 20.616V19.616H386.02L385.822 20.3567L386.787 20.616ZM393.123 20.616V21.616H393.888L394.089 20.8778L393.123 20.616ZM394.755 14.6L395.721 14.8618L396.063 13.6H394.755V14.6ZM377.091 14.6V13.6H376.327L376.126 14.3382L377.091 14.6ZM375.459 20.616L374.494 20.3542L374.152 21.616H375.459V20.616ZM379.171 20.616L380.137 20.8753L380.475 19.616H379.171V20.616ZM376.387 30.984V31.984H377.154L377.353 31.2433L376.387 30.984ZM371.709 30.727L370.109 36.743L372.042 37.257L373.642 31.241L371.709 30.727ZM371.075 38H388.739V36H371.075V38ZM389.706 37.257L391.306 31.241L389.373 30.727L387.773 36.743L389.706 37.257ZM390.339 29.984H384.003V31.984H390.339V29.984ZM384.969 31.2433L387.753 20.8753L385.822 20.3567L383.038 30.7247L384.969 31.2433ZM386.787 21.616H393.123V19.616H386.787V21.616ZM394.089 20.8778L395.721 14.8618L393.79 14.3382L392.158 20.3542L394.089 20.8778ZM394.755 13.6H377.091V15.6H394.755V13.6ZM376.126 14.3382L374.494 20.3542L376.425 20.8778L378.057 14.8618L376.126 14.3382ZM375.459 21.616H379.171V19.616H375.459V21.616ZM378.206 20.3567L375.422 30.7247L377.353 31.2433L380.137 20.8753L378.206 20.3567ZM376.387 29.984H372.675V31.984H376.387V29.984ZM396.207 37L395.241 36.7415L394.905 38H396.207V37ZM403.823 37V38H404.591L404.789 37.2585L403.823 37ZM408.207 20.616V19.616H407.44L407.241 20.3575L408.207 20.616ZM414.543 20.616V21.616H415.308L415.508 20.8778L414.543 20.616ZM416.175 14.6L417.14 14.8618L417.483 13.6H416.175V14.6ZM398.511 14.6V13.6H397.746L397.546 14.3382L398.511 14.6ZM396.879 20.616L395.914 20.3542L395.572 21.616H396.879V20.616ZM400.591 20.616L401.557 20.8745L401.894 19.616H400.591V20.616ZM396.207 38H403.823V36H396.207V38ZM404.789 37.2585L409.173 20.8745L407.241 20.3575L402.857 36.7415L404.789 37.2585ZM408.207 21.616H414.543V19.616H408.207V21.616ZM415.508 20.8778L417.14 14.8618L415.21 14.3382L413.578 20.3542L415.508 20.8778ZM416.175 13.6H398.511V15.6H416.175V13.6ZM397.546 14.3382L395.914 20.3542L397.844 20.8778L399.476 14.8618L397.546 14.3382ZM396.879 21.616H400.591V19.616H396.879V21.616ZM399.625 20.3575L395.241 36.7415L397.173 37.2585L401.557 20.8745L399.625 20.3575ZM423.131 30.984L422.167 30.7188L421.819 31.984H423.131V30.984ZM433.051 30.984L434.018 31.241L434.352 29.984H433.051V30.984ZM431.451 37V38H432.22L432.418 37.257L431.451 37ZM418.395 37L417.615 37.6254L417.915 38H418.395V37ZM415.035 32.808L414.07 32.5483L413.938 33.0379L414.255 33.4334L415.035 32.808ZM419.931 14.6V13.6H419.165L418.966 14.3403L419.931 14.6ZM437.467 14.6L438.433 14.8605L438.773 13.6H437.467V14.6ZM435.835 20.648V21.648H436.601L436.801 20.9085L435.835 20.648ZM425.915 20.648V19.648H425.153L424.951 20.3836L425.915 20.648ZM425.371 22.632L424.407 22.3676L424.06 23.632H425.371V22.632ZM435.291 22.632L436.258 22.8883L436.591 21.632H435.291V22.632ZM433.755 28.424V29.424H434.525L434.722 28.6803L433.755 28.424ZM423.835 28.424V27.424H423.073L422.871 28.1588L423.835 28.424ZM423.131 31.984H433.051V29.984H423.131V31.984ZM432.085 30.727L430.485 36.743L432.418 37.257L434.018 31.241L432.085 30.727ZM431.451 36H418.395V38H431.451V36ZM419.176 36.3746L415.816 32.1826L414.255 33.4334L417.615 37.6254L419.176 36.3746ZM416.001 33.0677L420.897 14.8597L418.966 14.3403L414.07 32.5483L416.001 33.0677ZM419.931 15.6H437.467V13.6H419.931V15.6ZM436.502 14.3395L434.87 20.3875L436.801 20.9085L438.433 14.8605L436.502 14.3395ZM435.835 19.648H425.915V21.648H435.835V19.648ZM424.951 20.3836L424.407 22.3676L426.336 22.8964L426.88 20.9124L424.951 20.3836ZM425.371 23.632H435.291V21.632H425.371V23.632ZM434.325 22.3757L432.789 28.1677L434.722 28.6803L436.258 22.8883L434.325 22.3757ZM433.755 27.424H423.835V29.424H433.755V27.424ZM422.871 28.1588L422.167 30.7188L424.096 31.2492L424.8 28.6892L422.871 28.1588ZM457.836 45.032L457.102 45.711L458.334 47.043L458.802 45.29L457.836 45.032ZM451.916 38.632L450.95 38.373L450.807 38.9059L451.182 39.311L451.916 38.632ZM456.044 23.24L457.01 23.499L457.741 20.7726L455.456 22.4307L456.044 23.24ZM450.092 27.56L449.328 28.2052L449.927 28.9151L450.679 28.3693L450.092 27.56ZM446.444 23.24L447.208 22.5948L445.973 21.1319L445.478 22.9816L446.444 23.24ZM442.764 37V38H443.532L443.73 37.2584L442.764 37ZM435.148 37L434.182 36.7406L433.844 38H435.148V37ZM441.164 14.6V13.6H440.397L440.198 14.3406L441.164 14.6ZM448.588 14.6L449.309 13.9073L449.014 13.6H448.588V14.6ZM452.46 18.632L451.739 19.3247L452.297 19.9066L452.984 19.4834L452.46 18.632ZM459.212 14.472L459.767 13.6399L459.233 13.2843L458.687 13.6206L459.212 14.472ZM464.972 18.312L465.938 18.57L466.123 17.8775L465.527 17.4799L464.972 18.312ZM458.57 44.353L452.65 37.953L451.182 39.311L457.102 45.711L458.57 44.353ZM452.882 38.891L457.01 23.499L455.078 22.981L450.95 38.373L452.882 38.891ZM455.456 22.4307L449.504 26.7507L450.679 28.3693L456.631 24.0493L455.456 22.4307ZM450.856 26.9148L447.208 22.5948L445.68 23.8852L449.328 28.2052L450.856 26.9148ZM445.478 22.9816L441.798 36.7416L443.73 37.2584L447.41 23.4984L445.478 22.9816ZM442.764 36H435.148V38H442.764V36ZM436.114 37.2594L442.13 14.8594L440.198 14.3406L434.182 36.7406L436.114 37.2594ZM441.164 15.6H448.588V13.6H441.164V15.6ZM447.867 15.2926L451.739 19.3247L453.181 17.9393L449.309 13.9073L447.867 15.2926ZM452.984 19.4834L459.736 15.3234L458.687 13.6206L451.935 17.7806L452.984 19.4834ZM458.657 15.304L464.417 19.144L465.527 17.4799L459.767 13.6399L458.657 15.304ZM464.006 18.054L456.87 44.774L458.802 45.29L465.938 18.57L464.006 18.054ZM488.132 23.56L488.872 22.8864L487.641 21.5365L487.167 23.3002L488.132 23.56ZM484.516 37V38H485.283L485.482 37.2598L484.516 37ZM476.9 37L475.934 36.7414L475.597 38H476.9V37ZM482.212 17.16L483.178 17.4186L483.294 16.9884L483.051 16.615L482.212 17.16ZM480.548 14.6V13.6H478.706L479.71 15.145L480.548 14.6ZM489.892 14.6L490.641 13.9375L490.343 13.6H489.892V14.6ZM496.26 21.8L495.511 22.4625L496.74 23.8519L497.226 22.0617L496.26 21.8ZM498.212 14.6V13.6H497.447L497.247 14.3383L498.212 14.6ZM505.86 14.6L506.826 14.8594L507.164 13.6H505.86V14.6ZM499.844 37V38H500.611L500.81 37.2594L499.844 37ZM492.196 37L491.23 36.7418L490.894 38H492.196V37ZM494.052 30.056L495.018 30.3142L495.16 29.7863L494.792 29.3824L494.052 30.056ZM487.167 23.3002L483.551 36.7402L485.482 37.2598L489.098 23.8198L487.167 23.3002ZM484.516 36H476.9V38H484.516V36ZM477.866 37.2586L483.178 17.4186L481.246 16.9014L475.934 36.7414L477.866 37.2586ZM483.051 16.615L481.387 14.055L479.71 15.145L481.374 17.705L483.051 16.615ZM480.548 15.6H489.892V13.6H480.548V15.6ZM489.143 15.2625L495.511 22.4625L497.009 21.1375L490.641 13.9375L489.143 15.2625ZM497.226 22.0617L499.178 14.8617L497.247 14.3383L495.295 21.5383L497.226 22.0617ZM498.212 15.6H505.86V13.6H498.212V15.6ZM504.895 14.3406L498.879 36.7406L500.81 37.2594L506.826 14.8594L504.895 14.3406ZM499.844 36H492.196V38H499.844V36ZM493.162 37.2582L495.018 30.3142L493.086 29.7978L491.23 36.7418L493.162 37.2582ZM494.792 29.3824L488.872 22.8864L487.393 24.2336L493.313 30.7296L494.792 29.3824ZM505.068 38.632L504.102 38.3734L503.96 38.9062L504.334 39.311L505.068 38.632ZM510.988 45.032L510.254 45.711L511.487 47.0436L511.954 45.2897L510.988 45.032ZM515.468 28.232V27.232H514.7L514.502 27.9743L515.468 28.232ZM525.196 28.232V29.232H525.961L526.161 28.4937L525.196 28.232ZM526.732 22.568L527.697 22.8297L528.039 21.568H526.732V22.568ZM517.004 22.568L516.037 22.3143L515.708 23.568H517.004V22.568ZM517.516 20.616V19.616H516.745L516.549 20.3623L517.516 20.616ZM527.276 20.616V21.616H528.041L528.241 20.8778L527.276 20.616ZM528.908 14.6L529.873 14.8618L530.216 13.6H528.908V14.6ZM511.532 14.6V13.6H510.766L510.566 14.3402L511.532 14.6ZM509.388 22.568V23.568H510.155L510.354 22.8278L509.388 22.568ZM507.436 22.568V21.568H506.671L506.471 22.3063L507.436 22.568ZM505.9 28.232L504.935 27.9703L504.593 29.232H505.9V28.232ZM507.852 28.232L508.818 28.4906L509.155 27.232H507.852V28.232ZM504.334 39.311L510.254 45.711L511.722 44.353L505.802 37.953L504.334 39.311ZM511.954 45.2897L516.434 28.4897L514.502 27.9743L510.022 44.7743L511.954 45.2897ZM515.468 29.232H525.196V27.232H515.468V29.232ZM526.161 28.4937L527.697 22.8297L525.767 22.3063L524.231 27.9703L526.161 28.4937ZM526.732 21.568H517.004V23.568H526.732V21.568ZM517.971 22.8217L518.483 20.8697L516.549 20.3623L516.037 22.3143L517.971 22.8217ZM517.516 21.616H527.276V19.616H517.516V21.616ZM528.241 20.8778L529.873 14.8618L527.943 14.3382L526.311 20.3542L528.241 20.8778ZM528.908 13.6H511.532V15.6H528.908V13.6ZM510.566 14.3402L508.422 22.3082L510.354 22.8278L512.498 14.8598L510.566 14.3402ZM509.388 21.568H507.436V23.568H509.388V21.568ZM506.471 22.3063L504.935 27.9703L506.865 28.4937L508.401 22.8297L506.471 22.3063ZM505.9 29.232H507.852V27.232H505.9V29.232ZM506.886 27.9734L504.102 38.3734L506.034 38.8906L508.818 28.4906L506.886 27.9734ZM540.561 37V38H541.329L541.527 37.2585L540.561 37ZM532.977 37L532.011 36.7415L531.674 38H532.977V37ZM537.361 20.616L538.327 20.8745L538.664 19.616H537.361V20.616ZM530.993 20.616L530.028 20.3542L529.686 21.616H530.993V20.616ZM532.625 14.6V13.6H531.86L531.66 14.3382L532.625 14.6ZM550.289 14.6L551.254 14.8618L551.597 13.6H550.289V14.6ZM548.657 20.616V21.616H549.422L549.622 20.8778L548.657 20.616ZM544.945 20.616V19.616H544.178L543.979 20.3575L544.945 20.616ZM540.561 36H532.977V38H540.561V36ZM533.943 37.2585L538.327 20.8745L536.395 20.3575L532.011 36.7415L533.943 37.2585ZM537.361 19.616H530.993V21.616H537.361V19.616ZM531.958 20.8778L533.59 14.8618L531.66 14.3382L530.028 20.3542L531.958 20.8778ZM532.625 15.6H550.289V13.6H532.625V15.6ZM549.324 14.3382L547.692 20.3542L549.622 20.8778L551.254 14.8618L549.324 14.3382ZM548.657 19.616H544.945V21.616H548.657V19.616ZM543.979 20.3575L539.595 36.7415L541.527 37.2585L545.911 20.8745L543.979 20.3575ZM560.483 30.696V31.696H562.481L561.284 30.0968L560.483 30.696ZM549.475 30.696V29.696H548.709L548.509 30.4362L549.475 30.696ZM547.779 37L546.813 36.7402L546.475 38H547.779V37ZM564.515 37V38H564.976L565.275 37.6495L564.515 37ZM569.955 30.632L570.715 31.2815L571.237 30.6714L570.754 30.0304L569.955 30.632ZM562.435 20.648V19.648H560.43L561.636 21.2496L562.435 20.648ZM572.675 20.648V21.648H573.441L573.641 20.9085L572.675 20.648ZM574.307 14.6L575.273 14.8605L575.613 13.6H574.307V14.6ZM557.539 14.6V13.6H557.118L556.823 13.9016L557.539 14.6ZM552.387 19.88L551.671 19.1816L551.074 19.7941L551.587 20.4792L552.387 19.88ZM560.483 29.696H549.475V31.696H560.483V29.696ZM548.509 30.4362L546.813 36.7402L548.745 37.2598L550.441 30.9558L548.509 30.4362ZM547.779 38H564.515V36H547.779V38ZM565.275 37.6495L570.715 31.2815L569.195 29.9825L563.755 36.3505L565.275 37.6495ZM570.754 30.0304L563.234 20.0464L561.636 21.2496L569.156 31.2336L570.754 30.0304ZM562.435 21.648H572.675V19.648H562.435V21.648ZM573.641 20.9085L575.273 14.8605L573.342 14.3395L571.71 20.3875L573.641 20.9085ZM574.307 13.6H557.539V15.6H574.307V13.6ZM556.823 13.9016L551.671 19.1816L553.103 20.5784L558.255 15.2984L556.823 13.9016ZM551.587 20.4792L559.683 31.2952L561.284 30.0968L553.188 19.2808L551.587 20.4792ZM616.194 8.2L617.16 8.45873L617.862 5.84075L615.628 7.37587L616.194 8.2ZM606.882 14.6L606.316 13.7759L606.013 13.9843L605.917 14.3395L606.882 14.6ZM603.17 28.36L602.404 29.0019L603.636 30.474L604.136 28.6205L603.17 28.36ZM599.554 24.04L600.321 23.3981L599.724 22.6844L598.969 23.2292L599.554 24.04ZM593.57 28.36L592.605 28.0995L591.871 30.8202L594.156 29.1708L593.57 28.36ZM597.282 14.6L598.248 14.8605L598.588 13.6H597.282V14.6ZM589.666 14.6V13.6H588.9L588.701 14.3406L589.666 14.6ZM583.65 37L582.685 36.7406L582.346 38H583.65V37ZM591.074 37V38H591.377L591.629 37.8321L591.074 37ZM597.122 32.968L597.8 32.2328L597.222 31.6997L596.568 32.1359L597.122 32.968ZM601.634 37.128L600.957 37.8632L601.46 38.3271L602.074 38.0261L601.634 37.128ZM609.474 33.288L609.914 34.1861L610.323 33.986L610.44 33.5467L609.474 33.288ZM615.628 7.37587L606.316 13.7759L607.449 15.4241L616.761 9.02412L615.628 7.37587ZM605.917 14.3395L602.205 28.0995L604.136 28.6205L607.848 14.8605L605.917 14.3395ZM603.937 27.7181L600.321 23.3981L598.788 24.6819L602.404 29.0019L603.937 27.7181ZM598.969 23.2292L592.985 27.5492L594.156 29.1708L600.14 24.8508L598.969 23.2292ZM594.536 28.6205L598.248 14.8605L596.317 14.3395L592.605 28.0995L594.536 28.6205ZM597.282 13.6H589.666V15.6H597.282V13.6ZM588.701 14.3406L582.685 36.7406L584.616 37.2594L590.632 14.8594L588.701 14.3406ZM583.65 38H591.074V36H583.65V38ZM591.629 37.8321L597.677 33.8001L596.568 32.1359L590.52 36.1679L591.629 37.8321ZM596.445 33.7032L600.957 37.8632L602.312 36.3928L597.8 32.2328L596.445 33.7032ZM602.074 38.0261L609.914 34.1861L609.035 32.3899L601.195 36.2299L602.074 38.0261ZM610.44 33.5467L617.16 8.45873L615.228 7.94126L608.508 33.0293L610.44 33.5467ZM624.995 37L624.029 36.7426L623.694 38H624.995V37ZM627.331 28.232L628.298 28.4894L628.633 27.232H627.331V28.232ZM624.099 28.232V27.232H623.331L623.133 27.9746L624.099 28.232ZM621.763 37V38H622.532L622.73 37.2574L621.763 37ZM614.147 37L613.181 36.7426L612.846 38H614.147V37ZM616.483 28.232L617.45 28.4894L617.785 27.232H616.483V28.232ZM614.531 28.232L613.566 27.9703L613.224 29.232H614.531V28.232ZM616.067 22.568V21.568H615.302L615.102 22.3063L616.067 22.568ZM618.019 22.568V23.568H618.786L618.985 22.8278L618.019 22.568ZM620.163 14.6V13.6H619.397L619.198 14.3402L620.163 14.6ZM627.779 14.6L628.745 14.8598L629.084 13.6H627.779V14.6ZM625.635 22.568L624.67 22.3082L624.331 23.568H625.635V22.568ZM628.867 22.568V23.568H629.635L629.834 22.8259L628.867 22.568ZM631.011 14.536V13.536H630.243L630.045 14.2781L631.011 14.536ZM638.595 14.536L639.561 14.7947L639.898 13.536H638.595V14.536ZM632.579 37V38H633.347L633.545 37.2587L632.579 37ZM625.962 37.2574L628.298 28.4894L626.365 27.9746L624.029 36.7426L625.962 37.2574ZM627.331 27.232H624.099V29.232H627.331V27.232ZM623.133 27.9746L620.797 36.7426L622.73 37.2574L625.066 28.4894L623.133 27.9746ZM621.763 36H614.147V38H621.763V36ZM615.114 37.2574L617.45 28.4894L615.517 27.9746L613.181 36.7426L615.114 37.2574ZM616.483 27.232H614.531V29.232H616.483V27.232ZM615.497 28.4937L617.033 22.8297L615.102 22.3063L613.566 27.9703L615.497 28.4937ZM616.067 23.568H618.019V21.568H616.067V23.568ZM618.985 22.8278L621.129 14.8598L619.198 14.3402L617.054 22.3082L618.985 22.8278ZM620.163 15.6H627.779V13.6H620.163V15.6ZM626.814 14.3402L624.67 22.3082L626.601 22.8278L628.745 14.8598L626.814 14.3402ZM625.635 23.568H628.867V21.568H625.635V23.568ZM629.834 22.8259L631.978 14.7939L630.045 14.2781L627.901 22.3101L629.834 22.8259ZM631.011 15.536H638.595V13.536H631.011V15.536ZM637.629 14.2773L631.613 36.7413L633.545 37.2587L639.561 14.7947L637.629 14.2773ZM632.579 36H624.995V38H632.579V36ZM651.566 14.568L652.532 14.827L652.87 13.568H651.566V14.568ZM645.55 37V38H646.317L646.516 37.259L645.55 37ZM637.934 37L636.968 36.7418L636.632 38H637.934V37ZM643.246 17.128L644.212 17.3862L644.327 16.9562L644.085 16.583L643.246 17.128ZM641.582 14.568V13.568H639.739L640.744 15.113L641.582 14.568ZM650.6 14.309L644.584 36.741L646.516 37.259L652.532 14.827L650.6 14.309ZM645.55 36H637.934V38H645.55V36ZM638.9 37.2582L644.212 17.3862L642.28 16.8698L636.968 36.7418L638.9 37.2582ZM644.085 16.583L642.421 14.023L640.744 15.113L642.408 17.673L644.085 16.583ZM641.582 15.568H651.566V13.568H641.582V15.568ZM658.501 30.984L657.535 30.7254L657.199 31.984H658.501V30.984ZM668.421 30.984L669.388 31.241L669.722 29.984H668.421V30.984ZM666.821 37V38H667.59L667.788 37.257L666.821 37ZM653.765 37L652.985 37.6254L653.285 38H653.765V37ZM650.405 32.808L649.44 32.5483L649.308 33.0379L649.625 33.4334L650.405 32.808ZM655.301 14.6V13.6H654.535L654.336 14.3403L655.301 14.6ZM672.837 14.6L673.802 14.8631L674.147 13.6H672.837V14.6ZM671.205 20.584V21.584H671.969L672.17 20.8471L671.205 20.584ZM661.285 20.584V19.584H660.518L660.319 20.3254L661.285 20.584ZM658.501 31.984H668.421V29.984H658.501V31.984ZM667.455 30.727L665.855 36.743L667.788 37.257L669.388 31.241L667.455 30.727ZM666.821 36H653.765V38H666.821V36ZM654.546 36.3746L651.186 32.1826L649.625 33.4334L652.985 37.6254L654.546 36.3746ZM651.371 33.0677L656.267 14.8597L654.336 14.3403L649.44 32.5483L651.371 33.0677ZM655.301 15.6H672.837V13.6H655.301V15.6ZM671.873 14.3369L670.241 20.3209L672.17 20.8471L673.802 14.8631L671.873 14.3369ZM671.205 19.584H661.285V21.584H671.205V19.584ZM660.319 20.3254L657.535 30.7254L659.467 31.2426L662.251 20.8426L660.319 20.3254ZM681.787 37L680.82 36.7426L680.485 38H681.787V37ZM684.123 28.232L685.089 28.4894L685.424 27.232H684.123V28.232ZM680.891 28.232V27.232H680.122L679.924 27.9746L680.891 28.232ZM678.555 37V38H679.323L679.521 37.2574L678.555 37ZM670.939 37L669.972 36.7426L669.637 38H670.939V37ZM673.275 28.232L674.241 28.4894L674.576 27.232H673.275V28.232ZM671.323 28.232L670.357 27.9703L670.015 29.232H671.323V28.232ZM672.859 22.568V21.568H672.094L671.893 22.3063L672.859 22.568ZM674.811 22.568V23.568H675.577L675.776 22.8278L674.811 22.568ZM676.955 14.6V13.6H676.188L675.989 14.3402L676.955 14.6ZM684.571 14.6L685.536 14.8598L685.875 13.6H684.571V14.6ZM682.427 22.568L681.461 22.3082L681.122 23.568H682.427V22.568ZM685.659 22.568V23.568H686.427L686.625 22.8259L685.659 22.568ZM687.803 14.536V13.536H687.035L686.836 14.2781L687.803 14.536ZM695.387 14.536L696.353 14.7947L696.69 13.536H695.387V14.536ZM689.371 37V38H690.138L690.337 37.2587L689.371 37ZM682.753 37.2574L685.089 28.4894L683.156 27.9746L680.82 36.7426L682.753 37.2574ZM684.123 27.232H680.891V29.232H684.123V27.232ZM679.924 27.9746L677.588 36.7426L679.521 37.2574L681.857 28.4894L679.924 27.9746ZM678.555 36H670.939V38H678.555V36ZM671.905 37.2574L674.241 28.4894L672.308 27.9746L669.972 36.7426L671.905 37.2574ZM673.275 27.232H671.323V29.232H673.275V27.232ZM672.288 28.4937L673.824 22.8297L671.893 22.3063L670.357 27.9703L672.288 28.4937ZM672.859 23.568H674.811V21.568H672.859V23.568ZM675.776 22.8278L677.92 14.8598L675.989 14.3402L673.845 22.3082L675.776 22.8278ZM676.955 15.6H684.571V13.6H676.955V15.6ZM683.605 14.3402L681.461 22.3082L683.392 22.8278L685.536 14.8598L683.605 14.3402ZM682.427 23.568H685.659V21.568H682.427V23.568ZM686.625 22.8259L688.769 14.7939L686.836 14.2781L684.692 22.3101L686.625 22.8259ZM687.803 15.536H695.387V13.536H687.803V15.536ZM694.421 14.2773L688.405 36.7413L690.337 37.2587L696.353 14.7947L694.421 14.2773ZM689.371 36H681.787V38H689.371V36ZM713.949 30.984L712.983 30.7254L712.646 31.984H713.949V30.984ZM723.869 30.984L724.835 31.241L725.17 29.984H723.869V30.984ZM722.269 37V38H723.038L723.235 37.257L722.269 37ZM709.213 37L708.433 37.6254L708.733 38H709.213V37ZM705.853 32.808L704.887 32.5483L704.756 33.0379L705.073 33.4334L705.853 32.808ZM710.749 14.6V13.6H709.982L709.783 14.3403L710.749 14.6ZM728.285 14.6L729.25 14.8631L729.594 13.6H728.285V14.6ZM726.653 20.584V21.584H727.417L727.618 20.8471L726.653 20.584ZM716.733 20.584V19.584H715.965L715.767 20.3254L716.733 20.584ZM713.949 31.984H723.869V29.984H713.949V31.984ZM722.902 30.727L721.302 36.743L723.235 37.257L724.835 31.241L722.902 30.727ZM722.269 36H709.213V38H722.269V36ZM709.993 36.3746L706.633 32.1826L705.073 33.4334L708.433 37.6254L709.993 36.3746ZM706.819 33.0677L711.715 14.8597L709.783 14.3403L704.887 32.5483L706.819 33.0677ZM710.749 15.6H728.285V13.6H710.749V15.6ZM727.32 14.3369L725.688 20.3209L727.618 20.8471L729.25 14.8631L727.32 14.3369ZM726.653 19.584H716.733V21.584H726.653V19.584ZM715.767 20.3254L712.983 30.7254L714.915 31.2426L717.699 20.8426L715.767 20.3254ZM725.965 37L724.999 36.7419L724.663 38H725.965V37ZM733.581 37V38H734.349L734.548 37.258L733.581 37ZM735.341 30.408V29.408H734.573L734.375 30.15L735.341 30.408ZM741.613 30.408L742.58 30.666L742.915 29.408H741.613V30.408ZM739.853 37L738.887 36.742L738.551 38H739.853V37ZM747.501 37V38H748.269L748.468 37.2581L747.501 37ZM751.245 22.984L752.212 23.2421L752.353 22.7115L751.982 22.3072L751.245 22.984ZM742.861 13.864L743.598 13.1872L743.008 12.5456L742.292 13.0422L742.861 13.864ZM729.709 22.984L729.14 22.1622L728.838 22.3714L728.743 22.7259L729.709 22.984ZM737.709 24.584L737.127 23.7709L734.595 25.584H737.709V24.584ZM740.525 22.568L741.285 21.9172L740.688 21.2215L739.943 21.7549L740.525 22.568ZM742.253 24.584V25.584H744.428L743.013 23.9332L742.253 24.584ZM725.965 38H733.581V36H725.965V38ZM734.548 37.258L736.308 30.666L734.375 30.15L732.615 36.742L734.548 37.258ZM735.341 31.408H741.613V29.408H735.341V31.408ZM740.647 30.15L738.887 36.742L740.82 37.258L742.58 30.666L740.647 30.15ZM739.853 38H747.501V36H739.853V38ZM748.468 37.2581L752.212 23.2421L750.279 22.7259L746.535 36.7419L748.468 37.2581ZM751.982 22.3072L743.598 13.1872L742.125 14.5408L750.509 23.6608L751.982 22.3072ZM742.292 13.0422L729.14 22.1622L730.279 23.8058L743.431 14.6858L742.292 13.0422ZM728.743 22.7259L724.999 36.7419L726.932 37.2581L730.676 23.2421L728.743 22.7259ZM738.292 25.3971L741.108 23.3811L739.943 21.7549L737.127 23.7709L738.292 25.3971ZM739.766 23.2188L741.494 25.2348L743.013 23.9332L741.285 21.9172L739.766 23.2188ZM742.253 23.584H737.709V25.584H742.253V23.584ZM762.561 23.56L763.3 22.8864L762.07 21.5365L761.595 23.3002L762.561 23.56ZM758.945 37V38H759.712L759.911 37.2598L758.945 37ZM751.329 37L750.363 36.7414L750.026 38H751.329V37ZM756.641 17.16L757.607 17.4186L757.722 16.9884L757.48 16.615L756.641 17.16ZM754.977 14.6V13.6H753.134L754.139 15.145L754.977 14.6ZM764.321 14.6L765.07 13.9375L764.772 13.6H764.321V14.6ZM770.689 21.8L769.94 22.4625L771.169 23.8519L771.654 22.0617L770.689 21.8ZM772.641 14.6V13.6H771.876L771.676 14.3383L772.641 14.6ZM780.289 14.6L781.255 14.8594L781.593 13.6H780.289V14.6ZM774.273 37V38H775.04L775.239 37.2594L774.273 37ZM766.625 37L765.659 36.7418L765.323 38H766.625V37ZM768.481 30.056L769.447 30.3142L769.588 29.7863L769.22 29.3824L768.481 30.056ZM761.595 23.3002L757.979 36.7402L759.911 37.2598L763.527 23.8198L761.595 23.3002ZM758.945 36H751.329V38H758.945V36ZM752.295 37.2586L757.607 17.4186L755.675 16.9014L750.363 36.7414L752.295 37.2586ZM757.48 16.615L755.816 14.055L754.139 15.145L755.803 17.705L757.48 16.615ZM754.977 15.6H764.321V13.6H754.977V15.6ZM763.572 15.2625L769.94 22.4625L771.438 21.1375L765.07 13.9375L763.572 15.2625ZM771.654 22.0617L773.606 14.8617L771.676 14.3383L769.724 21.5383L771.654 22.0617ZM772.641 15.6H780.289V13.6H772.641V15.6ZM779.323 14.3406L773.307 36.7406L775.239 37.2594L781.255 14.8594L779.323 14.3406ZM774.273 36H766.625V38H774.273V36ZM767.591 37.2582L769.447 30.3142L767.515 29.7978L765.659 36.7418L767.591 37.2582ZM769.22 29.3824L763.3 22.8864L761.822 24.2336L767.742 30.7296L769.22 29.3824ZM811.648 37V38H812.416L812.614 37.2585L811.648 37ZM791.2 37L790.234 36.7414L789.897 38H791.2V37ZM796.512 17.16L797.478 17.4186L797.594 16.9884L797.351 16.615L796.512 17.16ZM794.848 14.6V13.6H793.006L794.01 15.145L794.848 14.6ZM809.632 14.6L810.137 13.7369L809.903 13.6H809.632V14.6ZM816.576 18.664L817.159 19.4767L818.411 18.579L817.081 17.8009L816.576 18.664ZM810.016 23.368L809.434 22.5553L806.906 24.368H810.016V23.368ZM815.296 23.368L816.262 23.6265L816.599 22.368H815.296V23.368ZM805.664 30.984V31.984H806.429L806.629 31.2457L805.664 30.984ZM806.176 29.096L807.141 29.3577L807.484 28.096H806.176V29.096ZM800.928 29.096V28.096H800.163L799.963 28.8343L800.928 29.096ZM800.416 30.984L799.451 30.7223L799.109 31.984H800.416V30.984ZM803.2 20.616V19.616H802.435L802.235 20.3543L803.2 20.616ZM802.688 22.504L801.723 22.2423L801.084 24.5993L803.193 23.3675L802.688 22.504ZM805.92 20.616L806.425 21.4795L809.615 19.616H805.92V20.616ZM811.648 36H791.2V38H811.648V36ZM792.166 37.2586L797.478 17.4186L795.546 16.9014L790.234 36.7414L792.166 37.2586ZM797.351 16.615L795.687 14.055L794.01 15.145L795.674 17.705L797.351 16.615ZM794.848 15.6H809.632V13.6H794.848V15.6ZM809.127 15.4631L816.071 19.5271L817.081 17.8009L810.137 13.7369L809.127 15.4631ZM815.994 17.8513L809.434 22.5553L810.599 24.1807L817.159 19.4767L815.994 17.8513ZM810.016 24.368H815.296V22.368H810.016V24.368ZM814.33 23.1095L810.682 36.7415L812.614 37.2585L816.262 23.6265L814.33 23.1095ZM806.629 31.2457L807.141 29.3577L805.211 28.8343L804.699 30.7223L806.629 31.2457ZM806.176 28.096H800.928V30.096H806.176V28.096ZM799.963 28.8343L799.451 30.7223L801.381 31.2457L801.893 29.3577L799.963 28.8343ZM800.416 31.984H805.664V29.984H800.416V31.984ZM802.235 20.3543L801.723 22.2423L803.653 22.7657L804.165 20.8777L802.235 20.3543ZM803.193 23.3675L806.425 21.4795L805.416 19.7525L802.184 21.6405L803.193 23.3675ZM805.92 19.616H803.2V21.616H805.92V19.616ZM824.611 30.984L823.647 30.7188L823.299 31.984H824.611V30.984ZM834.531 30.984L835.498 31.241L835.832 29.984H834.531V30.984ZM832.931 37V38H833.7L833.898 37.257L832.931 37ZM819.875 37L819.095 37.6254L819.395 38H819.875V37ZM816.515 32.808L815.55 32.5483L815.418 33.0379L815.735 33.4334L816.515 32.808ZM821.411 14.6V13.6H820.645L820.446 14.3403L821.411 14.6ZM838.947 14.6L839.913 14.8605L840.253 13.6H838.947V14.6ZM837.315 20.648V21.648H838.081L838.281 20.9085L837.315 20.648ZM827.395 20.648V19.648H826.633L826.431 20.3836L827.395 20.648ZM826.851 22.632L825.887 22.3676L825.54 23.632H826.851V22.632ZM836.771 22.632L837.738 22.8883L838.071 21.632H836.771V22.632ZM835.235 28.424V29.424H836.005L836.202 28.6803L835.235 28.424ZM825.315 28.424V27.424H824.553L824.351 28.1588L825.315 28.424ZM824.611 31.984H834.531V29.984H824.611V31.984ZM833.565 30.727L831.965 36.743L833.898 37.257L835.498 31.241L833.565 30.727ZM832.931 36H819.875V38H832.931V36ZM820.656 36.3746L817.296 32.1826L815.735 33.4334L819.095 37.6254L820.656 36.3746ZM817.481 33.0677L822.377 14.8597L820.446 14.3403L815.55 32.5483L817.481 33.0677ZM821.411 15.6H838.947V13.6H821.411V15.6ZM837.982 14.3395L836.35 20.3875L838.281 20.9085L839.913 14.8605L837.982 14.3395ZM837.315 19.648H827.395V21.648H837.315V19.648ZM826.431 20.3836L825.887 22.3676L827.816 22.8964L828.36 20.9124L826.431 20.3836ZM826.851 23.632H836.771V21.632H826.851V23.632ZM835.805 22.3757L834.269 28.1677L836.202 28.6803L837.738 22.8883L835.805 22.3757ZM835.235 27.424H825.315V29.424H835.235V27.424ZM824.351 28.1588L823.647 30.7188L825.576 31.2492L826.28 28.6892L824.351 28.1588ZM257.964 78.632L256.998 78.3734L256.855 78.9062L257.23 79.311L257.964 78.632ZM260.748 68.232L261.714 68.4906L262.051 67.232H260.748V68.232ZM258.796 68.232L257.831 67.9703L257.488 69.232H258.796V68.232ZM260.332 62.568V61.568H259.567L259.367 62.3063L260.332 62.568ZM262.284 62.568V63.568H263.05L263.249 62.8278L262.284 62.568ZM264.428 54.6V53.6H263.661L263.462 54.3402L264.428 54.6ZM282.316 54.6L283.281 54.8606L283.622 53.6H282.316V54.6ZM278.636 68.232V69.232H279.402L279.601 68.4926L278.636 68.232ZM268.364 68.232V67.232H267.595L267.398 67.9743L268.364 68.232ZM263.884 85.032L263.15 85.711L264.382 87.0436L264.85 85.2897L263.884 85.032ZM273.068 60.616L274.035 60.8697L274.364 59.616H273.068V60.616ZM270.412 60.616V59.616H269.64L269.444 60.3623L270.412 60.616ZM269.9 62.568L268.932 62.3143L268.604 63.568H269.9V62.568ZM272.556 62.568V63.568H273.327L273.523 62.8217L272.556 62.568ZM258.93 78.8906L261.714 68.4906L259.782 67.9734L256.998 78.3734L258.93 78.8906ZM260.748 67.232H258.796V69.232H260.748V67.232ZM259.761 68.4937L261.297 62.8297L259.367 62.3063L257.831 67.9703L259.761 68.4937ZM260.332 63.568H262.284V61.568H260.332V63.568ZM263.249 62.8278L265.393 54.8598L263.462 54.3402L261.318 62.3082L263.249 62.8278ZM264.428 55.6H282.316V53.6H264.428V55.6ZM281.35 54.3394L277.67 67.9714L279.601 68.4926L283.281 54.8606L281.35 54.3394ZM278.636 67.232H268.364V69.232H278.636V67.232ZM267.398 67.9743L262.918 84.7743L264.85 85.2897L269.33 68.4897L267.398 67.9743ZM264.618 84.353L258.698 77.953L257.23 79.311L263.15 85.711L264.618 84.353ZM273.068 59.616H270.412V61.616H273.068V59.616ZM269.444 60.3623L268.932 62.3143L270.867 62.8217L271.379 60.8697L269.444 60.3623ZM269.9 63.568H272.556V61.568H269.9V63.568ZM273.523 62.8217L274.035 60.8697L272.1 60.3623L271.588 62.3143L273.523 62.8217ZM295.237 54.6L296.202 54.8602L296.542 53.6H295.237V54.6ZM290.821 70.984L289.855 70.7238L289.516 71.984H290.821V70.984ZM298.373 70.984L299.339 71.241L299.673 69.984H298.373V70.984ZM296.773 77V78H297.542L297.739 77.257L296.773 77ZM286.085 77L285.304 77.6254L285.605 78H286.085V77ZM282.725 72.808L281.759 72.5492L281.628 73.0383L281.944 73.4334L282.725 72.808ZM286.917 57.16L287.883 57.4188L287.998 56.9885L287.755 56.615L286.917 57.16ZM285.253 54.6V53.6H283.41L284.414 55.145L285.253 54.6ZM294.271 54.3398L289.855 70.7238L291.786 71.2442L296.202 54.8602L294.271 54.3398ZM290.821 71.984H298.373V69.984H290.821V71.984ZM297.406 70.727L295.806 76.743L297.739 77.257L299.339 71.241L297.406 70.727ZM296.773 76H286.085V78H296.773V76ZM286.865 76.3746L283.505 72.1826L281.944 73.4334L285.304 77.6254L286.865 76.3746ZM283.691 73.0668L287.883 57.4188L285.951 56.9012L281.759 72.5492L283.691 73.0668ZM287.755 56.615L286.091 54.055L284.414 55.145L286.078 57.705L287.755 56.615ZM285.253 55.6H295.237V53.6H285.253V55.6ZM300.487 77L299.521 76.7419L299.185 78H300.487V77ZM308.103 77V78H308.871L309.069 77.258L308.103 77ZM309.863 70.408V69.408H309.095L308.897 70.15L309.863 70.408ZM316.135 70.408L317.101 70.666L317.437 69.408H316.135V70.408ZM314.375 77L313.409 76.742L313.073 78H314.375V77ZM322.023 77V78H322.791L322.989 77.2581L322.023 77ZM325.767 62.984L326.733 63.2421L326.875 62.7115L326.503 62.3072L325.767 62.984ZM317.383 53.864L318.119 53.1872L317.53 52.5456L316.813 53.0422L317.383 53.864ZM304.231 62.984L303.661 62.1622L303.36 62.3714L303.265 62.7259L304.231 62.984ZM312.231 64.584L311.649 63.7709L309.117 65.584H312.231V64.584ZM315.047 62.568L315.807 61.9172L315.21 61.2215L314.465 61.7549L315.047 62.568ZM316.775 64.584V65.584H318.949L317.535 63.9332L316.775 64.584ZM300.487 78H308.103V76H300.487V78ZM309.069 77.258L310.829 70.666L308.897 70.15L307.137 76.742L309.069 77.258ZM309.863 71.408H316.135V69.408H309.863V71.408ZM315.169 70.15L313.409 76.742L315.341 77.258L317.101 70.666L315.169 70.15ZM314.375 78H322.023V76H314.375V78ZM322.989 77.2581L326.733 63.2421L324.801 62.7259L321.057 76.7419L322.989 77.2581ZM326.503 62.3072L318.119 53.1872L316.647 54.5408L325.031 63.6608L326.503 62.3072ZM316.813 53.0422L303.661 62.1622L304.801 63.8058L317.953 54.6858L316.813 53.0422ZM303.265 62.7259L299.521 76.7419L301.453 77.2581L305.197 63.2421L303.265 62.7259ZM312.813 65.3971L315.629 63.3811L314.465 61.7549L311.649 63.7709L312.813 65.3971ZM314.288 63.2188L316.016 65.2348L317.535 63.9332L315.807 61.9172L314.288 63.2188ZM316.775 63.584H312.231V65.584H316.775V63.584ZM341.622 77L342.225 77.798L342.5 77.5903L342.589 77.2572L341.622 77ZM337.046 80.456L336.444 79.658L336.17 79.8649L336.081 80.1963L337.046 80.456ZM334.998 88.072L334.033 87.8123L333.331 90.4215L335.562 88.8978L334.998 88.072ZM348.822 78.632L349.386 79.4578L349.692 79.2491L349.788 78.8917L348.822 78.632ZM355.286 54.6L356.252 54.8597L356.591 53.6H355.286V54.6ZM347.67 54.6V53.6H346.905L346.705 54.3382L347.67 54.6ZM346.038 60.616L346.491 61.5074L346.887 61.3062L347.003 60.8778L346.038 60.616ZM336.534 65.448L335.568 65.1887L334.986 67.3567L336.987 66.3394L336.534 65.448ZM339.446 54.6L340.412 54.8593L340.75 53.6H339.446V54.6ZM331.798 54.6V53.6H331.032L330.833 54.34L331.798 54.6ZM326.87 72.904L325.905 72.644L325.565 73.904H326.87V72.904ZM334.518 72.904V73.904H334.757L334.97 73.796L334.518 72.904ZM343.99 68.104L344.957 68.3612L345.531 66.202L343.538 67.212L343.99 68.104ZM341.02 76.202L336.444 79.658L337.649 81.254L342.225 77.798L341.02 76.202ZM336.081 80.1963L334.033 87.8123L335.964 88.3317L338.012 80.7157L336.081 80.1963ZM335.562 88.8978L349.386 79.4578L348.258 77.8062L334.434 87.2462L335.562 88.8978ZM349.788 78.8917L356.252 54.8597L354.321 54.3403L347.857 78.3723L349.788 78.8917ZM355.286 53.6H347.67V55.6H355.286V53.6ZM346.705 54.3382L345.073 60.3542L347.003 60.8778L348.635 54.8618L346.705 54.3382ZM345.585 59.7246L336.081 64.5566L336.987 66.3394L346.491 61.5074L345.585 59.7246ZM337.5 65.7073L340.412 54.8593L338.48 54.3407L335.568 65.1887L337.5 65.7073ZM339.446 53.6H331.798V55.6H339.446V53.6ZM330.833 54.34L325.905 72.644L327.836 73.164L332.764 54.86L330.833 54.34ZM326.87 73.904H334.518V71.904H326.87V73.904ZM334.97 73.796L344.442 68.996L343.538 67.212L334.066 72.012L334.97 73.796ZM343.024 67.8468L340.656 76.7428L342.589 77.2572L344.957 68.3612L343.024 67.8468ZM362.199 70.984L361.235 70.7188L360.887 71.984H362.199V70.984ZM372.119 70.984L373.086 71.241L373.42 69.984H372.119V70.984ZM370.519 77V78H371.288L371.486 77.257L370.519 77ZM357.463 77L356.683 77.6254L356.983 78H357.463V77ZM354.103 72.808L353.138 72.5483L353.006 73.0379L353.323 73.4334L354.103 72.808ZM358.999 54.6V53.6H358.233L358.034 54.3403L358.999 54.6ZM376.535 54.6L377.501 54.8605L377.841 53.6H376.535V54.6ZM374.903 60.648V61.648H375.669L375.869 60.9085L374.903 60.648ZM364.983 60.648V59.648H364.221L364.019 60.3836L364.983 60.648ZM364.439 62.632L363.475 62.3676L363.128 63.632H364.439V62.632ZM374.359 62.632L375.326 62.8883L375.659 61.632H374.359V62.632ZM372.823 68.424V69.424H373.593L373.79 68.6803L372.823 68.424ZM362.903 68.424V67.424H362.141L361.939 68.1588L362.903 68.424ZM362.199 71.984H372.119V69.984H362.199V71.984ZM371.153 70.727L369.553 76.743L371.486 77.257L373.086 71.241L371.153 70.727ZM370.519 76H357.463V78H370.519V76ZM358.244 76.3746L354.884 72.1826L353.323 73.4334L356.683 77.6254L358.244 76.3746ZM355.069 73.0677L359.965 54.8597L358.034 54.3403L353.138 72.5483L355.069 73.0677ZM358.999 55.6H376.535V53.6H358.999V55.6ZM375.57 54.3395L373.938 60.3875L375.869 60.9085L377.501 54.8605L375.57 54.3395ZM374.903 59.648H364.983V61.648H374.903V59.648ZM364.019 60.3836L363.475 62.3676L365.404 62.8964L365.948 60.9124L364.019 60.3836ZM364.439 63.632H374.359V61.632H364.439V63.632ZM373.393 62.3757L371.857 68.1677L373.79 68.6803L375.326 62.8883L373.393 62.3757ZM372.823 67.424H362.903V69.424H372.823V67.424ZM361.939 68.1588L361.235 70.7188L363.164 71.2492L363.868 68.6892L361.939 68.1588ZM379.464 54.6V53.6H377.609L378.629 55.1498L379.464 54.6ZM397.896 54.6L398.679 53.9782L398.379 53.6H397.896V54.6ZM401.224 58.792L402.19 59.0504L402.32 58.5643L402.007 58.1702L401.224 58.792ZM397.544 72.552L398.159 73.3402L398.424 73.134L398.51 72.8104L397.544 72.552ZM391.848 77V78H392.192L392.463 77.7882L391.848 77ZM375.816 77L374.85 76.7418L374.514 78H375.816V77ZM381.128 57.128L382.094 57.3862L382.21 56.9529L381.963 56.5782L381.128 57.128ZM393.128 60.616L394.094 60.8733L394.429 59.616H393.128V60.616ZM387.816 60.616V59.616H387.047L386.85 60.3587L387.816 60.616ZM385.064 70.952L384.098 70.6947L383.763 71.952H385.064V70.952ZM390.376 70.952V71.952H391.145L391.342 71.2093L390.376 70.952ZM379.464 55.6H397.896V53.6H379.464V55.6ZM397.113 55.2218L400.441 59.4138L402.007 58.1702L398.679 53.9782L397.113 55.2218ZM400.258 58.5336L396.578 72.2936L398.51 72.8104L402.19 59.0504L400.258 58.5336ZM396.929 71.7638L391.233 76.2118L392.463 77.7882L398.159 73.3402L396.929 71.7638ZM391.848 76H375.816V78H391.848V76ZM376.782 77.2582L382.094 57.3862L380.162 56.8698L374.85 76.7418L376.782 77.2582ZM381.963 56.5782L380.299 54.0502L378.629 55.1498L380.293 57.6778L381.963 56.5782ZM393.128 59.616H387.816V61.616H393.128V59.616ZM386.85 60.3587L384.098 70.6947L386.03 71.2093L388.782 60.8733L386.85 60.3587ZM385.064 71.952H390.376V69.952H385.064V71.952ZM391.342 71.2093L394.094 60.8733L392.162 60.3587L389.41 70.6947L391.342 71.2093ZM426.913 54.568L427.879 54.827L428.217 53.568H426.913V54.568ZM420.897 77V78H421.664L421.863 77.259L420.897 77ZM413.281 77L412.315 76.7418L411.979 78H413.281V77ZM418.593 57.128L419.559 57.3862L419.674 56.9562L419.431 56.583L418.593 57.128ZM416.929 54.568V53.568H415.086L416.091 55.113L416.929 54.568ZM425.947 54.309L419.931 76.741L421.863 77.259L427.879 54.827L425.947 54.309ZM420.897 76H413.281V78H420.897V76ZM414.247 77.2582L419.559 57.3862L417.627 56.8698L412.315 76.7418L414.247 77.2582ZM419.431 56.583L417.767 54.023L416.091 55.113L417.755 57.673L419.431 56.583ZM416.929 55.568H426.913V53.568H416.929V55.568ZM437.464 63.56L438.203 62.8864L436.973 61.5365L436.499 63.3002L437.464 63.56ZM433.848 77V78H434.615L434.814 77.2598L433.848 77ZM426.232 77L425.266 76.7414L424.929 78H426.232V77ZM431.544 57.16L432.51 57.4186L432.625 56.9884L432.383 56.615L431.544 57.16ZM429.88 54.6V53.6H428.038L429.042 55.145L429.88 54.6ZM439.224 54.6L439.973 53.9375L439.675 53.6H439.224V54.6ZM445.592 61.8L444.843 62.4625L446.072 63.8519L446.557 62.0617L445.592 61.8ZM447.544 54.6V53.6H446.779L446.579 54.3383L447.544 54.6ZM455.192 54.6L456.158 54.8594L456.496 53.6H455.192V54.6ZM449.176 77V78H449.943L450.142 77.2594L449.176 77ZM441.528 77L440.562 76.7418L440.226 78H441.528V77ZM443.384 70.056L444.35 70.3142L444.491 69.7863L444.123 69.3824L443.384 70.056ZM436.499 63.3002L432.883 76.7402L434.814 77.2598L438.43 63.8198L436.499 63.3002ZM433.848 76H426.232V78H433.848V76ZM427.198 77.2586L432.51 57.4186L430.578 56.9014L425.266 76.7414L427.198 77.2586ZM432.383 56.615L430.719 54.055L429.042 55.145L430.706 57.705L432.383 56.615ZM429.88 55.6H439.224V53.6H429.88V55.6ZM438.475 55.2625L444.843 62.4625L446.341 61.1375L439.973 53.9375L438.475 55.2625ZM446.557 62.0617L448.509 54.8617L446.579 54.3383L444.627 61.5383L446.557 62.0617ZM447.544 55.6H455.192V53.6H447.544V55.6ZM454.226 54.3406L448.21 76.7406L450.142 77.2594L456.158 54.8594L454.226 54.3406ZM449.176 76H441.528V78H449.176V76ZM442.494 77.2582L444.35 70.3142L442.418 69.7978L440.562 76.7418L442.494 77.2582ZM444.123 69.3824L438.203 62.8864L436.725 64.2336L442.645 70.7296L444.123 69.3824ZM468.215 77L467.249 76.7415L466.913 78H468.215V77ZM475.831 77V78H476.599L476.797 77.2585L475.831 77ZM480.215 60.616V59.616H479.448L479.249 60.3575L480.215 60.616ZM486.551 60.616V61.616H487.316L487.517 60.8778L486.551 60.616ZM488.183 54.6L489.149 54.8618L489.491 53.6H488.183V54.6ZM470.519 54.6V53.6H469.755L469.554 54.3382L470.519 54.6ZM468.887 60.616L467.922 60.3542L467.58 61.616H468.887V60.616ZM472.599 60.616L473.565 60.8745L473.902 59.616H472.599V60.616ZM468.215 78H475.831V76H468.215V78ZM476.797 77.2585L481.181 60.8745L479.249 60.3575L474.865 76.7415L476.797 77.2585ZM480.215 61.616H486.551V59.616H480.215V61.616ZM487.517 60.8778L489.149 54.8618L487.218 54.3382L485.586 60.3542L487.517 60.8778ZM488.183 53.6H470.519V55.6H488.183V53.6ZM469.554 54.3382L467.922 60.3542L469.853 60.8778L471.485 54.8618L469.554 54.3382ZM468.887 61.616H472.599V59.616H468.887V61.616ZM471.633 60.3575L467.249 76.7415L469.181 77.2585L473.565 60.8745L471.633 60.3575ZM496.817 77L495.851 76.7426L495.516 78H496.817V77ZM499.153 68.232L500.12 68.4894L500.455 67.232H499.153V68.232ZM495.921 68.232V67.232H495.153L494.955 67.9746L495.921 68.232ZM493.585 77V78H494.354L494.552 77.2574L493.585 77ZM485.969 77L485.003 76.7426L484.668 78H485.969V77ZM488.305 68.232L489.272 68.4894L489.607 67.232H488.305V68.232ZM486.353 68.232L485.388 67.9703L485.046 69.232H486.353V68.232ZM487.889 62.568V61.568H487.124L486.924 62.3063L487.889 62.568ZM489.841 62.568V63.568H490.608L490.807 62.8278L489.841 62.568ZM491.985 54.6V53.6H491.219L491.02 54.3402L491.985 54.6ZM499.601 54.6L500.567 54.8598L500.906 53.6H499.601V54.6ZM497.457 62.568L496.492 62.3082L496.153 63.568H497.457V62.568ZM500.689 62.568V63.568H501.457L501.655 62.8259L500.689 62.568ZM502.833 54.536V53.536H502.065L501.867 54.2781L502.833 54.536ZM510.417 54.536L511.383 54.7947L511.72 53.536H510.417V54.536ZM504.401 77V78H505.169L505.367 77.2587L504.401 77ZM497.784 77.2574L500.12 68.4894L498.187 67.9746L495.851 76.7426L497.784 77.2574ZM499.153 67.232H495.921V69.232H499.153V67.232ZM494.955 67.9746L492.619 76.7426L494.552 77.2574L496.888 68.4894L494.955 67.9746ZM493.585 76H485.969V78H493.585V76ZM486.936 77.2574L489.272 68.4894L487.339 67.9746L485.003 76.7426L486.936 77.2574ZM488.305 67.232H486.353V69.232H488.305V67.232ZM487.318 68.4937L488.854 62.8297L486.924 62.3063L485.388 67.9703L487.318 68.4937ZM487.889 63.568H489.841V61.568H487.889V63.568ZM490.807 62.8278L492.951 54.8598L491.02 54.3402L488.876 62.3082L490.807 62.8278ZM491.985 55.6H499.601V53.6H491.985V55.6ZM498.636 54.3402L496.492 62.3082L498.423 62.8278L500.567 54.8598L498.636 54.3402ZM497.457 63.568H500.689V61.568H497.457V63.568ZM501.655 62.8259L503.799 54.7939L501.867 54.2781L499.723 62.3101L501.655 62.8259ZM502.833 55.536H510.417V53.536H502.833V55.536ZM509.451 54.2773L503.435 76.7413L505.367 77.2587L511.383 54.7947L509.451 54.2773ZM504.401 76H496.817V78H504.401V76ZM517.372 70.984L516.408 70.7188L516.06 71.984H517.372V70.984ZM527.292 70.984L528.258 71.241L528.593 69.984H527.292V70.984ZM525.692 77V78H526.461L526.658 77.257L525.692 77ZM512.636 77L511.856 77.6254L512.156 78H512.636V77ZM509.276 72.808L508.31 72.5483L508.179 73.0379L508.496 73.4334L509.276 72.808ZM514.172 54.6V53.6H513.405L513.206 54.3403L514.172 54.6ZM531.708 54.6L532.673 54.8605L533.014 53.6H531.708V54.6ZM530.076 60.648V61.648H530.842L531.041 60.9085L530.076 60.648ZM520.156 60.648V59.648H519.393L519.192 60.3836L520.156 60.648ZM519.612 62.632L518.648 62.3676L518.301 63.632H519.612V62.632ZM529.532 62.632L530.499 62.8883L530.832 61.632H529.532V62.632ZM527.996 68.424V69.424H528.765L528.963 68.6803L527.996 68.424ZM518.076 68.424V67.424H517.314L517.112 68.1588L518.076 68.424ZM517.372 71.984H527.292V69.984H517.372V71.984ZM526.326 70.727L524.726 76.743L526.658 77.257L528.258 71.241L526.326 70.727ZM525.692 76H512.636V78H525.692V76ZM513.416 76.3746L510.056 72.1826L508.496 73.4334L511.856 77.6254L513.416 76.3746ZM510.242 73.0677L515.138 54.8597L513.206 54.3403L508.31 72.5483L510.242 73.0677ZM514.172 55.6H531.708V53.6H514.172V55.6ZM530.743 54.3395L529.111 60.3875L531.041 60.9085L532.673 54.8605L530.743 54.3395ZM530.076 59.648H520.156V61.648H530.076V59.648ZM519.192 60.3836L518.648 62.3676L520.576 62.8964L521.12 60.9124L519.192 60.3836ZM519.612 63.632H529.532V61.632H519.612V63.632ZM528.565 62.3757L527.029 68.1677L528.963 68.6803L530.499 62.8883L528.565 62.3757ZM527.996 67.424H518.076V69.424H527.996V67.424ZM517.112 68.1588L516.408 70.7188L518.336 71.2492L519.04 68.6892L517.112 68.1588ZM550.276 70.952L549.31 70.6947L548.975 71.952H550.276V70.952ZM555.556 70.952V71.952H556.324L556.522 71.2097L555.556 70.952ZM557.348 64.232V63.232H556.58L556.382 63.9743L557.348 64.232ZM560.484 64.232L561.264 63.6066L560.964 63.232H560.484V64.232ZM563.844 68.424L564.81 68.6835L564.941 68.194L564.624 67.7986L563.844 68.424ZM561.54 77V78H562.307L562.506 77.2595L561.54 77ZM545.508 77L544.707 77.5991L545.007 78H545.508V77ZM542.18 72.552L541.214 72.2925L541.088 72.7619L541.379 73.1511L542.18 72.552ZM547.012 54.568V53.568H546.245L546.046 54.3085L547.012 54.568ZM564.548 54.568L565.513 54.8285L565.854 53.568H564.548V54.568ZM562.916 60.616V61.616H563.682L563.881 60.8765L562.916 60.616ZM553.028 60.616V59.616H552.259L552.062 60.3587L553.028 60.616ZM550.276 71.952H555.556V69.952H550.276V71.952ZM556.522 71.2097L558.314 64.4897L556.382 63.9743L554.59 70.6943L556.522 71.2097ZM557.348 65.232H560.484V63.232H557.348V65.232ZM559.704 64.8574L563.064 69.0494L564.624 67.7986L561.264 63.6066L559.704 64.8574ZM562.878 68.1645L560.574 76.7405L562.506 77.2595L564.81 68.6835L562.878 68.1645ZM561.54 76H545.508V78H561.54V76ZM546.309 76.4009L542.981 71.9529L541.379 73.1511L544.707 77.5991L546.309 76.4009ZM543.146 72.8115L547.978 54.8275L546.046 54.3085L541.214 72.2925L543.146 72.8115ZM547.012 55.568H564.548V53.568H547.012V55.568ZM563.583 54.3075L561.951 60.3555L563.881 60.8765L565.513 54.8285L563.583 54.3075ZM562.916 59.616H553.028V61.616H562.916V59.616ZM552.062 60.3587L549.31 70.6947L551.242 71.2093L553.994 60.8733L552.062 60.3587ZM565.26 77L564.294 76.7419L563.958 78H565.26V77ZM572.876 77V78H573.644L573.842 77.258L572.876 77ZM574.636 70.408V69.408H573.868L573.67 70.15L574.636 70.408ZM580.908 70.408L581.874 70.666L582.21 69.408H580.908V70.408ZM579.148 77L578.182 76.742L577.846 78H579.148V77ZM586.796 77V78H587.564L587.762 77.2581L586.796 77ZM590.54 62.984L591.506 63.2421L591.648 62.7115L591.276 62.3072L590.54 62.984ZM582.156 53.864L582.892 53.1872L582.302 52.5456L581.586 53.0422L582.156 53.864ZM569.004 62.984L568.434 62.1622L568.132 62.3714L568.038 62.7259L569.004 62.984ZM577.004 64.584L576.422 63.7709L573.889 65.584H577.004V64.584ZM579.82 62.568L580.579 61.9172L579.983 61.2215L579.238 61.7549L579.82 62.568ZM581.548 64.584V65.584H583.722L582.307 63.9332L581.548 64.584ZM565.26 78H572.876V76H565.26V78ZM573.842 77.258L575.602 70.666L573.67 70.15L571.91 76.742L573.842 77.258ZM574.636 71.408H580.908V69.408H574.636V71.408ZM579.942 70.15L578.182 76.742L580.114 77.258L581.874 70.666L579.942 70.15ZM579.148 78H586.796V76H579.148V78ZM587.762 77.2581L591.506 63.2421L589.574 62.7259L585.83 76.7419L587.762 77.2581ZM591.276 62.3072L582.892 53.1872L581.42 54.5408L589.804 63.6608L591.276 62.3072ZM581.586 53.0422L568.434 62.1622L569.574 63.8058L582.726 54.6858L581.586 53.0422ZM568.038 62.7259L564.294 76.7419L566.226 77.2581L569.97 63.2421L568.038 62.7259ZM577.586 65.3971L580.402 63.3811L579.238 61.7549L576.422 63.7709L577.586 65.3971ZM579.061 63.2188L580.789 65.2348L582.307 63.9332L580.579 61.9172L579.061 63.2188ZM581.548 63.584H577.004V65.584H581.548V63.584ZM613.243 85.032L612.509 85.711L613.741 87.043L614.209 85.29L613.243 85.032ZM607.323 78.632L606.357 78.373L606.214 78.9059L606.589 79.311L607.323 78.632ZM611.451 63.24L612.417 63.499L613.148 60.7726L610.863 62.4307L611.451 63.24ZM605.499 67.56L604.735 68.2052L605.334 68.9151L606.086 68.3693L605.499 67.56ZM601.851 63.24L602.615 62.5948L601.379 61.1319L600.885 62.9816L601.851 63.24ZM598.171 77V78H598.938L599.137 77.2584L598.171 77ZM590.555 77L589.589 76.7406L589.251 78H590.555V77ZM596.571 54.6V53.6H595.804L595.605 54.3406L596.571 54.6ZM603.995 54.6L604.716 53.9073L604.421 53.6H603.995V54.6ZM607.867 58.632L607.145 59.3247L607.704 59.9066L608.391 59.4834L607.867 58.632ZM614.619 54.472L615.173 53.6399L614.64 53.2843L614.094 53.6206L614.619 54.472ZM620.379 58.312L621.345 58.57L621.53 57.8775L620.933 57.4799L620.379 58.312ZM613.977 84.353L608.057 77.953L606.589 79.311L612.509 85.711L613.977 84.353ZM608.289 78.891L612.417 63.499L610.485 62.981L606.357 78.373L608.289 78.891ZM610.863 62.4307L604.911 66.7507L606.086 68.3693L612.038 64.0493L610.863 62.4307ZM606.263 66.9148L602.615 62.5948L601.087 63.8852L604.735 68.2052L606.263 66.9148ZM600.885 62.9816L597.205 76.7416L599.137 77.2584L602.817 63.4984L600.885 62.9816ZM598.171 76H590.555V78H598.171V76ZM591.521 77.2594L597.537 54.8594L595.605 54.3406L589.589 76.7406L591.521 77.2594ZM596.571 55.6H603.995V53.6H596.571V55.6ZM603.273 55.2926L607.145 59.3247L608.588 57.9393L604.716 53.9073L603.273 55.2926ZM608.391 59.4834L615.143 55.3234L614.094 53.6206L607.342 57.7806L608.391 59.4834ZM614.064 55.304L619.824 59.144L620.933 57.4799L615.173 53.6399L614.064 55.304ZM619.413 58.054L612.277 84.774L614.209 85.29L621.345 58.57L619.413 58.054ZM628.316 70.984L627.352 70.7188L627.004 71.984H628.316V70.984ZM638.236 70.984L639.202 71.241L639.536 69.984H638.236V70.984ZM636.636 77V78H637.405L637.602 77.257L636.636 77ZM623.58 77L622.799 77.6254L623.1 78H623.58V77ZM620.22 72.808L619.254 72.5483L619.122 73.0379L619.439 73.4334L620.22 72.808ZM625.116 54.6V53.6H624.349L624.15 54.3403L625.116 54.6ZM642.652 54.6L643.617 54.8605L643.957 53.6H642.652V54.6ZM641.02 60.648V61.648H641.786L641.985 60.9085L641.02 60.648ZM631.1 60.648V59.648H630.337L630.135 60.3836L631.1 60.648ZM630.556 62.632L629.591 62.3676L629.245 63.632H630.556V62.632ZM640.476 62.632L641.442 62.8883L641.775 61.632H640.476V62.632ZM638.94 68.424V69.424H639.709L639.906 68.6803L638.94 68.424ZM629.02 68.424V67.424H628.258L628.056 68.1588L629.02 68.424ZM628.316 71.984H638.236V69.984H628.316V71.984ZM637.269 70.727L635.669 76.743L637.602 77.257L639.202 71.241L637.269 70.727ZM636.636 76H623.58V78H636.636V76ZM624.36 76.3746L621 72.1826L619.439 73.4334L622.799 77.6254L624.36 76.3746ZM621.185 73.0677L626.081 54.8597L624.15 54.3403L619.254 72.5483L621.185 73.0677ZM625.116 55.6H642.652V53.6H625.116V55.6ZM641.686 54.3395L640.054 60.3875L641.985 60.9085L643.617 54.8605L641.686 54.3395ZM641.02 59.648H631.1V61.648H641.02V59.648ZM630.135 60.3836L629.591 62.3676L631.52 62.8964L632.064 60.9124L630.135 60.3836ZM630.556 63.632H640.476V61.632H630.556V63.632ZM639.509 62.3757L637.973 68.1677L639.906 68.6803L641.442 62.8883L639.509 62.3757ZM638.94 67.424H629.02V69.424H638.94V67.424ZM628.056 68.1588L627.352 70.7188L629.28 71.2492L629.984 68.6892L628.056 68.1588Z" fill="#102992"/>
</g>
<defs>
<filter id="filter0_di_741_29644" x="52.1641" y="0.199951" width="796.783" height="97.8721" filterUnits="userSpaceOnUse" color-interpolation-filters="sRGB">
<feFlood flood-opacity="0" result="BackgroundImageFix"/>
<feColorMatrix in="SourceAlpha" type="matrix" values="0 0 0 0 0 0 0 0 0 0 0 0 0 0 0 0 0 0 127 0" result="hardAlpha"/>
<feOffset dx="1" dy="1"/>
<feGaussianBlur stdDeviation="4.5"/>
<feComposite in2="hardAlpha" operator="out"/>
<feColorMatrix type="matrix" values="0 0 0 0 0.376471 0 0 0 0 0.494118 0 0 0 0 0.980392 0 0 0 0.7 0"/>
<feBlend mode="normal" in2="BackgroundImageFix" result="effect1_dropShadow_741_29644"/>
<feBlend mode="normal" in="SourceGraphic" in2="effect1_dropShadow_741_29644" result="shape"/>
<feColorMatrix in="SourceAlpha" type="matrix" values="0 0 0 0 0 0 0 0 0 0 0 0 0 0 0 0 0 0 127 0" result="hardAlpha"/>
<feOffset dx="1" dy="2"/>
<feGaussianBlur stdDeviation="1"/>
<feComposite in2="hardAlpha" operator="arithmetic" k2="-1" k3="1"/>
<feColorMatrix type="matrix" values="0 0 0 0 1 0 0 0 0 1 0 0 0 0 1 0 0 0 1 0"/>
<feBlend mode="normal" in2="shape" result="effect2_innerShadow_741_29644"/>
</filter>
<linearGradient id="paint0_linear_741_29644" x1="458.043" y1="20.8162" x2="457.538" y2="67.7536" gradientUnits="userSpaceOnUse">
<stop offset="0.196341" stop-color="white"/>
<stop offset="0.850001" stop-color="#A6C4FF"/>
</linearGradient>
</defs>
</svg>
