<?xml version="1.0" encoding="utf-8"?>
<!-- Generator: Adobe Illustrator 24.0.1, SVG Export Plug-In . SVG Version: 6.00 Build 0)  -->
<svg version="1.1" id="Layer_1" xmlns="http://www.w3.org/2000/svg" xmlns:xlink="http://www.w3.org/1999/xlink" x="0px" y="0px"
	 viewBox="0 0 520 520" style="enable-background:new 0 0 520 520;" xml:space="preserve">
<style type="text/css">
	.st0{fill:#2BCCFF;fill-opacity:0.6;}
	.st1{fill:#FFFFFF;}
</style>
<g>
	<circle class="st0" cx="260" cy="260" r="100"/>
</g>
<g>
	<path class="st1" d="M251.6,278.4h-4.1c-1.7,0-3-1.3-3-3v-30.8c0-1.7,1.3-3,3-3h4.1c1.7,0,3,1.3,3,3v30.8
		C254.6,277,253.2,278.4,251.6,278.4z"/>
	<path class="st1" d="M272.6,278.4h-4.1c-1.7,0-3-1.3-3-3v-30.8c0-1.7,1.3-3,3-3h4.1c1.7,0,3,1.3,3,3v30.8
		C275.6,277,274.2,278.4,272.6,278.4z"/>
</g>
</svg>
