<svg width="120" height="120" viewBox="0 0 120 120" fill="none" xmlns="http://www.w3.org/2000/svg">
<path opacity="0.1" d="M59.9999 108.12C86.5758 108.12 108.12 86.5758 108.12 59.9999C108.12 33.4239 86.5758 11.8799 59.9999 11.8799C33.4239 11.8799 11.8799 33.4239 11.8799 59.9999C11.8799 86.5758 33.4239 108.12 59.9999 108.12Z" stroke="url(#paint0_linear_246_5147)" stroke-width="8"/>
<path d="M59.9999 108.12C86.5758 108.12 108.12 86.5758 108.12 59.9999C108.12 33.4239 86.5758 11.8799 59.9999 11.8799C33.4239 11.8799 11.8799 33.4239 11.8799 59.9999C11.8799 86.5758 33.4239 108.12 59.9999 108.12Z" stroke="url(#paint1_linear_246_5147)"/>
<path d="M63 0H57V6H63V0Z" fill="url(#paint2_linear_246_5147)"/>
<path d="M68.9199 90.24L70.6499 89.24L71.6499 90.97L69.9199 91.97L68.9199 90.24Z" fill="url(#paint3_linear_246_5147)"/>
<path d="M72.3809 88.24L74.1109 87.24L75.1109 88.97L73.3809 89.97L72.3809 88.24Z" fill="url(#paint4_linear_246_5147)"/>
<path d="M75.8506 86.24L77.5806 85.24L78.5806 86.97L76.8506 87.97L75.8506 86.24Z" fill="url(#paint5_linear_246_5147)"/>
<path d="M68.6504 85.78L70.3804 84.78L71.3804 86.51L69.6504 87.51L68.6504 85.78Z" fill="url(#paint6_linear_246_5147)"/>
<path d="M62.5 114.5H57.5V119.5H62.5V114.5Z" stroke="url(#paint7_linear_246_5147)"/>
<path d="M120 57H114V63H120V57Z" fill="url(#paint8_linear_246_5147)"/>
<path d="M5.5 57.5H0.5V62.5H5.5V57.5Z" stroke="url(#paint9_linear_246_5147)"/>
<path d="M55.92 72.53H56.13L56.28 72.38L58.65 70.01L58.8 69.86V69.65V58.25V57.75H58.3H47.46H46.96V58.25V63.06V63.56H47.46H53.01V66.72H42.01V53.28H53.01V55.19V55.69H53.51H58.29H58.79V55.19V50.41V50.21L58.65 50.06L56.28 47.62L56.13 47.47H55.92H39.08H38.87L38.72 47.62L36.35 50.06L36.21 50.21V50.41V69.66V69.87L36.36 70.02L38.73 72.39L38.88 72.54H39.09H55.92V72.53ZM80.93 72.53H81.14L81.29 72.38L83.66 70.01L83.81 69.86V69.65V50.41V50.21L83.67 50.06L81.3 47.62L81.15 47.47H80.94H64.08H63.87L63.72 47.62L61.35 50.06L61.21 50.21V50.41V69.66V69.87L61.36 70.02L63.73 72.39L63.88 72.54H64.09H80.93V72.53ZM67.02 66.72V53.28H78.02V66.72H67.02Z" stroke="url(#paint10_linear_246_5147)"/>
<path d="M100.304 15.4459L96.0615 19.6885L100.304 23.9311L104.547 19.6885L100.304 15.4459Z" fill="url(#paint11_linear_246_5147)"/>
<path d="M19.6947 96.7619L16.1592 100.297L19.6947 103.833L23.2302 100.297L19.6947 96.7619Z" stroke="url(#paint12_linear_246_5147)"/>
<path d="M100.304 96.7624L96.7686 100.298L100.304 103.833L103.84 100.298L100.304 96.7624Z" stroke="url(#paint13_linear_246_5147)"/>
<path d="M19.6947 16.1525L16.1592 19.688L19.6947 23.2235L23.2302 19.688L19.6947 16.1525Z" stroke="url(#paint14_linear_246_5147)"/>
<path d="M60.5 114V89.41H59.5V114H60.5ZM60.5 30.59V6H59.5V30.59H60.5ZM6 60.5H30.59V59.5H6V60.5ZM89.41 60.5H114V59.5H89.41V60.5ZM22.17 98.54L39.56 81.15L38.85 80.44L21.46 97.83L22.17 98.54ZM81.15 39.56L98.54 22.17L97.83 21.46L80.44 38.85L81.15 39.56ZM21.46 22.17L38.85 39.56L39.56 38.85L22.17 21.46L21.46 22.17ZM80.44 81.15L97.83 98.54L98.54 97.83L81.15 80.44L80.44 81.15Z" fill="white"/>
<path opacity="0.2" d="M42.4502 77.1899C46.9102 81.7399 53.1302 84.5699 60.0002 84.5699C63.1602 84.5699 66.1702 83.9699 68.9502 82.8899M84.5702 59.9999C84.5702 66.1899 82.2802 71.8499 78.5002 76.1699L84.5702 59.9999ZM60.0002 35.4299C53.5402 35.4299 47.6602 37.9199 43.2702 41.9999L60.0002 35.4299Z" stroke="white"/>
<path opacity="0.2" d="M65.4699 41.0901C69.1999 42.1701 72.4699 44.3201 74.9299 47.1801M59.9999 79.6701C54.9599 79.6701 50.3599 77.7701 46.8799 74.6501L59.9999 79.6701ZM59.9999 40.3201C57.6999 40.3201 55.4999 40.7101 53.4499 41.4401L59.9999 40.3201ZM65.4699 78.9001C68.3499 78.0701 70.9499 76.6001 73.1199 74.6501L65.4699 78.9001Z" stroke="white"/>
<path opacity="0.6" d="M60 97.04C80.4566 97.04 97.04 80.4566 97.04 60C97.04 39.5433 80.4566 22.96 60 22.96C39.5433 22.96 22.96 39.5433 22.96 60C22.96 80.4566 39.5433 97.04 60 97.04Z" stroke="white" stroke-dasharray="4 4"/>
<path d="M99.7303 8.61012L92.8203 4.62012V12.6001L99.7303 8.61012Z" fill="url(#paint15_linear_246_5147)"/>
<path d="M87.7098 5.47998L82.2998 8.60998L87.7098 11.74V5.47998Z" stroke="url(#paint16_linear_246_5147)"/>
<path d="M25.5997 78.79L30.2397 70.76H20.9697L25.5997 78.79Z" fill="url(#paint17_linear_246_5147)"/>
<path d="M94.4204 50.5899L96.6904 46.6599H92.1504L94.4204 50.5899Z" fill="url(#paint18_linear_246_5147)"/>
<defs>
<linearGradient id="paint0_linear_246_5147" x1="61.1336" y1="27.2977" x2="54.4235" y2="82.9611" gradientUnits="userSpaceOnUse">
<stop offset="0.196341" stop-color="white"/>
<stop offset="0.850001" stop-color="#A6C4FF"/>
</linearGradient>
<linearGradient id="paint1_linear_246_5147" x1="61.1336" y1="27.2977" x2="54.4235" y2="82.9611" gradientUnits="userSpaceOnUse">
<stop offset="0.196341" stop-color="white"/>
<stop offset="0.850001" stop-color="#A6C4FF"/>
</linearGradient>
<linearGradient id="paint2_linear_246_5147" x1="60.0707" y1="0.961212" x2="59.6523" y2="4.4315" gradientUnits="userSpaceOnUse">
<stop offset="0.196341" stop-color="white"/>
<stop offset="0.850001" stop-color="#A6C4FF"/>
</linearGradient>
<linearGradient id="paint3_linear_246_5147" x1="70.3171" y1="89.6773" x2="70.1267" y2="91.2563" gradientUnits="userSpaceOnUse">
<stop offset="0.196341" stop-color="white"/>
<stop offset="0.850001" stop-color="#A6C4FF"/>
</linearGradient>
<linearGradient id="paint4_linear_246_5147" x1="73.778" y1="87.6773" x2="73.5877" y2="89.2563" gradientUnits="userSpaceOnUse">
<stop offset="0.196341" stop-color="white"/>
<stop offset="0.850001" stop-color="#A6C4FF"/>
</linearGradient>
<linearGradient id="paint5_linear_246_5147" x1="77.2477" y1="85.6773" x2="77.0574" y2="87.2563" gradientUnits="userSpaceOnUse">
<stop offset="0.196341" stop-color="white"/>
<stop offset="0.850001" stop-color="#A6C4FF"/>
</linearGradient>
<linearGradient id="paint6_linear_246_5147" x1="70.0475" y1="85.2174" x2="69.8572" y2="86.7964" gradientUnits="userSpaceOnUse">
<stop offset="0.196341" stop-color="white"/>
<stop offset="0.850001" stop-color="#A6C4FF"/>
</linearGradient>
<linearGradient id="paint7_linear_246_5147" x1="60.0589" y1="115.301" x2="59.7103" y2="118.193" gradientUnits="userSpaceOnUse">
<stop offset="0.196341" stop-color="white"/>
<stop offset="0.850001" stop-color="#A6C4FF"/>
</linearGradient>
<linearGradient id="paint8_linear_246_5147" x1="117.071" y1="57.9612" x2="116.652" y2="61.4315" gradientUnits="userSpaceOnUse">
<stop offset="0.196341" stop-color="white"/>
<stop offset="0.850001" stop-color="#A6C4FF"/>
</linearGradient>
<linearGradient id="paint9_linear_246_5147" x1="3.0589" y1="58.301" x2="2.71029" y2="61.1929" gradientUnits="userSpaceOnUse">
<stop offset="0.196341" stop-color="white"/>
<stop offset="0.850001" stop-color="#A6C4FF"/>
</linearGradient>
<linearGradient id="paint10_linear_246_5147" x1="60.5707" y1="51.4862" x2="59.6405" y2="66.1379" gradientUnits="userSpaceOnUse">
<stop offset="0.196341" stop-color="white"/>
<stop offset="0.850001" stop-color="#A6C4FF"/>
</linearGradient>
<linearGradient id="paint11_linear_246_5147" x1="98.9125" y1="18.1969" x2="101.071" y2="20.9465" gradientUnits="userSpaceOnUse">
<stop offset="0.196341" stop-color="white"/>
<stop offset="0.850001" stop-color="#A6C4FF"/>
</linearGradient>
<linearGradient id="paint12_linear_246_5147" x1="18.535" y1="99.0544" x2="20.3333" y2="101.346" gradientUnits="userSpaceOnUse">
<stop offset="0.196341" stop-color="white"/>
<stop offset="0.850001" stop-color="#A6C4FF"/>
</linearGradient>
<linearGradient id="paint13_linear_246_5147" x1="99.1443" y1="99.0548" x2="100.943" y2="101.346" gradientUnits="userSpaceOnUse">
<stop offset="0.196341" stop-color="white"/>
<stop offset="0.850001" stop-color="#A6C4FF"/>
</linearGradient>
<linearGradient id="paint14_linear_246_5147" x1="18.535" y1="18.445" x2="20.3333" y2="20.7364" gradientUnits="userSpaceOnUse">
<stop offset="0.196341" stop-color="white"/>
<stop offset="0.850001" stop-color="#A6C4FF"/>
</linearGradient>
<linearGradient id="paint15_linear_246_5147" x1="96.3567" y1="5.89853" x2="95.7172" y2="10.4921" gradientUnits="userSpaceOnUse">
<stop offset="0.196341" stop-color="white"/>
<stop offset="0.850001" stop-color="#A6C4FF"/>
</linearGradient>
<linearGradient id="paint16_linear_246_5147" x1="85.0685" y1="6.48285" x2="84.5659" y2="10.086" gradientUnits="userSpaceOnUse">
<stop offset="0.196341" stop-color="white"/>
<stop offset="0.850001" stop-color="#A6C4FF"/>
</linearGradient>
<linearGradient id="paint17_linear_246_5147" x1="25.7139" y1="72.0464" x2="25.2272" y2="76.7075" gradientUnits="userSpaceOnUse">
<stop offset="0.196341" stop-color="white"/>
<stop offset="0.850001" stop-color="#A6C4FF"/>
</linearGradient>
<linearGradient id="paint18_linear_246_5147" x1="94.4739" y1="47.2895" x2="94.2358" y2="49.5707" gradientUnits="userSpaceOnUse">
<stop offset="0.196341" stop-color="white"/>
<stop offset="0.850001" stop-color="#A6C4FF"/>
</linearGradient>
</defs>
</svg>
