<svg width="126" height="120" viewBox="0 0 126 120" fill="none" xmlns="http://www.w3.org/2000/svg">
<g clip-path="url(#clip0_246_5045)">
<path d="M103.939 34.8715L59.6285 9.23608L15.3184 34.8715" stroke="white"/>
<path opacity="0.8" d="M35.1419 62.7256L60.4732 63.2888L52.1834 40.9873L27.8545 43.1386L35.1419 62.7256Z" fill="url(#paint0_linear_246_5045)"/>
<path opacity="0.8" d="M80.387 70.3737L76.7715 54.1769L68.797 32.7202L67.7607 43.4993L80.387 70.3737Z" fill="url(#paint1_linear_246_5045)"/>
<path d="M60.4734 63.2777L80.3983 70.3736L67.3666 35.3333L52.1836 40.9762L60.4734 63.2777Z" fill="url(#paint2_linear_246_5045)"/>
<path d="M76.7715 54.1769L83.1015 35.9302L75.8254 16.3657L69.0674 33.4635L76.7715 54.1769Z" fill="url(#paint3_linear_246_5045)"/>
<path d="M75.8252 16.3545L69.4952 34.6012L73.1107 50.8092L53.1858 43.7132L27.8545 43.1501L54.1094 31.9993L75.8252 16.3545Z" fill="url(#paint4_linear_246_5045)"/>
<path d="M60.0459 110.843V60.6307L103.534 35.5247V85.7368L60.0459 110.843Z" stroke="white"/>
<path d="M15.7129 85.7368V35.5247L59.2008 60.6307V110.843L15.7129 85.7368Z" stroke="white"/>
<path d="M59.7754 58.5696V117.038" stroke="url(#paint5_linear_246_5045)"/>
<path d="M64.0548 119.504L4.85449 85.3313" stroke="url(#paint6_linear_246_5045)"/>
<path d="M7.35547 29.3411V90.8053" stroke="url(#paint7_linear_246_5045)"/>
<path d="M115.72 33.2043L56.5312 67.3774" stroke="url(#paint8_linear_246_5045)"/>
<path d="M62.9742 67.3774L3.78516 33.2043" stroke="url(#paint9_linear_246_5045)"/>
<path d="M55.6299 119.504L114.83 85.3313" stroke="url(#paint10_linear_246_5045)"/>
<path d="M112.33 29.3411V90.8053" stroke="url(#paint11_linear_246_5045)"/>
<path d="M62.9742 2.74829L3.78516 36.9326" stroke="url(#paint12_linear_246_5045)"/>
<path d="M56.5312 2.75952L115.72 36.9326" stroke="url(#paint13_linear_246_5045)"/>
<path opacity="0.5" d="M101.326 67.0846C100.301 67.6815 99.242 68.2447 98.1607 68.7853L98.4085 69.2922C96.2798 70.351 94.0609 71.3083 91.7519 72.1644L91.5604 71.635C89.3415 72.4572 87.055 73.1893 84.701 73.8201L84.8474 74.3607C82.5384 74.9802 80.1844 75.5208 77.774 75.9601L77.6727 75.4082C75.3299 75.8362 72.942 76.1854 70.5429 76.4444L70.5993 77.0076C68.2114 77.2667 65.7898 77.4356 63.3682 77.5257L63.3456 76.9626C60.9465 77.0527 58.5362 77.0527 56.1371 76.9626L56.1146 77.5257C53.6929 77.4356 51.2713 77.2667 48.8835 77.0076L48.9398 76.4444C46.5294 76.1854 44.1529 75.8362 41.8101 75.4082L41.7087 75.9601C39.3096 75.5208 36.9443 74.9802 34.6353 74.3607L34.7817 73.8201C32.4277 73.1893 30.1412 72.4572 27.9223 71.635L27.7309 72.1644C25.4219 71.3083 23.203 70.351 21.0742 69.2922L21.322 68.7853C20.2407 68.2447 19.182 67.6815 18.157 67.0846C17.2447 66.5552 16.3661 66.0146 15.5214 65.4627L15.2172 65.9357C13.3926 64.7418 11.7481 63.4803 10.2614 62.185L10.633 61.757C9.01112 60.3378 7.59194 58.8623 6.38676 57.3418L5.97001 57.6909C4.60714 55.9789 3.50333 54.2218 2.65858 52.4309L3.16543 52.1944C2.26436 50.2909 1.6674 48.3648 1.36329 46.4275L0.811385 46.5177C0.484747 44.4565 0.484747 42.3727 0.811385 40.3115L1.36329 40.4016C1.6674 38.4643 2.26436 36.527 3.16543 34.6348L2.65858 34.3983C3.50333 32.6074 4.60714 30.839 5.97001 29.1383L6.40928 29.4874C7.61446 27.9781 9.03365 26.5026 10.6556 25.0722L10.2839 24.6442C11.7706 23.3489 13.4151 22.0874 15.2398 20.8935L15.5439 21.3665C16.3886 20.8146 17.2559 20.274 18.1795 19.7446C19.2045 19.1477 20.2632 18.5845 21.3445 18.0438L21.0967 17.537C23.2255 16.4782 25.4444 15.5208 27.7534 14.6648L27.9449 15.1942C30.1637 14.372 32.4502 13.6399 34.8043 13.0091L34.6578 12.4685C36.9668 11.849 39.3209 11.3083 41.7312 10.8691L41.8326 11.421C44.1754 10.993 46.5632 10.6438 48.9623 10.3848L48.906 9.82158C51.2938 9.56252 53.7155 9.39357 56.1371 9.30347L56.1596 9.86664C58.5587 9.77653 60.9691 9.77653 63.3682 9.86664L63.3907 9.30347C65.8123 9.39357 68.234 9.56252 70.6218 9.82158L70.5655 10.3848C72.9758 10.6438 75.3524 10.993 77.6952 11.421L77.7966 10.8691C80.1957 11.3083 82.561 11.849 84.8699 12.4685L84.7235 13.0091C87.0776 13.6399 89.364 14.372 91.5829 15.1942L91.7744 14.6648C94.0834 15.5208 96.3023 16.4782 98.4311 17.537L98.1833 18.0438C99.2645 18.5845 100.323 19.1477 101.348 19.7446C102.261 20.274 103.139 20.8146 103.984 21.3665L104.288 20.8935C106.113 22.0874 107.757 23.3489 109.244 24.6442L108.872 25.0722C110.494 26.4914 111.913 27.9669 113.118 29.4874L113.558 29.1383C114.921 30.8503 116.024 32.6074 116.869 34.3983L116.362 34.6348C117.263 36.5383 117.86 38.4643 118.164 40.4016L118.716 40.3115C119.043 42.3727 119.043 44.4565 118.716 46.5177L118.164 46.4275C117.86 48.3648 117.263 50.3022 116.362 52.1944L116.869 52.4309C116.024 54.2218 114.921 55.9902 113.558 57.6909L113.118 57.3418C111.913 58.8511 110.494 60.3266 108.872 61.757L109.244 62.185C107.757 63.4803 106.113 64.7418 104.288 65.9357L103.984 65.4627C103.117 66.0146 102.238 66.5552 101.326 67.0846Z" stroke="white" stroke-dasharray="6 6"/>
<path opacity="0.5" d="M14.5186 16.5348C23.1914 11.5226 33.7226 8.23364 44.817 6.64551M106.36 69.5627C131.725 54.9203 131.725 31.1771 106.36 16.5348V69.5627Z" stroke="white"/>
<path d="M106.654 0L111.576 8.52637H101.731L106.654 0Z" fill="url(#paint14_linear_246_5045)"/>
<path d="M11.6693 102.418L14.1247 106.676H9.21387L11.6693 102.418Z" fill="url(#paint15_linear_246_5045)"/>
<path d="M15.7239 2.45532L13.2684 6.71288L10.8018 2.45532H15.7239Z" fill="url(#paint16_linear_246_5045)"/>
<path d="M79.779 88.3386L77.3236 92.5962L74.8682 88.3386H79.779Z" fill="url(#paint17_linear_246_5045)"/>
</g>
<defs>
<linearGradient id="paint0_linear_246_5045" x1="44.5481" y1="44.56" x2="43.4768" y2="57.558" gradientUnits="userSpaceOnUse">
<stop offset="0.196341" stop-color="white"/>
<stop offset="0.850001" stop-color="#A6C4FF"/>
</linearGradient>
<linearGradient id="paint1_linear_246_5045" x1="74.2226" y1="38.7524" x2="67.1888" y2="58.3183" gradientUnits="userSpaceOnUse">
<stop offset="0.196341" stop-color="white"/>
<stop offset="0.850001" stop-color="#A6C4FF"/>
</linearGradient>
<linearGradient id="paint2_linear_246_5045" x1="66.6234" y1="40.9468" x2="63.6126" y2="61.0572" gradientUnits="userSpaceOnUse">
<stop offset="0.196341" stop-color="white"/>
<stop offset="0.850001" stop-color="#A6C4FF"/>
</linearGradient>
<linearGradient id="paint3_linear_246_5045" x1="76.2498" y1="22.4231" x2="69.7314" y2="42.4931" gradientUnits="userSpaceOnUse">
<stop offset="0.196341" stop-color="white"/>
<stop offset="0.850001" stop-color="#A6C4FF"/>
</linearGradient>
<linearGradient id="paint4_linear_246_5045" x1="52.405" y1="21.8742" x2="50.6675" y2="41.9413" gradientUnits="userSpaceOnUse">
<stop offset="0.196341" stop-color="white"/>
<stop offset="0.850001" stop-color="#A6C4FF"/>
</linearGradient>
<linearGradient id="paint5_linear_246_5045" x1="60.2872" y1="67.9363" x2="55.5156" y2="68.6133" gradientUnits="userSpaceOnUse">
<stop offset="0.196341" stop-color="white"/>
<stop offset="0.850001" stop-color="#A6C4FF"/>
</linearGradient>
<linearGradient id="paint6_linear_246_5045" x1="35.152" y1="90.8059" x2="33.7634" y2="110.762" gradientUnits="userSpaceOnUse">
<stop offset="0.196341" stop-color="white"/>
<stop offset="0.850001" stop-color="#A6C4FF"/>
</linearGradient>
<linearGradient id="paint7_linear_246_5045" x1="7.86725" y1="39.1878" x2="3.08667" y2="39.833" gradientUnits="userSpaceOnUse">
<stop offset="0.196341" stop-color="white"/>
<stop offset="0.850001" stop-color="#A6C4FF"/>
</linearGradient>
<linearGradient id="paint8_linear_246_5045" x1="86.823" y1="38.6789" x2="85.4341" y2="58.6346" gradientUnits="userSpaceOnUse">
<stop offset="0.196341" stop-color="white"/>
<stop offset="0.850001" stop-color="#A6C4FF"/>
</linearGradient>
<linearGradient id="paint9_linear_246_5045" x1="34.0769" y1="38.6789" x2="32.6881" y2="58.6346" gradientUnits="userSpaceOnUse">
<stop offset="0.196341" stop-color="white"/>
<stop offset="0.850001" stop-color="#A6C4FF"/>
</linearGradient>
<linearGradient id="paint10_linear_246_5045" x1="85.9274" y1="90.8059" x2="84.5388" y2="110.762" gradientUnits="userSpaceOnUse">
<stop offset="0.196341" stop-color="white"/>
<stop offset="0.850001" stop-color="#A6C4FF"/>
</linearGradient>
<linearGradient id="paint11_linear_246_5045" x1="112.842" y1="39.1878" x2="108.061" y2="39.833" gradientUnits="userSpaceOnUse">
<stop offset="0.196341" stop-color="white"/>
<stop offset="0.850001" stop-color="#A6C4FF"/>
</linearGradient>
<linearGradient id="paint12_linear_246_5045" x1="34.0769" y1="8.22469" x2="32.6871" y2="28.1868" gradientUnits="userSpaceOnUse">
<stop offset="0.196341" stop-color="white"/>
<stop offset="0.850001" stop-color="#A6C4FF"/>
</linearGradient>
<linearGradient id="paint13_linear_246_5045" x1="86.823" y1="8.23412" x2="85.4341" y2="28.1897" gradientUnits="userSpaceOnUse">
<stop offset="0.196341" stop-color="white"/>
<stop offset="0.850001" stop-color="#A6C4FF"/>
</linearGradient>
<linearGradient id="paint14_linear_246_5045" x1="106.77" y1="1.36594" x2="106.253" y2="6.31515" gradientUnits="userSpaceOnUse">
<stop offset="0.196341" stop-color="white"/>
<stop offset="0.850001" stop-color="#A6C4FF"/>
</linearGradient>
<linearGradient id="paint15_linear_246_5045" x1="11.7271" y1="103.1" x2="11.4689" y2="105.571" gradientUnits="userSpaceOnUse">
<stop offset="0.196341" stop-color="white"/>
<stop offset="0.850001" stop-color="#A6C4FF"/>
</linearGradient>
<linearGradient id="paint16_linear_246_5045" x1="13.3208" y1="3.13739" x2="13.0631" y2="5.60879" gradientUnits="userSpaceOnUse">
<stop offset="0.196341" stop-color="white"/>
<stop offset="0.850001" stop-color="#A6C4FF"/>
</linearGradient>
<linearGradient id="paint17_linear_246_5045" x1="77.3814" y1="89.0207" x2="77.1232" y2="91.492" gradientUnits="userSpaceOnUse">
<stop offset="0.196341" stop-color="white"/>
<stop offset="0.850001" stop-color="#A6C4FF"/>
</linearGradient>
<clipPath id="clip0_246_5045">
<rect width="125.947" height="120" fill="white"/>
</clipPath>
</defs>
</svg>
