<svg width="123" height="110" viewBox="0 0 123 110" fill="none" xmlns="http://www.w3.org/2000/svg">
<path d="M99.4114 73.0763C99.2926 72.8868 99.1318 72.7464 98.957 72.6622C98.915 72.585 55.7519 45.4847 55.7519 45.4847C55.5352 45.3443 55.2416 45.3934 54.9759 45.5759L1.10238 68.6403C1.00451 68.6824 0.920614 68.7456 0.857694 68.8228C0.724863 68.886 0.592031 68.9843 0.480174 69.1036C0.0956625 69.5247 0.0467243 70.1143 0.375307 70.4161L42.2101 108.978C42.4478 109.196 42.8183 109.203 43.1539 109.028C43.2238 109.007 43.2937 108.978 43.3567 108.936L99.1667 74.445C99.6002 74.1783 99.712 73.5677 99.4114 73.0763Z" fill="url(#paint0_linear_750_29712)"/>
<path d="M99.8171 64.6745L98.9642 65.0325L54.1092 41.8347C53.8855 41.7154 53.5919 41.7786 53.3402 41.9821L1.06063 67.3628L0.822934 67.5664L0.0888672 67.4962C0.0888672 67.4962 0.0888672 70.03 0.438423 70.3038L44.6642 106.08C44.9159 106.283 45.2864 106.262 45.608 106.066C45.6779 106.037 45.7408 106.009 45.8038 105.967L99.2788 67.9384C99.7052 67.6366 99.8171 64.6745 99.8171 64.6745Z" fill="url(#paint1_linear_750_29712)"/>
<path d="M99.4472 64.3025C99.3213 64.12 99.1535 63.9937 98.9648 63.9165C98.9158 63.8393 54.1098 39.5886 54.1098 39.5886C53.8861 39.4693 53.5925 39.5325 53.3408 39.736L1.06124 66.2397C0.963368 66.2889 0.886466 66.3591 0.823546 66.4433C0.690714 66.5205 0.564874 66.6188 0.460007 66.7521C0.103461 67.2014 0.0894787 67.7839 0.439034 68.0647L44.6648 103.84C44.9165 104.044 45.287 104.023 45.6086 103.826C45.6785 103.798 45.7414 103.77 45.8044 103.728L99.2794 65.6993C99.7058 65.3905 99.7757 64.7728 99.4472 64.3025Z" fill="url(#paint2_linear_750_29712)"/>
<path d="M45.0909 104.163C44.8881 104.163 44.6994 104.1 44.5456 103.981L0.326766 68.2051C0.117033 68.0296 -0.00181625 67.7699 0.00517486 67.4611C0.012166 67.1733 0.124024 66.8715 0.319775 66.6258C0.424641 66.4925 0.557473 66.3802 0.704286 66.2889C0.781188 66.1906 0.872072 66.1205 0.976939 66.0643L53.2425 39.5676C53.5571 39.329 53.9206 39.2658 54.2003 39.4132C93.6931 60.786 98.44 63.3901 99.0343 63.741L99.0413 63.734C99.265 63.8252 99.4607 63.9867 99.6006 64.1832C99.9921 64.7377 99.9012 65.4747 99.3978 65.8257L45.9228 103.855C45.8599 103.904 45.783 103.939 45.6991 103.974C45.5033 104.1 45.2936 104.163 45.0909 104.163ZM53.8647 39.715C53.7389 39.715 53.5921 39.7712 53.4592 39.8835L53.4243 39.9045L1.14473 66.4012C1.08181 66.4363 1.02588 66.4854 0.976939 66.5486L0.92101 66.5977C0.802161 66.6679 0.697295 66.7522 0.613402 66.8574C0.466588 67.0399 0.382695 67.2575 0.375704 67.4611C0.375704 67.6506 0.438624 67.812 0.557473 67.9033L44.7832 103.679C44.965 103.826 45.2586 103.812 45.5173 103.651L45.5523 103.637C45.6152 103.616 45.6641 103.588 45.7061 103.56L99.1811 65.5309C99.5167 65.2922 99.5656 64.7939 99.293 64.4078C99.1881 64.2604 99.0552 64.1481 98.8945 64.0849L98.8315 64.0499C97.4543 63.2637 54.4589 39.9887 54.0185 39.7501C53.9766 39.729 53.9206 39.715 53.8647 39.715Z" fill="white"/>
<path d="M94.8671 64.6746C94.7552 64.5131 94.6014 64.3938 94.4337 64.3236C94.3917 64.2534 54.06 42.4314 54.06 42.4314C53.8572 42.3191 53.5916 42.3823 53.3679 42.5648L6.31767 66.4153C6.23378 66.4574 6.16387 66.5206 6.10794 66.5978C5.98909 66.668 5.87723 66.7592 5.78635 66.8715C5.46476 67.2716 5.45077 67.805 5.76537 68.0507L45.5658 100.247C45.7895 100.429 46.1251 100.415 46.4187 100.233C46.4816 100.212 46.5445 100.184 46.6005 100.142L94.7273 65.9169C95.0978 65.6502 95.1607 65.0957 94.8671 64.6746Z" fill="url(#paint3_linear_750_29712)"/>
<path opacity="0.5" d="M94.497 55.887C94.3851 55.7255 94.2313 55.6062 94.0635 55.536C94.0216 55.4658 53.6899 33.6438 53.6899 33.6438C53.4871 33.5315 53.2215 33.5947 52.9977 33.7772L5.94756 57.6277C5.86366 57.6698 5.79375 57.733 5.73782 57.8102C5.61897 57.8804 5.50712 57.9716 5.41623 58.0839C5.09464 58.484 5.08066 59.0175 5.39526 59.2631L45.1957 91.4592C45.4194 91.6417 45.7549 91.6277 46.0486 91.4452C46.1115 91.4241 46.1744 91.3961 46.2303 91.354L94.3572 57.1293C94.7277 56.8626 94.7906 56.3081 94.497 55.887Z" fill="#ACDDF3"/>
<path opacity="0.7" d="M87.8414 27.4108C87.7575 27.2915 87.6457 27.2072 87.5268 27.1581C87.4919 27.109 58.0872 11.1969 58.0872 11.1969C57.9404 11.1197 57.7447 11.1618 57.5839 11.2952L23.2715 28.6812C23.2086 28.7093 23.1596 28.7584 23.1177 28.8146C23.0338 28.8637 22.9499 28.9269 22.88 29.0181C22.6423 29.3129 22.6353 29.699 22.866 29.8815L51.8931 53.36C52.0609 53.4934 52.3056 53.4793 52.5153 53.353C52.5573 53.339 52.6062 53.3179 52.6482 53.2898L87.7435 28.3303C88.0092 28.1197 88.0581 27.7196 87.8414 27.4108Z" fill="url(#paint4_linear_750_29712)"/>
<path d="M109.032 8.17888C109.542 9.06327 109.242 10.1933 108.368 10.7057C108.368 10.7057 67.4488 33.5876 66.9384 32.7103C66.4281 31.8259 106.522 7.51207 106.522 7.51207C107.396 6.99267 108.522 7.29448 109.032 8.17888Z" fill="url(#paint5_linear_750_29712)"/>
<path d="M60.667 20.1048L40.5908 31.8135L41.1527 32.7846L61.2288 21.0759L60.667 20.1048Z" fill="#F6F6F6"/>
<path d="M63.8538 21.6251L40.8779 35.2512L41.4468 36.2182L64.4227 22.592L63.8538 21.6251Z" fill="#F6F6F6"/>
<path d="M67.3577 23.0095L46.0449 35.8586L46.6208 36.8214L67.9336 23.9722L67.3577 23.0095Z" fill="#F6F6F6"/>
<path d="M69.906 24.4801L48.8965 37.8259L49.4946 38.775L70.5041 25.4291L69.906 24.4801Z" fill="#F6F6F6"/>
<path d="M49.3763 77.4422L49.2994 74.4521C49.8586 74.438 50.4249 74.3959 50.9842 74.3187L51.4177 77.2807L51.3408 77.2878C50.7046 77.372 50.0404 77.4211 49.3763 77.4422ZM47.3768 77.386C46.6987 77.3299 46.0275 77.2386 45.3843 77.1053L45.9646 74.1713C46.5029 74.2766 47.0552 74.3538 47.6215 74.403L47.3768 77.386ZM53.3752 76.9087L52.6761 74.0029C53.2284 73.8695 53.7667 73.7081 54.291 73.5186L55.2977 76.3332C54.6755 76.5578 54.0323 76.7543 53.3752 76.9087ZM43.4198 76.5859C42.7627 76.3613 42.1195 76.1015 41.5252 75.7997L42.8535 73.1185C43.3289 73.3571 43.8323 73.5677 44.3636 73.7432L43.4198 76.5859ZM57.1504 75.547L55.8291 72.8658C56.3324 72.6131 56.8148 72.3394 57.2622 72.0376L58.9051 74.5293C58.3598 74.8943 57.7656 75.2382 57.1504 75.547ZM39.7355 74.7258C39.1483 74.2977 38.6099 73.8274 38.1345 73.322L40.3088 71.2725C40.6513 71.6375 41.0498 71.9814 41.4833 72.2973L39.7355 74.7258ZM60.5411 73.2799L58.5626 71.0409C58.9751 70.6759 59.3456 70.2898 59.6742 69.8827L61.9882 71.7708C61.5548 72.2973 61.0724 72.8026 60.5411 73.2799ZM36.8272 71.5673C36.4497 70.9145 36.1631 70.2196 35.9673 69.5107L38.8406 68.7246C38.9665 69.1878 39.1552 69.6371 39.4069 70.0722L36.8272 71.5673ZM63.1627 69.988L60.5341 68.5842C60.7788 68.128 60.9605 67.6577 61.0864 67.1874L63.9667 67.9525C63.7849 68.6474 63.5123 69.3282 63.1627 69.988ZM38.6589 67.2927L35.6807 67.2857C35.6807 66.5487 35.7855 65.8047 35.9743 65.0747L38.8546 65.8538C38.7218 66.3241 38.6589 66.8154 38.6589 67.2927ZM64.2533 65.7415H61.2751C61.2751 65.5099 61.2611 65.2783 61.2262 65.0396C61.1912 64.794 61.1423 64.5483 61.0794 64.3096L63.9527 63.5165C64.0576 63.8885 64.1345 64.2745 64.1834 64.6536C64.2324 65.0186 64.2533 65.3835 64.2533 65.7415ZM39.4069 64.45L36.7783 63.0392C37.1069 62.4286 37.5053 61.8319 37.9598 61.2634L40.2668 63.1515C39.9383 63.5727 39.6446 64.0078 39.4069 64.45ZM60.5201 62.969C60.2754 62.5479 59.9748 62.1478 59.6182 61.7688L61.7855 59.7122C62.2958 60.2527 62.7363 60.8423 63.0928 61.4599L60.5201 62.969ZM41.3854 62.0004L39.4139 59.7613C39.9173 59.3191 40.4626 58.898 41.0428 58.512L42.6858 61.0107C42.2174 61.3125 41.7839 61.6494 41.3854 62.0004ZM58.4367 60.744C58.0173 60.4422 57.5559 60.1614 57.0665 59.9228L58.3878 57.2415C59.024 57.5574 59.6252 57.9224 60.1775 58.3154L58.4367 60.744ZM44.1189 60.1825L42.7976 57.5012C43.3919 57.2064 44.0211 56.9397 44.6573 56.7151L45.657 59.5297C45.1326 59.7122 44.6153 59.9368 44.1189 60.1825ZM55.5564 59.2981C55.046 59.1296 54.5077 58.9822 53.9554 58.8769L54.5357 55.943C55.2068 56.0764 55.871 56.2518 56.5002 56.4624L55.5564 59.2981ZM47.2719 59.0454L46.5798 56.1395C47.223 55.9851 47.8802 55.8658 48.5443 55.7746L48.9358 58.7436C48.3695 58.8138 47.8102 58.9191 47.2719 59.0454ZM52.2985 58.6453C51.7393 58.6032 51.18 58.5892 50.6137 58.6032L50.5298 55.6131C51.2009 55.5921 51.8721 55.6131 52.5292 55.6622L52.2985 58.6453Z" fill="#ACDDF3"/>
<path d="M49.418 72.7325C49.1034 72.7325 48.7888 72.7184 48.4812 72.6903L48.7608 69.7143C49.2712 69.7634 49.8235 69.7564 50.3688 69.6792L50.8162 72.6342L50.7323 72.6482C50.3198 72.7044 49.8654 72.7325 49.418 72.7325ZM46.223 72.185C45.4191 71.8902 44.706 71.4901 44.1047 70.9918L45.9923 68.6755C46.3419 68.9633 46.7683 69.1949 47.2507 69.3774L46.223 72.185ZM52.9974 72.0937L51.9557 69.2932C52.4661 69.1036 52.9275 68.858 53.333 68.5702L55.0528 71.0128C54.4376 71.448 53.7455 71.813 52.9974 72.0937ZM56.7936 69.3002L54.3677 67.5595C54.6333 67.1875 54.7941 66.8084 54.8501 66.4294L57.8003 66.8646C57.6745 67.7209 57.3389 68.5421 56.7936 69.3002ZM42.4898 68.9071C42.301 68.4789 42.1752 68.0227 42.1123 67.5595C42.0843 67.3489 42.0703 67.1313 42.0703 66.9207C42.0703 66.6751 42.0913 66.4224 42.1262 66.1767L45.0695 66.6259C45.0555 66.7242 45.0485 66.8225 45.0485 66.9207C45.0485 67.005 45.0555 67.0892 45.0625 67.1734C45.0835 67.3559 45.1394 67.5384 45.2093 67.7139L42.4898 68.9071ZM45.5659 65.4889L43.1469 63.7411C43.6014 63.1024 44.1886 62.5268 44.8877 62.0355L46.6006 64.4781C46.1741 64.7799 45.8245 65.1168 45.5659 65.4889ZM54.7102 65.3415C54.5564 64.9905 54.2978 64.6606 53.9412 64.3728L55.8218 62.0496C56.5419 62.6391 57.0872 63.341 57.4368 64.1272L54.7102 65.3415ZM47.9848 63.7622L46.9501 60.9546C47.6562 60.6949 48.3973 60.5054 49.1593 60.4071L49.5508 63.3761C49.0055 63.4463 48.4812 63.5727 47.9848 63.7622ZM52.6758 63.678C52.2074 63.5025 51.6901 63.3902 51.1518 63.341L51.4244 60.365C52.2214 60.4352 52.9834 60.6107 53.6895 60.8704L52.6758 63.678Z" fill="#ACDDF3"/>
<path d="M47.9162 5.6994L4.33594 27.3982L4.83292 28.4043L48.4132 6.70553L47.9162 5.6994Z" fill="#ACDDF3"/>
<path d="M8.80661 22.5467L8.32422 21.5359L10.0021 20.7217L10.4845 21.7325L8.80661 22.5467ZM12.1623 20.9253L11.68 19.9145L13.3578 19.1003L13.8402 20.1111L12.1623 20.9253ZM15.5181 19.3039L15.0357 18.2931L16.7136 17.4789L17.1959 18.4897L15.5181 19.3039ZM18.8738 17.6825L18.3914 16.6718L20.0693 15.8576L20.5517 16.8683L18.8738 17.6825ZM22.2295 16.0541L21.7472 15.0434L23.425 14.2291L23.9074 15.2399L22.2295 16.0541ZM25.5853 14.4327L25.1029 13.422L26.7808 12.6078L27.2631 13.6185L25.5853 14.4327ZM28.941 12.8113L28.4586 11.8006L30.1365 10.9864L30.6189 11.9971L28.941 12.8113ZM32.2967 11.1829L31.8144 10.1722L33.4922 9.35797L33.9746 10.3687L32.2967 11.1829ZM35.6525 9.56152L35.1701 8.55078L36.848 7.73658L37.3303 8.74732L35.6525 9.56152ZM39.0082 7.94013L38.5258 6.9294L40.2037 6.11519L40.6861 7.12593L39.0082 7.94013ZM42.3639 6.31172L41.8816 5.30099L43.5594 4.48679L44.0418 5.49752L42.3639 6.31172ZM45.7197 4.69034L45.2373 3.6796L46.9152 2.8654L47.3975 3.87613L45.7197 4.69034ZM49.0754 3.06895L48.593 2.05822L50.2709 1.24401L50.7533 2.25475L49.0754 3.06895ZM52.4311 1.44054L51.9488 0.429809L52.1445 0.331543L52.6269 1.34228L52.4311 1.44054Z" fill="#ACDDF3"/>
<path d="M60.3802 104.985L59.751 104.058L61.289 103.005L61.9182 103.932L60.3802 104.985ZM63.4633 102.879L62.8341 101.953L64.3721 100.9L65.0013 101.826L63.4633 102.879ZM66.5393 100.773L65.9101 99.8468L67.4482 98.794L68.0774 99.7205L66.5393 100.773ZM69.6224 98.6746L68.9932 97.7481L70.5313 96.6953L71.1605 97.6218L69.6224 98.6746ZM72.6985 96.5689L72.0693 95.6424L73.6074 94.5896L74.2366 95.5161L72.6985 96.5689ZM75.7816 94.4632L75.1524 93.5367L76.6904 92.4839L77.3196 93.4104L75.7816 94.4632ZM78.8577 92.3575L78.2285 91.431L79.7665 90.3782L80.3957 91.3047L78.8577 92.3575ZM81.9408 90.2519L81.3116 89.3253L82.8496 88.2725L83.4788 89.199L81.9408 90.2519ZM85.0169 88.1532L84.3876 87.2267L85.9257 86.1738L86.5549 87.1003L85.0169 88.1532ZM88.0999 86.0475L87.4707 85.121L89.0088 84.0681L89.638 84.9946L88.0999 86.0475ZM91.176 83.9418L90.5468 83.0153L92.0849 81.9624L92.7141 82.8889L91.176 83.9418ZM94.2591 81.8361L93.6299 80.9096L95.1679 79.8567L95.7971 80.7832L94.2591 81.8361ZM97.3352 79.7304L96.706 78.8039L98.244 77.751L98.8732 78.6775L97.3352 79.7304ZM100.418 77.6317L99.7891 76.7052L99.9708 76.5789L100.6 77.5054L100.418 77.6317Z" fill="url(#paint6_linear_750_29712)"/>
<defs>
<linearGradient id="paint0_linear_750_29712" x1="51.0401" y1="55.6161" x2="48.166" y2="92.8001" gradientUnits="userSpaceOnUse">
<stop offset="0.196341" stop-color="white"/>
<stop offset="0.850001" stop-color="#A6C4FF"/>
</linearGradient>
<linearGradient id="paint1_linear_750_29712" x1="49.9565" y1="106.22" x2="49.9565" y2="41.773" gradientUnits="userSpaceOnUse">
<stop stop-color="#CA115A"/>
<stop offset="0.00738025" stop-color="#C9235F"/>
<stop offset="0.0477" stop-color="#C75377"/>
<stop offset="0.0931" stop-color="#C57991"/>
<stop offset="0.1419" stop-color="#C295A9"/>
<stop offset="0.195" stop-color="#BDACBE"/>
<stop offset="0.2537" stop-color="#B9BDCF"/>
<stop offset="0.32" stop-color="#B5C9DC"/>
<stop offset="0.3974" stop-color="#B1D2E7"/>
<stop offset="0.4931" stop-color="#AED9EE"/>
<stop offset="0.6274" stop-color="#ACDCF2"/>
<stop offset="1" stop-color="#ACDDF3"/>
</linearGradient>
<linearGradient id="paint2_linear_750_29712" x1="49.923" y1="103.976" x2="49.923" y2="39.529" gradientUnits="userSpaceOnUse">
<stop stop-color="white"/>
<stop offset="0.2187" stop-color="#FCFEFF"/>
<stop offset="0.4228" stop-color="#F3FAFE"/>
<stop offset="0.6211" stop-color="#E3F3FC"/>
<stop offset="0.8146" stop-color="#CCE9F8"/>
<stop offset="1" stop-color="#ACDDF3"/>
</linearGradient>
<linearGradient id="paint3_linear_750_29712" x1="51.3491" y1="51.6674" x2="48.7068" y2="85.4954" gradientUnits="userSpaceOnUse">
<stop offset="0.196341" stop-color="white"/>
<stop offset="0.850001" stop-color="#A6C4FF"/>
</linearGradient>
<linearGradient id="paint4_linear_750_29712" x1="38.4854" y1="45.5599" x2="72.3448" y2="11.835" gradientUnits="userSpaceOnUse">
<stop stop-color="#ACDDF3"/>
<stop offset="0.1901" stop-color="#AEDCF0"/>
<stop offset="0.3544" stop-color="#B6D8E8"/>
<stop offset="0.5091" stop-color="#C2D1DA"/>
<stop offset="0.658" stop-color="#D0C5C6"/>
<stop offset="0.8027" stop-color="#DFB3AC"/>
<stop offset="0.9424" stop-color="#ED988B"/>
<stop offset="0.9879" stop-color="#F18D7F"/>
</linearGradient>
<linearGradient id="paint5_linear_750_29712" x1="89.6022" y1="25.3396" x2="85.9493" y2="14.2253" gradientUnits="userSpaceOnUse">
<stop stop-color="white"/>
<stop offset="0.2187" stop-color="#FCFEFF"/>
<stop offset="0.4228" stop-color="#F3FAFE"/>
<stop offset="0.6211" stop-color="#E3F3FC"/>
<stop offset="0.8146" stop-color="#CCE9F8"/>
<stop offset="1" stop-color="#ACDDF3"/>
</linearGradient>
<linearGradient id="paint6_linear_750_29712" x1="80.6567" y1="81.1295" x2="79.2692" y2="97.6814" gradientUnits="userSpaceOnUse">
<stop offset="0.196341" stop-color="white"/>
<stop offset="0.850001" stop-color="#A6C4FF"/>
</linearGradient>
</defs>
</svg>
