<?xml version="1.0" encoding="utf-8"?>
<!-- Generator: Adobe Illustrator 24.0.1, SVG Export Plug-In . SVG Version: 6.00 Build 0)  -->
<svg version="1.1" id="Layer_1" xmlns="http://www.w3.org/2000/svg" xmlns:xlink="http://www.w3.org/1999/xlink" x="0px" y="0px"
	 viewBox="0 0 91 91" style="enable-background:new 0 0 91 91;" xml:space="preserve">
<style type="text/css">
	.st0{fill:#2F3241;fill-opacity:0.5;}
	.st1{fill:#F27F16;}
</style>
<g>
	<circle class="st0" cx="45.5" cy="45.5" r="45.5"/>
</g>
<g>
	<path class="st1" d="M44.8,28.2c0.2,0,0.5,0,0.7,0.1l12.7,4.8c0.2,0.1,0.5,0.3,0.6,0.5c0.2,0.2,0.2,0.5,0.2,0.7
		c0,0.3-0.1,0.5-0.2,0.7s-0.4,0.4-0.6,0.5l-1.5,0.6c-1.5,0.6-2.7,1.7-3.5,3l-0.9,1.6c0.1,1,0.6,2.2,1.3,3.4c0.6,1.2,1.3,2.3,2.2,3.4
		l4.2,2.1c0.8,0.4,1.5,1,1.9,1.8s0.7,1.6,0.7,2.5v4.9c0,0.2,0,0.3-0.1,0.5s-0.2,0.3-0.3,0.4c-0.1,0.1-0.3,0.2-0.4,0.3
		s-0.3,0.1-0.5,0.1h-1.5c-6.2,0-13.2-2.1-19-5.2c-5.8-3.1-10.7-7.3-12.2-12c-0.1-0.2-0.1-0.4-0.1-0.5c0-0.2,0.1-0.4,0.2-0.5
		c0.6-1.1,1.2-2.1,1.9-3.1c0.3-0.4,0.8-1,1.3-1.5l0.3-0.3c0.3-0.3,0.6-0.6,0.8-0.9c0.6-0.6,1.4-1.5,2.4-2.3c1.2-1.1,2.8-2.3,4.4-3.4
		C41.3,29.4,43.1,28.5,44.8,28.2L44.8,28.2z M53.2,48.6c-0.8-1-1.5-2.1-2.1-3.3c-0.7-1.3-1.2-2.7-1.5-4.1l-2.2-1l2.8,6.9
		c0.1,0.3,0.1,0.7,0,1L49,51l2.1,0.8L53.2,48.6z M53.8,52.6c2.2,0.6,3.4,1,6.1,1.3l0,0c0-0.8-0.5-1.6-1.2-2l-3.4-1.7L53.8,52.6
		L53.8,52.6z M59.9,56.5c-3.3-0.4-4.6-0.8-7-1.5c-0.6-0.2-1.1-0.3-1.7-0.5L46.8,53h-0.1c-3.6-1.7-5.7-3-8.2-4.9
		c-3.1-2.2-5.4-4.4-6.9-6.2c-0.2,0.3-0.3,0.5-0.5,0.8c1.5,3.5,5.5,7.2,10.8,10c5.5,2.9,12.1,4.9,17.7,4.9h0.2L59.9,56.5L59.9,56.5z
		 M33.3,39.6c1,1.3,2.7,3.1,5.1,5l0.7-4.1L36,36.6c-0.4,0.4-0.8,0.8-1.1,1.2c-0.2,0.3-0.6,0.7-0.9,1l-0.3,0.3
		C33.6,39.3,33.4,39.5,33.3,39.6L33.3,39.6z M38,34.9l3.5,4.5c0.1,0.1,0.2,0.3,0.2,0.5s0.1,0.4,0,0.5l-1.1,6
		c1.9,1.3,3.8,2.5,5.9,3.5l1-2.3l-3.8-9.5c-0.1-0.2-0.1-0.5-0.1-0.8c0.1-0.3,0.2-0.5,0.4-0.7s0.4-0.3,0.7-0.3s0.5,0,0.8,0.1l4.8,2.2
		l0.6-0.9c0.8-1.4,2-2.5,3.3-3.4l-9.4-3.5c-1.2,0.3-2.5,0.9-3.8,1.7C40,33.3,39,34.1,38,34.9L38,34.9z"/>
</g>
</svg>
